G04*
G04 #@! TF.GenerationSoftware,Altium Limited,Altium Designer,26.6.0 (10)*
G04*
G04 Layer_Color=16711935*
G04 Board_Origin=26095670|18412992*
%FSLAX43Y43*%
%MOMM*%
G71*
G04*
G04 #@! TF.SameCoordinates,AA4958E8-8825-4BA5-98E3-CBBBAC72795B*
G04*
G04*
G04 #@! TF.FilePolarity,Negative*
G04*
G01*
G75*
%ADD10C,0.250*%
%ADD14R,1.100X1.900*%
%ADD15R,0.700X2.900*%
%ADD18R,0.800X0.800*%
%ADD28C,1.550*%
%ADD29C,1.500*%
%ADD30R,1.550X1.550*%
%ADD35C,0.256*%
G36*
X17909Y39384D02*
Y40781D01*
X16809D01*
Y39384D01*
X17909D01*
D02*
G37*
G36*
X20322D02*
Y40781D01*
X19222D01*
Y39384D01*
X20322D01*
D02*
G37*
G36*
X22837Y39409D02*
Y40806D01*
X21737D01*
Y39409D01*
X22837D01*
D02*
G37*
D10*
X34649Y48700D02*
G03*
X32651Y48700I-999J-50D01*
G01*
Y53700D02*
G03*
X34649Y53700I999J50D01*
G01*
X5251Y53725D02*
G03*
X7249Y53725I999J50D01*
G01*
Y48725D02*
G03*
X5251Y48725I-999J-50D01*
G01*
X17225Y4826D02*
G03*
X17225Y6824I-50J999D01*
G01*
X22225D02*
G03*
X22225Y4826I50J-999D01*
G01*
D14*
X11250Y61342D02*
D03*
X28650D02*
D03*
D15*
X26700Y57542D02*
D03*
X25200D02*
D03*
X13200D02*
D03*
X14700D02*
D03*
X16200D02*
D03*
X17700D02*
D03*
X19200D02*
D03*
X20700D02*
D03*
X22200D02*
D03*
X23700D02*
D03*
D18*
X23887Y53077D02*
D03*
Y54577D02*
D03*
X22363Y53065D02*
D03*
Y54565D02*
D03*
X20839Y53065D02*
D03*
Y54565D02*
D03*
X19315Y53065D02*
D03*
Y54565D02*
D03*
X17791Y53077D02*
D03*
Y54577D02*
D03*
X13219Y53065D02*
D03*
Y54565D02*
D03*
X14743Y53065D02*
D03*
Y54565D02*
D03*
X16267Y53065D02*
D03*
Y54565D02*
D03*
D28*
X31380Y10635D02*
D03*
X8520D02*
D03*
X31380Y18255D02*
D03*
X8520Y13175D02*
D03*
Y25875D02*
D03*
Y20795D02*
D03*
Y18255D02*
D03*
Y23335D02*
D03*
Y15715D02*
D03*
X31380Y13175D02*
D03*
Y25875D02*
D03*
Y20795D02*
D03*
Y23335D02*
D03*
Y15715D02*
D03*
D29*
X37500Y62000D02*
D03*
Y2500D02*
D03*
X2500Y69500D02*
D03*
Y2500D02*
D03*
D30*
X8520Y28415D02*
D03*
X31380D02*
D03*
D35*
X22287Y40679D02*
D03*
Y39671D02*
D03*
X19772Y40654D02*
D03*
Y39646D02*
D03*
X17359Y40654D02*
D03*
Y39646D02*
D03*
M02*
