G04*
G04 #@! TF.GenerationSoftware,Altium Limited,Altium Designer,26.6.0 (10)*
G04*
G04 Layer_Color=128*
G04 Board_Origin=26095670|18412992*
%FSLAX43Y43*%
%MOMM*%
G71*
G04*
G04 #@! TF.SameCoordinates,CE6DEE61-284C-4084-9FC4-88DD9EF3B0BD*
G04*
G04*
G04 #@! TF.FilePolarity,Positive*
G04*
G01*
G75*
%ADD10C,0.250*%
%ADD14C,0.254*%
%ADD16R,1.100X1.900*%
%ADD17R,0.700X2.900*%
%ADD20R,0.800X0.800*%
D10*
X34649Y48700D02*
G03*
X32651Y48700I-999J-50D01*
G01*
Y53700D02*
G03*
X34649Y53700I999J50D01*
G01*
X5251Y53725D02*
G03*
X7249Y53725I999J50D01*
G01*
Y48725D02*
G03*
X5251Y48725I-999J-50D01*
G01*
X17225Y4826D02*
G03*
X17225Y6824I-50J999D01*
G01*
X22225D02*
G03*
X22225Y4826I50J-999D01*
G01*
D14*
X9536Y63975D02*
G03*
X7250Y61689I0J-2286D01*
G01*
X32650D02*
G03*
X30364Y63975I-2286J0D01*
G01*
X0Y0D02*
X40000D01*
X0Y72000D02*
X40000D01*
Y0D02*
Y72000D01*
X0Y0D02*
Y72000D01*
X5250Y4825D02*
Y48700D01*
Y4825D02*
X5900D01*
X17200D01*
X34650D02*
Y5200D01*
X22250Y4825D02*
X34650D01*
Y5200D02*
Y48675D01*
Y53725D02*
Y66150D01*
X5250D02*
X34650D01*
X5250Y53750D02*
Y66150D01*
X7250Y6825D02*
Y61689D01*
Y6825D02*
X30110D01*
X32650Y9365D01*
Y61689D01*
X9536Y63975D02*
X30364D01*
D16*
X11250Y61342D02*
D03*
X28650D02*
D03*
D17*
X26700Y57542D02*
D03*
X25200D02*
D03*
X13200D02*
D03*
X14700D02*
D03*
X16200D02*
D03*
X17700D02*
D03*
X19200D02*
D03*
X20700D02*
D03*
X22200D02*
D03*
X23700D02*
D03*
D20*
X23887Y53077D02*
D03*
Y54577D02*
D03*
X22363Y53065D02*
D03*
Y54565D02*
D03*
X20839Y53065D02*
D03*
Y54565D02*
D03*
X19315Y53065D02*
D03*
Y54565D02*
D03*
X17791Y53077D02*
D03*
Y54577D02*
D03*
X13219Y53065D02*
D03*
Y54565D02*
D03*
X14743Y53065D02*
D03*
Y54565D02*
D03*
X16267Y53065D02*
D03*
Y54565D02*
D03*
M02*
