G04*
G04 #@! TF.GenerationSoftware,Altium Limited,Altium Designer,26.6.0 (10)*
G04*
G04 Layer_Physical_Order=2*
G04 Layer_Color=16711680*
G04 Board_Origin=26095670|18412992*
%FSLAX43Y43*%
%MOMM*%
G71*
G04*
G04 #@! TF.SameCoordinates,CE6DEE61-284C-4084-9FC4-88DD9EF3B0BD*
G04*
G04*
G04 #@! TF.FilePolarity,Positive*
G04*
G01*
G75*
%ADD10C,0.250*%
%ADD13C,0.150*%
%ADD14C,0.254*%
%ADD16R,1.100X1.900*%
%ADD17R,0.700X2.900*%
%ADD20R,0.800X0.800*%
%ADD29C,1.550*%
%ADD30C,1.500*%
%ADD31R,1.550X1.550*%
%ADD32C,0.600*%
%ADD34C,0.300*%
%ADD35C,0.254*%
G36*
X30983Y63731D02*
X31370Y63571D01*
X31718Y63339D01*
X32014Y63043D01*
X32246Y62695D01*
X32406Y62308D01*
X32488Y61898D01*
Y61689D01*
Y54127D01*
X32474Y54124D01*
X32326Y54024D01*
X32226Y53876D01*
X32191Y53700D01*
X32226Y53524D01*
X32326Y53376D01*
X32474Y53276D01*
X32488Y53273D01*
Y53127D01*
X32474Y53124D01*
X32326Y53024D01*
X32226Y52876D01*
X32191Y52700D01*
X32226Y52524D01*
X32326Y52376D01*
X32474Y52276D01*
X32488Y52273D01*
Y52127D01*
X32474Y52124D01*
X32326Y52024D01*
X32226Y51876D01*
X32191Y51700D01*
X32226Y51524D01*
X32326Y51376D01*
X32474Y51276D01*
X32488Y51273D01*
Y51127D01*
X32474Y51124D01*
X32326Y51024D01*
X32226Y50876D01*
X32191Y50700D01*
X32226Y50524D01*
X32326Y50376D01*
X32474Y50276D01*
X32488Y50273D01*
Y50127D01*
X32474Y50124D01*
X32326Y50024D01*
X32226Y49876D01*
X32191Y49700D01*
X32226Y49524D01*
X32326Y49376D01*
X32474Y49276D01*
X32488Y49273D01*
Y49127D01*
X32474Y49124D01*
X32326Y49024D01*
X32226Y48876D01*
X32191Y48700D01*
X32226Y48524D01*
X32326Y48376D01*
X32474Y48276D01*
X32488Y48273D01*
Y11042D01*
X32338Y11012D01*
X32279Y11154D01*
X32114Y11369D01*
X31899Y11534D01*
X31649Y11638D01*
X31507Y11656D01*
Y10635D01*
Y9614D01*
X31649Y9632D01*
X31899Y9736D01*
X32114Y9901D01*
X32279Y10116D01*
X32338Y10258D01*
X32488Y10228D01*
Y9432D01*
X30043Y6987D01*
X22652D01*
X22649Y7001D01*
X22549Y7149D01*
X22401Y7249D01*
X22225Y7284D01*
X22049Y7249D01*
X21901Y7149D01*
X21801Y7001D01*
X21798Y6987D01*
X21652D01*
X21649Y7001D01*
X21549Y7149D01*
X21401Y7249D01*
X21225Y7284D01*
X21049Y7249D01*
X20901Y7149D01*
X20801Y7001D01*
X20798Y6987D01*
X20652D01*
X20649Y7001D01*
X20549Y7149D01*
X20401Y7249D01*
X20225Y7284D01*
X20049Y7249D01*
X19901Y7149D01*
X19801Y7001D01*
X19798Y6987D01*
X19652D01*
X19649Y7001D01*
X19549Y7149D01*
X19401Y7249D01*
X19225Y7284D01*
X19049Y7249D01*
X18901Y7149D01*
X18801Y7001D01*
X18798Y6987D01*
X18652D01*
X18649Y7001D01*
X18549Y7149D01*
X18401Y7249D01*
X18225Y7284D01*
X18049Y7249D01*
X17901Y7149D01*
X17801Y7001D01*
X17798Y6987D01*
X17652D01*
X17649Y7001D01*
X17549Y7149D01*
X17401Y7249D01*
X17225Y7284D01*
X17049Y7249D01*
X16901Y7149D01*
X16801Y7001D01*
X16798Y6987D01*
X7412D01*
Y10228D01*
X7562Y10258D01*
X7621Y10116D01*
X7786Y9901D01*
X8001Y9736D01*
X8251Y9632D01*
X8393Y9614D01*
Y10635D01*
Y11656D01*
X8251Y11638D01*
X8001Y11534D01*
X7786Y11369D01*
X7621Y11154D01*
X7562Y11012D01*
X7412Y11042D01*
Y48298D01*
X7426Y48301D01*
X7574Y48401D01*
X7674Y48549D01*
X7709Y48725D01*
X7674Y48901D01*
X7574Y49049D01*
X7426Y49149D01*
X7412Y49152D01*
Y49298D01*
X7426Y49301D01*
X7574Y49401D01*
X7674Y49549D01*
X7709Y49725D01*
X7674Y49901D01*
X7574Y50049D01*
X7426Y50149D01*
X7412Y50152D01*
Y50298D01*
X7426Y50301D01*
X7574Y50401D01*
X7674Y50549D01*
X7709Y50725D01*
X7674Y50901D01*
X7574Y51049D01*
X7426Y51149D01*
X7412Y51152D01*
Y51298D01*
X7426Y51301D01*
X7574Y51401D01*
X7674Y51549D01*
X7709Y51725D01*
X7674Y51901D01*
X7574Y52049D01*
X7426Y52149D01*
X7412Y52152D01*
Y52298D01*
X7426Y52301D01*
X7574Y52401D01*
X7674Y52549D01*
X7709Y52725D01*
X7674Y52901D01*
X7574Y53049D01*
X7426Y53149D01*
X7412Y53152D01*
Y53298D01*
X7426Y53301D01*
X7574Y53401D01*
X7674Y53549D01*
X7709Y53725D01*
X7674Y53901D01*
X7574Y54049D01*
X7426Y54149D01*
X7412Y54152D01*
Y61689D01*
Y61898D01*
X7494Y62308D01*
X7654Y62695D01*
X7886Y63043D01*
X8182Y63339D01*
X8530Y63571D01*
X8917Y63731D01*
X9327Y63813D01*
X30573D01*
X30983Y63731D01*
D02*
G37*
%LPC*%
G36*
X12054Y62546D02*
X11377D01*
Y61469D01*
X12054D01*
Y62546D01*
D02*
G37*
G36*
X29454D02*
X28777D01*
Y61469D01*
X29454D01*
Y62546D01*
D02*
G37*
G36*
X28523D02*
X27846D01*
Y61469D01*
X28523D01*
Y62546D01*
D02*
G37*
G36*
X11123D02*
X10446D01*
Y61469D01*
X11123D01*
Y62546D01*
D02*
G37*
G36*
X29454Y61215D02*
X28777D01*
Y60138D01*
X29454D01*
Y61215D01*
D02*
G37*
G36*
X28523D02*
X27846D01*
Y60138D01*
X28523D01*
Y61215D01*
D02*
G37*
G36*
X12054D02*
X11377D01*
Y60138D01*
X12054D01*
Y61215D01*
D02*
G37*
G36*
X11123D02*
X10446D01*
Y60138D01*
X11123D01*
Y61215D01*
D02*
G37*
G36*
X29170Y59913D02*
X28995Y59878D01*
X28846Y59778D01*
X28833Y59760D01*
X15029D01*
X15017Y59778D01*
X14868Y59878D01*
X14692Y59913D01*
X14517Y59878D01*
X14368Y59778D01*
X14347Y59747D01*
X11515D01*
X11511Y59753D01*
X11363Y59852D01*
X11187Y59887D01*
X11011Y59852D01*
X10863Y59753D01*
X10763Y59604D01*
X10728Y59428D01*
X10763Y59253D01*
X10863Y59104D01*
X11011Y59005D01*
X11187Y58970D01*
X11363Y59005D01*
X11511Y59104D01*
X11532Y59135D01*
X12700D01*
Y55942D01*
X12971D01*
Y55115D01*
X12669D01*
Y54015D01*
X13769D01*
Y55115D01*
X13429D01*
Y55942D01*
X13700D01*
Y59135D01*
X14200D01*
Y55942D01*
X14471D01*
Y55115D01*
X14193D01*
Y54015D01*
X15293D01*
Y55115D01*
X14929D01*
Y55942D01*
X15200D01*
Y59142D01*
X15348Y59148D01*
X15552D01*
X15700Y59142D01*
X15700Y58998D01*
Y55942D01*
X15971D01*
Y55115D01*
X15717D01*
Y54015D01*
X16817D01*
Y55115D01*
X16429D01*
Y55942D01*
X16700D01*
Y58998D01*
X16700Y59142D01*
X16848Y59148D01*
X17052D01*
X17200Y59142D01*
X17200Y58998D01*
Y55942D01*
X17471D01*
Y55127D01*
X17241D01*
Y54027D01*
X18341D01*
Y55127D01*
X17929D01*
Y55942D01*
X18200D01*
Y58998D01*
X18200Y59142D01*
X18348Y59148D01*
X18552D01*
X18700Y59142D01*
X18700Y58998D01*
Y55942D01*
X18971D01*
Y55115D01*
X18765D01*
Y54015D01*
X19865D01*
Y55115D01*
X19429D01*
Y55942D01*
X19700D01*
Y58998D01*
X19700Y59142D01*
X19848Y59148D01*
X20052D01*
X20200Y59142D01*
X20200Y58998D01*
Y55942D01*
X20471D01*
Y55115D01*
X20289D01*
Y54015D01*
X21389D01*
Y55115D01*
X20929D01*
Y55942D01*
X21200D01*
Y58998D01*
X21200Y59142D01*
X21348Y59148D01*
X21552D01*
X21700Y59142D01*
X21700Y58998D01*
Y55942D01*
X21971D01*
Y55115D01*
X21813D01*
Y54015D01*
X22913D01*
Y55115D01*
X22429D01*
Y55942D01*
X22700D01*
Y58998D01*
X22700Y59142D01*
X22848Y59148D01*
X23052D01*
X23200Y59142D01*
X23200Y58998D01*
Y55942D01*
X23471D01*
Y55127D01*
X23337D01*
Y54027D01*
X24437D01*
Y55127D01*
X23929D01*
Y55942D01*
X24200D01*
Y58998D01*
X24200Y59142D01*
X24348Y59148D01*
X24552D01*
X24700Y59142D01*
Y55942D01*
X25700D01*
Y59142D01*
X25848Y59148D01*
X26096D01*
Y57669D01*
X26700D01*
X27304D01*
Y59148D01*
X28833D01*
X28846Y59129D01*
X28995Y59030D01*
X29170Y58995D01*
X29346Y59030D01*
X29495Y59129D01*
X29594Y59278D01*
X29629Y59454D01*
X29594Y59629D01*
X29495Y59778D01*
X29346Y59878D01*
X29170Y59913D01*
D02*
G37*
G36*
X27304Y57415D02*
X26827D01*
Y55838D01*
X27304D01*
Y57415D01*
D02*
G37*
G36*
X26573D02*
X26096D01*
Y55838D01*
X26573D01*
Y57415D01*
D02*
G37*
G36*
X18341Y53627D02*
X17241D01*
Y52851D01*
X16967Y52577D01*
X16817Y52640D01*
Y53615D01*
X15717D01*
Y52839D01*
X15443Y52565D01*
X15293Y52628D01*
Y53615D01*
X14193D01*
Y52975D01*
X14043Y52924D01*
X14001Y52952D01*
X13913Y52969D01*
X13769D01*
Y53615D01*
X12669D01*
Y52515D01*
X13522D01*
X13544Y52511D01*
X13818D01*
X14120Y52209D01*
X14097Y52097D01*
X14132Y51921D01*
X14141Y51908D01*
X14061Y51758D01*
X13759D01*
X13696Y51853D01*
X13547Y51953D01*
X13371Y51988D01*
X13196Y51953D01*
X13047Y51853D01*
X12948Y51705D01*
X12913Y51529D01*
X12948Y51353D01*
X13047Y51205D01*
X13196Y51105D01*
X13371Y51070D01*
X13547Y51105D01*
X13696Y51205D01*
X13759Y51300D01*
X14710D01*
X14829Y51292D01*
X14874Y51187D01*
X14888Y51115D01*
X14987Y50966D01*
X15136Y50866D01*
X15312Y50831D01*
X15487Y50866D01*
X15636Y50966D01*
X15700Y51061D01*
X16004D01*
X16092Y51078D01*
X16167Y51128D01*
X17565Y52527D01*
X18341D01*
Y53627D01*
D02*
G37*
G36*
X24437D02*
X23337D01*
Y52527D01*
X23658D01*
Y52232D01*
X17189Y45764D01*
X16544D01*
X16454Y45903D01*
X16455Y45914D01*
X16519Y45957D01*
X22525Y51963D01*
X22575Y52037D01*
X22592Y52125D01*
X22592Y52125D01*
Y52515D01*
X22913D01*
Y53615D01*
X21813D01*
Y52515D01*
X22134D01*
Y52220D01*
X16262Y46348D01*
X15854D01*
X15774Y46498D01*
X15776Y46502D01*
X15811Y46678D01*
X15796Y46757D01*
X21001Y51963D01*
X21051Y52037D01*
X21068Y52125D01*
Y52515D01*
X21389D01*
Y53615D01*
X20289D01*
Y52515D01*
X20610D01*
Y52220D01*
X15497Y47108D01*
X15353Y47136D01*
X15177Y47101D01*
X15028Y47002D01*
X14929Y46853D01*
X14894Y46678D01*
X14929Y46502D01*
X14931Y46498D01*
X14851Y46348D01*
X14286D01*
X14198Y46331D01*
X14124Y46281D01*
X13498Y45656D01*
X13391Y45671D01*
X13337Y45822D01*
X19477Y51963D01*
X19527Y52037D01*
X19544Y52125D01*
Y52515D01*
X19865D01*
Y53615D01*
X18765D01*
Y52515D01*
X19086D01*
Y52220D01*
X12549Y45683D01*
X12499Y45609D01*
X12482Y45521D01*
Y44297D01*
X12387Y44233D01*
X12287Y44085D01*
X12252Y43909D01*
X12287Y43733D01*
X12387Y43585D01*
X12535Y43485D01*
X12711Y43450D01*
X12887Y43485D01*
X13035Y43585D01*
X13135Y43733D01*
X13170Y43909D01*
X13135Y44085D01*
X13035Y44233D01*
X12940Y44297D01*
Y44728D01*
X13090Y44809D01*
X13170Y44755D01*
X13346Y44720D01*
X13522Y44755D01*
X13670Y44855D01*
X13770Y45003D01*
X13805Y45179D01*
X13783Y45291D01*
X14062Y45571D01*
X14136Y45553D01*
X14213Y45509D01*
X14243Y45359D01*
X14342Y45210D01*
X14491Y45111D01*
X14667Y45076D01*
X14842Y45111D01*
X14991Y45210D01*
X15055Y45305D01*
X17284D01*
X17372Y45323D01*
X17447Y45372D01*
X24049Y51975D01*
X24049Y51975D01*
X24099Y52049D01*
X24116Y52137D01*
X24116Y52137D01*
Y52527D01*
X24437D01*
Y53627D01*
D02*
G37*
G36*
X24764Y42267D02*
X24588Y42232D01*
X24439Y42133D01*
X24340Y41984D01*
X24305Y41808D01*
X24340Y41633D01*
X24439Y41484D01*
X24534Y41420D01*
Y40186D01*
X24552Y40098D01*
X24602Y40024D01*
X24699Y39927D01*
Y31216D01*
X24604Y31152D01*
X24505Y31004D01*
X24470Y30828D01*
X24505Y30652D01*
X24604Y30504D01*
X24753Y30404D01*
X24928Y30369D01*
X25104Y30404D01*
X25253Y30504D01*
X25260Y30515D01*
X25410Y30469D01*
Y28891D01*
X25260Y28811D01*
X25180Y28864D01*
X25005Y28899D01*
X24893Y28877D01*
X22516Y31253D01*
Y39247D01*
X22787D01*
X22902Y39294D01*
X22949Y39409D01*
Y39771D01*
X22902Y39906D01*
X22949Y40021D01*
Y40806D01*
X22902Y40921D01*
X22787Y40969D01*
X22322D01*
X21886Y41404D01*
X21812Y41454D01*
X21724Y41471D01*
X20186D01*
X20122Y41566D01*
X19973Y41666D01*
X19798Y41701D01*
X19622Y41666D01*
X19473Y41566D01*
X19410Y41471D01*
X17947D01*
X17947Y41471D01*
X17860Y41454D01*
X17785Y41404D01*
X17785Y41404D01*
X17324Y40943D01*
X16859D01*
X16744Y40896D01*
X16697Y40781D01*
Y39996D01*
X16744Y39881D01*
X16748Y39864D01*
X16744Y39861D01*
X16697Y39746D01*
Y39502D01*
X16590Y39415D01*
X16414Y39380D01*
X16266Y39280D01*
X16166Y39132D01*
X16131Y38956D01*
X16166Y38780D01*
X16266Y38632D01*
X16414Y38532D01*
X16590Y38497D01*
X16766Y38532D01*
X16914Y38632D01*
X17014Y38780D01*
X17049Y38956D01*
X17035Y39025D01*
X17231Y39221D01*
X17859D01*
X17974Y39269D01*
X18022Y39384D01*
Y39746D01*
X17974Y39861D01*
X17971Y39864D01*
X17974Y39881D01*
X18022Y39996D01*
Y40781D01*
X17976Y40890D01*
X18053Y41013D01*
X19078D01*
X19144Y40863D01*
X19110Y40781D01*
Y39996D01*
X19157Y39881D01*
X19110Y39746D01*
Y39384D01*
X19157Y39269D01*
X19272Y39221D01*
X19613D01*
Y36489D01*
X19463Y36409D01*
X19317Y36438D01*
X19141Y36403D01*
X18993Y36303D01*
X18893Y36155D01*
X18858Y35979D01*
X18863Y35957D01*
X18235Y35330D01*
X18169Y35230D01*
X18146Y35113D01*
X18146Y35113D01*
Y28625D01*
X18127Y28612D01*
X18028Y28464D01*
X17993Y28288D01*
X18028Y28112D01*
X18127Y27964D01*
X18276Y27864D01*
X18451Y27829D01*
X18627Y27864D01*
X18776Y27964D01*
X18875Y28112D01*
X18910Y28288D01*
X18875Y28464D01*
X18776Y28612D01*
X18757Y28625D01*
Y34987D01*
X19295Y35525D01*
X19317Y35520D01*
X19463Y35549D01*
X19613Y35469D01*
Y32999D01*
X19501Y32924D01*
X19401Y32776D01*
X19366Y32600D01*
X19401Y32424D01*
X19501Y32276D01*
X19649Y32176D01*
X19825Y32141D01*
X20001Y32176D01*
X20149Y32276D01*
X20249Y32424D01*
X20284Y32600D01*
X20249Y32776D01*
X20149Y32924D01*
X20071Y32977D01*
Y39221D01*
X20272D01*
X20387Y39269D01*
X20435Y39384D01*
Y39746D01*
X20387Y39881D01*
X20435Y39996D01*
Y40781D01*
X20401Y40863D01*
X20466Y41013D01*
X21568D01*
X21652Y40872D01*
X21624Y40806D01*
Y40021D01*
X21672Y39906D01*
X21624Y39771D01*
Y39409D01*
X21672Y39294D01*
X21787Y39247D01*
X22057D01*
Y31158D01*
X22075Y31070D01*
X22125Y30996D01*
X24568Y28552D01*
X24546Y28440D01*
X24581Y28265D01*
X24680Y28116D01*
X24829Y28017D01*
X25005Y27982D01*
X25180Y28017D01*
X25260Y28070D01*
X25410Y27990D01*
Y18702D01*
X25264Y18605D01*
X25165Y18456D01*
X25130Y18280D01*
X25165Y18105D01*
X25264Y17956D01*
X25413Y17857D01*
X25589Y17822D01*
X25764Y17857D01*
X25913Y17956D01*
X26013Y18105D01*
X26048Y18280D01*
X26013Y18456D01*
X25913Y18605D01*
X25869Y18634D01*
Y31050D01*
X25964Y31113D01*
X26063Y31262D01*
X26098Y31438D01*
X26063Y31613D01*
X25964Y31762D01*
X25818Y31859D01*
Y40698D01*
X25862Y40728D01*
X25962Y40877D01*
X25997Y41052D01*
X25962Y41228D01*
X25862Y41377D01*
X25714Y41476D01*
X25538Y41511D01*
X25362Y41476D01*
X25214Y41377D01*
X25210Y41371D01*
X25054Y41408D01*
X25048Y41457D01*
X25088Y41484D01*
X25188Y41633D01*
X25223Y41808D01*
X25188Y41984D01*
X25088Y42133D01*
X24939Y42232D01*
X24764Y42267D01*
D02*
G37*
G36*
X32305Y29340D02*
X30455D01*
Y27490D01*
X32305D01*
Y29340D01*
D02*
G37*
G36*
X9445D02*
X7595D01*
Y27490D01*
X9445D01*
Y29340D01*
D02*
G37*
G36*
X31380Y26808D02*
X31139Y26776D01*
X30914Y26683D01*
X30720Y26535D01*
X30572Y26341D01*
X30479Y26116D01*
X30447Y25875D01*
X30479Y25634D01*
X30572Y25409D01*
X30720Y25215D01*
X30914Y25067D01*
X31139Y24974D01*
X31380Y24942D01*
X31621Y24974D01*
X31846Y25067D01*
X32040Y25215D01*
X32188Y25409D01*
X32281Y25634D01*
X32313Y25875D01*
X32281Y26116D01*
X32188Y26341D01*
X32040Y26535D01*
X31846Y26683D01*
X31621Y26776D01*
X31380Y26808D01*
D02*
G37*
G36*
X8520D02*
X8279Y26776D01*
X8054Y26683D01*
X7860Y26535D01*
X7712Y26341D01*
X7619Y26116D01*
X7587Y25875D01*
X7619Y25634D01*
X7712Y25409D01*
X7860Y25215D01*
X8054Y25067D01*
X8279Y24974D01*
X8520Y24942D01*
X8761Y24974D01*
X8986Y25067D01*
X9180Y25215D01*
X9328Y25409D01*
X9421Y25634D01*
X9453Y25875D01*
X9421Y26116D01*
X9328Y26341D01*
X9180Y26535D01*
X8986Y26683D01*
X8761Y26776D01*
X8520Y26808D01*
D02*
G37*
G36*
X31380Y24268D02*
X31139Y24236D01*
X30914Y24143D01*
X30720Y23995D01*
X30572Y23801D01*
X30479Y23576D01*
X30447Y23335D01*
X30479Y23094D01*
X30572Y22869D01*
X30720Y22675D01*
X30914Y22527D01*
X31139Y22434D01*
X31380Y22402D01*
X31621Y22434D01*
X31846Y22527D01*
X32040Y22675D01*
X32188Y22869D01*
X32281Y23094D01*
X32313Y23335D01*
X32281Y23576D01*
X32188Y23801D01*
X32040Y23995D01*
X31846Y24143D01*
X31621Y24236D01*
X31380Y24268D01*
D02*
G37*
G36*
X8520D02*
X8279Y24236D01*
X8054Y24143D01*
X7860Y23995D01*
X7712Y23801D01*
X7619Y23576D01*
X7587Y23335D01*
X7619Y23094D01*
X7712Y22869D01*
X7860Y22675D01*
X8054Y22527D01*
X8279Y22434D01*
X8520Y22402D01*
X8761Y22434D01*
X8986Y22527D01*
X9180Y22675D01*
X9328Y22869D01*
X9421Y23094D01*
X9453Y23335D01*
X9421Y23576D01*
X9328Y23801D01*
X9180Y23995D01*
X8986Y24143D01*
X8761Y24236D01*
X8520Y24268D01*
D02*
G37*
G36*
X31380Y21728D02*
X31139Y21696D01*
X30914Y21603D01*
X30720Y21455D01*
X30572Y21261D01*
X30479Y21036D01*
X30447Y20795D01*
X30479Y20554D01*
X30572Y20329D01*
X30720Y20135D01*
X30914Y19987D01*
X31139Y19894D01*
X31380Y19862D01*
X31621Y19894D01*
X31846Y19987D01*
X32040Y20135D01*
X32188Y20329D01*
X32281Y20554D01*
X32313Y20795D01*
X32281Y21036D01*
X32188Y21261D01*
X32040Y21455D01*
X31846Y21603D01*
X31621Y21696D01*
X31380Y21728D01*
D02*
G37*
G36*
X8520D02*
X8279Y21696D01*
X8054Y21603D01*
X7860Y21455D01*
X7712Y21261D01*
X7619Y21036D01*
X7587Y20795D01*
X7619Y20554D01*
X7712Y20329D01*
X7860Y20135D01*
X8054Y19987D01*
X8279Y19894D01*
X8520Y19862D01*
X8761Y19894D01*
X8986Y19987D01*
X9180Y20135D01*
X9328Y20329D01*
X9421Y20554D01*
X9453Y20795D01*
X9421Y21036D01*
X9328Y21261D01*
X9180Y21455D01*
X8986Y21603D01*
X8761Y21696D01*
X8520Y21728D01*
D02*
G37*
G36*
X31380Y19188D02*
X31139Y19156D01*
X30914Y19063D01*
X30720Y18915D01*
X30572Y18721D01*
X30479Y18496D01*
X30447Y18255D01*
X30479Y18014D01*
X30572Y17789D01*
X30720Y17595D01*
X30914Y17447D01*
X31139Y17354D01*
X31380Y17322D01*
X31621Y17354D01*
X31846Y17447D01*
X32040Y17595D01*
X32188Y17789D01*
X32281Y18014D01*
X32313Y18255D01*
X32281Y18496D01*
X32188Y18721D01*
X32040Y18915D01*
X31846Y19063D01*
X31621Y19156D01*
X31380Y19188D01*
D02*
G37*
G36*
X8520D02*
X8279Y19156D01*
X8054Y19063D01*
X7860Y18915D01*
X7712Y18721D01*
X7619Y18496D01*
X7587Y18255D01*
X7619Y18014D01*
X7712Y17789D01*
X7860Y17595D01*
X8054Y17447D01*
X8279Y17354D01*
X8520Y17322D01*
X8761Y17354D01*
X8986Y17447D01*
X9180Y17595D01*
X9328Y17789D01*
X9421Y18014D01*
X9453Y18255D01*
X9421Y18496D01*
X9328Y18721D01*
X9180Y18915D01*
X8986Y19063D01*
X8761Y19156D01*
X8520Y19188D01*
D02*
G37*
G36*
X27062Y41499D02*
X26886Y41464D01*
X26738Y41365D01*
X26638Y41216D01*
X26603Y41040D01*
X26638Y40865D01*
X26738Y40716D01*
X26871Y40627D01*
Y32257D01*
X26814Y32219D01*
X26714Y32070D01*
X26679Y31895D01*
X26714Y31719D01*
X26814Y31570D01*
X26909Y31507D01*
Y16111D01*
X26839Y16065D01*
X26740Y15916D01*
X26705Y15740D01*
X26740Y15565D01*
X26839Y15416D01*
X26988Y15317D01*
X27164Y15282D01*
X27339Y15317D01*
X27488Y15416D01*
X27587Y15565D01*
X27622Y15740D01*
X27587Y15916D01*
X27488Y16065D01*
X27368Y16145D01*
Y31507D01*
X27463Y31570D01*
X27562Y31719D01*
X27597Y31895D01*
X27562Y32070D01*
X27463Y32219D01*
X27330Y32308D01*
Y40678D01*
X27386Y40716D01*
X27486Y40865D01*
X27521Y41040D01*
X27486Y41216D01*
X27386Y41365D01*
X27238Y41464D01*
X27062Y41499D01*
D02*
G37*
G36*
X31380Y16648D02*
X31139Y16616D01*
X30914Y16523D01*
X30720Y16375D01*
X30572Y16181D01*
X30479Y15956D01*
X30447Y15715D01*
X30479Y15474D01*
X30572Y15249D01*
X30720Y15055D01*
X30914Y14907D01*
X31139Y14814D01*
X31380Y14782D01*
X31621Y14814D01*
X31846Y14907D01*
X32040Y15055D01*
X32188Y15249D01*
X32281Y15474D01*
X32313Y15715D01*
X32281Y15956D01*
X32188Y16181D01*
X32040Y16375D01*
X31846Y16523D01*
X31621Y16616D01*
X31380Y16648D01*
D02*
G37*
G36*
X8520D02*
X8279Y16616D01*
X8054Y16523D01*
X7860Y16375D01*
X7712Y16181D01*
X7619Y15956D01*
X7587Y15715D01*
X7619Y15474D01*
X7712Y15249D01*
X7860Y15055D01*
X8054Y14907D01*
X8279Y14814D01*
X8520Y14782D01*
X8761Y14814D01*
X8986Y14907D01*
X9180Y15055D01*
X9328Y15249D01*
X9421Y15474D01*
X9453Y15715D01*
X9421Y15956D01*
X9328Y16181D01*
X9180Y16375D01*
X8986Y16523D01*
X8761Y16616D01*
X8520Y16648D01*
D02*
G37*
G36*
X13422Y28747D02*
X13247Y28712D01*
X13098Y28612D01*
X12998Y28464D01*
X12963Y28288D01*
X12998Y28112D01*
X13091Y27974D01*
Y13503D01*
X13047Y13474D01*
X12948Y13325D01*
X12913Y13150D01*
X12948Y12974D01*
X13047Y12825D01*
X13196Y12726D01*
X13371Y12691D01*
X13547Y12726D01*
X13696Y12825D01*
X13795Y12974D01*
X13830Y13150D01*
X13795Y13325D01*
X13703Y13464D01*
Y27934D01*
X13747Y27964D01*
X13846Y28112D01*
X13881Y28288D01*
X13846Y28464D01*
X13747Y28612D01*
X13598Y28712D01*
X13422Y28747D01*
D02*
G37*
G36*
X31380Y14108D02*
X31139Y14076D01*
X30914Y13983D01*
X30720Y13835D01*
X30572Y13641D01*
X30479Y13416D01*
X30447Y13175D01*
X30479Y12934D01*
X30572Y12709D01*
X30720Y12515D01*
X30914Y12367D01*
X31139Y12274D01*
X31380Y12242D01*
X31621Y12274D01*
X31846Y12367D01*
X32040Y12515D01*
X32188Y12709D01*
X32281Y12934D01*
X32313Y13175D01*
X32281Y13416D01*
X32188Y13641D01*
X32040Y13835D01*
X31846Y13983D01*
X31621Y14076D01*
X31380Y14108D01*
D02*
G37*
G36*
X8520D02*
X8279Y14076D01*
X8054Y13983D01*
X7860Y13835D01*
X7712Y13641D01*
X7619Y13416D01*
X7587Y13175D01*
X7619Y12934D01*
X7712Y12709D01*
X7860Y12515D01*
X8054Y12367D01*
X8279Y12274D01*
X8520Y12242D01*
X8761Y12274D01*
X8986Y12367D01*
X9180Y12515D01*
X9328Y12709D01*
X9421Y12934D01*
X9453Y13175D01*
X9421Y13416D01*
X9328Y13641D01*
X9180Y13835D01*
X8986Y13983D01*
X8761Y14076D01*
X8520Y14108D01*
D02*
G37*
G36*
X8647Y11656D02*
Y10762D01*
X9541D01*
X9523Y10904D01*
X9419Y11154D01*
X9254Y11369D01*
X9039Y11534D01*
X8789Y11638D01*
X8647Y11656D01*
D02*
G37*
G36*
X31253D02*
X31111Y11638D01*
X30861Y11534D01*
X30646Y11369D01*
X30481Y11154D01*
X30377Y10904D01*
X30359Y10762D01*
X31253D01*
Y11656D01*
D02*
G37*
G36*
X9541Y10508D02*
X8647D01*
Y9614D01*
X8789Y9632D01*
X9039Y9736D01*
X9254Y9901D01*
X9419Y10116D01*
X9523Y10366D01*
X9541Y10508D01*
D02*
G37*
G36*
X31253D02*
X30359D01*
X30377Y10366D01*
X30481Y10116D01*
X30646Y9901D01*
X30861Y9736D01*
X31111Y9632D01*
X31253Y9614D01*
Y10508D01*
D02*
G37*
%LPD*%
G36*
X22787Y40021D02*
X22287Y40521D01*
X21787Y40021D01*
Y40806D01*
X22787D01*
Y40021D01*
D02*
G37*
G36*
X20272Y39996D02*
X19772Y40496D01*
X19272Y39996D01*
Y40781D01*
X20272D01*
Y39996D01*
D02*
G37*
G36*
X17859D02*
X17359Y40496D01*
X16859Y39996D01*
Y40781D01*
X17859D01*
Y39996D01*
D02*
G37*
G36*
X22787Y39771D02*
Y39409D01*
X21787D01*
Y39771D01*
X22287Y40271D01*
X22787Y39771D01*
D02*
G37*
G36*
X20272Y39746D02*
Y39384D01*
X19272D01*
Y39746D01*
X19772Y40246D01*
X20272Y39746D01*
D02*
G37*
G36*
X17859D02*
Y39384D01*
X16859D01*
Y39746D01*
X17359Y40246D01*
X17859Y39746D01*
D02*
G37*
D10*
X34649Y48700D02*
G03*
X32651Y48700I-999J-50D01*
G01*
Y53700D02*
G03*
X34649Y53700I999J50D01*
G01*
X5251Y53725D02*
G03*
X7249Y53725I999J50D01*
G01*
Y48725D02*
G03*
X5251Y48725I-999J-50D01*
G01*
X17225Y4826D02*
G03*
X17225Y6824I-50J999D01*
G01*
X22225D02*
G03*
X22225Y4826I50J-999D01*
G01*
D13*
X13913Y52740D02*
X14556Y52097D01*
X14731Y51529D02*
X16267Y53065D01*
X13371Y51529D02*
X14731D01*
X15312Y51290D02*
X16004D01*
X17791Y53077D01*
X19842Y32617D02*
Y39339D01*
X19825Y32600D02*
X19842Y32617D01*
X25589Y18280D02*
X25640Y18331D01*
X25589Y31488D02*
X25640Y31438D01*
X25589Y31488D02*
Y41001D01*
X25640Y18331D02*
Y31438D01*
X25589D02*
Y31488D01*
X25538Y41052D02*
X25589Y41001D01*
X24764Y40186D02*
Y41808D01*
X24928Y30828D02*
Y40022D01*
X24764Y40186D02*
X24928Y40022D01*
X22287Y31158D02*
Y39762D01*
Y31158D02*
X25005Y28440D01*
X19315Y52125D02*
Y53065D01*
X20839Y52125D02*
Y53065D01*
X22363Y52125D02*
Y53065D01*
X23887Y52137D02*
Y53077D01*
X16590Y38956D02*
X16641D01*
X17331Y39646D01*
X17359D01*
X19810Y40654D02*
Y41229D01*
X17359Y40654D02*
X17947Y41242D01*
X21724D02*
X22287Y40679D01*
X19798Y41242D02*
X21724D01*
X27100Y31933D02*
Y41002D01*
Y31895D02*
Y31933D01*
X27138Y15766D02*
X27164Y15740D01*
X27138Y15766D02*
Y31895D01*
X27062Y41040D02*
X27100Y41002D01*
Y31933D02*
X27138Y31895D01*
X17947Y41242D02*
X19798D01*
X19810Y41229D01*
X14667Y45535D02*
X17284D01*
X23887Y52137D01*
X14286Y46119D02*
X16357D01*
X13346Y45179D02*
X14286Y46119D01*
X16357D02*
X22363Y52125D01*
X15353Y46678D02*
X15391D01*
X20839Y52125D01*
X12711Y45521D02*
X19315Y52125D01*
X12711Y43909D02*
Y45521D01*
X13544Y52740D02*
X13913D01*
X13219Y53065D02*
X13544Y52740D01*
X23700Y54764D02*
X23887Y54577D01*
X23700Y54764D02*
Y57542D01*
X22200Y54728D02*
X22363Y54565D01*
X22200Y54728D02*
Y57542D01*
X20700Y54704D02*
X20839Y54565D01*
X20700Y54704D02*
Y57542D01*
X19200Y54680D02*
X19315Y54565D01*
X19200Y54680D02*
Y57542D01*
X17700Y54668D02*
X17791Y54577D01*
X17700Y54668D02*
Y57542D01*
X16200Y54632D02*
X16267Y54565D01*
X16200Y54632D02*
Y57542D01*
X14700Y54608D02*
X14743Y54565D01*
X14700Y54608D02*
Y57542D01*
X13200Y54584D02*
X13219Y54565D01*
X13200Y54584D02*
Y57542D01*
D14*
X9536Y63975D02*
G03*
X7250Y61689I0J-2286D01*
G01*
X32650D02*
G03*
X30364Y63975I-2286J0D01*
G01*
X0Y0D02*
X40000D01*
X0Y72000D02*
X40000D01*
Y0D02*
Y72000D01*
X0Y0D02*
Y72000D01*
X5250Y4825D02*
Y48700D01*
Y4825D02*
X5900D01*
X17200D01*
X34650D02*
Y5200D01*
X22250Y4825D02*
X34650D01*
Y5200D02*
Y48675D01*
Y53725D02*
Y66150D01*
X5250D02*
X34650D01*
X5250Y53750D02*
Y66150D01*
X7250Y6825D02*
Y61689D01*
Y6825D02*
X30110D01*
X32650Y9365D01*
Y61689D01*
X9536Y63975D02*
X30364D01*
D16*
X11250Y61342D02*
D03*
X28650D02*
D03*
D17*
X26700Y57542D02*
D03*
X25200D02*
D03*
X13200D02*
D03*
X14700D02*
D03*
X16200D02*
D03*
X17700D02*
D03*
X19200D02*
D03*
X20700D02*
D03*
X22200D02*
D03*
X23700D02*
D03*
D20*
X23887Y53077D02*
D03*
Y54577D02*
D03*
X22363Y53065D02*
D03*
Y54565D02*
D03*
X20839Y53065D02*
D03*
Y54565D02*
D03*
X19315Y53065D02*
D03*
Y54565D02*
D03*
X17791Y53077D02*
D03*
Y54577D02*
D03*
X13219Y53065D02*
D03*
Y54565D02*
D03*
X14743Y53065D02*
D03*
Y54565D02*
D03*
X16267Y53065D02*
D03*
Y54565D02*
D03*
D29*
X31380Y10635D02*
D03*
X8520D02*
D03*
X31380Y18255D02*
D03*
X8520Y13175D02*
D03*
Y25875D02*
D03*
Y20795D02*
D03*
Y18255D02*
D03*
Y23335D02*
D03*
Y15715D02*
D03*
X31380Y13175D02*
D03*
Y25875D02*
D03*
Y20795D02*
D03*
Y23335D02*
D03*
Y15715D02*
D03*
D30*
X37500Y62000D02*
D03*
Y2500D02*
D03*
X2500Y69500D02*
D03*
Y2500D02*
D03*
D31*
X8520Y28415D02*
D03*
X31380D02*
D03*
D32*
X14556Y52097D02*
D03*
X15312Y51290D02*
D03*
X16425Y30625D02*
D03*
X23600Y31125D02*
D03*
X18675Y43075D02*
D03*
X16375Y44750D02*
D03*
X15325Y40350D02*
D03*
X21150Y37400D02*
D03*
X21200Y33800D02*
D03*
X24050Y40650D02*
D03*
X22850Y44250D02*
D03*
X22350Y47125D02*
D03*
X25225Y44350D02*
D03*
X25675Y46975D02*
D03*
X19675Y46775D02*
D03*
X24550Y55550D02*
D03*
X14000Y55525D02*
D03*
X15475Y55550D02*
D03*
X18450D02*
D03*
X19950Y55575D02*
D03*
X21425Y55600D02*
D03*
X26400Y19750D02*
D03*
X26425Y22225D02*
D03*
X26375Y25800D02*
D03*
X26300Y29925D02*
D03*
X20050Y31050D02*
D03*
X13080Y31612D02*
D03*
X30088Y61604D02*
D03*
X31088Y59604D02*
D03*
X30088Y57604D02*
D03*
X31088Y55604D02*
D03*
X30088Y53604D02*
D03*
X31088Y51604D02*
D03*
X30088Y49604D02*
D03*
X31088Y47604D02*
D03*
X30088Y45604D02*
D03*
X31088Y43604D02*
D03*
X30088Y41604D02*
D03*
X31088Y39604D02*
D03*
X30088Y37604D02*
D03*
X31088Y35604D02*
D03*
X30088Y33604D02*
D03*
X31088Y31604D02*
D03*
X30088Y29604D02*
D03*
Y25604D02*
D03*
Y21604D02*
D03*
Y17604D02*
D03*
Y13604D02*
D03*
Y9604D02*
D03*
X28088Y57604D02*
D03*
Y53604D02*
D03*
Y49604D02*
D03*
Y45604D02*
D03*
X29088Y43604D02*
D03*
Y39604D02*
D03*
X28088Y37604D02*
D03*
X29088Y35604D02*
D03*
X28088Y33604D02*
D03*
X29088Y31604D02*
D03*
X28088Y29604D02*
D03*
X29088Y27604D02*
D03*
X28088Y25604D02*
D03*
X29088Y23604D02*
D03*
X28088Y21604D02*
D03*
X29088Y19604D02*
D03*
X28088Y17604D02*
D03*
Y13604D02*
D03*
X29088Y11604D02*
D03*
X28088Y9604D02*
D03*
X26088Y61604D02*
D03*
Y45604D02*
D03*
Y17604D02*
D03*
Y13604D02*
D03*
X27088Y11604D02*
D03*
X26088Y9604D02*
D03*
X24088Y61604D02*
D03*
Y45604D02*
D03*
Y37604D02*
D03*
Y33604D02*
D03*
X25088Y27604D02*
D03*
X24088Y25604D02*
D03*
X25088Y23604D02*
D03*
X24088Y21604D02*
D03*
X25088Y19604D02*
D03*
X24088Y17604D02*
D03*
X25088Y15604D02*
D03*
X24088Y13604D02*
D03*
X25088Y11604D02*
D03*
X24088Y9604D02*
D03*
X22088Y61604D02*
D03*
X23088Y55604D02*
D03*
X22088Y45604D02*
D03*
X23088Y27604D02*
D03*
Y23604D02*
D03*
X22088Y21604D02*
D03*
X23088Y19604D02*
D03*
X22088Y17604D02*
D03*
X23088Y15604D02*
D03*
X22088Y13604D02*
D03*
X23088Y11604D02*
D03*
X22088Y9604D02*
D03*
X20088Y61604D02*
D03*
X21088Y39604D02*
D03*
Y23604D02*
D03*
X20088Y21604D02*
D03*
X21088Y19604D02*
D03*
X20088Y17604D02*
D03*
X21088Y15604D02*
D03*
X20088Y13604D02*
D03*
X21088Y11604D02*
D03*
X20088Y9604D02*
D03*
X18088Y61604D02*
D03*
Y37604D02*
D03*
Y25604D02*
D03*
X19088Y23604D02*
D03*
X18088Y21604D02*
D03*
X19088Y19604D02*
D03*
X18088Y17604D02*
D03*
X19088Y15604D02*
D03*
X18088Y13604D02*
D03*
X19088Y11604D02*
D03*
X18088Y9604D02*
D03*
X16088Y61604D02*
D03*
X17088Y55604D02*
D03*
Y51604D02*
D03*
Y27604D02*
D03*
X16088Y25604D02*
D03*
X17088Y23604D02*
D03*
X16088Y21604D02*
D03*
X17088Y19604D02*
D03*
X16088Y17604D02*
D03*
X17088Y15604D02*
D03*
X16088Y13604D02*
D03*
X17088Y11604D02*
D03*
X16088Y9604D02*
D03*
X14088Y61604D02*
D03*
Y37604D02*
D03*
X15088Y27604D02*
D03*
X14088Y25604D02*
D03*
X15088Y23604D02*
D03*
X14088Y21604D02*
D03*
X15088Y19604D02*
D03*
X14088Y17604D02*
D03*
X15088Y15604D02*
D03*
X14088Y13604D02*
D03*
X15088Y11604D02*
D03*
X14088Y9604D02*
D03*
X12088Y57604D02*
D03*
Y53604D02*
D03*
Y49604D02*
D03*
Y45604D02*
D03*
Y41604D02*
D03*
X13088Y39604D02*
D03*
X12088Y37604D02*
D03*
X13088Y35604D02*
D03*
X12088Y33604D02*
D03*
Y25604D02*
D03*
Y21604D02*
D03*
Y17604D02*
D03*
X13088Y11604D02*
D03*
X12088Y9604D02*
D03*
X10088Y61604D02*
D03*
Y57604D02*
D03*
Y53604D02*
D03*
Y49604D02*
D03*
Y45604D02*
D03*
X11088Y43604D02*
D03*
X10088Y41604D02*
D03*
X11088Y39604D02*
D03*
X10088Y37604D02*
D03*
X11088Y35604D02*
D03*
X10088Y33604D02*
D03*
X11088Y31604D02*
D03*
X10088Y29604D02*
D03*
X11088Y27604D02*
D03*
X10088Y25604D02*
D03*
X11088Y23604D02*
D03*
X10088Y21604D02*
D03*
X11088Y19604D02*
D03*
X10088Y17604D02*
D03*
X11088Y15604D02*
D03*
Y11604D02*
D03*
X10088Y9604D02*
D03*
X8088Y61604D02*
D03*
X9088Y59604D02*
D03*
X8088Y57604D02*
D03*
X9088Y55604D02*
D03*
X8088Y53604D02*
D03*
X9088Y51604D02*
D03*
X8088Y49604D02*
D03*
X9088Y47604D02*
D03*
X8088Y45604D02*
D03*
X9088Y43604D02*
D03*
X8088Y41604D02*
D03*
X9088Y39604D02*
D03*
X8088Y37604D02*
D03*
X9088Y35604D02*
D03*
X8088Y33604D02*
D03*
X9088Y31604D02*
D03*
Y19604D02*
D03*
X19825Y32600D02*
D03*
X25640Y31438D02*
D03*
X25538Y41052D02*
D03*
X25589Y18280D02*
D03*
X13422Y28288D02*
D03*
X19317Y35979D02*
D03*
X29170Y59454D02*
D03*
X14692D02*
D03*
X11187Y59428D02*
D03*
X18451Y28288D02*
D03*
X13371Y13150D02*
D03*
X24764Y41808D02*
D03*
X24928Y30828D02*
D03*
X27164Y15740D02*
D03*
X25005Y28440D02*
D03*
X27062Y41040D02*
D03*
X27138Y31895D02*
D03*
X16590Y38956D02*
D03*
X19798Y41242D02*
D03*
X14667Y45535D02*
D03*
X13346Y45179D02*
D03*
X15353Y46678D02*
D03*
X12711Y43909D02*
D03*
X13371Y51529D02*
D03*
X14743Y53065D02*
D03*
D34*
X25200Y59454D02*
X29170D01*
X25200Y57542D02*
Y59454D01*
X14692D02*
X25200D01*
X14679Y59441D02*
X14692Y59454D01*
X11200Y59441D02*
X14679D01*
X11187Y59428D02*
X11200Y59441D01*
X18451Y35113D02*
X19317Y35979D01*
X18451Y28288D02*
Y35113D01*
X13397Y28263D02*
X13422Y28288D01*
X13397Y13175D02*
Y28263D01*
X13371Y13150D02*
X13397Y13175D01*
D35*
X22287Y40679D02*
D03*
Y39671D02*
D03*
X19772Y40654D02*
D03*
Y39646D02*
D03*
X17359Y40654D02*
D03*
Y39646D02*
D03*
M02*
