G04*
G04 #@! TF.GenerationSoftware,Altium Limited,Altium Designer,26.6.0 (10)*
G04*
G04 Layer_Color=8421504*
G04 Board_Origin=26095670|18412992*
%FSLAX43Y43*%
%MOMM*%
G71*
G04*
G04 #@! TF.SameCoordinates,F4A6D453-19A3-4B7B-8316-796EADD43F13*
G04*
G04*
G04 #@! TF.FilePolarity,Positive*
G04*
G01*
G75*
%ADD10C,0.250*%
%ADD14C,0.254*%
%ADD15R,0.800X0.800*%
%ADD16R,0.800X0.800*%
%ADD17R,1.100X1.900*%
%ADD18R,0.700X2.900*%
G04:AMPARAMS|DCode=19|XSize=0.45mm|YSize=1.4mm|CornerRadius=0.05mm|HoleSize=0mm|Usage=FLASHONLY|Rotation=180.000|XOffset=0mm|YOffset=0mm|HoleType=Round|Shape=RoundedRectangle|*
%AMROUNDEDRECTD19*
21,1,0.450,1.301,0,0,180.0*
21,1,0.351,1.400,0,0,180.0*
1,1,0.099,-0.176,0.651*
1,1,0.099,0.176,0.651*
1,1,0.099,0.176,-0.651*
1,1,0.099,-0.176,-0.651*
%
%ADD19ROUNDEDRECTD19*%
%ADD20O,0.300X1.700*%
G04:AMPARAMS|DCode=21|XSize=1.655mm|YSize=0.381mm|CornerRadius=0.19mm|HoleSize=0mm|Usage=FLASHONLY|Rotation=270.000|XOffset=0mm|YOffset=0mm|HoleType=Round|Shape=RoundedRectangle|*
%AMROUNDEDRECTD21*
21,1,1.655,0.000,0,0,270.0*
21,1,1.275,0.381,0,0,270.0*
1,1,0.381,0.000,-0.637*
1,1,0.381,0.000,0.637*
1,1,0.381,0.000,0.637*
1,1,0.381,0.000,-0.637*
%
%ADD21ROUNDEDRECTD21*%
%ADD22R,0.381X1.655*%
%ADD23R,0.760X1.750*%
G36*
X27757Y15946D02*
X27744D01*
Y15958D01*
X27757D01*
Y15946D01*
D02*
G37*
G36*
X27606Y15218D02*
X27594D01*
Y15230D01*
X27606D01*
Y15218D01*
D02*
G37*
G36*
X24694Y11754D02*
X24682D01*
Y11766D01*
X24694D01*
Y11754D01*
D02*
G37*
G36*
X24895Y11729D02*
X24883D01*
Y11741D01*
X24895D01*
Y11729D01*
D02*
G37*
G36*
X24945Y11528D02*
X24933D01*
Y11540D01*
X24945D01*
Y11528D01*
D02*
G37*
G36*
X24971Y11503D02*
X24983D01*
Y11490D01*
X24971D01*
Y11503D01*
X24958D01*
Y11528D01*
X24971D01*
Y11503D01*
D02*
G37*
G36*
X25096Y11427D02*
X25083D01*
Y11440D01*
X25096D01*
Y11427D01*
D02*
G37*
G36*
X25083Y11415D02*
X25071D01*
Y11427D01*
X25083D01*
Y11415D01*
D02*
G37*
G36*
X25096Y11390D02*
X25083D01*
Y11402D01*
X25096D01*
Y11390D01*
D02*
G37*
G36*
X25510Y11252D02*
X25498D01*
Y11264D01*
X25510D01*
Y11252D01*
D02*
G37*
D10*
X34649Y48700D02*
G03*
X32651Y48700I-999J-50D01*
G01*
Y53700D02*
G03*
X34649Y53700I999J50D01*
G01*
X5251Y53725D02*
G03*
X7249Y53725I999J50D01*
G01*
Y48725D02*
G03*
X5251Y48725I-999J-50D01*
G01*
X17225Y4826D02*
G03*
X17225Y6824I-50J999D01*
G01*
X22225D02*
G03*
X22225Y4826I50J-999D01*
G01*
D14*
X9536Y63975D02*
G03*
X7250Y61689I0J-2286D01*
G01*
X32650D02*
G03*
X30364Y63975I-2286J0D01*
G01*
X34650Y53725D02*
Y64000D01*
X40000D01*
X-0D02*
X5250D01*
X40000D02*
X40000Y0D01*
X-0Y64000D02*
X0Y0D01*
X40000D01*
X5250Y4825D02*
Y48700D01*
Y4825D02*
X5900D01*
X17200D01*
X34650D02*
Y5200D01*
X22250Y4825D02*
X34650D01*
Y5200D02*
Y48675D01*
X5250Y53750D02*
Y64000D01*
X7250Y6825D02*
Y61689D01*
Y6825D02*
X30110D01*
X32650Y9365D01*
Y61689D01*
X9536Y63975D02*
X30364D01*
D15*
X17120Y36126D02*
D03*
X15620D02*
D03*
X17108Y39002D02*
D03*
X15608D02*
D03*
X27799Y42611D02*
D03*
X29299D02*
D03*
X26669Y51291D02*
D03*
X28169D02*
D03*
X13422Y28288D02*
D03*
X11922D02*
D03*
X15625Y37575D02*
D03*
X17125D02*
D03*
D16*
X11222Y48619D02*
D03*
Y47119D02*
D03*
X12000Y13175D02*
D03*
Y11675D02*
D03*
X22109Y25379D02*
D03*
X20585D02*
D03*
X19061D02*
D03*
X22236Y53065D02*
D03*
X26808D02*
D03*
X25538Y41052D02*
D03*
X19188Y53065D02*
D03*
X23760D02*
D03*
X17664D02*
D03*
X16140D02*
D03*
X25284D02*
D03*
X28332Y47172D02*
D03*
X27062Y39540D02*
D03*
X25538Y39552D02*
D03*
X20712Y53065D02*
D03*
X16140Y54565D02*
D03*
X26808D02*
D03*
X19188D02*
D03*
X22236D02*
D03*
X20712D02*
D03*
X17664D02*
D03*
X25284D02*
D03*
X23760D02*
D03*
X28332Y48672D02*
D03*
X22109Y26879D02*
D03*
X20585D02*
D03*
X19061D02*
D03*
X27062Y41040D02*
D03*
D17*
X28650Y61370D02*
D03*
X11250D02*
D03*
D18*
X13200Y57570D02*
D03*
X14700D02*
D03*
X26700D02*
D03*
X25200D02*
D03*
X23700D02*
D03*
X22200D02*
D03*
X20700D02*
D03*
X19200D02*
D03*
X17700D02*
D03*
X16200D02*
D03*
D19*
X17272Y42686D02*
D03*
X15972Y48586D02*
D03*
X17272D02*
D03*
X12722D02*
D03*
X15972Y42686D02*
D03*
X12722D02*
D03*
X15322D02*
D03*
X14672D02*
D03*
X16622Y48586D02*
D03*
X13372Y42686D02*
D03*
X14022D02*
D03*
X16622D02*
D03*
X13372Y48586D02*
D03*
X14022D02*
D03*
X14672D02*
D03*
X15322D02*
D03*
D20*
X14616Y34275D02*
D03*
Y30175D02*
D03*
X13616D02*
D03*
X15616Y34275D02*
D03*
X15116D02*
D03*
X14116D02*
D03*
X13616Y34275D02*
D03*
X15616Y30175D02*
D03*
X15116D02*
D03*
X14116D02*
D03*
D21*
X19804Y48589D02*
D03*
X24354Y42938D02*
D03*
X23704D02*
D03*
X23054D02*
D03*
X22404D02*
D03*
X21754D02*
D03*
X21104D02*
D03*
X20454D02*
D03*
X19804D02*
D03*
X26304D02*
D03*
X25654D02*
D03*
X25004D02*
D03*
X26304Y48589D02*
D03*
X25654D02*
D03*
X26954Y42938D02*
D03*
X23704Y48589D02*
D03*
X23054D02*
D03*
X24354D02*
D03*
X21754D02*
D03*
X20454D02*
D03*
X25004D02*
D03*
X22404D02*
D03*
X21104D02*
D03*
D22*
X26954D02*
D03*
D23*
X19317Y35979D02*
D03*
X21857D02*
D03*
X20587D02*
D03*
X23127D02*
D03*
Y28979D02*
D03*
X21857D02*
D03*
X20587D02*
D03*
X19317D02*
D03*
M02*
