M48
;Layer_Color=9474304
;FILE_FORMAT=4:3
METRIC,LZ
;TYPE=NON_PLATED
T03F00S00C0.600
T04F00S00C2.000
%
T03
X0017225Y0006825
X0018225
X0019225
X0020225
X0021225
X0022225
X000725Y0048725
Y0049725
Y0050725
Y0051725
Y0052725
Y0053725
X003265Y00537
Y00527
Y00517
Y00507
Y00497
Y00487
T04
X00375Y00025
X00025
Y00695
X00375Y0062
M30
