M48
;Layer_Color=9474304
;FILE_FORMAT=4:3
METRIC,LZ
;TYPE=PLATED
T01F00S00C0.300
T02F00S00C1.000
%
T01
X0014088Y0009604
X0016088
X0018088
X0020088
X0022088
X0024088
X0026088
X0028088
X0030088
X0029088Y0011604
X0027088
X0025088
X0023088
X0021088
X0019088
X0017088
X0015088
X0016088Y0013604
X0018088
X0020088
X0022088
X0024088
X0026088
X0028088
X0030088
Y0017604
X0028088
X0026088
X0025589Y001828
X0025088Y0019604
X00264Y001975
X0026425Y0022225
X0028088Y0021604
X0030088
X0029088Y0023604
X0030088Y0025604
X0028088
X0026375Y00258
X0024088Y0025604
X0025088Y0027604
X0025005Y002844
X0024928Y0030828
X002564Y0031438
X0027138Y0031895
X0029088Y0031604
X0031088
X0030088Y0029604
X0028088
X00263Y0029925
X00236Y0031125
X002005Y003105
X0019825Y00326
X0016425Y0030625
X0017088Y0027604
X0015088
X0013422Y0028288
X0014088Y0025604
X0016088
X0018088
X0019088Y0023604
X0021088
X0023088
X0025088
X0024088Y0021604
X0022088
X0020088
X0018088
X0016088
X0014088
X0015088Y0023604
X0017088
Y0019604
X0019088
X0021088
X0023088
X0024088Y0017604
X0022088
X0020088
X0018088
X0016088
X0014088
X0015088Y0019604
Y0015604
X0017088
X0019088
X0021088
X0023088
X0025088
X0027164Y001574
X0029088Y0019604
Y0027604
X0023088
X0018451Y0028288
X0014088Y0013604
X0013371Y001315
X0013088Y0011604
X0011088
X0012088Y0009604
X0010088
X0011088Y0015604
X0012088Y0017604
X0010088
X0011088Y0019604
X0009088
X0010088Y0021604
X0012088
X0011088Y0023604
X0012088Y0025604
X0010088
X0011088Y0027604
X0010088Y0029604
X0011088Y0031604
X001308Y0031612
X0009088Y0031604
X0010088Y0033604
X0012088
X0013088Y0035604
X0011088
X0009088
X0010088Y0037604
X0012088
X0013088Y0039604
X0011088
X0009088
X0010088Y0041604
X0012088
X0012711Y0043909
X0011088Y0043604
X0009088
X0010088Y0045604
X0012088
Y0049604
X0010088
X0008088
X0009088Y0051604
X0010088Y0053604
X0012088
Y0057604
X0010088
X0008088
X0009088Y0059604
X0011187Y0059428
X0010088Y0061604
X0008088
X0009088Y0055604
X0008088Y0053604
X0009088Y0047604
X0008088Y0045604
Y0041604
Y0037604
Y0033604
X0014088Y0037604
X001659Y0038956
X0015325Y004035
X0019798Y0041242
X0021088Y0039604
X002115Y00374
X0024088Y0037604
X002405Y004065
X0024764Y0041808
X0025538Y0041052
X0027062Y004104
X0029088Y0039604
X0031088
X0030088Y0041604
X0031088Y0043604
X0029088
X0030088Y0045604
X0028088
X0026088
X0025675Y0046975
X0024088Y0045604
X0022088
X002235Y0047125
X0019675Y0046775
X0015353Y0046678
X0014667Y0045535
X0013346Y0045179
X0016375Y004475
X0018675Y0043075
X002285Y004425
X0025225Y004435
X0028088Y0049604
X0030088
X0031088Y0051604
X0030088Y0053604
X0028088
Y0057604
X0030088
X002917Y0059454
X0031088Y0059604
X0030088Y0061604
X0026088
X0024088
X0022088
X0020088
X0018088
X0016088
X0014088
X0014692Y0059454
X0014Y0055525
X0015475Y005555
X0017088Y0055604
X001845Y005555
X001995Y0055575
X0021425Y00556
X0023088Y0055604
X002455Y005555
X0031088Y0055604
Y0047604
X0030088Y0037604
X0028088
X0029088Y0035604
X0031088
X0030088Y0033604
X0028088
X0024088
X00212Y00338
X0019317Y0035979
X0018088Y0037604
X0017088Y0051604
X0015312Y005129
X0014556Y0052097
X0014743Y0053065
X0013371Y0051529
T02
X003138Y0010635
Y0013175
Y0015715
Y0018255
Y0020795
Y0023335
Y0025875
Y0028415
X000852
Y0025875
Y0023335
Y0020795
Y0018255
Y0015715
Y0013175
Y0010635
M30
