G04*
G04 #@! TF.GenerationSoftware,Altium Limited,Altium Designer,26.6.0 (10)*
G04*
G04 Layer_Color=8388736*
G04 Board_Origin=26095670|18412992*
%FSLAX43Y43*%
%MOMM*%
G71*
G04*
G04 #@! TF.SameCoordinates,26B9E1EC-1C40-4168-BF09-72070BD052AD*
G04*
G04*
G04 #@! TF.FilePolarity,Positive*
G04*
G01*
G75*
%ADD10C,0.250*%
%ADD14C,0.254*%
D10*
X34649Y48700D02*
G03*
X32651Y48700I-999J-50D01*
G01*
Y53700D02*
G03*
X34649Y53700I999J50D01*
G01*
X5251Y53725D02*
G03*
X7249Y53725I999J50D01*
G01*
Y48725D02*
G03*
X5251Y48725I-999J-50D01*
G01*
X17225Y4826D02*
G03*
X17225Y6824I-50J999D01*
G01*
X22225D02*
G03*
X22225Y4826I50J-999D01*
G01*
D14*
X9536Y63975D02*
G03*
X7250Y61689I0J-2286D01*
G01*
X32650D02*
G03*
X30364Y63975I-2286J0D01*
G01*
X0Y0D02*
X40000D01*
X0Y72000D02*
X40000D01*
Y0D02*
Y72000D01*
X0Y0D02*
Y72000D01*
X5250Y4825D02*
Y48700D01*
Y4825D02*
X5900D01*
X17200D01*
X34650D02*
Y5200D01*
X22250Y4825D02*
X34650D01*
Y5200D02*
Y48675D01*
Y53725D02*
Y66150D01*
X5250D02*
X34650D01*
X5250Y53750D02*
Y66150D01*
X7250Y6825D02*
Y61689D01*
Y6825D02*
X30110D01*
X32650Y9365D01*
Y61689D01*
X9536Y63975D02*
X30364D01*
M02*
