G04*
G04 #@! TF.GenerationSoftware,Altium Limited,Altium Designer,26.6.0 (10)*
G04*
G04 Layer_Color=65535*
G04 Board_Origin=26095670|18412992*
%FSLAX43Y43*%
%MOMM*%
G71*
G04*
G04 #@! TF.SameCoordinates,90C07AA7-79C3-46EE-90F7-062345F5F262*
G04*
G04*
G04 #@! TF.FilePolarity,Positive*
G04*
G01*
G75*
%ADD10C,0.250*%
%ADD11C,0.500*%
%ADD12C,0.200*%
%ADD13C,0.150*%
%ADD14C,0.254*%
G36*
X28051Y9408D02*
X28060Y9401D01*
X28067Y9387D01*
X28079D01*
X28081Y9389D01*
X28083Y9394D01*
X28088Y9399D01*
X28095Y9401D01*
X28097D01*
X28104Y9399D01*
X28111Y9394D01*
X28116Y9385D01*
X28125Y9382D01*
X28134Y9387D01*
X28136D01*
X28141Y9385D01*
X28148Y9382D01*
X28155Y9373D01*
X28157D01*
X28160Y9371D01*
X28171Y9366D01*
X28190Y9357D01*
X28213Y9345D01*
X28238Y9329D01*
X28266Y9308D01*
X28294Y9283D01*
X28319Y9253D01*
X28322Y9248D01*
X28329Y9239D01*
X28340Y9220D01*
X28352Y9197D01*
X28363Y9167D01*
X28375Y9132D01*
X28382Y9093D01*
X28386Y9051D01*
X28389D01*
X28393Y9049D01*
X28400Y9045D01*
X28410Y9038D01*
X28433Y9021D01*
X28465Y9001D01*
X28497Y8973D01*
X28532Y8940D01*
X28567Y8906D01*
X28597Y8864D01*
Y8862D01*
X28599Y8859D01*
X28604Y8852D01*
X28609Y8846D01*
X28620Y8822D01*
X28636Y8792D01*
X28650Y8758D01*
X28662Y8716D01*
X28671Y8672D01*
X28673Y8623D01*
Y8621D01*
Y8614D01*
Y8605D01*
X28671Y8593D01*
X28669Y8577D01*
X28666Y8559D01*
X28655Y8515D01*
X28639Y8464D01*
X28627Y8438D01*
X28611Y8413D01*
X28595Y8387D01*
X28576Y8360D01*
X28553Y8334D01*
X28528Y8311D01*
X28532Y8309D01*
X28544Y8299D01*
X28560Y8286D01*
X28583Y8267D01*
X28606Y8244D01*
X28632Y8216D01*
X28657Y8181D01*
X28680Y8144D01*
X28683Y8140D01*
X28690Y8126D01*
X28699Y8105D01*
X28710Y8080D01*
X28722Y8047D01*
X28731Y8010D01*
X28738Y7971D01*
X28740Y7932D01*
Y7929D01*
Y7925D01*
Y7915D01*
X28738Y7904D01*
X28736Y7890D01*
X28733Y7874D01*
X28724Y7834D01*
X28708Y7790D01*
X28685Y7744D01*
X28671Y7721D01*
X28655Y7698D01*
X28634Y7675D01*
X28611Y7652D01*
X28609Y7649D01*
X28604Y7647D01*
X28597Y7640D01*
X28588Y7633D01*
X28576Y7624D01*
X28560Y7615D01*
X28525Y7594D01*
X28479Y7571D01*
X28428Y7552D01*
X28370Y7538D01*
X28338Y7536D01*
X28305Y7534D01*
X28292D01*
X28278Y7536D01*
X28257Y7538D01*
X28231Y7540D01*
X28204Y7545D01*
X28173Y7552D01*
X28141Y7561D01*
Y7559D01*
X28143Y7554D01*
X28146Y7545D01*
X28148Y7534D01*
X28150Y7520D01*
X28153Y7503D01*
X28155Y7466D01*
Y7464D01*
Y7462D01*
Y7455D01*
X28153Y7446D01*
X28150Y7420D01*
X28141Y7390D01*
X28127Y7353D01*
X28109Y7316D01*
X28081Y7279D01*
X28062Y7260D01*
X28044Y7242D01*
X28042D01*
X28039Y7237D01*
X28032Y7233D01*
X28025Y7228D01*
X28002Y7212D01*
X27972Y7196D01*
X27935Y7180D01*
X27891Y7163D01*
X27845Y7154D01*
X27792Y7149D01*
X27773D01*
X27752Y7152D01*
X27727Y7156D01*
X27694Y7161D01*
X27660Y7170D01*
X27623Y7182D01*
X27583Y7198D01*
X27579Y7200D01*
X27567Y7207D01*
X27549Y7217D01*
X27526Y7230D01*
X27500Y7247D01*
X27475Y7267D01*
X27452Y7288D01*
X27428Y7314D01*
X27426Y7316D01*
X27419Y7325D01*
X27412Y7337D01*
X27403Y7351D01*
X27391Y7367D01*
X27384Y7381D01*
X27377Y7395D01*
X27375Y7406D01*
X27380Y7413D01*
X27389Y7402D01*
Y7399D01*
X27394Y7392D01*
X27398Y7383D01*
X27408Y7369D01*
X27417Y7353D01*
X27431Y7335D01*
X27447Y7314D01*
X27468Y7293D01*
X27470Y7291D01*
X27479Y7284D01*
X27491Y7272D01*
X27509Y7258D01*
X27530Y7244D01*
X27556Y7228D01*
X27586Y7212D01*
X27618Y7198D01*
X27623Y7196D01*
X27634Y7193D01*
X27653Y7186D01*
X27676Y7182D01*
X27704Y7175D01*
X27734Y7168D01*
X27766Y7166D01*
X27799Y7163D01*
X27810D01*
X27819Y7166D01*
X27845Y7168D01*
X27875Y7175D01*
X27910Y7186D01*
X27947Y7203D01*
X27986Y7226D01*
X28023Y7256D01*
X28025D01*
X28028Y7260D01*
X28039Y7272D01*
X28055Y7291D01*
X28074Y7318D01*
X28090Y7348D01*
X28106Y7385D01*
X28118Y7425D01*
X28123Y7446D01*
Y7469D01*
Y7471D01*
Y7478D01*
Y7487D01*
X28120Y7501D01*
X28116Y7531D01*
X28106Y7568D01*
X28104Y7571D01*
X28095Y7575D01*
X28081Y7580D01*
X28065Y7589D01*
X28028Y7612D01*
X28009Y7626D01*
X27991Y7642D01*
X27988Y7645D01*
X27984Y7649D01*
X27977Y7656D01*
X27970Y7665D01*
X27956Y7691D01*
X27951Y7702D01*
X27949Y7716D01*
Y7719D01*
X27951Y7728D01*
X27958Y7735D01*
X27972Y7737D01*
X27977D01*
X27984Y7735D01*
X27993Y7733D01*
X28005Y7726D01*
X28018Y7719D01*
X28035Y7707D01*
X28053Y7693D01*
X28055Y7691D01*
X28062Y7686D01*
X28072Y7675D01*
X28083Y7663D01*
X28095Y7647D01*
X28109Y7626D01*
X28123Y7605D01*
X28134Y7580D01*
X28139Y7578D01*
X28150Y7575D01*
X28169Y7571D01*
X28192Y7566D01*
X28220Y7559D01*
X28250Y7554D01*
X28285Y7552D01*
X28319Y7550D01*
X28333D01*
X28342Y7552D01*
X28356D01*
X28370Y7557D01*
X28405Y7564D01*
X28444Y7578D01*
X28488Y7596D01*
X28534Y7624D01*
X28555Y7640D01*
X28578Y7659D01*
X28581Y7661D01*
X28583Y7663D01*
X28590Y7670D01*
X28597Y7677D01*
X28606Y7689D01*
X28615Y7702D01*
X28639Y7735D01*
X28662Y7777D01*
X28680Y7827D01*
X28694Y7885D01*
X28696Y7918D01*
X28699Y7952D01*
Y7957D01*
Y7969D01*
X28696Y7987D01*
X28692Y8010D01*
X28687Y8040D01*
X28678Y8073D01*
X28664Y8105D01*
X28648Y8142D01*
Y8144D01*
X28646Y8147D01*
X28639Y8158D01*
X28627Y8177D01*
X28611Y8200D01*
X28592Y8223D01*
X28569Y8249D01*
X28541Y8274D01*
X28511Y8297D01*
X28509Y8295D01*
X28504Y8293D01*
X28495Y8286D01*
X28486Y8281D01*
X28458Y8265D01*
X28432Y8251D01*
X28427Y8263D01*
X28430Y8265D01*
X28437Y8267D01*
X28447Y8272D01*
X28470Y8283D01*
X28500Y8302D01*
X28497Y8304D01*
X28488Y8309D01*
X28477Y8313D01*
X28460Y8320D01*
X28442Y8327D01*
X28421Y8334D01*
X28398Y8336D01*
X28375Y8339D01*
X28368Y8346D01*
X28366Y8350D01*
X28363Y8353D01*
X28359D01*
X28322Y8350D01*
X28289Y8348D01*
X28273Y8346D01*
X28261Y8343D01*
X28254Y8341D01*
X28254D01*
X28261Y8332D01*
X28275Y8334D01*
X28294Y8336D01*
X28331Y8339D01*
X28375D01*
X28377Y8336D01*
X28379Y8332D01*
X28386Y8325D01*
X28393Y8316D01*
X28412Y8293D01*
X28426Y8265D01*
X28427Y8263D01*
X28426Y8262D01*
X28423D01*
X28396Y8253D01*
X28370Y8246D01*
X28347Y8239D01*
X28329Y8237D01*
X28315Y8232D01*
X28305D01*
X28298Y8230D01*
Y8232D01*
X28296Y8239D01*
X28294Y8249D01*
X28292Y8260D01*
X28287Y8276D01*
X28280Y8293D01*
X28261Y8332D01*
X28257D01*
X28243Y8330D01*
X28229Y8327D01*
X28224Y8325D01*
X28215D01*
X28211Y8327D01*
X28208Y8332D01*
X28252Y8341D01*
X28254D01*
X28252Y8343D01*
Y8346D01*
X28250Y8350D01*
X28245Y8357D01*
X28238Y8367D01*
X28222Y8387D01*
X28199Y8408D01*
X28197Y8406D01*
X28185Y8399D01*
X28171Y8392D01*
X28153Y8383D01*
X28132Y8371D01*
X28111Y8364D01*
X28088Y8357D01*
X28065Y8355D01*
X28058D01*
X28046Y8357D01*
X28035Y8360D01*
X28032Y8361D01*
Y8432D01*
X28018Y8420D01*
Y8369D01*
X28016Y8374D01*
X28014Y8380D01*
X28012Y8390D01*
Y8394D01*
Y8401D01*
X28014Y8411D01*
X28018Y8420D01*
Y8461D01*
Y8464D01*
Y8473D01*
X28016Y8482D01*
X28014Y8492D01*
Y8494D01*
Y8498D01*
X28012Y8512D01*
Y8515D01*
Y8519D01*
X28014Y8526D01*
X28018Y8533D01*
Y8545D01*
X28014Y8547D01*
X28005Y8552D01*
X27995Y8561D01*
X27993Y8568D01*
X27991Y8577D01*
Y8579D01*
X27993Y8584D01*
X27995Y8591D01*
X28000Y8598D01*
X28002Y8600D01*
X28007Y8605D01*
X28012Y8607D01*
X28018Y8610D01*
Y8619D01*
Y8621D01*
X28016Y8623D01*
X28014Y8630D01*
X28012Y8640D01*
Y8642D01*
Y8647D01*
X28014Y8663D01*
Y8665D01*
X28016Y8672D01*
X28018Y8681D01*
Y8693D01*
Y8741D01*
Y8744D01*
Y8751D01*
X28021Y8758D01*
X28025Y8760D01*
X28028D01*
X28030Y8758D01*
X28032Y8753D01*
Y8741D01*
Y8693D01*
Y8691D01*
Y8681D01*
X28035Y8672D01*
X28037Y8663D01*
Y8660D01*
X28039Y8656D01*
X28042Y8640D01*
Y8637D01*
Y8633D01*
X28037Y8626D01*
X28032Y8619D01*
Y8610D01*
X28035D01*
X28039Y8607D01*
X28044Y8605D01*
X28051Y8598D01*
X28053Y8596D01*
X28058Y8591D01*
X28060Y8586D01*
X28062Y8577D01*
Y8573D01*
X28058Y8563D01*
X28051Y8552D01*
X28042Y8547D01*
X28032Y8545D01*
Y8533D01*
X28035Y8531D01*
X28037Y8529D01*
X28039Y8522D01*
X28042Y8512D01*
Y8510D01*
Y8505D01*
X28037Y8492D01*
Y8489D01*
X28035Y8485D01*
X28032Y8473D01*
Y8461D01*
Y8432D01*
X28035Y8434D01*
X28037D01*
X28042Y8436D01*
X28049Y8441D01*
X28060Y8445D01*
X28074Y8448D01*
X28093Y8452D01*
X28113Y8455D01*
X28157D01*
X28178Y8450D01*
X28208Y8445D01*
X28211Y8448D01*
X28215Y8455D01*
X28224Y8466D01*
X28234Y8478D01*
X28241Y8494D01*
X28250Y8512D01*
X28254Y8531D01*
X28257Y8552D01*
Y8554D01*
Y8559D01*
Y8566D01*
X28254Y8577D01*
X28248Y8600D01*
X28236Y8628D01*
Y8630D01*
X28231Y8635D01*
X28227Y8642D01*
X28220Y8651D01*
X28208Y8663D01*
X28194Y8674D01*
X28178Y8688D01*
X28160Y8702D01*
X28157Y8704D01*
X28150Y8709D01*
X28141Y8714D01*
X28130Y8723D01*
X28106Y8739D01*
X28097Y8748D01*
X28090Y8755D01*
X28088Y8758D01*
X28083Y8767D01*
X28074Y8783D01*
X28065Y8804D01*
X28062D01*
X28058Y8802D01*
X28051Y8799D01*
X28042Y8792D01*
X28030Y8785D01*
X28014Y8774D01*
X27993Y8760D01*
X27991Y8758D01*
X27984Y8753D01*
X27970Y8744D01*
X27954Y8730D01*
X27935Y8714D01*
X27912Y8693D01*
X27889Y8670D01*
X27863Y8642D01*
X27866Y8637D01*
X27870Y8628D01*
X27875Y8610D01*
X27882Y8586D01*
X27889Y8559D01*
X27896Y8529D01*
X27898Y8494D01*
X27900Y8459D01*
Y8457D01*
Y8450D01*
Y8441D01*
X27898Y8429D01*
X27896Y8413D01*
X27893Y8394D01*
X27887Y8353D01*
X27873Y8304D01*
X27852Y8253D01*
X27838Y8230D01*
X27822Y8205D01*
X27803Y8181D01*
X27782Y8158D01*
X27780Y8156D01*
X27778Y8154D01*
X27771Y8149D01*
X27762Y8140D01*
X27738Y8124D01*
X27708Y8103D01*
X27671Y8082D01*
X27627Y8063D01*
X27581Y8050D01*
X27558Y8047D01*
X27533Y8045D01*
X27519D01*
X27500Y8047D01*
X27482Y8050D01*
X27458Y8054D01*
X27433Y8063D01*
X27410Y8073D01*
X27387Y8087D01*
X27384Y8089D01*
X27377Y8094D01*
X27368Y8103D01*
X27359Y8114D01*
X27350Y8128D01*
X27340Y8147D01*
X27334Y8165D01*
X27331Y8186D01*
Y8188D01*
Y8193D01*
X27334Y8202D01*
Y8212D01*
X27340Y8235D01*
X27354Y8258D01*
X27357Y8260D01*
X27359Y8262D01*
X27373Y8272D01*
X27394Y8281D01*
X27408Y8286D01*
X27426D01*
X27438Y8283D01*
X27452Y8281D01*
X27470Y8276D01*
X27489Y8265D01*
X27502Y8251D01*
X27514Y8232D01*
X27519Y8205D01*
Y8202D01*
Y8200D01*
X27516Y8186D01*
X27509Y8168D01*
X27496Y8151D01*
X27491Y8149D01*
X27482Y8142D01*
X27465Y8135D01*
X27445Y8133D01*
X27438D01*
X27431Y8135D01*
X27421D01*
X27398Y8142D01*
X27373Y8156D01*
Y8154D01*
Y8149D01*
X27375Y8140D01*
X27377Y8131D01*
X27382Y8119D01*
X27391Y8107D01*
X27401Y8096D01*
X27415Y8084D01*
X27417D01*
X27424Y8080D01*
X27433Y8077D01*
X27447Y8073D01*
X27465Y8068D01*
X27486Y8063D01*
X27512Y8061D01*
X27539Y8059D01*
X27544D01*
X27553Y8061D01*
X27570Y8063D01*
X27590Y8070D01*
X27616Y8080D01*
X27644Y8096D01*
X27674Y8117D01*
X27704Y8144D01*
X27708Y8149D01*
X27718Y8161D01*
X27732Y8181D01*
X27748Y8209D01*
X27762Y8244D01*
X27775Y8288D01*
X27785Y8336D01*
X27789Y8394D01*
Y8397D01*
Y8401D01*
Y8408D01*
Y8417D01*
X27787Y8443D01*
X27780Y8475D01*
X27773Y8512D01*
X27762Y8552D01*
X27745Y8593D01*
X27722Y8633D01*
Y8635D01*
X27720Y8637D01*
X27711Y8649D01*
X27697Y8667D01*
X27676Y8688D01*
X27651Y8714D01*
X27618Y8737D01*
X27583Y8758D01*
X27542Y8776D01*
X27537Y8777D01*
Y8776D01*
X27535Y8772D01*
Y8765D01*
X27533Y8753D01*
X27530Y8741D01*
Y8725D01*
X27528Y8691D01*
Y8688D01*
Y8681D01*
Y8670D01*
X27530Y8656D01*
X27533Y8640D01*
X27537Y8619D01*
X27549Y8573D01*
X27567Y8519D01*
X27579Y8494D01*
X27595Y8466D01*
X27614Y8438D01*
X27634Y8413D01*
X27657Y8387D01*
X27685Y8364D01*
X27699Y8355D01*
Y8353D01*
X27697Y8350D01*
X27692Y8348D01*
X27690D01*
X27681Y8353D01*
X27674Y8357D01*
X27664Y8364D01*
X27651Y8374D01*
X27634Y8387D01*
X27632Y8390D01*
X27627Y8394D01*
X27618Y8406D01*
X27607Y8417D01*
X27593Y8436D01*
X27579Y8457D01*
X27565Y8482D01*
X27551Y8510D01*
X27549Y8515D01*
X27546Y8524D01*
X27539Y8542D01*
X27533Y8566D01*
X27526Y8593D01*
X27521Y8626D01*
X27516Y8663D01*
X27514Y8702D01*
Y8704D01*
Y8709D01*
Y8718D01*
Y8730D01*
X27516Y8755D01*
X27521Y8782D01*
X27516Y8783D01*
X27507Y8788D01*
X27491Y8792D01*
X27475Y8795D01*
X27452Y8799D01*
X27428Y8802D01*
X27377D01*
X27354Y8797D01*
X27324Y8792D01*
X27290Y8783D01*
X27255Y8772D01*
X27220Y8753D01*
X27188Y8730D01*
X27185Y8728D01*
X27176Y8718D01*
X27162Y8704D01*
X27148Y8684D01*
X27135Y8660D01*
X27121Y8635D01*
X27111Y8607D01*
X27109Y8575D01*
Y8584D01*
X27107Y8593D01*
X27100Y8600D01*
X27091Y8605D01*
X27088D01*
X27077Y8603D01*
X27070Y8600D01*
X27067Y8598D01*
Y8603D01*
X27070Y8612D01*
X27074Y8635D01*
X27081Y8665D01*
X27095Y8700D01*
X27114Y8734D01*
X27141Y8769D01*
X27158Y8788D01*
X27176Y8804D01*
X27178D01*
X27181Y8809D01*
X27188Y8811D01*
X27197Y8818D01*
X27220Y8832D01*
X27253Y8848D01*
X27294Y8862D01*
X27343Y8876D01*
X27398Y8885D01*
X27458Y8890D01*
X27477D01*
X27489Y8887D01*
X27502D01*
X27521Y8885D01*
X27558Y8878D01*
Y8876D01*
X27544Y8846D01*
X27533Y8815D01*
X27528Y8802D01*
X27523Y8792D01*
X27521Y8785D01*
Y8783D01*
X27521Y8782D01*
X27523Y8781D01*
X27526D01*
X27537Y8777D01*
Y8778D01*
X27544Y8802D01*
X27551Y8822D01*
X27556Y8839D01*
X27563Y8850D01*
X27565Y8862D01*
X27570Y8869D01*
X27572Y8871D01*
Y8873D01*
X27573Y8876D01*
X27574D01*
X27581Y8873D01*
X27590Y8869D01*
X27604Y8864D01*
X27620Y8857D01*
X27639Y8850D01*
X27681Y8829D01*
X27727Y8799D01*
X27773Y8760D01*
X27796Y8739D01*
X27819Y8714D01*
X27838Y8686D01*
X27856Y8656D01*
X27861Y8660D01*
X27870Y8672D01*
X27891Y8691D01*
X27917Y8714D01*
X27951Y8741D01*
X27993Y8774D01*
X28042Y8806D01*
X28098Y8840D01*
X28097Y8841D01*
X28095Y8843D01*
X28088Y8846D01*
X28079Y8852D01*
X28067Y8859D01*
X28042Y8880D01*
X28028Y8892D01*
X28016Y8906D01*
Y8908D01*
X28012Y8913D01*
X28009Y8920D01*
X28005Y8931D01*
X27995Y8954D01*
X27993Y8968D01*
X27991Y8982D01*
Y8984D01*
Y8989D01*
X27993Y8994D01*
X27998Y8996D01*
Y8994D01*
X28000Y8984D01*
X28005Y8973D01*
X28007Y8959D01*
X28021Y8929D01*
X28028Y8915D01*
X28037Y8901D01*
X28039Y8899D01*
X28042Y8896D01*
X28049Y8890D01*
X28055Y8883D01*
X28079Y8866D01*
X28109Y8849D01*
X28104Y8846D01*
X28102Y8843D01*
X28099Y8841D01*
X28098Y8840D01*
X28125Y8829D01*
X28148Y8822D01*
X28173Y8820D01*
X28211D01*
X28224Y8822D01*
X28234Y8825D01*
X28236D01*
X28222Y8834D01*
X28224D01*
X28231Y8836D01*
X28241Y8841D01*
X28254Y8848D01*
X28268Y8857D01*
X28285Y8871D01*
X28301Y8885D01*
X28317Y8903D01*
X28319Y8906D01*
X28324Y8913D01*
X28331Y8924D01*
X28340Y8938D01*
X28349Y8957D01*
X28359Y8977D01*
X28366Y8998D01*
X28370Y9024D01*
X28368D01*
X28363Y9026D01*
X28354Y9031D01*
X28342Y9035D01*
X28329Y9042D01*
X28312Y9047D01*
X28292Y9054D01*
X28271Y9063D01*
X28220Y9077D01*
X28164Y9089D01*
X28104Y9098D01*
X28039Y9100D01*
X28016D01*
X27991Y9098D01*
X27958Y9095D01*
X27919Y9089D01*
X27877Y9082D01*
X27831Y9070D01*
X27787Y9054D01*
X27789Y9051D01*
X27794Y9049D01*
X27801Y9042D01*
X27810Y9033D01*
X27833Y9010D01*
X27854Y8982D01*
X27856Y8980D01*
X27859Y8975D01*
X27863Y8968D01*
X27868Y8959D01*
X27877Y8936D01*
X27882Y8924D01*
Y8913D01*
Y8910D01*
X27880Y8903D01*
X27875Y8896D01*
X27863Y8894D01*
X27859D01*
X27850Y8896D01*
X27836Y8901D01*
X27817Y8913D01*
X27801Y8931D01*
X27792Y8943D01*
X27782Y8957D01*
X27775Y8975D01*
X27771Y8996D01*
X27766Y9019D01*
X27762Y9045D01*
X27759D01*
X27757Y9042D01*
X27750Y9038D01*
X27741Y9033D01*
X27718Y9021D01*
X27690Y9001D01*
X27657Y8977D01*
X27627Y8947D01*
X27597Y8913D01*
X27573Y8876D01*
X27572D01*
X27558Y8878D01*
X27560Y8880D01*
X27570Y8894D01*
X27583Y8917D01*
X27604Y8943D01*
X27632Y8973D01*
X27664Y9005D01*
X27701Y9035D01*
X27745Y9063D01*
X27741Y9065D01*
X27727Y9072D01*
X27706Y9082D01*
X27676Y9091D01*
X27637Y9100D01*
X27590Y9109D01*
X27535Y9116D01*
X27472Y9119D01*
X27447D01*
X27431Y9116D01*
X27408Y9114D01*
X27382Y9112D01*
X27354Y9107D01*
X27324Y9102D01*
X27257Y9084D01*
X27220Y9075D01*
X27185Y9061D01*
X27148Y9045D01*
X27114Y9026D01*
X27079Y9005D01*
X27047Y8980D01*
X27044Y8977D01*
X27040Y8973D01*
X27030Y8966D01*
X27019Y8954D01*
X27007Y8940D01*
X26993Y8924D01*
X26977Y8906D01*
X26961Y8883D01*
X26945Y8859D01*
X26929Y8832D01*
X26915Y8804D01*
X26903Y8772D01*
X26892Y8739D01*
X26882Y8702D01*
X26878Y8665D01*
X26875Y8626D01*
Y8623D01*
Y8616D01*
X26878Y8603D01*
Y8586D01*
X26882Y8568D01*
X26887Y8545D01*
X26892Y8519D01*
X26901Y8494D01*
X26912Y8466D01*
X26924Y8436D01*
X26940Y8406D01*
X26961Y8376D01*
X26984Y8346D01*
X27010Y8318D01*
X27042Y8293D01*
X27077Y8267D01*
Y8272D01*
X27079Y8283D01*
X27084Y8302D01*
X27088Y8325D01*
X27097Y8350D01*
X27109Y8378D01*
X27123Y8406D01*
X27139Y8431D01*
X27137Y8434D01*
X27128Y8443D01*
X27116Y8457D01*
X27104Y8475D01*
X27091Y8498D01*
X27079Y8526D01*
X27070Y8559D01*
X27068Y8580D01*
X27067Y8582D01*
Y8591D01*
Y8593D01*
Y8596D01*
X27068Y8580D01*
X27070Y8577D01*
X27079Y8568D01*
X27086Y8566D01*
X27088D01*
X27100Y8568D01*
X27107Y8570D01*
X27109Y8573D01*
Y8570D01*
Y8561D01*
X27111Y8545D01*
X27116Y8526D01*
X27121Y8505D01*
X27128Y8482D01*
X27139Y8461D01*
X27155Y8441D01*
X27158Y8443D01*
X27162Y8450D01*
X27172Y8461D01*
X27183Y8473D01*
X27199Y8489D01*
X27216Y8503D01*
X27236Y8517D01*
X27257Y8531D01*
X27259Y8533D01*
X27266Y8535D01*
X27278Y8540D01*
X27294Y8547D01*
X27310Y8554D01*
X27331Y8559D01*
X27350Y8561D01*
X27371Y8563D01*
X27375D01*
X27391Y8561D01*
X27412Y8559D01*
X27435Y8552D01*
X27458Y8540D01*
X27479Y8522D01*
X27496Y8498D01*
X27498Y8482D01*
X27500Y8466D01*
Y8464D01*
Y8459D01*
X27498Y8450D01*
X27496Y8441D01*
X27489Y8427D01*
X27482Y8415D01*
X27470Y8404D01*
X27454Y8392D01*
X27452D01*
X27445Y8387D01*
X27435Y8385D01*
X27424Y8380D01*
X27408Y8376D01*
X27389Y8371D01*
X27368Y8369D01*
X27345Y8367D01*
X27324D01*
X27301Y8369D01*
X27273Y8374D01*
X27243Y8378D01*
X27211Y8387D01*
X27178Y8401D01*
X27151Y8417D01*
X27148Y8413D01*
X27141Y8404D01*
X27135Y8387D01*
X27123Y8367D01*
X27114Y8341D01*
X27104Y8313D01*
X27097Y8283D01*
X27095Y8253D01*
X27100Y8251D01*
X27109Y8246D01*
X27125Y8239D01*
X27146Y8230D01*
X27174Y8221D01*
X27202Y8212D01*
X27236Y8202D01*
X27271Y8198D01*
X27276D01*
X27285Y8195D01*
X27294Y8193D01*
X27299Y8191D01*
Y8188D01*
X27280Y8184D01*
X27266D01*
X27250Y8186D01*
X27227Y8191D01*
X27202Y8195D01*
X27169Y8205D01*
X27135Y8218D01*
X27095Y8235D01*
Y8230D01*
Y8218D01*
X27100Y8200D01*
X27104Y8177D01*
X27111Y8151D01*
X27123Y8124D01*
X27139Y8098D01*
X27162Y8073D01*
X27165Y8070D01*
X27174Y8063D01*
X27188Y8054D01*
X27206Y8043D01*
X27229Y8031D01*
X27255Y8022D01*
X27285Y8015D01*
X27315Y8013D01*
X27327D01*
X27343Y8015D01*
X27354Y8017D01*
X27368Y8019D01*
X27375Y8015D01*
X27373Y8010D01*
X27366Y8008D01*
X27352Y8003D01*
X27347D01*
X27338Y8001D01*
X27322Y7999D01*
X27290D01*
X27271Y8003D01*
X27248Y8008D01*
X27220Y8015D01*
X27195Y8026D01*
X27167Y8043D01*
X27141Y8063D01*
X27139Y8066D01*
X27132Y8075D01*
X27121Y8089D01*
X27111Y8110D01*
X27100Y8135D01*
X27088Y8163D01*
X27081Y8198D01*
X27079Y8237D01*
Y8246D01*
X27077D01*
X27074Y8249D01*
X27060Y8258D01*
X27040Y8269D01*
X27014Y8288D01*
X26984Y8311D01*
X26954Y8339D01*
X26924Y8371D01*
X26899Y8408D01*
Y8411D01*
X26896Y8413D01*
X26889Y8427D01*
X26878Y8450D01*
X26866Y8478D01*
X26855Y8515D01*
X26843Y8554D01*
X26836Y8600D01*
X26834Y8649D01*
Y8651D01*
Y8658D01*
X26836Y8670D01*
Y8684D01*
X26841Y8702D01*
X26843Y8721D01*
X26850Y8744D01*
X26857Y8769D01*
X26868Y8797D01*
X26880Y8825D01*
X26896Y8852D01*
X26915Y8880D01*
X26936Y8910D01*
X26961Y8938D01*
X26991Y8966D01*
X27023Y8994D01*
X27026Y8996D01*
X27033Y9001D01*
X27042Y9008D01*
X27058Y9014D01*
X27074Y9026D01*
X27097Y9038D01*
X27121Y9049D01*
X27151Y9063D01*
X27181Y9077D01*
X27213Y9089D01*
X27250Y9100D01*
X27287Y9112D01*
X27327Y9119D01*
X27368Y9126D01*
X27412Y9130D01*
X27456Y9132D01*
X27489D01*
X27505Y9130D01*
X27523D01*
X27567Y9126D01*
X27616Y9116D01*
X27667Y9107D01*
X27715Y9091D01*
X27759Y9070D01*
Y9093D01*
Y9098D01*
Y9109D01*
X27762Y9126D01*
X27764Y9146D01*
X27769Y9172D01*
X27778Y9200D01*
X27787Y9225D01*
X27801Y9253D01*
X27803Y9255D01*
X27810Y9264D01*
X27819Y9276D01*
X27833Y9292D01*
X27852Y9308D01*
X27873Y9327D01*
X27898Y9343D01*
X27926Y9357D01*
X27928Y9359D01*
X27933Y9366D01*
X27940Y9373D01*
X27947Y9375D01*
X27951D01*
X27961Y9371D01*
X27970Y9375D01*
Y9378D01*
X27974Y9382D01*
X27981Y9387D01*
X27991Y9389D01*
X28005Y9385D01*
X28014Y9387D01*
X28016Y9392D01*
X28021Y9399D01*
X28028Y9406D01*
X28039Y9410D01*
X28042D01*
X28051Y9408D01*
D02*
G37*
G36*
X25487Y9362D02*
X25510Y9357D01*
X25536Y9350D01*
X25563Y9338D01*
X25591Y9325D01*
X25617Y9304D01*
X25619Y9301D01*
X25628Y9294D01*
X25637Y9281D01*
X25651Y9264D01*
X25663Y9244D01*
X25674Y9218D01*
X25681Y9190D01*
X25684Y9160D01*
Y9156D01*
Y9146D01*
X25681Y9132D01*
X25677Y9114D01*
X25667Y9093D01*
X25658Y9072D01*
X25642Y9051D01*
X25621Y9033D01*
X25624Y9028D01*
X25633Y9014D01*
X25642Y8994D01*
X25656Y8966D01*
X25667Y8931D01*
X25679Y8894D01*
X25686Y8852D01*
X25688Y8809D01*
Y8806D01*
Y8804D01*
Y8797D01*
Y8788D01*
X25686Y8765D01*
X25681Y8734D01*
X25674Y8702D01*
X25665Y8665D01*
X25651Y8630D01*
X25633Y8598D01*
X25630Y8596D01*
X25624Y8584D01*
X25610Y8573D01*
X25593Y8556D01*
X25570Y8538D01*
X25545Y8522D01*
X25512Y8508D01*
X25478Y8498D01*
X25480Y8075D01*
X25485Y8077D01*
X25494Y8087D01*
X25506Y8098D01*
X25519Y8114D01*
Y8117D01*
X25517Y8121D01*
X25515Y8128D01*
X25510Y8140D01*
X25503Y8165D01*
X25501Y8198D01*
Y8200D01*
Y8202D01*
X25503Y8214D01*
X25506Y8230D01*
X25512Y8244D01*
X25515Y8246D01*
X25519Y8253D01*
X25526Y8260D01*
X25536Y8262D01*
X25540D01*
X25545Y8260D01*
X25552Y8255D01*
X25559Y8249D01*
X25563Y8239D01*
X25566Y8228D01*
X25568Y8209D01*
Y8207D01*
Y8202D01*
X25566Y8193D01*
X25563Y8181D01*
X25559Y8168D01*
X25554Y8154D01*
X25545Y8137D01*
X25533Y8121D01*
Y8119D01*
X25536Y8117D01*
X25545Y8103D01*
X25563Y8082D01*
X25575Y8070D01*
X25589Y8059D01*
X25605Y8045D01*
X25624Y8033D01*
X25644Y8022D01*
X25667Y8010D01*
X25695Y8001D01*
X25725Y7992D01*
X25758Y7985D01*
X25792Y7980D01*
Y7985D01*
Y7994D01*
X25790Y8010D01*
X25788Y8031D01*
X25783Y8054D01*
X25779Y8080D01*
X25769Y8107D01*
X25758Y8135D01*
X25755D01*
X25751Y8137D01*
X25742Y8142D01*
X25728Y8147D01*
X25714Y8154D01*
X25698Y8163D01*
X25679Y8177D01*
X25661Y8191D01*
X25670Y8188D01*
X25672Y8186D01*
X25677Y8184D01*
X25684Y8179D01*
X25693Y8172D01*
X25705Y8163D01*
X25718Y8156D01*
X25753Y8142D01*
Y8144D01*
X25751Y8147D01*
X25744Y8158D01*
X25730Y8179D01*
X25711Y8202D01*
X25688Y8230D01*
X25661Y8260D01*
X25628Y8290D01*
X25589Y8318D01*
X25582Y8325D01*
X25587Y8330D01*
X25589D01*
X25591Y8327D01*
X25598Y8323D01*
X25607Y8316D01*
X25619Y8306D01*
X25635Y8295D01*
X25656Y8276D01*
X25658Y8274D01*
X25667Y8267D01*
X25679Y8255D01*
X25693Y8239D01*
X25709Y8221D01*
X25728Y8198D01*
X25746Y8170D01*
X25765Y8140D01*
X25769D01*
X25783Y8137D01*
X25804Y8135D01*
X25843D01*
X25857Y8137D01*
X25873D01*
X25910Y8144D01*
X25947Y8156D01*
Y8158D01*
X25950Y8165D01*
X25954Y8170D01*
X25964Y8172D01*
X25971Y8170D01*
X25980Y8177D01*
Y8186D01*
Y8188D01*
X25982Y8193D01*
X25987Y8198D01*
X25996Y8200D01*
X26001Y8198D01*
X26005Y8207D01*
X26003Y8209D01*
X26001Y8218D01*
Y8221D01*
X26003Y8228D01*
X26008Y8235D01*
X26017Y8237D01*
X26022Y8253D01*
X26019Y8255D01*
X26017Y8258D01*
X26012Y8265D01*
X26010Y8274D01*
Y8276D01*
X26012Y8281D01*
X26015Y8288D01*
X26019Y8295D01*
X26017Y8311D01*
X26015D01*
X26010Y8313D01*
X26003Y8318D01*
X26001Y8327D01*
Y8330D01*
Y8332D01*
X26003Y8339D01*
X25996Y8353D01*
X25994D01*
X25991Y8355D01*
X25987Y8360D01*
X25985Y8367D01*
Y8374D01*
X25978Y8380D01*
X25966D01*
X25961Y8383D01*
X25957Y8387D01*
X25954Y8397D01*
X25952Y8399D01*
X25947Y8401D01*
X25941Y8406D01*
X25931Y8411D01*
X25917Y8415D01*
X25904Y8417D01*
X25887Y8422D01*
X25853D01*
X25836Y8420D01*
X25813Y8415D01*
X25788Y8411D01*
X25760Y8401D01*
X25732Y8387D01*
X25705Y8371D01*
X25698Y8367D01*
X25695Y8371D01*
Y8374D01*
X25698Y8376D01*
X25702Y8378D01*
X25709Y8383D01*
X25718Y8390D01*
X25732Y8397D01*
X25751Y8406D01*
X25753Y8408D01*
X25760Y8411D01*
X25772Y8415D01*
X25785Y8420D01*
X25804Y8424D01*
X25825Y8429D01*
X25846Y8434D01*
X25878D01*
X25887Y8431D01*
X25899D01*
X25929Y8422D01*
X25943Y8415D01*
X25959Y8406D01*
X25968Y8408D01*
X25971D01*
X25975Y8406D01*
X25980Y8399D01*
X25982Y8387D01*
X25985Y8385D01*
X25989Y8380D01*
X26001D01*
X26005Y8378D01*
X26010Y8374D01*
X26012Y8364D01*
X26010Y8355D01*
X26019Y8343D01*
X26022D01*
X26031Y8341D01*
X26038Y8336D01*
X26040Y8327D01*
Y8325D01*
Y8323D01*
X26035Y8318D01*
X26031Y8316D01*
X26033Y8297D01*
X26035D01*
X26042Y8293D01*
X26049Y8286D01*
X26052Y8274D01*
Y8272D01*
X26049Y8267D01*
X26045Y8260D01*
X26035Y8255D01*
Y8253D01*
Y8249D01*
X26033Y8242D01*
X26031Y8232D01*
X26033D01*
X26035Y8228D01*
X26038Y8223D01*
X26040Y8218D01*
Y8216D01*
X26038Y8212D01*
X26028Y8207D01*
X26024Y8205D01*
X26015D01*
X26012Y8202D01*
X26010Y8200D01*
X26005Y8193D01*
X26008Y8186D01*
Y8184D01*
X26005Y8179D01*
X26001Y8175D01*
X25989Y8172D01*
X25982D01*
X25980Y8170D01*
X25975Y8165D01*
Y8156D01*
Y8154D01*
X25973Y8151D01*
X25968Y8147D01*
X25959Y8144D01*
X25954D01*
X25947Y8147D01*
X25945D01*
X25941Y8142D01*
X25929Y8140D01*
X25917Y8135D01*
X25901Y8131D01*
X25880Y8128D01*
X25860Y8124D01*
X25813D01*
X25792Y8126D01*
X25769Y8128D01*
X25772Y8126D01*
X25776Y8117D01*
X25781Y8103D01*
X25788Y8084D01*
X25795Y8061D01*
X25802Y8038D01*
X25804Y8010D01*
X25806Y7982D01*
Y7973D01*
X25873D01*
X25883Y7976D01*
X25908Y7978D01*
X25938Y7982D01*
X25975Y7994D01*
X26012Y8008D01*
X26052Y8026D01*
X26089Y8054D01*
X26093Y8059D01*
X26105Y8068D01*
X26119Y8087D01*
X26137Y8112D01*
X26156Y8144D01*
X26170Y8181D01*
X26181Y8225D01*
X26186Y8274D01*
Y8276D01*
Y8281D01*
Y8288D01*
X26184Y8297D01*
X26181Y8320D01*
X26174Y8353D01*
X26163Y8387D01*
X26146Y8424D01*
X26123Y8459D01*
X26093Y8494D01*
X26089Y8498D01*
X26077Y8508D01*
X26056Y8522D01*
X26031Y8538D01*
X25996Y8554D01*
X25957Y8568D01*
X25913Y8577D01*
X25862Y8582D01*
X25843D01*
X25829Y8579D01*
X25811Y8577D01*
X25792Y8575D01*
X25746Y8566D01*
X25698Y8549D01*
X25670Y8538D01*
X25644Y8526D01*
X25619Y8510D01*
X25593Y8492D01*
X25570Y8471D01*
X25547Y8448D01*
X25536Y8443D01*
Y8445D01*
X25540Y8452D01*
X25545Y8457D01*
X25554Y8466D01*
X25563Y8475D01*
X25577Y8489D01*
X25580Y8492D01*
X25584Y8496D01*
X25593Y8503D01*
X25607Y8515D01*
X25624Y8526D01*
X25644Y8538D01*
X25667Y8552D01*
X25693Y8563D01*
X25698Y8566D01*
X25707Y8568D01*
X25723Y8573D01*
X25744Y8579D01*
X25769Y8586D01*
X25797Y8591D01*
X25829Y8593D01*
X25864Y8596D01*
X25880D01*
X25890Y8593D01*
X25904D01*
X25920Y8591D01*
X25957Y8584D01*
X25996Y8573D01*
X26040Y8556D01*
X26084Y8533D01*
X26123Y8503D01*
X26126D01*
X26128Y8498D01*
X26140Y8487D01*
X26156Y8468D01*
X26177Y8441D01*
X26195Y8408D01*
X26211Y8371D01*
X26223Y8327D01*
X26227Y8304D01*
Y8279D01*
Y8276D01*
Y8272D01*
Y8265D01*
X26225Y8255D01*
X26223Y8228D01*
X26214Y8195D01*
X26202Y8158D01*
X26184Y8121D01*
X26156Y8082D01*
X26140Y8063D01*
X26121Y8047D01*
X26116Y8043D01*
X26103Y8033D01*
X26079Y8019D01*
X26049Y8003D01*
X26012Y7987D01*
X25971Y7973D01*
X25920Y7964D01*
X25866Y7959D01*
X25806D01*
Y7957D01*
Y7952D01*
X25804Y7945D01*
Y7936D01*
X25797Y7911D01*
X25788Y7878D01*
X25774Y7841D01*
X25753Y7800D01*
X25728Y7760D01*
X25693Y7721D01*
X25688Y7716D01*
X25674Y7705D01*
X25654Y7689D01*
X25624Y7668D01*
X25589Y7645D01*
X25545Y7624D01*
X25496Y7608D01*
X25441Y7594D01*
X25443Y7591D01*
X25445Y7582D01*
X25448Y7568D01*
Y7554D01*
Y7552D01*
Y7550D01*
X25445Y7536D01*
X25443Y7515D01*
X25436Y7487D01*
X25427Y7459D01*
X25411Y7429D01*
X25390Y7399D01*
X25362Y7372D01*
X25357Y7369D01*
X25346Y7362D01*
X25327Y7351D01*
X25302Y7339D01*
X25269Y7325D01*
X25232Y7316D01*
X25186Y7307D01*
X25135Y7304D01*
X25114D01*
X25094Y7307D01*
X25066Y7309D01*
X25033Y7316D01*
X24999Y7323D01*
X24964Y7335D01*
X24932Y7348D01*
X24927Y7351D01*
X24918Y7355D01*
X24904Y7367D01*
X24885Y7379D01*
X24865Y7395D01*
X24844Y7413D01*
X24825Y7436D01*
X24807Y7459D01*
X24804Y7462D01*
X24800Y7471D01*
X24793Y7483D01*
X24786Y7497D01*
X24772Y7531D01*
X24767Y7547D01*
X24765Y7564D01*
X24770Y7573D01*
X24772D01*
X24774Y7571D01*
X24777Y7568D01*
X24779Y7561D01*
Y7559D01*
Y7554D01*
X24781Y7547D01*
X24784Y7538D01*
X24788Y7524D01*
X24795Y7508D01*
X24804Y7490D01*
X24816Y7466D01*
X24818Y7464D01*
X24823Y7457D01*
X24832Y7446D01*
X24844Y7429D01*
X24860Y7413D01*
X24881Y7397D01*
X24904Y7379D01*
X24932Y7362D01*
X24936Y7360D01*
X24946Y7355D01*
X24964Y7348D01*
X24987Y7341D01*
X25015Y7332D01*
X25047Y7325D01*
X25084Y7321D01*
X25126Y7318D01*
X25149D01*
X25172Y7323D01*
X25202Y7328D01*
X25237Y7335D01*
X25274Y7346D01*
X25311Y7362D01*
X25346Y7383D01*
X25350Y7385D01*
X25360Y7395D01*
X25374Y7409D01*
X25390Y7427D01*
X25406Y7450D01*
X25420Y7478D01*
X25429Y7510D01*
X25434Y7545D01*
Y7550D01*
Y7559D01*
X25431Y7571D01*
X25427Y7587D01*
X25420D01*
X25413Y7584D01*
X25404D01*
X25383Y7582D01*
X25348D01*
X25332Y7584D01*
X25309Y7587D01*
X25283Y7591D01*
X25256Y7596D01*
X25228Y7605D01*
X25200Y7617D01*
X25198Y7619D01*
X25188Y7624D01*
X25179Y7631D01*
X25165Y7640D01*
X25154Y7654D01*
X25142Y7668D01*
X25133Y7684D01*
X25131Y7702D01*
Y7707D01*
X25133Y7716D01*
X25142Y7728D01*
X25147Y7735D01*
X25156Y7739D01*
X25158D01*
X25161Y7742D01*
X25168Y7744D01*
X25175Y7746D01*
X25198Y7751D01*
X25228Y7753D01*
X25237D01*
X25249Y7751D01*
X25263Y7749D01*
X25281Y7744D01*
X25300Y7737D01*
X25320Y7728D01*
X25341Y7714D01*
X25344Y7712D01*
X25350Y7707D01*
X25362Y7698D01*
X25376Y7686D01*
X25390Y7672D01*
X25404Y7656D01*
X25418Y7638D01*
X25429Y7617D01*
X25431D01*
X25436Y7619D01*
X25445D01*
X25457Y7621D01*
X25471Y7626D01*
X25485Y7628D01*
X25522Y7640D01*
X25563Y7656D01*
X25607Y7675D01*
X25649Y7700D01*
X25688Y7733D01*
X25693Y7737D01*
X25705Y7749D01*
X25718Y7770D01*
X25737Y7795D01*
X25755Y7827D01*
X25774Y7867D01*
X25785Y7913D01*
X25792Y7962D01*
X25788D01*
X25776Y7964D01*
X25760Y7966D01*
X25739Y7971D01*
X25714Y7978D01*
X25686Y7987D01*
X25633Y8008D01*
X25630Y8009D01*
Y8006D01*
X25628Y8003D01*
X25624Y7994D01*
X25614Y7982D01*
X25600Y7966D01*
X25582Y7948D01*
X25559Y7929D01*
X25533Y7908D01*
X25501Y7888D01*
X25496Y7885D01*
X25485Y7881D01*
X25468Y7871D01*
X25445Y7862D01*
X25415Y7853D01*
X25383Y7844D01*
X25348Y7839D01*
X25311Y7837D01*
X25295D01*
X25279Y7839D01*
X25256D01*
X25230Y7844D01*
X25200Y7848D01*
X25172Y7853D01*
X25142Y7862D01*
X25145Y7864D01*
X25165Y7906D01*
X25175Y7927D01*
X25179Y7945D01*
X25184Y7964D01*
X25188Y7978D01*
X25190Y7985D01*
X25188Y7987D01*
X25186D01*
X25183Y7991D01*
X25179Y7973D01*
X25172Y7950D01*
X25165Y7929D01*
X25156Y7911D01*
X25149Y7895D01*
X25142Y7883D01*
X25138Y7874D01*
X25135Y7871D01*
X25133Y7869D01*
X25142Y7862D01*
X25138Y7855D01*
X25131Y7846D01*
X25119Y7832D01*
X25105Y7818D01*
X25091Y7804D01*
X25054Y7777D01*
X25052Y7774D01*
X25045Y7772D01*
X25036Y7767D01*
X25022Y7760D01*
X25006Y7753D01*
X24987Y7749D01*
X24969Y7746D01*
X24950Y7744D01*
X24943D01*
X24934Y7746D01*
X24922D01*
X24897Y7756D01*
X24885Y7760D01*
X24874Y7770D01*
X24869Y7774D01*
X24862Y7783D01*
X24853Y7800D01*
X24851Y7807D01*
X24848Y7816D01*
Y7818D01*
Y7823D01*
X24853Y7841D01*
X24858Y7848D01*
X24867Y7858D01*
X24876Y7862D01*
X24890Y7864D01*
X24895D01*
X24906Y7862D01*
X24915Y7853D01*
X24918Y7846D01*
X24920Y7837D01*
Y7834D01*
X24918Y7830D01*
X24913Y7825D01*
X24906Y7820D01*
X24897Y7816D01*
X24883Y7811D01*
X24865Y7807D01*
Y7804D01*
X24867Y7797D01*
X24874Y7786D01*
X24885Y7774D01*
X24890Y7772D01*
X24902Y7765D01*
X24922Y7758D01*
X24950Y7756D01*
X24957D01*
X24966Y7758D01*
X24978Y7760D01*
X24992Y7763D01*
X25008Y7770D01*
X25024Y7777D01*
X25043Y7788D01*
X25045Y7790D01*
X25052Y7793D01*
X25061Y7800D01*
X25075Y7809D01*
X25089Y7823D01*
X25105Y7837D01*
X25119Y7853D01*
X25133Y7869D01*
X25133Y7869D01*
X25131Y7871D01*
X25121Y7874D01*
X25108Y7881D01*
X25091Y7892D01*
X25068Y7906D01*
X25043Y7925D01*
X25013Y7948D01*
X24980Y7976D01*
X24957Y7994D01*
X24956Y7995D01*
X24955Y7994D01*
X24946Y7989D01*
X24927Y7982D01*
X24904Y7976D01*
X24876Y7969D01*
X24846Y7962D01*
X24811Y7957D01*
X24777Y7955D01*
X24767D01*
X24756Y7957D01*
X24740D01*
X24721Y7962D01*
X24700Y7966D01*
X24677Y7971D01*
X24652Y7980D01*
X24649Y7982D01*
X24640Y7985D01*
X24629Y7992D01*
X24612Y8001D01*
X24575Y8024D01*
X24536Y8054D01*
X24535Y8055D01*
X24543Y8063D01*
X24545Y8066D01*
X24548Y8063D01*
X24552Y8059D01*
X24561Y8050D01*
X24575Y8038D01*
X24589Y8026D01*
X24608Y8015D01*
X24629Y8003D01*
X24652Y7992D01*
X24654D01*
X24663Y7987D01*
X24677Y7985D01*
X24693Y7980D01*
X24712Y7976D01*
X24733Y7973D01*
X24777Y7969D01*
X24795D01*
X24814Y7971D01*
X24837Y7973D01*
X24865Y7976D01*
X24895Y7982D01*
X24925Y7989D01*
X24949Y8000D01*
X24948Y8001D01*
X24939Y8010D01*
X24925Y8022D01*
X24909Y8036D01*
X24888Y8052D01*
X24867Y8066D01*
X24844Y8080D01*
X24821Y8091D01*
X24818Y8094D01*
X24811Y8096D01*
X24797Y8100D01*
X24784Y8105D01*
X24763Y8110D01*
X24742Y8112D01*
X24716Y8117D01*
X24677D01*
X24659Y8114D01*
X24638Y8110D01*
X24615Y8103D01*
X24592Y8094D01*
X24566Y8082D01*
X24545Y8066D01*
X24545Y8066D01*
X24534Y8082D01*
X24532Y8085D01*
X24531Y8084D01*
X24529Y8082D01*
X24520Y8068D01*
X24513Y8077D01*
X24504Y8094D01*
X24494Y8112D01*
X24485Y8137D01*
X24476Y8163D01*
X24469Y8193D01*
X24467Y8225D01*
Y8228D01*
Y8232D01*
X24469Y8239D01*
Y8249D01*
X24471Y8262D01*
X24476Y8276D01*
X24490Y8311D01*
X24499Y8330D01*
X24511Y8350D01*
X24524Y8371D01*
X24543Y8392D01*
X24561Y8415D01*
X24587Y8436D01*
X24612Y8457D01*
X24645Y8478D01*
X24642Y8480D01*
X24640Y8487D01*
X24635Y8496D01*
X24629Y8510D01*
X24622Y8529D01*
X24617Y8549D01*
X24615Y8573D01*
X24612Y8598D01*
Y8600D01*
Y8610D01*
X24615Y8623D01*
X24617Y8640D01*
X24622Y8660D01*
X24629Y8681D01*
X24638Y8704D01*
X24649Y8728D01*
X24652Y8730D01*
X24656Y8737D01*
X24666Y8748D01*
X24677Y8762D01*
X24693Y8778D01*
X24712Y8795D01*
X24733Y8811D01*
X24756Y8825D01*
Y8827D01*
X24753Y8832D01*
X24749Y8841D01*
X24747Y8852D01*
X24737Y8878D01*
X24735Y8906D01*
Y8908D01*
Y8913D01*
Y8920D01*
X24737Y8929D01*
X24742Y8947D01*
X24749Y8966D01*
X24751Y8968D01*
X24760Y8977D01*
X24772Y8984D01*
X24788Y8987D01*
X24793D01*
X24804Y8984D01*
X24814Y8975D01*
X24816Y8970D01*
X24818Y8961D01*
Y8959D01*
X24816Y8954D01*
X24811Y8947D01*
X24800Y8945D01*
X24797D01*
X24793Y8947D01*
X24784Y8952D01*
X24777Y8959D01*
X24772D01*
X24763Y8954D01*
X24758Y8947D01*
X24753Y8940D01*
X24751Y8929D01*
X24749Y8913D01*
Y8910D01*
Y8906D01*
X24751Y8899D01*
Y8890D01*
X24758Y8864D01*
X24770Y8834D01*
X24772Y8836D01*
X24781Y8839D01*
X24795Y8846D01*
X24811Y8850D01*
X24832Y8857D01*
X24855Y8864D01*
X24881Y8869D01*
X24909Y8871D01*
Y8873D01*
X24911Y8878D01*
Y8885D01*
X24913Y8894D01*
X24920Y8920D01*
X24932Y8952D01*
X24946Y8989D01*
X24966Y9028D01*
X24990Y9065D01*
X25017Y9102D01*
X25022Y9107D01*
X25031Y9116D01*
X25050Y9132D01*
X25075Y9151D01*
X25103Y9172D01*
X25138Y9190D01*
X25177Y9207D01*
X25221Y9218D01*
X25223Y9220D01*
X25226Y9230D01*
X25232Y9241D01*
X25242Y9257D01*
X25253Y9274D01*
X25269Y9292D01*
X25288Y9308D01*
X25311Y9325D01*
X25313Y9327D01*
X25323Y9331D01*
X25337Y9336D01*
X25353Y9345D01*
X25374Y9352D01*
X25399Y9357D01*
X25425Y9362D01*
X25452Y9364D01*
X25468D01*
X25487Y9362D01*
D02*
G37*
G36*
X28268Y8977D02*
Y8975D01*
X28264Y8964D01*
X28259Y8957D01*
X28252Y8947D01*
X28243Y8936D01*
X28231Y8922D01*
X28229Y8920D01*
X28227Y8917D01*
X28213Y8903D01*
X28201Y8890D01*
X28197Y8883D01*
X28194Y8880D01*
Y8876D01*
X28199Y8866D01*
X28206Y8852D01*
X28213Y8843D01*
X28222Y8834D01*
X28204Y8832D01*
X28185Y8829D01*
X28150Y8836D01*
X28134Y8841D01*
X28123Y8843D01*
X28113Y8848D01*
X28111D01*
X28109Y8849D01*
X28111Y8850D01*
X28116Y8852D01*
X28127Y8859D01*
X28143Y8871D01*
X28164Y8887D01*
X28187Y8903D01*
X28211Y8924D01*
X28231Y8945D01*
X28248Y8968D01*
X28259Y8980D01*
X28268Y8977D01*
D02*
G37*
G36*
X23157Y8728D02*
X23171Y8723D01*
X23185Y8711D01*
X23187Y8709D01*
X23196Y8700D01*
X23203Y8686D01*
X23205Y8672D01*
Y8667D01*
X23203Y8658D01*
X23199Y8644D01*
X23187Y8630D01*
X23185Y8628D01*
X23175Y8623D01*
X23164Y8616D01*
X23148Y8614D01*
X23145D01*
X23136Y8616D01*
X23122Y8621D01*
X23108Y8630D01*
X23106Y8633D01*
X23099Y8642D01*
X23092Y8656D01*
X23090Y8672D01*
Y8677D01*
X23092Y8686D01*
X23097Y8697D01*
X23106Y8711D01*
X23108Y8714D01*
X23118Y8721D01*
X23129Y8728D01*
X23143Y8730D01*
X23148D01*
X23157Y8728D01*
D02*
G37*
G36*
X30043Y8457D02*
Y8455D01*
X30041Y8450D01*
X30034Y8441D01*
X30022Y8427D01*
X30020Y8424D01*
X30013Y8417D01*
X30006Y8408D01*
X30004Y8401D01*
X30006Y8399D01*
X30011Y8397D01*
X30018Y8392D01*
X30025Y8385D01*
X30045Y8374D01*
X30057Y8371D01*
X30066Y8369D01*
X30071D01*
X30078Y8371D01*
X30087D01*
X30108Y8378D01*
X30133Y8392D01*
X30138Y8385D01*
Y8383D01*
X30136Y8380D01*
X30131Y8376D01*
X30124Y8369D01*
X30115Y8360D01*
X30101Y8346D01*
X30082Y8330D01*
X30080Y8327D01*
X30073Y8323D01*
X30064Y8313D01*
X30052Y8306D01*
X30025Y8288D01*
X30011Y8283D01*
X29999Y8281D01*
X29995D01*
X29988Y8283D01*
X29976Y8288D01*
X29962Y8297D01*
X29946Y8306D01*
X29925Y8323D01*
X29900Y8343D01*
X29895Y8341D01*
X29886Y8332D01*
X29872Y8318D01*
X29856Y8302D01*
X29837Y8279D01*
X29823Y8255D01*
X29814Y8230D01*
X29809Y8202D01*
Y8198D01*
X29812Y8188D01*
X29814Y8172D01*
X29819Y8156D01*
X29828Y8137D01*
X29840Y8121D01*
X29858Y8112D01*
X29881Y8107D01*
X29886D01*
X29893Y8110D01*
X29902Y8112D01*
X29911Y8117D01*
X29925Y8126D01*
X29944Y8135D01*
X29962Y8149D01*
X29964Y8151D01*
X29971Y8156D01*
X29983Y8163D01*
X29997Y8172D01*
X30013Y8179D01*
X30032Y8186D01*
X30050Y8191D01*
X30071Y8193D01*
X30080D01*
X30089Y8191D01*
X30101D01*
X30126Y8181D01*
X30140Y8175D01*
X30152Y8165D01*
X30154D01*
X30157Y8161D01*
X30168Y8147D01*
X30180Y8126D01*
X30182Y8112D01*
X30184Y8098D01*
Y8096D01*
Y8091D01*
X30182Y8082D01*
X30180Y8073D01*
X30175Y8059D01*
X30166Y8045D01*
X30157Y8029D01*
X30143Y8013D01*
X30140Y8010D01*
X30136Y8006D01*
X30124Y7996D01*
X30110Y7985D01*
X30092Y7969D01*
X30066Y7952D01*
X30036Y7934D01*
X30001Y7913D01*
X29997Y7911D01*
X29985Y7904D01*
X29969Y7895D01*
X29948Y7885D01*
X29927Y7871D01*
X29907Y7860D01*
X29888Y7851D01*
X29874Y7841D01*
X29870Y7837D01*
X29860Y7827D01*
X29844Y7811D01*
X29830Y7790D01*
X29828D01*
X29826Y7793D01*
Y7797D01*
Y7800D01*
Y7802D01*
X29828Y7807D01*
X29833Y7814D01*
X29835Y7816D01*
X29837Y7820D01*
X29840Y7825D01*
Y7832D01*
Y7834D01*
X29837Y7837D01*
X29830Y7846D01*
X29819Y7855D01*
X29816Y7858D01*
X29805Y7864D01*
X29789Y7869D01*
X29768Y7871D01*
X29759D01*
X29747Y7869D01*
X29733Y7864D01*
X29719Y7858D01*
X29703Y7846D01*
X29689Y7832D01*
X29675Y7814D01*
X29671Y7807D01*
X29668Y7809D01*
X29666Y7811D01*
X29664Y7816D01*
Y7820D01*
X29666Y7825D01*
X29671Y7832D01*
X29675Y7841D01*
X29684Y7853D01*
X29698Y7869D01*
X29715Y7888D01*
X29717Y7890D01*
X29724Y7897D01*
X29735Y7904D01*
X29752Y7915D01*
X29770Y7925D01*
X29791Y7932D01*
X29814Y7938D01*
X29842Y7941D01*
X29851D01*
X29860Y7938D01*
X29874Y7936D01*
X29888Y7932D01*
X29904Y7927D01*
X29921Y7918D01*
X29937Y7906D01*
X29946Y7901D01*
X29960Y7908D01*
X29964Y7911D01*
X29971Y7915D01*
X29985Y7922D01*
X30001Y7932D01*
X30036Y7955D01*
X30050Y7969D01*
X30059Y7980D01*
Y7982D01*
X30064Y7985D01*
X30066Y7992D01*
X30071Y8001D01*
X30078Y8024D01*
X30082Y8050D01*
Y8052D01*
Y8057D01*
X30080Y8063D01*
Y8073D01*
X30071Y8094D01*
X30066Y8103D01*
X30057Y8112D01*
X30052Y8117D01*
X30041Y8124D01*
X30022Y8131D01*
X29997Y8135D01*
X29992D01*
X29985Y8133D01*
X29976Y8131D01*
X29964Y8124D01*
X29948Y8117D01*
X29932Y8105D01*
X29911Y8091D01*
X29909Y8089D01*
X29902Y8084D01*
X29890Y8077D01*
X29879Y8070D01*
X29844Y8057D01*
X29828Y8052D01*
X29809Y8050D01*
X29802D01*
X29796Y8052D01*
X29789Y8054D01*
X29765Y8061D01*
X29756Y8068D01*
X29745Y8077D01*
Y8080D01*
X29740Y8082D01*
X29738Y8089D01*
X29733Y8098D01*
X29724Y8119D01*
X29722Y8133D01*
X29719Y8147D01*
Y8149D01*
Y8156D01*
X29722Y8168D01*
X29726Y8184D01*
X29731Y8200D01*
X29740Y8221D01*
X29752Y8242D01*
X29768Y8262D01*
X29770Y8265D01*
X29777Y8272D01*
X29791Y8283D01*
X29809Y8299D01*
X29833Y8318D01*
X29863Y8339D01*
X29902Y8362D01*
X29946Y8387D01*
X29948Y8390D01*
X29955Y8394D01*
X29967Y8401D01*
X29981Y8411D01*
X30008Y8431D01*
X30022Y8445D01*
X30034Y8459D01*
X30039Y8466D01*
X30043Y8457D01*
D02*
G37*
G36*
X29541D02*
Y8455D01*
X29539Y8450D01*
X29532Y8441D01*
X29520Y8427D01*
X29518Y8424D01*
X29511Y8417D01*
X29504Y8408D01*
X29502Y8401D01*
X29504Y8399D01*
X29509Y8397D01*
X29516Y8392D01*
X29523Y8385D01*
X29543Y8374D01*
X29555Y8371D01*
X29564Y8369D01*
X29569D01*
X29576Y8371D01*
X29585D01*
X29606Y8378D01*
X29631Y8392D01*
X29636Y8385D01*
Y8383D01*
X29634Y8380D01*
X29629Y8376D01*
X29622Y8369D01*
X29613Y8360D01*
X29599Y8346D01*
X29580Y8330D01*
X29578Y8327D01*
X29571Y8323D01*
X29562Y8313D01*
X29550Y8306D01*
X29523Y8288D01*
X29509Y8283D01*
X29497Y8281D01*
X29492D01*
X29485Y8283D01*
X29474Y8288D01*
X29460Y8297D01*
X29444Y8306D01*
X29423Y8323D01*
X29398Y8343D01*
X29393Y8341D01*
X29384Y8332D01*
X29370Y8318D01*
X29354Y8302D01*
X29335Y8279D01*
X29321Y8255D01*
X29312Y8230D01*
X29307Y8202D01*
Y8198D01*
X29310Y8188D01*
X29312Y8172D01*
X29317Y8156D01*
X29326Y8137D01*
X29337Y8121D01*
X29356Y8112D01*
X29379Y8107D01*
X29384D01*
X29391Y8110D01*
X29400Y8112D01*
X29409Y8117D01*
X29423Y8126D01*
X29442Y8135D01*
X29460Y8149D01*
X29462Y8151D01*
X29469Y8156D01*
X29481Y8163D01*
X29495Y8172D01*
X29511Y8179D01*
X29529Y8186D01*
X29548Y8191D01*
X29569Y8193D01*
X29578D01*
X29587Y8191D01*
X29599D01*
X29624Y8181D01*
X29638Y8175D01*
X29650Y8165D01*
X29652D01*
X29654Y8161D01*
X29666Y8147D01*
X29678Y8126D01*
X29680Y8112D01*
X29682Y8098D01*
Y8096D01*
Y8091D01*
X29680Y8082D01*
X29678Y8073D01*
X29673Y8059D01*
X29664Y8045D01*
X29654Y8029D01*
X29641Y8013D01*
X29638Y8010D01*
X29634Y8006D01*
X29622Y7996D01*
X29608Y7985D01*
X29590Y7969D01*
X29564Y7952D01*
X29534Y7934D01*
X29499Y7913D01*
X29495Y7911D01*
X29483Y7904D01*
X29467Y7895D01*
X29446Y7885D01*
X29425Y7871D01*
X29404Y7860D01*
X29386Y7851D01*
X29372Y7841D01*
X29367Y7837D01*
X29358Y7827D01*
X29342Y7811D01*
X29328Y7790D01*
X29326D01*
X29324Y7793D01*
Y7797D01*
Y7800D01*
Y7802D01*
X29326Y7807D01*
X29330Y7814D01*
X29333Y7816D01*
X29335Y7820D01*
X29337Y7825D01*
Y7832D01*
Y7834D01*
X29335Y7837D01*
X29328Y7846D01*
X29317Y7855D01*
X29314Y7858D01*
X29303Y7864D01*
X29286Y7869D01*
X29266Y7871D01*
X29256D01*
X29245Y7869D01*
X29231Y7864D01*
X29217Y7858D01*
X29201Y7846D01*
X29187Y7832D01*
X29173Y7814D01*
X29168Y7807D01*
X29166Y7809D01*
X29164Y7811D01*
X29162Y7816D01*
Y7820D01*
X29164Y7825D01*
X29168Y7832D01*
X29173Y7841D01*
X29182Y7853D01*
X29196Y7869D01*
X29212Y7888D01*
X29215Y7890D01*
X29222Y7897D01*
X29233Y7904D01*
X29249Y7915D01*
X29268Y7925D01*
X29289Y7932D01*
X29312Y7938D01*
X29340Y7941D01*
X29349D01*
X29358Y7938D01*
X29372Y7936D01*
X29386Y7932D01*
X29402Y7927D01*
X29418Y7918D01*
X29435Y7906D01*
X29444Y7901D01*
X29458Y7908D01*
X29462Y7911D01*
X29469Y7915D01*
X29483Y7922D01*
X29499Y7932D01*
X29534Y7955D01*
X29548Y7969D01*
X29557Y7980D01*
Y7982D01*
X29562Y7985D01*
X29564Y7992D01*
X29569Y8001D01*
X29576Y8024D01*
X29580Y8050D01*
Y8052D01*
Y8057D01*
X29578Y8063D01*
Y8073D01*
X29569Y8094D01*
X29564Y8103D01*
X29555Y8112D01*
X29550Y8117D01*
X29539Y8124D01*
X29520Y8131D01*
X29495Y8135D01*
X29490D01*
X29483Y8133D01*
X29474Y8131D01*
X29462Y8124D01*
X29446Y8117D01*
X29430Y8105D01*
X29409Y8091D01*
X29407Y8089D01*
X29400Y8084D01*
X29388Y8077D01*
X29377Y8070D01*
X29342Y8057D01*
X29326Y8052D01*
X29307Y8050D01*
X29300D01*
X29293Y8052D01*
X29286Y8054D01*
X29263Y8061D01*
X29254Y8068D01*
X29243Y8077D01*
Y8080D01*
X29238Y8082D01*
X29236Y8089D01*
X29231Y8098D01*
X29222Y8119D01*
X29219Y8133D01*
X29217Y8147D01*
Y8149D01*
Y8156D01*
X29219Y8168D01*
X29224Y8184D01*
X29229Y8200D01*
X29238Y8221D01*
X29249Y8242D01*
X29266Y8262D01*
X29268Y8265D01*
X29275Y8272D01*
X29289Y8283D01*
X29307Y8299D01*
X29330Y8318D01*
X29361Y8339D01*
X29400Y8362D01*
X29444Y8387D01*
X29446Y8390D01*
X29453Y8394D01*
X29465Y8401D01*
X29479Y8411D01*
X29506Y8431D01*
X29520Y8445D01*
X29532Y8459D01*
X29536Y8466D01*
X29541Y8457D01*
D02*
G37*
G36*
X23726Y8468D02*
Y8466D01*
X23721Y8459D01*
X23719Y8450D01*
X23715Y8441D01*
X23705Y8429D01*
X23696Y8413D01*
Y8411D01*
X23698Y8401D01*
X23705Y8390D01*
X23719Y8376D01*
X23724Y8374D01*
X23735Y8367D01*
X23756Y8360D01*
X23786Y8357D01*
X23789D01*
X23798Y8360D01*
X23814Y8364D01*
X23837Y8376D01*
X23842Y8371D01*
X23839Y8369D01*
X23835Y8367D01*
X23828Y8360D01*
X23819Y8353D01*
X23793Y8334D01*
X23763Y8309D01*
X23761Y8306D01*
X23756Y8304D01*
X23749Y8297D01*
X23740Y8293D01*
X23719Y8279D01*
X23708Y8276D01*
X23696Y8274D01*
X23689D01*
X23682Y8276D01*
X23673Y8279D01*
X23652Y8288D01*
X23640Y8295D01*
X23629Y8304D01*
X23627Y8306D01*
X23624Y8309D01*
X23613Y8320D01*
X23601Y8330D01*
X23597Y8332D01*
X23594Y8334D01*
X23592D01*
X23587Y8332D01*
X23576Y8323D01*
X23566Y8318D01*
X23557Y8309D01*
X23553Y8304D01*
X23541Y8293D01*
X23527Y8272D01*
X23511Y8246D01*
Y7996D01*
Y7994D01*
Y7987D01*
X23516Y7976D01*
X23520Y7962D01*
X23527Y7948D01*
X23539Y7934D01*
X23555Y7920D01*
X23576Y7911D01*
X23592Y7901D01*
X23576Y7897D01*
X23573D01*
X23564Y7892D01*
X23550Y7885D01*
X23532Y7876D01*
X23513Y7862D01*
X23492Y7844D01*
X23472Y7820D01*
X23453Y7790D01*
X23444Y7777D01*
X23441D01*
X23439Y7779D01*
Y7783D01*
Y7786D01*
X23441Y7790D01*
X23444Y7797D01*
X23448Y7809D01*
X23451Y7811D01*
X23455Y7818D01*
X23458Y7827D01*
X23460Y7834D01*
Y7837D01*
X23458Y7844D01*
X23448Y7853D01*
X23441Y7862D01*
X23432Y7871D01*
Y7874D01*
X23428Y7876D01*
X23416Y7888D01*
X23402Y7897D01*
X23393Y7899D01*
X23384Y7901D01*
X23377D01*
X23367Y7899D01*
X23354Y7895D01*
X23342Y7899D01*
X23344Y7904D01*
X23351Y7908D01*
X23363Y7915D01*
X23365Y7918D01*
X23372Y7920D01*
X23381Y7927D01*
X23393Y7934D01*
X23404Y7943D01*
X23414Y7955D01*
X23421Y7969D01*
X23423Y7985D01*
Y8242D01*
Y8244D01*
Y8246D01*
X23421Y8258D01*
X23411Y8274D01*
X23407Y8281D01*
X23398Y8290D01*
X23393Y8295D01*
X23384Y8302D01*
X23372Y8309D01*
X23358Y8313D01*
X23356D01*
X23347Y8311D01*
X23333Y8302D01*
X23326Y8297D01*
X23317Y8288D01*
X23312Y8297D01*
Y8299D01*
X23317Y8302D01*
X23321Y8306D01*
X23328Y8313D01*
X23340Y8323D01*
X23356Y8334D01*
X23377Y8350D01*
X23379Y8353D01*
X23386Y8357D01*
X23398Y8367D01*
X23411Y8376D01*
X23437Y8397D01*
X23446Y8406D01*
X23453Y8413D01*
X23455Y8415D01*
X23460Y8424D01*
X23467Y8441D01*
X23476Y8464D01*
X23481Y8457D01*
Y8452D01*
X23479Y8448D01*
Y8441D01*
X23474Y8431D01*
X23469Y8420D01*
X23462Y8404D01*
X23453Y8385D01*
X23455Y8383D01*
X23462Y8376D01*
X23472Y8364D01*
X23483Y8353D01*
X23492Y8339D01*
X23502Y8325D01*
X23509Y8311D01*
X23511Y8299D01*
Y8274D01*
X23513Y8276D01*
X23518Y8281D01*
X23525Y8290D01*
X23534Y8299D01*
X23546Y8311D01*
X23562Y8325D01*
X23580Y8339D01*
X23599Y8353D01*
X23601Y8355D01*
X23608Y8360D01*
X23617Y8367D01*
X23629Y8374D01*
X23654Y8392D01*
X23664Y8401D01*
X23673Y8411D01*
X23675Y8415D01*
X23687Y8427D01*
X23701Y8448D01*
X23721Y8475D01*
X23726Y8468D01*
D02*
G37*
G36*
X22106D02*
Y8466D01*
X22102Y8459D01*
X22099Y8450D01*
X22095Y8441D01*
X22086Y8429D01*
X22076Y8413D01*
Y8411D01*
X22079Y8401D01*
X22086Y8390D01*
X22099Y8376D01*
X22104Y8374D01*
X22116Y8367D01*
X22136Y8360D01*
X22167Y8357D01*
X22169D01*
X22178Y8360D01*
X22194Y8364D01*
X22217Y8376D01*
X22222Y8371D01*
X22220Y8369D01*
X22215Y8367D01*
X22208Y8360D01*
X22199Y8353D01*
X22173Y8334D01*
X22143Y8309D01*
X22141Y8306D01*
X22136Y8304D01*
X22129Y8297D01*
X22120Y8293D01*
X22099Y8279D01*
X22088Y8276D01*
X22076Y8274D01*
X22069D01*
X22062Y8276D01*
X22053Y8279D01*
X22032Y8288D01*
X22021Y8295D01*
X22009Y8304D01*
X22007Y8306D01*
X22005Y8309D01*
X21993Y8320D01*
X21981Y8330D01*
X21977Y8332D01*
X21974Y8334D01*
X21972D01*
X21968Y8332D01*
X21956Y8323D01*
X21947Y8318D01*
X21937Y8309D01*
X21933Y8304D01*
X21921Y8293D01*
X21907Y8272D01*
X21891Y8246D01*
Y7996D01*
Y7994D01*
Y7987D01*
X21896Y7976D01*
X21900Y7962D01*
X21907Y7948D01*
X21919Y7934D01*
X21935Y7920D01*
X21956Y7911D01*
X21972Y7901D01*
X21956Y7897D01*
X21954D01*
X21944Y7892D01*
X21930Y7885D01*
X21912Y7876D01*
X21893Y7862D01*
X21873Y7844D01*
X21852Y7820D01*
X21833Y7790D01*
X21824Y7777D01*
X21822D01*
X21819Y7779D01*
Y7783D01*
Y7786D01*
X21822Y7790D01*
X21824Y7797D01*
X21829Y7809D01*
X21831Y7811D01*
X21836Y7818D01*
X21838Y7827D01*
X21840Y7834D01*
Y7837D01*
X21838Y7844D01*
X21829Y7853D01*
X21822Y7862D01*
X21812Y7871D01*
Y7874D01*
X21808Y7876D01*
X21796Y7888D01*
X21782Y7897D01*
X21773Y7899D01*
X21764Y7901D01*
X21757D01*
X21748Y7899D01*
X21734Y7895D01*
X21722Y7899D01*
X21725Y7904D01*
X21731Y7908D01*
X21743Y7915D01*
X21745Y7918D01*
X21752Y7920D01*
X21762Y7927D01*
X21773Y7934D01*
X21785Y7943D01*
X21794Y7955D01*
X21801Y7969D01*
X21803Y7985D01*
Y8242D01*
Y8244D01*
Y8246D01*
X21801Y8258D01*
X21792Y8274D01*
X21787Y8281D01*
X21778Y8290D01*
X21773Y8295D01*
X21764Y8302D01*
X21752Y8309D01*
X21738Y8313D01*
X21736D01*
X21727Y8311D01*
X21713Y8302D01*
X21706Y8297D01*
X21697Y8288D01*
X21692Y8297D01*
Y8299D01*
X21697Y8302D01*
X21701Y8306D01*
X21708Y8313D01*
X21720Y8323D01*
X21736Y8334D01*
X21757Y8350D01*
X21759Y8353D01*
X21766Y8357D01*
X21778Y8367D01*
X21792Y8376D01*
X21817Y8397D01*
X21826Y8406D01*
X21833Y8413D01*
X21836Y8415D01*
X21840Y8424D01*
X21847Y8441D01*
X21856Y8464D01*
X21861Y8457D01*
Y8452D01*
X21859Y8448D01*
Y8441D01*
X21854Y8431D01*
X21849Y8420D01*
X21843Y8404D01*
X21833Y8385D01*
X21836Y8383D01*
X21843Y8376D01*
X21852Y8364D01*
X21863Y8353D01*
X21873Y8339D01*
X21882Y8325D01*
X21889Y8311D01*
X21891Y8299D01*
Y8274D01*
X21893Y8276D01*
X21898Y8281D01*
X21905Y8290D01*
X21914Y8299D01*
X21926Y8311D01*
X21942Y8325D01*
X21961Y8339D01*
X21979Y8353D01*
X21981Y8355D01*
X21988Y8360D01*
X21998Y8367D01*
X22009Y8374D01*
X22035Y8392D01*
X22044Y8401D01*
X22053Y8411D01*
X22055Y8415D01*
X22067Y8427D01*
X22081Y8448D01*
X22102Y8475D01*
X22106Y8468D01*
D02*
G37*
G36*
X28032Y8361D02*
Y8290D01*
X28039Y8283D01*
X28044Y8281D01*
X28055Y8274D01*
X28074Y8265D01*
X28099Y8255D01*
X28127Y8246D01*
X28162Y8237D01*
X28201Y8230D01*
X28241Y8228D01*
X28280D01*
X28296Y8230D01*
X28298D01*
X28300Y8216D01*
X28298Y8216D01*
X28287D01*
X28273Y8214D01*
X28227D01*
X28211Y8216D01*
X28192Y8218D01*
X28171Y8221D01*
X28125Y8232D01*
X28123D01*
X28116Y8237D01*
X28104Y8242D01*
X28090Y8246D01*
X28060Y8262D01*
X28044Y8272D01*
X28032Y8281D01*
Y8255D01*
X28037D01*
X28049Y8251D01*
X28058Y8242D01*
X28060Y8235D01*
X28062Y8228D01*
Y8225D01*
X28060Y8223D01*
X28058Y8216D01*
X28051Y8209D01*
X28049D01*
X28046Y8207D01*
X28039Y8205D01*
X28032Y8202D01*
Y8128D01*
X28035Y8128D01*
X28053Y8131D01*
X28060D01*
X28069Y8128D01*
X28079D01*
X28102Y8119D01*
X28113Y8112D01*
X28125Y8103D01*
X28127D01*
X28130Y8098D01*
X28139Y8084D01*
X28148Y8063D01*
X28153Y8050D01*
Y8036D01*
Y8033D01*
Y8029D01*
Y8022D01*
X28150Y8013D01*
X28143Y7992D01*
X28130Y7973D01*
X28125Y7971D01*
X28116Y7964D01*
X28097Y7955D01*
X28074Y7952D01*
X28072D01*
X28062Y7955D01*
X28053Y7957D01*
X28039Y7962D01*
X28028Y7969D01*
X28016Y7982D01*
X28007Y7999D01*
X28005Y8022D01*
Y8024D01*
Y8029D01*
X28007Y8038D01*
X28012Y8047D01*
X28021Y8059D01*
X28030Y8068D01*
X28046Y8075D01*
X28067Y8082D01*
Y8087D01*
X28062Y8094D01*
X28055Y8098D01*
X28049Y8100D01*
X28037Y8105D01*
X28023D01*
X28028Y8107D01*
X28032Y8114D01*
Y8121D01*
Y8124D01*
Y8128D01*
X28021Y8126D01*
X28018Y8125D01*
Y8200D01*
X28012D01*
X28005Y8202D01*
X27998Y8207D01*
Y8209D01*
X27995Y8214D01*
X27993Y8221D01*
X27991Y8228D01*
Y8230D01*
X27995Y8239D01*
X28002Y8246D01*
X28009Y8251D01*
X28018Y8253D01*
Y8367D01*
X28032Y8361D01*
D02*
G37*
G36*
X26503Y8445D02*
X26505Y8441D01*
Y8438D01*
X26503Y8436D01*
X26496Y8422D01*
X26489Y8411D01*
X26487Y8404D01*
Y8401D01*
X26503Y8387D01*
X26507Y8385D01*
X26517Y8378D01*
X26528Y8369D01*
X26544Y8357D01*
X26561Y8341D01*
X26572Y8323D01*
X26581Y8302D01*
X26586Y8279D01*
Y8276D01*
Y8274D01*
Y8267D01*
X26584Y8258D01*
X26577Y8235D01*
X26563Y8209D01*
Y8207D01*
X26558Y8202D01*
X26554Y8195D01*
X26544Y8184D01*
X26535Y8172D01*
X26519Y8158D01*
X26503Y8142D01*
X26482Y8124D01*
X26480Y8121D01*
X26473Y8117D01*
X26463Y8107D01*
X26450Y8096D01*
X26424Y8070D01*
X26413Y8057D01*
X26403Y8045D01*
X26399Y8050D01*
Y8054D01*
X26403Y8063D01*
X26408Y8070D01*
X26415Y8082D01*
X26424Y8091D01*
X26436Y8105D01*
X26438Y8107D01*
X26443Y8112D01*
X26447Y8119D01*
X26457Y8128D01*
X26473Y8149D01*
X26480Y8158D01*
X26484Y8170D01*
Y8172D01*
X26487Y8175D01*
X26491Y8188D01*
X26496Y8205D01*
X26498Y8225D01*
Y8228D01*
Y8232D01*
X26496Y8246D01*
X26487Y8265D01*
X26480Y8276D01*
X26470Y8286D01*
Y8288D01*
X26466Y8290D01*
X26457Y8299D01*
X26445Y8309D01*
X26440Y8313D01*
X26431D01*
X26420Y8306D01*
X26413Y8302D01*
X26406Y8293D01*
X26396Y8281D01*
X26387Y8265D01*
Y8262D01*
X26385Y8255D01*
X26380Y8244D01*
X26378Y8228D01*
X26373Y8207D01*
X26369Y8184D01*
X26366Y8154D01*
Y8119D01*
Y8114D01*
Y8103D01*
X26369Y8087D01*
X26373Y8066D01*
X26378Y8043D01*
X26387Y8019D01*
X26399Y7996D01*
X26415Y7976D01*
X26417Y7973D01*
X26424Y7969D01*
X26433Y7962D01*
X26447Y7952D01*
X26463Y7943D01*
X26482Y7936D01*
X26503Y7932D01*
X26524Y7929D01*
X26526D01*
X26535Y7934D01*
X26542Y7938D01*
X26549Y7945D01*
X26561Y7955D01*
X26572Y7969D01*
X26575D01*
X26577Y7966D01*
X26579Y7964D01*
X26581Y7955D01*
X26579Y7950D01*
X26575Y7943D01*
X26568Y7934D01*
X26554Y7920D01*
X26533Y7904D01*
X26519Y7895D01*
X26503Y7883D01*
X26484Y7871D01*
X26463Y7860D01*
X26461Y7858D01*
X26454Y7855D01*
X26445Y7848D01*
X26433Y7841D01*
X26408Y7825D01*
X26396Y7816D01*
X26389Y7809D01*
X26387Y7804D01*
X26382Y7795D01*
X26378Y7781D01*
X26376Y7765D01*
X26369D01*
X26364Y7767D01*
X26362Y7772D01*
Y7774D01*
Y7777D01*
X26364Y7783D01*
X26366Y7793D01*
X26373Y7802D01*
X26380Y7814D01*
X26392Y7827D01*
X26406Y7841D01*
X26389Y7853D01*
X26385Y7855D01*
X26373Y7867D01*
X26355Y7883D01*
X26336Y7908D01*
X26315Y7938D01*
X26297Y7976D01*
X26285Y8022D01*
X26283Y8045D01*
X26281Y8073D01*
Y8075D01*
Y8080D01*
Y8087D01*
X26283Y8096D01*
X26285Y8110D01*
X26288Y8124D01*
X26299Y8158D01*
X26315Y8202D01*
X26329Y8225D01*
X26343Y8249D01*
X26359Y8274D01*
X26378Y8302D01*
X26401Y8327D01*
X26426Y8355D01*
X26429Y8357D01*
X26433Y8362D01*
X26443Y8371D01*
X26452Y8383D01*
X26463Y8397D01*
X26475Y8413D01*
X26496Y8450D01*
X26501D01*
X26503Y8445D01*
D02*
G37*
G36*
X24133D02*
X24136Y8441D01*
Y8438D01*
X24133Y8436D01*
X24126Y8422D01*
X24119Y8411D01*
X24117Y8404D01*
Y8401D01*
X24133Y8387D01*
X24138Y8385D01*
X24147Y8378D01*
X24159Y8369D01*
X24175Y8357D01*
X24191Y8341D01*
X24203Y8323D01*
X24212Y8302D01*
X24217Y8279D01*
Y8276D01*
Y8274D01*
Y8267D01*
X24214Y8258D01*
X24207Y8235D01*
X24194Y8209D01*
Y8207D01*
X24189Y8202D01*
X24184Y8195D01*
X24175Y8184D01*
X24166Y8172D01*
X24150Y8158D01*
X24133Y8142D01*
X24113Y8124D01*
X24110Y8121D01*
X24103Y8117D01*
X24094Y8107D01*
X24080Y8096D01*
X24055Y8070D01*
X24043Y8057D01*
X24034Y8045D01*
X24029Y8050D01*
Y8054D01*
X24034Y8063D01*
X24038Y8070D01*
X24045Y8082D01*
X24055Y8091D01*
X24066Y8105D01*
X24069Y8107D01*
X24073Y8112D01*
X24078Y8119D01*
X24087Y8128D01*
X24103Y8149D01*
X24110Y8158D01*
X24115Y8170D01*
Y8172D01*
X24117Y8175D01*
X24122Y8188D01*
X24126Y8205D01*
X24129Y8225D01*
Y8228D01*
Y8232D01*
X24126Y8246D01*
X24117Y8265D01*
X24110Y8276D01*
X24101Y8286D01*
Y8288D01*
X24096Y8290D01*
X24087Y8299D01*
X24076Y8309D01*
X24071Y8313D01*
X24062D01*
X24050Y8306D01*
X24043Y8302D01*
X24036Y8293D01*
X24027Y8281D01*
X24018Y8265D01*
Y8262D01*
X24015Y8255D01*
X24011Y8244D01*
X24008Y8228D01*
X24004Y8207D01*
X23999Y8184D01*
X23997Y8154D01*
Y8119D01*
Y8114D01*
Y8103D01*
X23999Y8087D01*
X24004Y8066D01*
X24008Y8043D01*
X24018Y8019D01*
X24029Y7996D01*
X24045Y7976D01*
X24048Y7973D01*
X24055Y7969D01*
X24064Y7962D01*
X24078Y7952D01*
X24094Y7943D01*
X24113Y7936D01*
X24133Y7932D01*
X24154Y7929D01*
X24156D01*
X24166Y7934D01*
X24173Y7938D01*
X24180Y7945D01*
X24191Y7955D01*
X24203Y7969D01*
X24205D01*
X24207Y7966D01*
X24210Y7964D01*
X24212Y7955D01*
X24210Y7950D01*
X24205Y7943D01*
X24198Y7934D01*
X24184Y7920D01*
X24163Y7904D01*
X24150Y7895D01*
X24133Y7883D01*
X24115Y7871D01*
X24094Y7860D01*
X24092Y7858D01*
X24085Y7855D01*
X24076Y7848D01*
X24064Y7841D01*
X24038Y7825D01*
X24027Y7816D01*
X24020Y7809D01*
X24018Y7804D01*
X24013Y7795D01*
X24008Y7781D01*
X24006Y7765D01*
X23999D01*
X23995Y7767D01*
X23992Y7772D01*
Y7774D01*
Y7777D01*
X23995Y7783D01*
X23997Y7793D01*
X24004Y7802D01*
X24011Y7814D01*
X24022Y7827D01*
X24036Y7841D01*
X24020Y7853D01*
X24015Y7855D01*
X24004Y7867D01*
X23985Y7883D01*
X23967Y7908D01*
X23946Y7938D01*
X23927Y7976D01*
X23916Y8022D01*
X23914Y8045D01*
X23911Y8073D01*
Y8075D01*
Y8080D01*
Y8087D01*
X23914Y8096D01*
X23916Y8110D01*
X23918Y8124D01*
X23930Y8158D01*
X23946Y8202D01*
X23960Y8225D01*
X23974Y8249D01*
X23990Y8274D01*
X24008Y8302D01*
X24032Y8327D01*
X24057Y8355D01*
X24059Y8357D01*
X24064Y8362D01*
X24073Y8371D01*
X24082Y8383D01*
X24094Y8397D01*
X24106Y8413D01*
X24126Y8450D01*
X24131D01*
X24133Y8445D01*
D02*
G37*
G36*
X24522Y8066D02*
X24535Y8055D01*
X24534Y8054D01*
X24531Y8052D01*
X24527Y8045D01*
X24517Y8036D01*
X24508Y8022D01*
X24499Y8006D01*
X24490Y7987D01*
X24485Y7964D01*
X24483Y7941D01*
Y7943D01*
X24480Y7955D01*
X24478Y7962D01*
X24476Y7964D01*
X24473D01*
X24471Y7962D01*
X24469Y7955D01*
X24471Y7969D01*
X24476Y7985D01*
X24480Y8003D01*
X24490Y8024D01*
X24504Y8047D01*
X24520Y8068D01*
X24522Y8066D01*
D02*
G37*
G36*
X24471Y7928D02*
X24469Y7932D01*
Y7943D01*
Y7945D01*
X24471Y7928D01*
D02*
G37*
G36*
X24485Y7925D02*
X24487Y7911D01*
X24494Y7897D01*
X24501Y7881D01*
X24513Y7864D01*
X24527Y7851D01*
X24529Y7848D01*
X24534Y7846D01*
X24543Y7839D01*
X24557Y7834D01*
X24571Y7827D01*
X24589Y7820D01*
X24610Y7818D01*
X24631Y7816D01*
X24645D01*
X24659Y7818D01*
X24677Y7823D01*
X24700Y7830D01*
X24723Y7839D01*
X24749Y7853D01*
X24772Y7871D01*
X24781Y7878D01*
X24788Y7874D01*
Y7871D01*
X24786Y7869D01*
X24781Y7864D01*
X24777Y7860D01*
X24767Y7853D01*
X24753Y7844D01*
X24737Y7834D01*
X24735Y7832D01*
X24728Y7830D01*
X24719Y7825D01*
X24705Y7818D01*
X24689Y7811D01*
X24670Y7807D01*
X24652Y7804D01*
X24631Y7802D01*
X24619D01*
X24605Y7804D01*
X24589Y7807D01*
X24571Y7811D01*
X24550Y7818D01*
X24531Y7827D01*
X24513Y7841D01*
X24511Y7844D01*
X24506Y7848D01*
X24499Y7858D01*
X24492Y7869D01*
X24483Y7883D01*
X24476Y7901D01*
X24471Y7922D01*
X24471Y7928D01*
X24471Y7927D01*
X24473Y7925D01*
X24478Y7927D01*
X24483Y7934D01*
X24485Y7925D01*
D02*
G37*
G36*
X22518Y8656D02*
Y8651D01*
X22516Y8649D01*
X22511Y8644D01*
X22504Y8637D01*
X22495Y8628D01*
X22477Y8607D01*
X22470Y8593D01*
X22463Y8582D01*
Y8579D01*
X22460Y8575D01*
X22458Y8568D01*
X22456Y8556D01*
X22453Y8542D01*
X22451Y8522D01*
X22449Y8498D01*
Y8471D01*
Y8397D01*
X22518D01*
X22525Y8394D01*
X22530Y8392D01*
X22532Y8383D01*
Y8380D01*
X22530Y8376D01*
X22525Y8371D01*
X22516Y8369D01*
X22449D01*
Y8177D01*
Y8175D01*
Y8170D01*
Y8163D01*
X22446Y8151D01*
X22444Y8140D01*
X22440Y8124D01*
X22428Y8089D01*
X22421Y8070D01*
X22409Y8050D01*
X22398Y8029D01*
X22382Y8008D01*
X22363Y7985D01*
X22342Y7964D01*
X22317Y7945D01*
X22289Y7925D01*
X22287D01*
X22285Y7922D01*
X22271Y7915D01*
X22266Y7920D01*
X22268Y7929D01*
X22273Y7932D01*
X22282Y7936D01*
X22294Y7943D01*
X22298Y7945D01*
X22305Y7955D01*
X22319Y7969D01*
X22324Y7980D01*
X22331Y7992D01*
Y7994D01*
X22333Y7999D01*
X22338Y8008D01*
X22340Y8024D01*
X22345Y8043D01*
X22347Y8068D01*
X22349Y8096D01*
Y8133D01*
Y8369D01*
X22294D01*
X22291Y8371D01*
X22287Y8376D01*
X22285Y8383D01*
Y8385D01*
X22287Y8390D01*
X22289Y8394D01*
X22296Y8397D01*
X22349D01*
Y8401D01*
Y8413D01*
Y8429D01*
X22352Y8448D01*
X22356Y8492D01*
X22361Y8512D01*
X22365Y8531D01*
Y8533D01*
X22370Y8538D01*
X22375Y8547D01*
X22382Y8559D01*
X22391Y8570D01*
X22405Y8586D01*
X22423Y8603D01*
X22444Y8619D01*
X22446Y8621D01*
X22453Y8626D01*
X22465Y8633D01*
X22477Y8642D01*
X22502Y8658D01*
X22511Y8663D01*
X22516Y8665D01*
X22518Y8656D01*
D02*
G37*
G36*
X28433Y8249D02*
Y8246D01*
X28435Y8242D01*
X28440Y8232D01*
X28442Y8218D01*
X28447Y8205D01*
X28449Y8188D01*
X28451Y8151D01*
Y8149D01*
Y8147D01*
Y8140D01*
X28449Y8131D01*
X28447Y8105D01*
X28440Y8075D01*
X28428Y8038D01*
X28412Y8001D01*
X28389Y7964D01*
X28356Y7927D01*
X28352Y7922D01*
X28340Y7913D01*
X28319Y7899D01*
X28294Y7883D01*
X28259Y7864D01*
X28220Y7851D01*
X28176Y7841D01*
X28127Y7837D01*
X28113D01*
X28099Y7839D01*
X28081Y7844D01*
X28060Y7848D01*
X28037Y7858D01*
X28014Y7869D01*
X27991Y7885D01*
X27988Y7888D01*
X27981Y7895D01*
X27972Y7906D01*
X27961Y7920D01*
X27949Y7936D01*
X27940Y7957D01*
X27933Y7980D01*
X27931Y8003D01*
Y8006D01*
Y8010D01*
X27933Y8019D01*
Y8029D01*
X27940Y8054D01*
X27954Y8080D01*
X27956Y8082D01*
X27958Y8084D01*
X27972Y8098D01*
X27993Y8114D01*
X28018Y8125D01*
Y8121D01*
Y8112D01*
X28021Y8107D01*
X28023Y8105D01*
X28018D01*
X28002Y8100D01*
X27993Y8096D01*
X27984Y8091D01*
X27974Y8082D01*
X27965Y8070D01*
Y8068D01*
X27963Y8066D01*
X27958Y8059D01*
X27956Y8050D01*
X27947Y8024D01*
X27944Y7994D01*
Y7992D01*
Y7985D01*
X27947Y7973D01*
X27951Y7962D01*
X27956Y7945D01*
X27965Y7929D01*
X27979Y7911D01*
X27995Y7895D01*
X27998Y7892D01*
X28005Y7888D01*
X28014Y7881D01*
X28028Y7874D01*
X28046Y7867D01*
X28065Y7860D01*
X28086Y7855D01*
X28109Y7853D01*
X28113D01*
X28125Y7855D01*
X28141Y7858D01*
X28162Y7864D01*
X28185Y7874D01*
X28211Y7890D01*
X28234Y7911D01*
X28254Y7938D01*
X28257Y7943D01*
X28261Y7955D01*
X28271Y7973D01*
X28280Y7999D01*
X28289Y8033D01*
X28298Y8073D01*
X28303Y8119D01*
X28305Y8170D01*
Y8172D01*
Y8175D01*
Y8186D01*
X28303Y8200D01*
X28301Y8214D01*
X28300Y8216D01*
X28329Y8221D01*
X28354Y8228D01*
X28377Y8232D01*
X28396Y8237D01*
X28410Y8242D01*
X28419Y8246D01*
X28426Y8249D01*
X28428D01*
X28432Y8251D01*
X28433Y8249D01*
D02*
G37*
G36*
X27239Y7800D02*
X27239Y7802D01*
Y7804D01*
X27239Y7800D01*
D02*
G37*
G36*
X23199Y8438D02*
X23201Y8434D01*
Y8431D01*
X23196Y8424D01*
X23192Y8415D01*
X23182Y8406D01*
X23173Y8394D01*
X23159Y8378D01*
Y8376D01*
X23164Y8369D01*
X23173Y8357D01*
X23180Y8350D01*
X23189Y8343D01*
X23192D01*
X23194Y8341D01*
X23201Y8336D01*
X23210Y8332D01*
X23233Y8320D01*
X23261Y8309D01*
X23259D01*
X23254Y8304D01*
X23238Y8295D01*
X23222Y8281D01*
X23217Y8272D01*
X23215Y8262D01*
Y7994D01*
Y7992D01*
Y7989D01*
X23217Y7978D01*
X23222Y7959D01*
X23233Y7941D01*
X23236Y7936D01*
X23245Y7929D01*
X23259Y7922D01*
X23273Y7918D01*
X23277D01*
X23289Y7920D01*
X23305Y7927D01*
X23323Y7938D01*
X23328Y7932D01*
Y7929D01*
X23321Y7922D01*
X23317Y7915D01*
X23307Y7908D01*
X23296Y7897D01*
X23279Y7885D01*
X23277Y7883D01*
X23270Y7878D01*
X23261Y7871D01*
X23247Y7860D01*
X23229Y7844D01*
X23208Y7825D01*
X23185Y7804D01*
X23157Y7779D01*
X23152Y7783D01*
Y7786D01*
X23155Y7790D01*
X23159Y7800D01*
X23166Y7809D01*
X23168Y7811D01*
X23173Y7816D01*
X23178Y7823D01*
X23180Y7832D01*
X23166Y7848D01*
X23164Y7851D01*
X23159Y7855D01*
X23155Y7864D01*
X23148Y7876D01*
X23134Y7904D01*
X23129Y7918D01*
X23127Y7934D01*
Y8253D01*
Y8255D01*
X23124Y8265D01*
X23118Y8276D01*
X23104Y8288D01*
X23099Y8290D01*
X23092Y8297D01*
X23081Y8302D01*
X23071Y8304D01*
X23069D01*
X23064Y8302D01*
X23053Y8295D01*
X23034Y8283D01*
X23030Y8295D01*
X23032D01*
X23034Y8299D01*
X23048Y8311D01*
X23069Y8327D01*
X23092Y8348D01*
X23118Y8369D01*
X23143Y8392D01*
X23166Y8415D01*
X23182Y8434D01*
X23189Y8441D01*
X23196D01*
X23199Y8438D01*
D02*
G37*
G36*
X23821Y8327D02*
X23814Y8320D01*
X23809Y8318D01*
X23800Y8309D01*
X23789Y8295D01*
X23772Y8274D01*
X23756Y8249D01*
X23745Y8218D01*
X23735Y8181D01*
X23731Y8137D01*
Y8135D01*
Y8131D01*
Y8119D01*
X23733Y8107D01*
X23738Y8077D01*
X23745Y8043D01*
X23758Y8008D01*
X23777Y7978D01*
X23789Y7966D01*
X23805Y7957D01*
X23821Y7950D01*
X23839Y7948D01*
X23842D01*
X23851Y7952D01*
X23865Y7962D01*
X23874Y7969D01*
X23883Y7978D01*
X23888Y7973D01*
Y7971D01*
X23886Y7966D01*
X23881Y7959D01*
X23874Y7950D01*
X23863Y7938D01*
X23849Y7922D01*
X23828Y7901D01*
X23826Y7899D01*
X23819Y7892D01*
X23807Y7878D01*
X23793Y7864D01*
X23779Y7844D01*
X23763Y7823D01*
X23749Y7800D01*
X23735Y7777D01*
X23731Y7781D01*
Y7783D01*
X23733Y7788D01*
X23735Y7797D01*
X23740Y7811D01*
X23742Y7814D01*
X23747Y7820D01*
X23749Y7830D01*
X23752Y7837D01*
Y7839D01*
X23749Y7841D01*
X23745Y7846D01*
X23735Y7853D01*
X23733Y7855D01*
X23728Y7860D01*
X23719Y7869D01*
X23710Y7878D01*
X23701Y7892D01*
X23689Y7908D01*
X23680Y7927D01*
X23673Y7945D01*
Y7948D01*
X23671Y7955D01*
X23668Y7966D01*
X23666Y7980D01*
X23664Y7996D01*
X23661Y8015D01*
X23659Y8059D01*
Y8061D01*
Y8066D01*
Y8070D01*
X23661Y8080D01*
X23664Y8105D01*
X23668Y8133D01*
X23675Y8165D01*
X23689Y8200D01*
X23705Y8232D01*
X23728Y8260D01*
X23731Y8262D01*
X23740Y8272D01*
X23752Y8283D01*
X23765Y8297D01*
X23782Y8309D01*
X23796Y8320D01*
X23807Y8330D01*
X23814Y8332D01*
X23821Y8327D01*
D02*
G37*
G36*
X22201D02*
X22194Y8320D01*
X22190Y8318D01*
X22180Y8309D01*
X22169Y8295D01*
X22153Y8274D01*
X22136Y8249D01*
X22125Y8218D01*
X22116Y8181D01*
X22111Y8137D01*
Y8135D01*
Y8131D01*
Y8119D01*
X22113Y8107D01*
X22118Y8077D01*
X22125Y8043D01*
X22139Y8008D01*
X22157Y7978D01*
X22169Y7966D01*
X22185Y7957D01*
X22201Y7950D01*
X22220Y7948D01*
X22222D01*
X22231Y7952D01*
X22245Y7962D01*
X22254Y7969D01*
X22264Y7978D01*
X22268Y7973D01*
Y7971D01*
X22266Y7966D01*
X22261Y7959D01*
X22254Y7950D01*
X22243Y7938D01*
X22229Y7922D01*
X22208Y7901D01*
X22206Y7899D01*
X22199Y7892D01*
X22187Y7878D01*
X22173Y7864D01*
X22160Y7844D01*
X22143Y7823D01*
X22129Y7800D01*
X22116Y7777D01*
X22111Y7781D01*
Y7783D01*
X22113Y7788D01*
X22116Y7797D01*
X22120Y7811D01*
X22123Y7814D01*
X22127Y7820D01*
X22129Y7830D01*
X22132Y7837D01*
Y7839D01*
X22129Y7841D01*
X22125Y7846D01*
X22116Y7853D01*
X22113Y7855D01*
X22109Y7860D01*
X22099Y7869D01*
X22090Y7878D01*
X22081Y7892D01*
X22069Y7908D01*
X22060Y7927D01*
X22053Y7945D01*
Y7948D01*
X22051Y7955D01*
X22048Y7966D01*
X22046Y7980D01*
X22044Y7996D01*
X22042Y8015D01*
X22039Y8059D01*
Y8061D01*
Y8066D01*
Y8070D01*
X22042Y8080D01*
X22044Y8105D01*
X22048Y8133D01*
X22055Y8165D01*
X22069Y8200D01*
X22086Y8232D01*
X22109Y8260D01*
X22111Y8262D01*
X22120Y8272D01*
X22132Y8283D01*
X22146Y8297D01*
X22162Y8309D01*
X22176Y8320D01*
X22187Y8330D01*
X22194Y8332D01*
X22201Y8327D01*
D02*
G37*
G36*
X29046Y8468D02*
Y8466D01*
X29041Y8457D01*
X29037Y8448D01*
X29030Y8438D01*
X29020Y8424D01*
X29009Y8408D01*
X29020Y8399D01*
X29023D01*
X29027Y8397D01*
X29032Y8392D01*
X29041Y8385D01*
X29064Y8369D01*
X29090Y8343D01*
X29113Y8309D01*
X29136Y8267D01*
X29145Y8244D01*
X29150Y8216D01*
X29155Y8188D01*
X29157Y8156D01*
Y8154D01*
Y8147D01*
X29155Y8135D01*
X29152Y8121D01*
X29150Y8105D01*
X29143Y8084D01*
X29136Y8063D01*
X29125Y8040D01*
X29122Y8038D01*
X29118Y8029D01*
X29111Y8017D01*
X29099Y8001D01*
X29085Y7980D01*
X29067Y7957D01*
X29044Y7932D01*
X29016Y7904D01*
X29013Y7901D01*
X29002Y7892D01*
X28988Y7876D01*
X28972Y7860D01*
X28951Y7839D01*
X28932Y7816D01*
X28912Y7793D01*
X28895Y7772D01*
X28891Y7779D01*
X28893Y7781D01*
X28895Y7786D01*
X28905Y7802D01*
X28912Y7818D01*
X28916Y7825D01*
Y7830D01*
X28902Y7839D01*
X28900D01*
X28898Y7844D01*
X28884Y7853D01*
X28863Y7869D01*
X28842Y7895D01*
X28819Y7925D01*
X28798Y7964D01*
X28784Y8008D01*
X28782Y8033D01*
X28780Y8059D01*
Y8061D01*
Y8073D01*
X28782Y8087D01*
X28784Y8105D01*
X28787Y8128D01*
X28794Y8154D01*
X28801Y8179D01*
X28812Y8207D01*
X28814Y8212D01*
X28819Y8221D01*
X28828Y8235D01*
X28840Y8253D01*
X28856Y8276D01*
X28875Y8302D01*
X28900Y8327D01*
X28928Y8355D01*
X28932Y8357D01*
X28942Y8367D01*
X28956Y8380D01*
X28974Y8399D01*
X29011Y8436D01*
X29027Y8457D01*
X29041Y8475D01*
X29046Y8468D01*
D02*
G37*
G36*
X22886Y8468D02*
Y8466D01*
X22882Y8457D01*
X22877Y8448D01*
X22870Y8438D01*
X22861Y8424D01*
X22849Y8408D01*
X22861Y8399D01*
X22863D01*
X22868Y8397D01*
X22872Y8392D01*
X22882Y8385D01*
X22905Y8369D01*
X22930Y8343D01*
X22953Y8309D01*
X22976Y8267D01*
X22986Y8244D01*
X22990Y8216D01*
X22995Y8188D01*
X22997Y8156D01*
Y8154D01*
Y8147D01*
X22995Y8135D01*
X22993Y8121D01*
X22990Y8105D01*
X22983Y8084D01*
X22976Y8063D01*
X22965Y8040D01*
X22962Y8038D01*
X22958Y8029D01*
X22951Y8017D01*
X22939Y8001D01*
X22925Y7980D01*
X22907Y7957D01*
X22884Y7932D01*
X22856Y7904D01*
X22854Y7901D01*
X22842Y7892D01*
X22828Y7876D01*
X22812Y7860D01*
X22791Y7839D01*
X22773Y7816D01*
X22752Y7793D01*
X22736Y7772D01*
X22731Y7779D01*
X22733Y7781D01*
X22736Y7786D01*
X22745Y7802D01*
X22752Y7818D01*
X22757Y7825D01*
Y7830D01*
X22743Y7839D01*
X22740D01*
X22738Y7844D01*
X22724Y7853D01*
X22703Y7869D01*
X22683Y7895D01*
X22659Y7925D01*
X22639Y7964D01*
X22625Y8008D01*
X22622Y8033D01*
X22620Y8059D01*
Y8061D01*
Y8073D01*
X22622Y8087D01*
X22625Y8105D01*
X22627Y8128D01*
X22634Y8154D01*
X22641Y8179D01*
X22652Y8207D01*
X22655Y8212D01*
X22659Y8221D01*
X22669Y8235D01*
X22680Y8253D01*
X22696Y8276D01*
X22715Y8302D01*
X22740Y8327D01*
X22768Y8355D01*
X22773Y8357D01*
X22782Y8367D01*
X22796Y8380D01*
X22814Y8399D01*
X22851Y8436D01*
X22868Y8457D01*
X22882Y8475D01*
X22886Y8468D01*
D02*
G37*
G36*
X22428Y7971D02*
X22440Y7966D01*
X22456Y7957D01*
X22477Y7945D01*
X22502Y7927D01*
X22534Y7904D01*
X22537D01*
X22539Y7906D01*
X22548Y7908D01*
X22558Y7915D01*
X22560Y7918D01*
X22569Y7922D01*
X22576Y7927D01*
X22585Y7929D01*
X22590Y7925D01*
X22588Y7922D01*
X22578Y7915D01*
X22565Y7904D01*
X22546Y7890D01*
X22507Y7855D01*
X22486Y7837D01*
X22467Y7818D01*
X22465Y7816D01*
X22460Y7811D01*
X22451Y7802D01*
X22442Y7795D01*
X22423Y7777D01*
X22419Y7772D01*
X22414Y7770D01*
X22409Y7774D01*
X22412Y7777D01*
X22414Y7779D01*
X22423Y7793D01*
X22430Y7807D01*
X22435Y7811D01*
Y7816D01*
Y7820D01*
X22430Y7830D01*
X22426Y7839D01*
X22421Y7848D01*
X22412Y7860D01*
X22400Y7871D01*
X22398Y7874D01*
X22393Y7876D01*
X22386Y7883D01*
X22377Y7890D01*
X22363Y7895D01*
X22345Y7901D01*
X22326Y7904D01*
X22303Y7906D01*
X22301D01*
X22296Y7904D01*
X22285Y7897D01*
X22275Y7890D01*
X22264Y7883D01*
X22259D01*
X22254Y7885D01*
X22252Y7890D01*
Y7892D01*
X22254Y7895D01*
X22259Y7897D01*
X22268Y7904D01*
X22278Y7911D01*
X22294Y7920D01*
X22315Y7934D01*
X22317Y7936D01*
X22326Y7941D01*
X22335Y7948D01*
X22352Y7955D01*
X22384Y7969D01*
X22400Y7973D01*
X22414Y7976D01*
X22421D01*
X22428Y7971D01*
D02*
G37*
G36*
X27623Y8031D02*
X27648Y8029D01*
X27683Y8022D01*
X27722Y8010D01*
X27764Y7994D01*
X27803Y7971D01*
X27843Y7941D01*
X27854Y7934D01*
X27856D01*
X27859Y7936D01*
X27866Y7941D01*
X27873Y7948D01*
X27882Y7959D01*
X27896Y7973D01*
X27912Y7994D01*
X27917D01*
X27919Y7989D01*
Y7985D01*
Y7982D01*
X27914Y7973D01*
X27910Y7966D01*
X27903Y7959D01*
X27893Y7948D01*
X27882Y7934D01*
X27880Y7932D01*
X27875Y7927D01*
X27868Y7920D01*
X27856Y7911D01*
X27831Y7890D01*
X27796Y7869D01*
X27794D01*
X27792Y7867D01*
X27778Y7860D01*
X27759Y7846D01*
X27738Y7832D01*
X27713Y7814D01*
X27690Y7795D01*
X27667Y7772D01*
X27651Y7751D01*
X27646Y7746D01*
X27639Y7751D01*
X27641Y7756D01*
X27644Y7763D01*
X27651Y7772D01*
X27662Y7783D01*
X27678Y7802D01*
X27701Y7823D01*
X27734Y7851D01*
Y7853D01*
X27732Y7858D01*
X27727Y7864D01*
X27718Y7871D01*
X27706Y7881D01*
X27690Y7892D01*
X27669Y7906D01*
X27667Y7908D01*
X27657Y7913D01*
X27644Y7918D01*
X27623Y7927D01*
X27597Y7934D01*
X27567Y7938D01*
X27530Y7943D01*
X27491Y7945D01*
X27475D01*
X27454Y7943D01*
X27431Y7941D01*
X27403Y7936D01*
X27375Y7929D01*
X27347Y7920D01*
X27320Y7906D01*
X27317Y7904D01*
X27310Y7899D01*
X27299Y7890D01*
X27287Y7878D01*
X27273Y7862D01*
X27264Y7844D01*
X27255Y7823D01*
X27253Y7800D01*
Y7802D01*
Y7814D01*
X27250Y7818D01*
X27248Y7820D01*
X27246D01*
X27241Y7818D01*
X27241Y7816D01*
X27239Y7807D01*
Y7814D01*
X27241Y7818D01*
X27241Y7818D01*
X27243Y7832D01*
X27253Y7853D01*
X27264Y7878D01*
X27283Y7904D01*
X27310Y7932D01*
X27327Y7945D01*
X27345Y7959D01*
X27347D01*
X27350Y7962D01*
X27364Y7971D01*
X27387Y7982D01*
X27417Y7996D01*
X27454Y8010D01*
X27496Y8022D01*
X27544Y8031D01*
X27597Y8033D01*
X27611D01*
X27623Y8031D01*
D02*
G37*
G36*
X20688Y9308D02*
X20709D01*
X20734Y9306D01*
X20762Y9301D01*
X20792Y9299D01*
X20824Y9292D01*
X20859Y9285D01*
X20933Y9267D01*
X21012Y9244D01*
X21051Y9227D01*
X21088Y9209D01*
X21091D01*
X21097Y9204D01*
X21107Y9200D01*
X21123Y9190D01*
X21139Y9181D01*
X21160Y9170D01*
X21204Y9137D01*
X21255Y9100D01*
X21308Y9054D01*
X21361Y9001D01*
X21408Y8940D01*
X21410Y8938D01*
X21412Y8933D01*
X21419Y8924D01*
X21426Y8913D01*
X21435Y8896D01*
X21445Y8878D01*
X21456Y8857D01*
X21468Y8836D01*
X21489Y8783D01*
X21507Y8725D01*
X21521Y8663D01*
X21523Y8630D01*
X21526Y8598D01*
Y8596D01*
Y8586D01*
Y8573D01*
X21523Y8554D01*
Y8533D01*
X21521Y8512D01*
X21512Y8466D01*
X21514Y8464D01*
X21519Y8461D01*
X21528Y8454D01*
X21539Y8445D01*
X21553Y8434D01*
X21567Y8420D01*
X21602Y8387D01*
X21634Y8346D01*
X21662Y8295D01*
X21674Y8267D01*
X21683Y8239D01*
X21688Y8209D01*
X21690Y8177D01*
Y8172D01*
Y8158D01*
X21688Y8140D01*
X21683Y8114D01*
X21676Y8084D01*
X21664Y8052D01*
X21650Y8019D01*
X21632Y7985D01*
X21630Y7980D01*
X21623Y7971D01*
X21609Y7957D01*
X21593Y7938D01*
X21572Y7918D01*
X21544Y7899D01*
X21516Y7881D01*
X21482Y7867D01*
Y7864D01*
X21484Y7862D01*
Y7855D01*
X21486Y7846D01*
X21489Y7823D01*
X21491Y7795D01*
Y7793D01*
Y7788D01*
Y7779D01*
X21489Y7765D01*
Y7751D01*
X21486Y7735D01*
X21477Y7693D01*
X21463Y7649D01*
X21445Y7603D01*
X21417Y7554D01*
X21398Y7534D01*
X21380Y7513D01*
X21377D01*
X21375Y7508D01*
X21368Y7503D01*
X21359Y7497D01*
X21350Y7487D01*
X21336Y7478D01*
X21303Y7459D01*
X21262Y7439D01*
X21213Y7420D01*
X21155Y7409D01*
X21125Y7406D01*
X21093Y7404D01*
X21079D01*
X21063Y7406D01*
X21042Y7409D01*
X21019Y7413D01*
X20993Y7420D01*
X20970Y7429D01*
X20945Y7441D01*
X20942Y7436D01*
X20935Y7427D01*
X20926Y7411D01*
X20910Y7390D01*
X20892Y7367D01*
X20866Y7344D01*
X20838Y7321D01*
X20806Y7300D01*
X20801Y7298D01*
X20790Y7291D01*
X20771Y7281D01*
X20748Y7272D01*
X20718Y7263D01*
X20686Y7254D01*
X20651Y7247D01*
X20614Y7244D01*
X20598D01*
X20586Y7247D01*
X20572D01*
X20558Y7249D01*
X20519Y7254D01*
X20477Y7263D01*
X20433Y7277D01*
X20389Y7298D01*
X20348Y7323D01*
X20343Y7328D01*
X20332Y7337D01*
X20313Y7355D01*
X20292Y7379D01*
X20271Y7411D01*
X20248Y7448D01*
X20230Y7490D01*
X20216Y7538D01*
X20214D01*
X20204Y7536D01*
X20193Y7534D01*
X20177D01*
X20139Y7529D01*
X20100Y7527D01*
X20084D01*
X20070Y7529D01*
X20056D01*
X20038Y7534D01*
X19998Y7540D01*
X19952Y7554D01*
X19903Y7573D01*
X19855Y7601D01*
X19832Y7617D01*
X19811Y7635D01*
Y7638D01*
X19806Y7640D01*
X19802Y7647D01*
X19795Y7654D01*
X19776Y7677D01*
X19758Y7707D01*
X19737Y7746D01*
X19718Y7790D01*
X19707Y7841D01*
X19704Y7869D01*
X19702Y7897D01*
Y7899D01*
Y7904D01*
Y7911D01*
X19704Y7922D01*
Y7936D01*
X19707Y7950D01*
X19714Y7987D01*
X19725Y8026D01*
X19741Y8068D01*
X19765Y8110D01*
X19795Y8147D01*
X19792D01*
X19790Y8149D01*
X19776Y8154D01*
X19755Y8165D01*
X19730Y8179D01*
X19700Y8198D01*
X19670Y8221D01*
X19642Y8249D01*
X19614Y8281D01*
X19612Y8286D01*
X19605Y8297D01*
X19593Y8318D01*
X19582Y8346D01*
X19570Y8376D01*
X19559Y8413D01*
X19552Y8454D01*
X19549Y8498D01*
Y8501D01*
Y8505D01*
Y8515D01*
X19552Y8526D01*
X19554Y8540D01*
X19556Y8556D01*
X19566Y8596D01*
X19582Y8642D01*
X19593Y8667D01*
X19607Y8693D01*
X19623Y8721D01*
X19642Y8748D01*
X19663Y8776D01*
X19686Y8804D01*
X19688Y8806D01*
X19693Y8811D01*
X19700Y8818D01*
X19711Y8827D01*
X19723Y8841D01*
X19739Y8852D01*
X19758Y8869D01*
X19779Y8885D01*
X19802Y8901D01*
X19827Y8917D01*
X19885Y8947D01*
X19950Y8975D01*
X19984Y8984D01*
X20021Y8994D01*
Y8996D01*
X20026Y9001D01*
X20031Y9008D01*
X20038Y9019D01*
X20056Y9045D01*
X20084Y9079D01*
X20119Y9116D01*
X20165Y9153D01*
X20190Y9172D01*
X20218Y9190D01*
X20248Y9209D01*
X20281Y9225D01*
X20283D01*
X20290Y9230D01*
X20299Y9232D01*
X20311Y9239D01*
X20329Y9246D01*
X20348Y9253D01*
X20369Y9260D01*
X20394Y9269D01*
X20450Y9283D01*
X20512Y9297D01*
X20577Y9306D01*
X20646Y9311D01*
X20669D01*
X20688Y9308D01*
D02*
G37*
G36*
X27241Y7790D02*
X27243Y7783D01*
X27246Y7781D01*
X27250Y7783D01*
X27253Y7790D01*
X27255Y7777D01*
X27259Y7760D01*
X27269Y7742D01*
X27278Y7721D01*
X27294Y7702D01*
X27315Y7682D01*
X27317Y7679D01*
X27327Y7675D01*
X27340Y7665D01*
X27361Y7656D01*
X27387Y7647D01*
X27417Y7638D01*
X27452Y7633D01*
X27493Y7631D01*
X27519D01*
Y7633D01*
X27521Y7635D01*
X27530Y7649D01*
X27542Y7665D01*
X27558Y7682D01*
X27560D01*
X27563Y7684D01*
X27574Y7691D01*
X27588Y7696D01*
X27604Y7698D01*
X27609D01*
X27623Y7696D01*
X27634Y7689D01*
X27637Y7684D01*
X27639Y7677D01*
Y7675D01*
X27637Y7670D01*
X27634Y7663D01*
X27627Y7654D01*
X27618Y7645D01*
X27602Y7633D01*
X27579Y7626D01*
X27549Y7619D01*
Y7615D01*
X27546Y7605D01*
X27544Y7589D01*
X27542Y7568D01*
Y7566D01*
X27544Y7557D01*
X27546Y7543D01*
X27551Y7527D01*
X27558Y7506D01*
X27572Y7487D01*
X27588Y7466D01*
X27611Y7446D01*
X27614Y7443D01*
X27623Y7436D01*
X27639Y7429D01*
X27657Y7420D01*
X27681Y7409D01*
X27708Y7402D01*
X27736Y7395D01*
X27769Y7392D01*
X27780D01*
X27796Y7395D01*
X27815Y7397D01*
X27836Y7404D01*
X27859Y7411D01*
X27884Y7422D01*
X27910Y7436D01*
X27924Y7446D01*
X27928Y7441D01*
Y7439D01*
X27926Y7436D01*
X27921Y7432D01*
X27917Y7427D01*
X27907Y7420D01*
X27893Y7413D01*
X27877Y7404D01*
X27875D01*
X27868Y7399D01*
X27859Y7397D01*
X27845Y7392D01*
X27829Y7388D01*
X27810Y7383D01*
X27787Y7381D01*
X27764Y7379D01*
X27748D01*
X27732Y7381D01*
X27708Y7385D01*
X27681Y7395D01*
X27653Y7404D01*
X27620Y7420D01*
X27590Y7441D01*
X27588Y7443D01*
X27579Y7453D01*
X27565Y7464D01*
X27551Y7483D01*
X27537Y7503D01*
X27523Y7529D01*
X27514Y7557D01*
X27512Y7589D01*
Y7591D01*
Y7596D01*
X27514Y7605D01*
X27516Y7617D01*
X27475D01*
X27454Y7619D01*
X27426Y7624D01*
X27396Y7631D01*
X27364Y7640D01*
X27334Y7654D01*
X27306Y7672D01*
X27303Y7675D01*
X27296Y7682D01*
X27285Y7693D01*
X27273Y7709D01*
X27259Y7728D01*
X27250Y7751D01*
X27241Y7777D01*
X27239Y7800D01*
X27241Y7790D01*
D02*
G37*
%LPC*%
G36*
X28079Y9373D02*
X28067D01*
X28065Y9368D01*
X28062Y9359D01*
X28053Y9350D01*
X28049Y9348D01*
X28042Y9345D01*
X28039D01*
X28030Y9348D01*
X28021Y9357D01*
X28016Y9362D01*
X28012Y9371D01*
X28009Y9368D01*
X28007Y9366D01*
X28000Y9362D01*
X27993Y9359D01*
X27988D01*
X27977Y9364D01*
X27970Y9362D01*
Y9357D01*
X27968Y9350D01*
X27958Y9343D01*
X27954Y9338D01*
X27944D01*
X27931Y9343D01*
X27928D01*
X27924Y9338D01*
X27917Y9334D01*
X27905Y9327D01*
X27882Y9308D01*
X27852Y9281D01*
X27824Y9244D01*
X27799Y9200D01*
X27787Y9174D01*
X27780Y9146D01*
X27775Y9119D01*
X27773Y9086D01*
Y9079D01*
X27775D01*
X27780Y9082D01*
X27787Y9086D01*
X27796Y9089D01*
X27822Y9100D01*
X27854Y9112D01*
X27893Y9121D01*
X27937Y9132D01*
X27986Y9139D01*
X28035Y9142D01*
X28051D01*
X28065Y9139D01*
X28081D01*
X28099Y9137D01*
X28118Y9135D01*
X28141Y9132D01*
X28194Y9121D01*
X28250Y9107D01*
X28310Y9086D01*
X28372Y9058D01*
Y9061D01*
Y9063D01*
X28370Y9077D01*
X28368Y9095D01*
X28363Y9121D01*
X28354Y9151D01*
X28342Y9181D01*
X28324Y9213D01*
X28303Y9244D01*
X28301Y9248D01*
X28292Y9257D01*
X28278Y9271D01*
X28261Y9288D01*
X28238Y9306D01*
X28213Y9325D01*
X28183Y9343D01*
X28150Y9359D01*
X28134Y9357D01*
X28132D01*
X28127Y9359D01*
X28120Y9364D01*
X28116Y9371D01*
X28109D01*
X28095Y9362D01*
X28090Y9364D01*
X28086Y9366D01*
X28079Y9373D01*
D02*
G37*
G36*
X27775Y9049D02*
Y9047D01*
Y9040D01*
X27778Y9028D01*
X27780Y9014D01*
X27787Y8982D01*
X27799Y8952D01*
Y8950D01*
X27803Y8947D01*
X27813Y8936D01*
X27826Y8922D01*
X27836Y8920D01*
X27845Y8917D01*
X27847D01*
X27850Y8920D01*
X27852Y8922D01*
X27854Y8929D01*
Y8933D01*
X27852Y8945D01*
X27845Y8961D01*
X27831Y8984D01*
Y8987D01*
X27826Y8991D01*
X27822Y8996D01*
X27817Y9005D01*
X27799Y9026D01*
X27775Y9049D01*
D02*
G37*
G36*
X27384Y8549D02*
X27361D01*
X27347Y8547D01*
X27324Y8542D01*
X27299Y8535D01*
X27266Y8522D01*
X27232Y8501D01*
X27216Y8487D01*
X27197Y8473D01*
X27178Y8455D01*
X27162Y8434D01*
X27165Y8431D01*
X27174Y8424D01*
X27188Y8417D01*
X27209Y8408D01*
X27232Y8397D01*
X27262Y8390D01*
X27296Y8383D01*
X27334Y8380D01*
X27345D01*
X27357Y8383D01*
X27371D01*
X27403Y8392D01*
X27421Y8397D01*
X27435Y8406D01*
X27438Y8408D01*
X27442Y8411D01*
X27447Y8417D01*
X27454Y8424D01*
X27468Y8448D01*
X27470Y8461D01*
X27472Y8478D01*
Y8480D01*
X27470Y8489D01*
X27468Y8501D01*
X27458Y8515D01*
X27447Y8526D01*
X27428Y8538D01*
X27401Y8547D01*
X27384Y8549D01*
D02*
G37*
G36*
X28116Y8438D02*
X28111D01*
X28095Y8436D01*
X28079Y8434D01*
X28060Y8424D01*
X28058Y8422D01*
X28051Y8415D01*
X28042Y8406D01*
X28039Y8392D01*
Y8387D01*
X28044Y8380D01*
X28053Y8374D01*
X28060Y8369D01*
X28079D01*
X28090Y8371D01*
X28104Y8376D01*
X28123Y8380D01*
X28141Y8390D01*
X28162Y8401D01*
X28183Y8417D01*
X28180D01*
X28178Y8420D01*
X28171Y8424D01*
X28162Y8429D01*
X28141Y8436D01*
X28116Y8438D01*
D02*
G37*
G36*
X28384Y9017D02*
Y9014D01*
X28382Y9005D01*
X28379Y8994D01*
X28375Y8977D01*
X28368Y8959D01*
X28359Y8938D01*
X28347Y8917D01*
X28333Y8896D01*
X28331Y8894D01*
X28326Y8887D01*
X28317Y8878D01*
X28305Y8869D01*
X28292Y8855D01*
X28275Y8843D01*
X28257Y8834D01*
X28236Y8825D01*
X28238D01*
X28241Y8822D01*
X28254Y8811D01*
X28275Y8797D01*
X28298Y8776D01*
X28322Y8751D01*
X28342Y8723D01*
X28356Y8693D01*
X28359Y8674D01*
X28361Y8658D01*
Y8656D01*
Y8653D01*
Y8647D01*
X28359Y8640D01*
X28354Y8616D01*
X28345Y8586D01*
X28331Y8554D01*
X28310Y8515D01*
X28296Y8496D01*
X28280Y8475D01*
X28259Y8457D01*
X28238Y8436D01*
X28241D01*
X28250Y8431D01*
X28261Y8424D01*
X28280Y8417D01*
X28298Y8406D01*
X28319Y8392D01*
X28340Y8374D01*
X28361Y8355D01*
X28363Y8353D01*
X28384D01*
X28398Y8350D01*
X28416Y8348D01*
X28440Y8343D01*
X28465Y8336D01*
X28490Y8327D01*
X28516Y8313D01*
X28518Y8316D01*
X28523Y8318D01*
X28530Y8325D01*
X28539Y8334D01*
X28548Y8346D01*
X28560Y8360D01*
X28574Y8376D01*
X28588Y8397D01*
X28613Y8438D01*
X28636Y8492D01*
X28643Y8519D01*
X28650Y8549D01*
X28655Y8582D01*
X28657Y8616D01*
Y8619D01*
Y8621D01*
Y8628D01*
Y8637D01*
X28652Y8660D01*
X28648Y8691D01*
X28639Y8725D01*
X28627Y8765D01*
X28609Y8804D01*
X28585Y8843D01*
Y8846D01*
X28583Y8848D01*
X28571Y8862D01*
X28555Y8880D01*
X28534Y8906D01*
X28504Y8933D01*
X28470Y8961D01*
X28430Y8989D01*
X28384Y9017D01*
D02*
G37*
G36*
X27984Y7721D02*
X27981D01*
X27977Y7719D01*
X27970Y7716D01*
X27968Y7709D01*
Y7707D01*
Y7705D01*
X27972Y7691D01*
X27977Y7684D01*
X27981Y7672D01*
X27991Y7663D01*
X28002Y7652D01*
X28005Y7649D01*
X28009Y7647D01*
X28016Y7640D01*
X28028Y7633D01*
X28042Y7624D01*
X28058Y7612D01*
X28076Y7603D01*
X28099Y7591D01*
Y7594D01*
X28095Y7601D01*
X28090Y7612D01*
X28083Y7626D01*
X28065Y7656D01*
X28039Y7686D01*
X28037Y7689D01*
X28032Y7691D01*
X28018Y7705D01*
X28000Y7716D01*
X27991Y7719D01*
X27984Y7721D01*
D02*
G37*
G36*
X25207Y9183D02*
X25205D01*
X25198Y9181D01*
X25186Y9179D01*
X25170Y9172D01*
X25151Y9165D01*
X25131Y9156D01*
X25110Y9144D01*
X25087Y9128D01*
X25061Y9109D01*
X25038Y9089D01*
X25015Y9063D01*
X24992Y9033D01*
X24971Y9001D01*
X24952Y8961D01*
X24936Y8920D01*
X24925Y8871D01*
X24950D01*
X24966Y8869D01*
X24987Y8866D01*
X25008Y8862D01*
X25052Y8850D01*
Y8855D01*
Y8864D01*
X25050Y8876D01*
Y8885D01*
Y8887D01*
Y8890D01*
Y8896D01*
X25052Y8906D01*
X25057Y8927D01*
X25064Y8952D01*
Y8954D01*
X25061Y8964D01*
Y8966D01*
X25064Y8970D01*
X25068Y8977D01*
X25080Y8980D01*
X25077Y8984D01*
X25075Y8987D01*
X25073Y8994D01*
Y8996D01*
X25075Y9003D01*
X25077Y9010D01*
X25082Y9017D01*
X25084Y9019D01*
X25087Y9026D01*
X25094Y9038D01*
X25098Y9058D01*
X25103D01*
X25105Y9054D01*
Y9049D01*
X25098Y9024D01*
Y9019D01*
X25121Y9038D01*
Y9042D01*
Y9045D01*
X25124Y9049D01*
X25128Y9054D01*
X25135Y9056D01*
X25145Y9054D01*
X25147D01*
X25149Y9056D01*
X25163Y9065D01*
X25186Y9072D01*
X25214Y9079D01*
X25212Y9084D01*
X25209Y9095D01*
X25207Y9116D01*
X25205Y9144D01*
Y9146D01*
Y9156D01*
Y9167D01*
X25207Y9183D01*
D02*
G37*
G36*
X25452Y9350D02*
X25441D01*
X25427Y9348D01*
X25408Y9345D01*
X25388Y9341D01*
X25364Y9334D01*
X25341Y9325D01*
X25318Y9313D01*
X25316Y9311D01*
X25309Y9306D01*
X25297Y9299D01*
X25286Y9288D01*
X25272Y9274D01*
X25256Y9257D01*
X25244Y9239D01*
X25232Y9218D01*
X25237D01*
X25251Y9220D01*
X25267Y9223D01*
X25302D01*
X25320Y9220D01*
X25344Y9216D01*
X25371Y9211D01*
X25401Y9202D01*
X25434Y9190D01*
X25466Y9174D01*
X25471Y9172D01*
X25480Y9165D01*
X25496Y9156D01*
X25517Y9139D01*
X25543Y9121D01*
X25566Y9100D01*
X25591Y9072D01*
X25617Y9042D01*
X25619Y9045D01*
X25624Y9049D01*
X25630Y9058D01*
X25640Y9070D01*
X25649Y9086D01*
X25656Y9105D01*
X25661Y9128D01*
X25663Y9153D01*
Y9158D01*
Y9167D01*
X25661Y9186D01*
X25656Y9204D01*
X25649Y9227D01*
X25637Y9253D01*
X25624Y9276D01*
X25603Y9297D01*
X25600Y9299D01*
X25593Y9306D01*
X25580Y9313D01*
X25563Y9325D01*
X25540Y9334D01*
X25515Y9341D01*
X25485Y9348D01*
X25452Y9350D01*
D02*
G37*
G36*
X25230Y9068D02*
Y9065D01*
X25232Y9061D01*
X25242Y9047D01*
X25253Y9031D01*
X25263Y9026D01*
X25272Y9024D01*
X25274D01*
X25279Y9026D01*
X25281Y9031D01*
X25283Y9038D01*
Y9040D01*
X25281Y9042D01*
X25276Y9047D01*
X25267Y9054D01*
X25265Y9056D01*
X25258Y9058D01*
X25246Y9063D01*
X25230Y9068D01*
D02*
G37*
G36*
X25283Y9193D02*
X25267D01*
X25246Y9190D01*
X25221Y9188D01*
Y9183D01*
Y9174D01*
X25219Y9160D01*
Y9146D01*
Y9144D01*
Y9139D01*
Y9130D01*
Y9121D01*
X25221Y9098D01*
X25223Y9089D01*
X25226Y9079D01*
X25232D01*
X25246Y9075D01*
X25265Y9070D01*
X25283Y9061D01*
X25286D01*
X25288Y9058D01*
X25297Y9051D01*
X25304Y9042D01*
X25309Y9038D01*
Y9031D01*
Y9028D01*
X25307Y9021D01*
X25300Y9012D01*
X25286Y9010D01*
X25279D01*
X25269Y9012D01*
X25260Y9017D01*
X25249Y9024D01*
X25237Y9035D01*
X25226Y9049D01*
X25216Y9068D01*
X25209D01*
X25205Y9065D01*
X25195D01*
X25172Y9056D01*
X25161Y9051D01*
X25149Y9042D01*
Y9040D01*
X25147Y9035D01*
X25142Y9031D01*
X25133Y9028D01*
X25126D01*
X25103Y9010D01*
X25112Y9008D01*
X25114D01*
X25119Y9010D01*
X25126Y9012D01*
X25138Y9019D01*
X25142D01*
X25145Y9017D01*
Y9012D01*
X25142Y9010D01*
X25133Y9005D01*
X25124Y8996D01*
X25117Y8987D01*
X25114Y8984D01*
X25112Y8980D01*
X25105Y8975D01*
X25096Y8973D01*
X25091D01*
X25084Y8975D01*
X25087Y8973D01*
X25089Y8966D01*
Y8964D01*
X25087Y8959D01*
X25082Y8954D01*
X25073Y8952D01*
Y8950D01*
X25070Y8947D01*
X25068Y8940D01*
X25066Y8931D01*
X25061Y8908D01*
X25059Y8883D01*
Y8880D01*
Y8871D01*
Y8859D01*
X25061Y8846D01*
X25064D01*
X25068Y8843D01*
X25075Y8841D01*
X25084Y8836D01*
X25112Y8825D01*
X25145Y8809D01*
X25147Y8807D01*
X25147Y8806D01*
X25145D01*
X25138Y8802D01*
X25135Y8799D01*
X25133D01*
X25132Y8798D01*
X25131Y8799D01*
X25126Y8802D01*
X25114Y8809D01*
X25094Y8818D01*
X25068Y8829D01*
X25038Y8839D01*
X25003Y8848D01*
X24964Y8855D01*
X24925Y8857D01*
Y8855D01*
Y8850D01*
X24922Y8841D01*
Y8827D01*
X24920Y8813D01*
Y8797D01*
X24918Y8760D01*
Y8758D01*
Y8755D01*
Y8741D01*
X24920Y8721D01*
Y8695D01*
X24925Y8667D01*
X24929Y8635D01*
X24934Y8605D01*
X24943Y8577D01*
X24962D01*
X24980Y8579D01*
X25008Y8582D01*
X25010D01*
Y8579D01*
Y8570D01*
X24994D01*
X24973Y8568D01*
X24946Y8566D01*
X24948Y8563D01*
X24950Y8554D01*
X24957Y8538D01*
X24969Y8519D01*
X24985Y8494D01*
X25003Y8466D01*
X25027Y8436D01*
X25057Y8401D01*
X25061Y8397D01*
X25070Y8387D01*
X25084Y8369D01*
X25103Y8348D01*
X25121Y8325D01*
X25138Y8299D01*
X25154Y8274D01*
X25165Y8251D01*
Y8249D01*
X25170Y8242D01*
X25172Y8230D01*
X25177Y8214D01*
X25182Y8195D01*
X25186Y8177D01*
X25192Y8136D01*
X25191Y8133D01*
X25188Y8131D01*
X25184Y8124D01*
X25182Y8133D01*
Y8144D01*
X25177Y8161D01*
X25175Y8181D01*
X25168Y8202D01*
X25154Y8249D01*
Y8251D01*
X25149Y8260D01*
X25142Y8274D01*
X25131Y8293D01*
X25117Y8313D01*
X25098Y8341D01*
X25073Y8371D01*
X25043Y8404D01*
X25038Y8408D01*
X25029Y8420D01*
X25015Y8436D01*
X24996Y8459D01*
X24978Y8485D01*
X24962Y8510D01*
X24946Y8538D01*
X24934Y8563D01*
X24929D01*
X24915Y8561D01*
X24897Y8559D01*
X24881Y8554D01*
Y8538D01*
Y8535D01*
Y8529D01*
X24878Y8519D01*
X24876Y8505D01*
X24871Y8492D01*
X24865Y8475D01*
X24855Y8461D01*
X24844Y8448D01*
X24841Y8445D01*
X24837Y8443D01*
X24830Y8438D01*
X24818Y8431D01*
X24804Y8424D01*
X24791Y8420D01*
X24772Y8417D01*
X24753Y8415D01*
X24744D01*
X24733Y8417D01*
X24719Y8422D01*
X24705Y8427D01*
X24689Y8434D01*
X24673Y8445D01*
X24656Y8461D01*
X24654Y8459D01*
X24649Y8457D01*
X24642Y8450D01*
X24631Y8443D01*
X24605Y8420D01*
X24575Y8390D01*
X24545Y8353D01*
X24520Y8311D01*
X24508Y8290D01*
X24501Y8267D01*
X24497Y8242D01*
X24494Y8218D01*
Y8216D01*
Y8205D01*
X24497Y8191D01*
X24499Y8172D01*
X24504Y8151D01*
X24511Y8128D01*
X24520Y8105D01*
X24532Y8085D01*
X24534Y8087D01*
X24541Y8091D01*
X24550Y8098D01*
X24573Y8117D01*
X24605Y8135D01*
X24645Y8154D01*
X24691Y8172D01*
X24747Y8184D01*
X24774Y8188D01*
X24814D01*
X24825Y8186D01*
X24841D01*
X24860Y8181D01*
X24881Y8177D01*
X24904Y8172D01*
X24929Y8163D01*
X24932D01*
X24941Y8158D01*
X24955Y8151D01*
X24973Y8142D01*
X24994Y8131D01*
X25020Y8114D01*
X25047Y8096D01*
X25077Y8073D01*
X25082Y8070D01*
X25091Y8063D01*
X25105Y8052D01*
X25121Y8038D01*
X25138Y8024D01*
X25154Y8013D01*
X25170Y8001D01*
X25179Y7994D01*
X25183Y7991D01*
X25184Y7996D01*
Y7999D01*
Y8003D01*
X25186Y8010D01*
Y8019D01*
X25188Y8043D01*
Y8066D01*
Y8082D01*
X25174Y8090D01*
X25170Y8087D01*
X25168D01*
X25163Y8082D01*
X25149Y8075D01*
X25133Y8068D01*
X25126Y8063D01*
X25121D01*
X25117Y8068D01*
X25119D01*
X25121Y8070D01*
X25133Y8077D01*
X25147Y8084D01*
X25158Y8094D01*
X25162Y8097D01*
X25163Y8096D01*
X25174Y8090D01*
X25179Y8094D01*
X25184Y8096D01*
X25193Y8103D01*
X25195Y8105D01*
Y8087D01*
X25198D01*
X25202Y8084D01*
X25207Y8080D01*
X25216Y8075D01*
X25242Y8061D01*
X25272Y8050D01*
X25274Y8052D01*
X25276Y8054D01*
X25283Y8061D01*
X25290Y8073D01*
X25300Y8084D01*
X25309Y8098D01*
X25320Y8117D01*
X25332Y8135D01*
X25355Y8181D01*
X25374Y8237D01*
X25388Y8299D01*
X25390Y8332D01*
X25392Y8369D01*
Y8371D01*
Y8380D01*
Y8392D01*
X25390Y8411D01*
X25388Y8429D01*
X25383Y8452D01*
X25371Y8501D01*
X25369D01*
X25362Y8505D01*
X25350Y8510D01*
X25337Y8517D01*
X25320Y8524D01*
X25304Y8535D01*
X25288Y8549D01*
X25274Y8566D01*
X25272Y8568D01*
X25269Y8575D01*
X25263Y8584D01*
X25258Y8596D01*
X25251Y8612D01*
X25244Y8628D01*
X25242Y8647D01*
X25239Y8667D01*
Y8670D01*
Y8672D01*
Y8684D01*
X25242Y8697D01*
X25244Y8711D01*
X25242Y8714D01*
X25237Y8718D01*
X25228Y8728D01*
X25216Y8739D01*
X25202Y8751D01*
X25186Y8762D01*
X25149Y8788D01*
X25147Y8785D01*
X25142Y8781D01*
X25133Y8771D01*
X25126Y8758D01*
X25117Y8744D01*
X25108Y8725D01*
X25103Y8704D01*
X25101Y8684D01*
Y8681D01*
Y8672D01*
X25103Y8660D01*
X25105Y8647D01*
X25110Y8628D01*
X25119Y8610D01*
X25128Y8589D01*
X25140Y8571D01*
X25145Y8570D01*
X25149D01*
X25161Y8566D01*
X25177Y8561D01*
X25198Y8554D01*
X25221Y8545D01*
X25246Y8533D01*
X25269Y8522D01*
X25293Y8510D01*
X25295Y8508D01*
X25302Y8505D01*
X25311Y8498D01*
X25320Y8492D01*
X25330Y8485D01*
X25339Y8478D01*
X25346Y8473D01*
X25348Y8468D01*
X25346Y8464D01*
X25337Y8468D01*
X25332Y8471D01*
X25323Y8478D01*
X25307Y8489D01*
X25286Y8503D01*
X25258Y8517D01*
X25228Y8531D01*
X25193Y8545D01*
X25156Y8556D01*
X25154D01*
X25142Y8568D01*
X25140Y8571D01*
X25117Y8575D01*
X25091Y8579D01*
X25068Y8582D01*
X25010D01*
Y8598D01*
Y8600D01*
Y8603D01*
Y8610D01*
X25013Y8619D01*
X25017Y8640D01*
X25027Y8667D01*
X25040Y8700D01*
X25061Y8734D01*
X25075Y8751D01*
X25094Y8767D01*
X25112Y8783D01*
X25132Y8798D01*
X25149Y8788D01*
X25158Y8797D01*
X25160Y8798D01*
X25147Y8807D01*
X25151Y8811D01*
X25158Y8813D01*
X25168Y8818D01*
X25188Y8827D01*
X25212Y8836D01*
X25214D01*
X25216Y8839D01*
X25228Y8843D01*
X25242Y8846D01*
X25246Y8848D01*
X25256D01*
X25258Y8846D01*
Y8843D01*
X25256D01*
X25246Y8839D01*
X25235Y8834D01*
X25221Y8829D01*
X25188Y8813D01*
X25172Y8806D01*
X25160Y8798D01*
X25161Y8797D01*
X25163Y8795D01*
X25170Y8790D01*
X25182Y8783D01*
X25195Y8771D01*
X25223Y8748D01*
X25239Y8734D01*
X25251Y8721D01*
Y8723D01*
X25256Y8725D01*
X25265Y8737D01*
X25283Y8746D01*
X25293Y8748D01*
X25304Y8751D01*
X25309D01*
X25318Y8748D01*
X25325Y8739D01*
X25330Y8734D01*
Y8725D01*
Y8723D01*
X25327Y8718D01*
X25325Y8711D01*
X25316Y8709D01*
X25313D01*
X25307Y8711D01*
X25300Y8716D01*
X25295Y8723D01*
Y8725D01*
Y8730D01*
X25293Y8734D01*
X25288Y8737D01*
X25286D01*
X25279Y8734D01*
X25269Y8730D01*
X25260Y8718D01*
X25265Y8714D01*
X25274Y8702D01*
X25290Y8684D01*
X25309Y8658D01*
X25327Y8628D01*
X25348Y8593D01*
X25367Y8554D01*
X25383Y8512D01*
X25388D01*
X25399Y8510D01*
X25413Y8508D01*
X25450D01*
Y8517D01*
Y8519D01*
X25452Y8526D01*
X25457Y8533D01*
X25464Y8535D01*
X25466D01*
X25471Y8533D01*
X25475Y8529D01*
X25478Y8517D01*
Y8512D01*
X25482D01*
X25492Y8517D01*
X25508Y8524D01*
X25529Y8533D01*
X25552Y8545D01*
X25575Y8563D01*
X25596Y8584D01*
X25617Y8612D01*
X25619Y8616D01*
X25624Y8626D01*
X25633Y8644D01*
X25642Y8667D01*
X25651Y8695D01*
X25661Y8730D01*
X25665Y8767D01*
X25667Y8811D01*
Y8813D01*
Y8815D01*
Y8829D01*
X25665Y8850D01*
X25658Y8878D01*
X25651Y8910D01*
X25640Y8945D01*
X25624Y8982D01*
X25600Y9019D01*
X25598D01*
X25596Y9017D01*
X25589Y9014D01*
X25580Y9012D01*
X25559Y9008D01*
X25533Y9005D01*
X25524D01*
X25512Y9008D01*
X25496Y9010D01*
X25480Y9014D01*
X25464Y9021D01*
X25445Y9031D01*
X25429Y9042D01*
X25427Y9045D01*
X25422Y9049D01*
X25418Y9056D01*
X25411Y9065D01*
X25397Y9091D01*
X25392Y9102D01*
X25390Y9116D01*
Y9119D01*
X25392Y9123D01*
X25394Y9126D01*
X25401Y9128D01*
X25404D01*
X25408Y9126D01*
X25413Y9123D01*
X25415Y9114D01*
Y9112D01*
Y9109D01*
X25420Y9095D01*
X25429Y9075D01*
X25436Y9063D01*
X25445Y9051D01*
X25448Y9049D01*
X25452Y9047D01*
X25459Y9042D01*
X25468Y9035D01*
X25480Y9028D01*
X25496Y9024D01*
X25515Y9021D01*
X25533Y9019D01*
X25540D01*
X25554Y9021D01*
X25575Y9024D01*
X25596Y9031D01*
X25593Y9033D01*
X25591Y9038D01*
X25584Y9045D01*
X25575Y9056D01*
X25563Y9068D01*
X25549Y9082D01*
X25533Y9098D01*
X25512Y9112D01*
X25468Y9142D01*
X25415Y9167D01*
X25385Y9179D01*
X25353Y9186D01*
X25320Y9190D01*
X25283Y9193D01*
D02*
G37*
G36*
X24765Y8813D02*
X24763D01*
X24760Y8809D01*
X24747Y8799D01*
X24726Y8781D01*
X24705Y8753D01*
X24682Y8718D01*
X24661Y8677D01*
X24647Y8628D01*
X24645Y8600D01*
X24642Y8570D01*
Y8568D01*
Y8563D01*
Y8554D01*
X24645Y8545D01*
X24649Y8519D01*
X24661Y8492D01*
X24666Y8494D01*
X24677Y8498D01*
X24693Y8508D01*
X24719Y8517D01*
X24747Y8529D01*
X24781Y8542D01*
X24818Y8554D01*
X24860Y8563D01*
Y8568D01*
X24858Y8577D01*
X24853Y8591D01*
X24846Y8607D01*
X24837Y8626D01*
X24823Y8644D01*
X24804Y8660D01*
X24784Y8672D01*
X24781Y8670D01*
X24777Y8665D01*
X24772Y8660D01*
X24763Y8653D01*
X24742Y8640D01*
X24730Y8635D01*
X24719Y8633D01*
X24716D01*
X24712Y8635D01*
X24705Y8640D01*
X24703Y8651D01*
Y8653D01*
Y8658D01*
X24705Y8663D01*
X24710Y8672D01*
X24714Y8679D01*
X24723Y8684D01*
X24737Y8688D01*
X24753Y8691D01*
X24772D01*
X24779Y8688D01*
X24781Y8693D01*
X24784Y8702D01*
X24786Y8721D01*
X24788Y8741D01*
Y8744D01*
Y8748D01*
Y8755D01*
X24786Y8765D01*
X24779Y8785D01*
X24765Y8813D01*
D02*
G37*
G36*
X24763Y8677D02*
X24737D01*
X24730Y8674D01*
X24721Y8670D01*
X24719Y8658D01*
Y8656D01*
X24721Y8653D01*
X24723Y8651D01*
X24730Y8649D01*
X24735D01*
X24744Y8651D01*
X24756Y8660D01*
X24763Y8665D01*
X24770Y8674D01*
X24767D01*
X24763Y8677D01*
D02*
G37*
G36*
X24906Y8857D02*
X24904D01*
X24895Y8855D01*
X24881D01*
X24865Y8850D01*
X24844Y8846D01*
X24823Y8839D01*
X24802Y8829D01*
X24779Y8818D01*
X24781Y8815D01*
X24784Y8811D01*
X24788Y8802D01*
X24793Y8792D01*
X24800Y8765D01*
X24804Y8751D01*
Y8734D01*
Y8732D01*
Y8730D01*
X24802Y8716D01*
X24800Y8697D01*
X24791Y8679D01*
X24793Y8677D01*
X24802Y8674D01*
X24816Y8667D01*
X24830Y8656D01*
X24846Y8640D01*
X24860Y8621D01*
X24871Y8596D01*
X24881Y8566D01*
X24932Y8573D01*
X24929Y8577D01*
X24927Y8586D01*
X24922Y8603D01*
X24918Y8626D01*
X24911Y8653D01*
X24906Y8686D01*
X24904Y8721D01*
X24902Y8760D01*
Y8762D01*
Y8769D01*
Y8778D01*
Y8792D01*
X24904Y8822D01*
X24906Y8857D01*
D02*
G37*
G36*
X25253Y8704D02*
Y8702D01*
Y8693D01*
X25251Y8681D01*
Y8670D01*
Y8667D01*
Y8660D01*
X25253Y8651D01*
X25256Y8640D01*
X25265Y8610D01*
X25272Y8593D01*
X25281Y8575D01*
X25283Y8573D01*
X25288Y8568D01*
X25295Y8561D01*
X25304Y8552D01*
X25316Y8540D01*
X25332Y8531D01*
X25348Y8519D01*
X25367Y8512D01*
Y8515D01*
X25364Y8517D01*
X25362Y8531D01*
X25353Y8549D01*
X25341Y8575D01*
X25327Y8605D01*
X25307Y8637D01*
X25283Y8670D01*
X25253Y8704D01*
D02*
G37*
G36*
X24860Y8552D02*
X24855D01*
X24841Y8547D01*
X24823Y8540D01*
X24797Y8533D01*
X24767Y8522D01*
X24735Y8508D01*
X24703Y8492D01*
X24670Y8473D01*
X24673Y8471D01*
X24677Y8466D01*
X24684Y8459D01*
X24693Y8450D01*
X24705Y8441D01*
X24719Y8434D01*
X24735Y8429D01*
X24753Y8427D01*
X24760D01*
X24770Y8429D01*
X24779Y8431D01*
X24804Y8441D01*
X24816Y8448D01*
X24828Y8459D01*
X24830Y8461D01*
X24832Y8466D01*
X24837Y8473D01*
X24844Y8482D01*
X24855Y8508D01*
X24858Y8522D01*
X24860Y8540D01*
Y8552D01*
D02*
G37*
G36*
X25536Y8235D02*
X25533D01*
X25526Y8230D01*
X25524Y8225D01*
X25519Y8218D01*
X25517Y8209D01*
Y8195D01*
Y8193D01*
Y8188D01*
Y8184D01*
X25519Y8175D01*
X25522Y8151D01*
X25529Y8128D01*
X25531Y8131D01*
X25533Y8135D01*
X25538Y8142D01*
X25543Y8151D01*
X25552Y8175D01*
X25556Y8188D01*
Y8202D01*
Y8205D01*
Y8207D01*
X25554Y8218D01*
X25547Y8230D01*
X25543Y8232D01*
X25536Y8235D01*
D02*
G37*
G36*
X25385Y8496D02*
Y8494D01*
X25388Y8485D01*
X25392Y8473D01*
X25397Y8457D01*
X25399Y8436D01*
X25404Y8415D01*
X25406Y8367D01*
Y8362D01*
Y8350D01*
X25404Y8330D01*
X25401Y8306D01*
X25399Y8279D01*
X25394Y8251D01*
X25385Y8221D01*
X25376Y8193D01*
X25374Y8191D01*
X25371Y8181D01*
X25362Y8168D01*
X25353Y8149D01*
X25339Y8126D01*
X25323Y8100D01*
X25304Y8075D01*
X25281Y8047D01*
X25288D01*
X25297Y8045D01*
X25307D01*
X25330Y8043D01*
X25353Y8040D01*
X25364D01*
X25376Y8043D01*
X25390Y8045D01*
X25408Y8047D01*
X25427Y8054D01*
X25448Y8061D01*
X25466Y8070D01*
X25450Y8494D01*
X25404D01*
X25385Y8496D01*
D02*
G37*
G36*
X24971Y8008D02*
X24952Y8001D01*
X24949Y8000D01*
X24950Y7999D01*
X24956Y7995D01*
X24959Y7996D01*
X24971Y8008D01*
D02*
G37*
G36*
X25524Y8105D02*
X25522Y8103D01*
X25512Y8094D01*
X25499Y8080D01*
X25480Y8066D01*
Y8003D01*
X25473Y7987D01*
X25466Y8057D01*
X25464D01*
X25457Y8052D01*
X25448Y8047D01*
X25434Y8043D01*
X25418Y8038D01*
X25399Y8033D01*
X25378Y8031D01*
X25357Y8029D01*
X25344D01*
X25327Y8031D01*
X25307Y8033D01*
X25281Y8038D01*
X25256Y8047D01*
X25226Y8057D01*
X25198Y8070D01*
Y8068D01*
Y8063D01*
Y8054D01*
Y8045D01*
X25195Y8019D01*
X25191Y7989D01*
Y7987D01*
X25190Y7985D01*
X25191Y7985D01*
X25205Y7976D01*
X25226Y7964D01*
X25253Y7950D01*
X25283Y7934D01*
X25318Y7922D01*
X25357Y7913D01*
X25394Y7911D01*
X25406D01*
X25415Y7913D01*
X25441Y7915D01*
X25471Y7922D01*
X25506Y7936D01*
X25545Y7952D01*
X25582Y7978D01*
X25600Y7992D01*
X25619Y8010D01*
X25621Y8013D01*
X25623Y8014D01*
X25630Y8009D01*
Y8017D01*
X25626D01*
X25624Y8015D01*
X25623Y8014D01*
X25621Y8015D01*
X25619Y8017D01*
X25610Y8022D01*
X25598Y8029D01*
X25584Y8040D01*
X25568Y8054D01*
X25552Y8068D01*
X25536Y8087D01*
X25524Y8105D01*
D02*
G37*
G36*
X25228Y7739D02*
X25214D01*
X25202Y7737D01*
X25186Y7735D01*
X25170Y7730D01*
X25158Y7723D01*
X25149Y7714D01*
X25145Y7700D01*
Y7698D01*
Y7693D01*
X25147Y7686D01*
X25151Y7677D01*
X25158Y7665D01*
X25170Y7656D01*
X25184Y7645D01*
X25202Y7635D01*
X25205D01*
X25214Y7631D01*
X25226Y7628D01*
X25244Y7624D01*
X25265Y7619D01*
X25288Y7615D01*
X25316Y7612D01*
X25346Y7610D01*
X25367D01*
X25390Y7612D01*
X25420Y7615D01*
X25418Y7617D01*
X25415Y7624D01*
X25408Y7635D01*
X25399Y7647D01*
X25388Y7663D01*
X25374Y7677D01*
X25357Y7693D01*
X25339Y7707D01*
X25337Y7709D01*
X25330Y7712D01*
X25318Y7716D01*
X25304Y7723D01*
X25288Y7730D01*
X25269Y7735D01*
X25249Y7737D01*
X25228Y7739D01*
D02*
G37*
%LPD*%
G36*
X25462Y8984D02*
X25464Y8980D01*
X25452Y8973D01*
X25450Y8970D01*
X25443Y8968D01*
X25431Y8961D01*
X25422Y8952D01*
X25411Y8940D01*
X25399Y8927D01*
X25392Y8910D01*
X25390Y8892D01*
Y8890D01*
X25392Y8883D01*
X25394Y8871D01*
X25399Y8859D01*
X25401Y8857D01*
X25406Y8852D01*
X25411Y8848D01*
X25420Y8841D01*
X25431Y8834D01*
X25445Y8825D01*
X25462Y8813D01*
X25464Y8811D01*
X25471Y8809D01*
X25480Y8802D01*
X25489Y8795D01*
X25512Y8776D01*
X25524Y8765D01*
X25531Y8753D01*
Y8751D01*
X25533Y8748D01*
X25540Y8734D01*
X25545Y8716D01*
X25547Y8693D01*
Y8691D01*
Y8681D01*
X25545Y8670D01*
X25540Y8656D01*
X25533Y8640D01*
X25524Y8623D01*
X25510Y8607D01*
X25492Y8591D01*
X25489Y8589D01*
X25482Y8586D01*
X25473Y8579D01*
X25459Y8575D01*
X25427Y8561D01*
X25411Y8559D01*
X25392Y8556D01*
X25388Y8566D01*
X25399Y8568D01*
X25401D01*
X25408Y8570D01*
X25418Y8575D01*
X25429Y8579D01*
X25441Y8589D01*
X25450Y8598D01*
X25457Y8612D01*
X25459Y8626D01*
Y8630D01*
X25457Y8640D01*
X25455Y8651D01*
X25445Y8667D01*
X25443Y8672D01*
X25438Y8677D01*
X25434Y8684D01*
X25425Y8691D01*
X25415Y8702D01*
X25401Y8714D01*
X25383Y8728D01*
X25381Y8730D01*
X25376Y8734D01*
X25367Y8741D01*
X25355Y8751D01*
X25334Y8771D01*
X25325Y8783D01*
X25318Y8792D01*
Y8795D01*
X25316Y8797D01*
X25311Y8809D01*
X25307Y8825D01*
X25304Y8843D01*
Y8846D01*
Y8855D01*
X25307Y8866D01*
X25311Y8883D01*
X25318Y8899D01*
X25330Y8915D01*
X25344Y8933D01*
X25362Y8947D01*
X25364Y8950D01*
X25371Y8954D01*
X25383Y8959D01*
X25394Y8968D01*
X25425Y8980D01*
X25441Y8984D01*
X25455Y8987D01*
X25459D01*
X25462Y8984D01*
D02*
G37*
G36*
X24830Y8367D02*
X24851Y8362D01*
X24876Y8353D01*
X24902Y8341D01*
X24932Y8323D01*
X24962Y8297D01*
X24973Y8299D01*
X24976D01*
X24980Y8297D01*
X24985Y8295D01*
X24987Y8286D01*
Y8279D01*
X24992Y8272D01*
X25001Y8274D01*
X25003D01*
X25010Y8272D01*
X25015Y8269D01*
X25017Y8260D01*
Y8255D01*
X25015Y8253D01*
X25010Y8251D01*
X25013D01*
X25015Y8249D01*
X25022Y8244D01*
X25031Y8246D01*
X25033D01*
X25038Y8244D01*
X25043Y8242D01*
X25045Y8232D01*
X25043Y8225D01*
X25080Y8188D01*
X25082Y8191D01*
Y8200D01*
Y8202D01*
X25080Y8207D01*
X25077Y8218D01*
X25068Y8237D01*
X25075D01*
X25082Y8232D01*
X25094Y8223D01*
X25096Y8221D01*
X25103Y8212D01*
X25110Y8198D01*
X25112Y8181D01*
Y8179D01*
Y8175D01*
X25110Y8170D01*
X25105Y8163D01*
X25110Y8154D01*
X25112Y8156D01*
X25121Y8158D01*
X25124D01*
X25133Y8156D01*
X25140Y8151D01*
X25142Y8140D01*
X25140Y8133D01*
X25142Y8131D01*
X25151D01*
X25156Y8128D01*
X25161Y8124D01*
X25163Y8112D01*
X25170Y8105D01*
X25171Y8105D01*
X25172Y8107D01*
X25179Y8119D01*
X25184Y8124D01*
X25184Y8124D01*
Y8121D01*
X25186Y8100D01*
X25182Y8098D01*
X25171Y8105D01*
X25170Y8103D01*
X25168Y8100D01*
X25162Y8097D01*
X25156Y8103D01*
X25147Y8100D01*
X25145D01*
X25142Y8103D01*
X25138Y8110D01*
X25135Y8121D01*
X25131Y8126D01*
X25121Y8124D01*
X25119D01*
X25112Y8126D01*
X25103Y8131D01*
X25101Y8140D01*
Y8149D01*
X25098Y8154D01*
X25096D01*
X25091Y8151D01*
X25084Y8149D01*
X25075Y8147D01*
X25073D01*
X25066Y8149D01*
X25054Y8151D01*
X25043Y8156D01*
X25040Y8158D01*
X25033Y8165D01*
X25029Y8177D01*
X25024Y8198D01*
X25027D01*
X25029Y8195D01*
X25038Y8188D01*
X25050Y8179D01*
X25061Y8177D01*
X25064D01*
X25073Y8181D01*
X25038Y8216D01*
X25029D01*
X25024Y8218D01*
X25020Y8223D01*
X25017Y8230D01*
X25020Y8237D01*
X25010Y8244D01*
X25001D01*
X24996Y8246D01*
X24992Y8251D01*
X24990Y8262D01*
X24987Y8265D01*
X24983Y8272D01*
X24973Y8269D01*
X24971D01*
X24966Y8272D01*
X24962Y8276D01*
X24959Y8288D01*
X24955Y8290D01*
X24946Y8299D01*
X24929Y8311D01*
X24909Y8325D01*
X24885Y8336D01*
X24855Y8348D01*
X24825Y8357D01*
X24793Y8360D01*
X24781D01*
X24770Y8357D01*
X24753Y8355D01*
X24719Y8348D01*
X24703Y8339D01*
X24686Y8330D01*
X24684Y8327D01*
X24682Y8325D01*
X24668Y8313D01*
X24656Y8297D01*
X24652Y8288D01*
X24649Y8279D01*
X24652Y8276D01*
X24659Y8274D01*
X24675D01*
X24684Y8272D01*
X24691Y8265D01*
X24696Y8258D01*
Y8251D01*
Y8249D01*
X24693Y8242D01*
X24684Y8232D01*
X24677Y8230D01*
X24663D01*
X24652Y8235D01*
X24645Y8239D01*
X24640Y8246D01*
X24638Y8255D01*
X24635Y8267D01*
Y8269D01*
Y8274D01*
X24638Y8281D01*
X24640Y8290D01*
X24645Y8299D01*
X24654Y8311D01*
X24663Y8325D01*
X24677Y8336D01*
X24679Y8339D01*
X24686Y8341D01*
X24696Y8348D01*
X24710Y8355D01*
X24726Y8360D01*
X24747Y8367D01*
X24772Y8369D01*
X24800Y8371D01*
X24814D01*
X24830Y8367D01*
D02*
G37*
G36*
X25070Y8568D02*
X25096Y8566D01*
X25117Y8563D01*
X25133Y8561D01*
X25147Y8559D01*
X25154Y8556D01*
X25156Y8554D01*
X25161Y8549D01*
X25165Y8542D01*
X25175Y8533D01*
X25186Y8522D01*
X25200Y8508D01*
X25216Y8492D01*
X25219Y8489D01*
X25226Y8485D01*
X25235Y8475D01*
X25246Y8464D01*
X25269Y8434D01*
X25279Y8415D01*
X25288Y8399D01*
Y8397D01*
X25290Y8392D01*
X25295Y8383D01*
X25297Y8371D01*
X25304Y8343D01*
X25307Y8311D01*
Y8309D01*
Y8306D01*
Y8299D01*
X25304Y8290D01*
X25300Y8269D01*
X25293Y8242D01*
X25279Y8209D01*
X25258Y8175D01*
X25246Y8156D01*
X25230Y8137D01*
X25214Y8119D01*
X25195Y8105D01*
Y8105D01*
X25193Y8131D01*
X25192Y8136D01*
X25193Y8137D01*
X25198Y8147D01*
X25205Y8156D01*
X25209Y8170D01*
X25214Y8186D01*
X25216Y8205D01*
X25219Y8223D01*
Y8225D01*
Y8230D01*
Y8237D01*
X25216Y8249D01*
X25212Y8272D01*
X25200Y8299D01*
Y8302D01*
X25198Y8306D01*
X25191Y8316D01*
X25184Y8327D01*
X25172Y8341D01*
X25158Y8357D01*
X25142Y8378D01*
X25119Y8399D01*
X25117Y8401D01*
X25110Y8408D01*
X25098Y8420D01*
X25084Y8434D01*
X25057Y8466D01*
X25043Y8482D01*
X25033Y8496D01*
Y8498D01*
X25031Y8503D01*
X25027Y8510D01*
X25024Y8519D01*
X25015Y8542D01*
X25010Y8570D01*
X25043D01*
X25070Y8568D01*
D02*
G37*
%LPC*%
G36*
X28935Y8325D02*
X28930D01*
X28926Y8323D01*
X28919Y8318D01*
X28912Y8311D01*
X28902Y8299D01*
X28895Y8283D01*
X28886Y8262D01*
Y8260D01*
X28884Y8251D01*
X28882Y8239D01*
X28877Y8221D01*
X28875Y8202D01*
X28870Y8179D01*
X28868Y8131D01*
Y8126D01*
Y8117D01*
X28870Y8100D01*
X28872Y8080D01*
X28877Y8057D01*
X28884Y8033D01*
X28893Y8010D01*
X28905Y7987D01*
X28907Y7985D01*
X28912Y7978D01*
X28919Y7969D01*
X28930Y7959D01*
X28944Y7950D01*
X28958Y7941D01*
X28976Y7934D01*
X28995Y7932D01*
X29002D01*
X29009Y7934D01*
X29016Y7936D01*
X29025Y7943D01*
X29034Y7952D01*
X29044Y7964D01*
X29053Y7982D01*
Y7985D01*
X29055Y7992D01*
X29060Y8003D01*
X29064Y8019D01*
X29067Y8038D01*
X29071Y8061D01*
X29074Y8084D01*
Y8112D01*
Y8117D01*
Y8126D01*
X29071Y8142D01*
X29067Y8163D01*
X29062Y8184D01*
X29053Y8209D01*
X29039Y8235D01*
X29023Y8260D01*
X29020Y8262D01*
X29013Y8269D01*
X29004Y8281D01*
X28993Y8293D01*
X28981Y8304D01*
X28965Y8316D01*
X28951Y8323D01*
X28935Y8325D01*
D02*
G37*
G36*
X22775Y8325D02*
X22770D01*
X22766Y8323D01*
X22759Y8318D01*
X22752Y8311D01*
X22743Y8299D01*
X22736Y8283D01*
X22726Y8262D01*
Y8260D01*
X22724Y8251D01*
X22722Y8239D01*
X22717Y8221D01*
X22715Y8202D01*
X22710Y8179D01*
X22708Y8131D01*
Y8126D01*
Y8117D01*
X22710Y8100D01*
X22713Y8080D01*
X22717Y8057D01*
X22724Y8033D01*
X22733Y8010D01*
X22745Y7987D01*
X22747Y7985D01*
X22752Y7978D01*
X22759Y7969D01*
X22770Y7959D01*
X22784Y7950D01*
X22798Y7941D01*
X22817Y7934D01*
X22835Y7932D01*
X22842D01*
X22849Y7934D01*
X22856Y7936D01*
X22865Y7943D01*
X22875Y7952D01*
X22884Y7964D01*
X22893Y7982D01*
Y7985D01*
X22895Y7992D01*
X22900Y8003D01*
X22905Y8019D01*
X22907Y8038D01*
X22912Y8061D01*
X22914Y8084D01*
Y8112D01*
Y8117D01*
Y8126D01*
X22912Y8142D01*
X22907Y8163D01*
X22902Y8184D01*
X22893Y8209D01*
X22879Y8235D01*
X22863Y8260D01*
X22861Y8262D01*
X22854Y8269D01*
X22844Y8281D01*
X22833Y8293D01*
X22821Y8304D01*
X22805Y8316D01*
X22791Y8323D01*
X22775Y8325D01*
D02*
G37*
G36*
X20686Y9079D02*
Y9077D01*
X20681Y9075D01*
X20676Y9072D01*
X20667Y9070D01*
X20665D01*
X20660Y9072D01*
X20656Y9075D01*
X20646Y9079D01*
X20621Y9072D01*
X20618D01*
X20616Y9070D01*
X20602Y9068D01*
X20581Y9061D01*
X20558Y9054D01*
X20533Y9045D01*
X20507Y9035D01*
X20487Y9021D01*
X20473Y9010D01*
X20477Y9008D01*
X20484Y9001D01*
X20491Y8991D01*
X20496Y8977D01*
Y8975D01*
Y8973D01*
X20494Y8964D01*
X20487Y8952D01*
X20480Y8950D01*
X20473Y8947D01*
X20470D01*
X20463Y8952D01*
X20459Y8957D01*
X20454Y8964D01*
X20452Y8973D01*
Y8984D01*
Y8987D01*
Y8991D01*
X20454Y8998D01*
X20459Y9005D01*
X20456D01*
X20454Y9008D01*
X20443Y9010D01*
X20426Y9012D01*
X20410Y9014D01*
X20399D01*
X20385Y9012D01*
X20369Y9010D01*
X20350Y9005D01*
X20329Y8996D01*
X20306Y8987D01*
X20283Y8973D01*
X20281Y8970D01*
X20274Y8966D01*
X20264Y8957D01*
X20253Y8945D01*
X20241Y8929D01*
X20230Y8910D01*
X20220Y8892D01*
X20216Y8871D01*
X20204D01*
Y8869D01*
X20202Y8843D01*
Y8820D01*
X20204Y8797D01*
X20207Y8778D01*
X20211Y8762D01*
X20214Y8751D01*
X20218Y8741D01*
Y8739D01*
X20220Y8736D01*
X20216Y8737D01*
X20214D01*
X20209Y8739D01*
X20200Y8741D01*
X20188Y8744D01*
X20163Y8746D01*
X20137Y8748D01*
X20126D01*
X20112Y8746D01*
X20093Y8744D01*
X20072Y8741D01*
X20049Y8734D01*
X20026Y8728D01*
X20004Y8716D01*
X20005Y8714D01*
X20008Y8707D01*
X20010Y8697D01*
X20019Y8672D01*
X20035Y8642D01*
X20054Y8607D01*
X20079Y8570D01*
X20112Y8538D01*
X20151Y8505D01*
X20153D01*
X20156Y8503D01*
X20163Y8498D01*
X20172Y8494D01*
X20195Y8482D01*
X20227Y8468D01*
X20267Y8452D01*
X20313Y8441D01*
X20364Y8431D01*
X20419Y8429D01*
X20450D01*
X20480Y8431D01*
X20512Y8434D01*
X20510Y8443D01*
X20505Y8454D01*
X20498Y8471D01*
X20489Y8489D01*
X20477Y8512D01*
X20466Y8535D01*
X20450Y8561D01*
X20431Y8586D01*
X20410Y8614D01*
X20387Y8640D01*
X20362Y8663D01*
X20334Y8686D01*
X20301Y8704D01*
X20267Y8721D01*
X20233Y8733D01*
X20232Y8734D01*
X20230Y8737D01*
X20220Y8762D01*
X20216Y8785D01*
X20214Y8809D01*
Y8827D01*
Y8846D01*
Y8857D01*
X20216Y8866D01*
Y8869D01*
X20216Y8871D01*
X20220D01*
X20230Y8869D01*
X20241Y8866D01*
X20253Y8864D01*
X20269Y8862D01*
X20306Y8850D01*
X20350Y8834D01*
X20394Y8811D01*
X20440Y8781D01*
X20461Y8765D01*
X20482Y8744D01*
X20484Y8741D01*
X20487Y8739D01*
X20494Y8732D01*
X20500Y8723D01*
X20507Y8714D01*
X20519Y8700D01*
X20540Y8667D01*
X20563Y8626D01*
X20584Y8577D01*
X20602Y8522D01*
X20613Y8461D01*
X20614D01*
X20621Y8466D01*
X20632Y8471D01*
X20644Y8478D01*
X20674Y8496D01*
X20688Y8508D01*
X20702Y8522D01*
X20699Y8524D01*
X20693Y8533D01*
X20683Y8549D01*
X20672Y8568D01*
X20660Y8593D01*
X20651Y8621D01*
X20644Y8653D01*
X20642Y8688D01*
Y8691D01*
Y8697D01*
X20644Y8709D01*
X20646Y8723D01*
X20651Y8739D01*
X20658Y8758D01*
X20667Y8774D01*
X20679Y8790D01*
X20681Y8792D01*
X20686Y8797D01*
X20695Y8804D01*
X20706Y8811D01*
X20720Y8820D01*
X20736Y8827D01*
X20757Y8834D01*
X20780Y8836D01*
X20783D01*
Y8920D01*
Y8922D01*
Y8929D01*
X20785Y8936D01*
X20790Y8938D01*
X20792D01*
X20794Y8936D01*
X20797Y8931D01*
Y8920D01*
Y8836D01*
X20783D01*
Y8811D01*
X20794D01*
X20797Y8811D01*
Y8702D01*
X20799D01*
X20811Y8695D01*
X20817Y8691D01*
X20824Y8684D01*
X20831Y8674D01*
X20838Y8660D01*
Y8658D01*
X20841Y8653D01*
X20850Y8640D01*
X20859Y8623D01*
X20866Y8616D01*
X20871Y8612D01*
X20873D01*
X20880Y8610D01*
X20889Y8607D01*
X20903Y8605D01*
X20905D01*
X20915Y8607D01*
X20926Y8610D01*
X20938Y8614D01*
X20952Y8623D01*
X20961Y8637D01*
X20970Y8656D01*
X20973Y8681D01*
Y8684D01*
Y8691D01*
X20970Y8700D01*
X20966Y8711D01*
X20959Y8725D01*
X20949Y8741D01*
X20935Y8755D01*
X20917Y8771D01*
X20915Y8774D01*
X20908Y8778D01*
X20896Y8783D01*
X20882Y8792D01*
X20864Y8799D01*
X20843Y8804D01*
X20820Y8809D01*
X20797Y8811D01*
Y8836D01*
X20806D01*
X20820Y8834D01*
X20838Y8832D01*
X20859Y8825D01*
X20882Y8818D01*
X20903Y8806D01*
X20926Y8790D01*
X20929Y8788D01*
X20935Y8783D01*
X20945Y8771D01*
X20956Y8760D01*
X20968Y8744D01*
X20977Y8725D01*
X20984Y8704D01*
X20986Y8684D01*
Y8681D01*
Y8677D01*
Y8670D01*
X20984Y8660D01*
X20977Y8637D01*
X20963Y8616D01*
X20959Y8612D01*
X20947Y8605D01*
X20929Y8596D01*
X20917Y8593D01*
X20903Y8591D01*
X20901D01*
X20892Y8593D01*
X20880Y8596D01*
X20868Y8600D01*
X20866Y8603D01*
X20859Y8612D01*
X20848Y8626D01*
X20841Y8637D01*
X20834Y8651D01*
Y8653D01*
X20831Y8658D01*
X20822Y8672D01*
X20808Y8684D01*
X20801Y8688D01*
X20797Y8690D01*
Y8702D01*
X20783D01*
Y8662D01*
X20780Y8656D01*
X20776Y8653D01*
X20771D01*
X20764Y8656D01*
X20755Y8663D01*
X20753Y8667D01*
X20750Y8674D01*
Y8677D01*
Y8679D01*
X20755Y8688D01*
X20764Y8697D01*
X20771Y8700D01*
X20780Y8702D01*
X20783D01*
Y8811D01*
X20778D01*
X20771Y8809D01*
X20760Y8806D01*
X20746Y8804D01*
X20732Y8797D01*
X20716Y8788D01*
X20702Y8776D01*
X20688Y8762D01*
X20686Y8760D01*
X20683Y8755D01*
X20679Y8746D01*
X20672Y8734D01*
X20665Y8721D01*
X20660Y8704D01*
X20658Y8686D01*
X20656Y8667D01*
Y8665D01*
Y8653D01*
X20658Y8640D01*
X20662Y8621D01*
X20667Y8598D01*
X20676Y8575D01*
X20690Y8552D01*
X20706Y8529D01*
Y8531D01*
X20711Y8533D01*
X20713Y8540D01*
X20720Y8549D01*
X20725Y8561D01*
X20730Y8575D01*
X20739Y8610D01*
X20743Y8600D01*
Y8598D01*
Y8593D01*
X20741Y8586D01*
X20739Y8577D01*
X20732Y8552D01*
X20723Y8538D01*
X20713Y8522D01*
Y8519D01*
X20718Y8517D01*
X20730Y8505D01*
X20750Y8489D01*
X20778Y8473D01*
X20783Y8471D01*
Y8662D01*
X20794Y8691D01*
X20797Y8690D01*
Y8465D01*
X20804Y8461D01*
X20815Y8457D01*
X20831Y8452D01*
X20850Y8445D01*
X20873Y8441D01*
X20923Y8431D01*
X20922Y8424D01*
X20921Y8422D01*
X20910Y8424D01*
X20896Y8427D01*
X20878Y8431D01*
X20857Y8436D01*
X20836Y8441D01*
X20815Y8450D01*
X20797Y8456D01*
Y8465D01*
X20794Y8466D01*
X20792D01*
X20783Y8471D01*
Y8463D01*
X20794Y8457D01*
X20797Y8456D01*
Y8374D01*
X20910D01*
Y8378D01*
X20912Y8387D01*
X20917Y8404D01*
X20921Y8422D01*
X20922Y8422D01*
X20924D01*
X20956Y8420D01*
X20986Y8417D01*
X21012D01*
Y8415D01*
Y8404D01*
Y8383D01*
Y8369D01*
Y8353D01*
Y8350D01*
Y8348D01*
Y8341D01*
Y8332D01*
Y8306D01*
X21014Y8279D01*
X21016Y8244D01*
X21019Y8209D01*
X21023Y8175D01*
X21028Y8144D01*
X21033D01*
X21044Y8147D01*
X21065D01*
X21088Y8151D01*
X21118Y8156D01*
X21153Y8165D01*
X21190Y8175D01*
X21229Y8188D01*
X21271Y8205D01*
X21310Y8228D01*
X21350Y8253D01*
X21387Y8283D01*
X21421Y8318D01*
X21451Y8360D01*
X21477Y8408D01*
X21495Y8461D01*
X21493Y8464D01*
X21489Y8466D01*
X21477Y8473D01*
X21465Y8478D01*
X21451Y8487D01*
X21433Y8494D01*
X21396Y8508D01*
X21401Y8517D01*
X21402Y8519D01*
X21401D01*
X21380Y8524D01*
X21366Y8529D01*
X21350D01*
Y8526D01*
Y8515D01*
X21329D01*
X21313Y8512D01*
X21294Y8510D01*
X21276Y8501D01*
X21271Y8498D01*
X21264Y8492D01*
X21257Y8482D01*
X21252Y8468D01*
Y8466D01*
Y8464D01*
X21257Y8454D01*
X21262Y8448D01*
X21269Y8443D01*
X21278Y8441D01*
X21290Y8438D01*
X21299D01*
X21290Y8436D01*
X21276D01*
X21271Y8434D01*
X21269Y8431D01*
Y8429D01*
X21270Y8427D01*
X21264Y8429D01*
X21255Y8434D01*
X21246Y8441D01*
X21241Y8450D01*
X21239Y8461D01*
Y8464D01*
Y8466D01*
X21241Y8480D01*
X21248Y8494D01*
X21262Y8510D01*
X21264D01*
X21266Y8512D01*
X21280Y8519D01*
X21301Y8526D01*
X21329Y8529D01*
X21350D01*
Y8533D01*
Y8540D01*
X21347Y8549D01*
X21340Y8573D01*
X21329Y8598D01*
Y8600D01*
X21324Y8605D01*
X21317Y8612D01*
X21308Y8621D01*
X21294Y8633D01*
X21278Y8647D01*
X21255Y8660D01*
X21227Y8677D01*
X21209Y8686D01*
Y8688D01*
X21199Y8732D01*
X21188Y8774D01*
X21174Y8809D01*
X21162Y8839D01*
X21151Y8864D01*
X21141Y8883D01*
X21134Y8892D01*
X21132Y8896D01*
X21125Y8880D01*
X21125Y8879D01*
X21144Y8850D01*
X21160Y8818D01*
X21171Y8785D01*
X21181Y8758D01*
X21188Y8732D01*
X21192Y8711D01*
X21195Y8700D01*
Y8697D01*
Y8695D01*
X21195Y8693D01*
X21209Y8686D01*
X21211Y8677D01*
X21213Y8663D01*
Y8644D01*
Y8640D01*
Y8628D01*
X21211Y8610D01*
X21206Y8589D01*
X21199Y8563D01*
X21190Y8535D01*
X21176Y8510D01*
X21158Y8485D01*
X21155Y8482D01*
X21148Y8475D01*
X21137Y8464D01*
X21121Y8452D01*
X21100Y8441D01*
X21074Y8429D01*
X21044Y8422D01*
X21012Y8417D01*
Y8420D01*
Y8427D01*
X21014D01*
X21023Y8429D01*
X21040Y8434D01*
X21060Y8438D01*
X21081Y8445D01*
X21104Y8457D01*
X21128Y8471D01*
X21148Y8489D01*
X21151Y8492D01*
X21155Y8498D01*
X21165Y8512D01*
X21174Y8529D01*
X21183Y8547D01*
X21192Y8570D01*
X21197Y8598D01*
X21199Y8628D01*
Y8630D01*
Y8633D01*
Y8647D01*
X21197Y8667D01*
X21195Y8693D01*
X21195Y8693D01*
X21192Y8695D01*
X21183Y8702D01*
X21169Y8714D01*
X21155Y8728D01*
X21139Y8746D01*
X21128Y8769D01*
X21118Y8795D01*
X21114Y8822D01*
Y8825D01*
Y8827D01*
X21116Y8841D01*
X21118Y8859D01*
X21125Y8879D01*
X21123Y8883D01*
Y8885D01*
X21121Y8887D01*
X21109Y8899D01*
X21093Y8920D01*
X21067Y8943D01*
X21033Y8968D01*
X20993Y8996D01*
X20942Y9024D01*
X20912Y9038D01*
X20882Y9049D01*
X20871Y9054D01*
X20852Y9051D01*
X20845D01*
X20838Y9054D01*
X20834Y9058D01*
X20827Y9061D01*
X20822D01*
X20813Y9058D01*
X20811D01*
X20808Y9061D01*
X20797Y9065D01*
X20787Y9068D01*
X20785Y9065D01*
X20780Y9058D01*
X20774Y9049D01*
X20760Y9047D01*
X20757D01*
X20748Y9049D01*
X20741Y9056D01*
X20734Y9068D01*
X20727Y9070D01*
X20723Y9068D01*
X20718Y9065D01*
X20706D01*
X20702Y9070D01*
X20695Y9072D01*
X20686Y9079D01*
D02*
G37*
G36*
X20466Y9001D02*
Y8998D01*
X20463Y8994D01*
X20461Y8987D01*
X20459Y8977D01*
Y8975D01*
X20461Y8970D01*
X20466Y8964D01*
X20473Y8961D01*
X20475D01*
X20480Y8964D01*
X20484Y8966D01*
X20487Y8973D01*
Y8975D01*
X20484Y8982D01*
X20477Y8991D01*
X20466Y9001D01*
D02*
G37*
G36*
X20669Y9281D02*
X20637D01*
X20618Y9278D01*
X20598Y9276D01*
X20577Y9274D01*
X20551Y9271D01*
X20494Y9262D01*
X20431Y9248D01*
X20366Y9230D01*
X20299Y9204D01*
X20297D01*
X20292Y9202D01*
X20283Y9197D01*
X20271Y9190D01*
X20257Y9183D01*
X20239Y9174D01*
X20202Y9151D01*
X20160Y9121D01*
X20119Y9086D01*
X20079Y9047D01*
X20045Y9001D01*
X20052D01*
X20065Y9003D01*
X20086Y9005D01*
X20121D01*
X20139Y9003D01*
X20163Y8998D01*
X20167D01*
X20179Y8994D01*
X20190Y8989D01*
X20193Y8987D01*
X20195Y8984D01*
X20193Y8982D01*
X20190Y8980D01*
X20183Y8977D01*
X20177Y8980D01*
X20172Y8982D01*
X20165Y8984D01*
X20156Y8987D01*
X20144D01*
X20130Y8989D01*
X20112Y8991D01*
X20077D01*
X20061Y8989D01*
X20035Y8984D01*
X20033Y8982D01*
X20028Y8970D01*
X20021Y8957D01*
X20015Y8936D01*
X20008Y8913D01*
X20001Y8885D01*
X19996Y8855D01*
X19994Y8825D01*
Y8822D01*
X19978Y8813D01*
Y8811D01*
X19980Y8771D01*
Y8753D01*
X19982Y8739D01*
X19984Y8728D01*
Y8718D01*
X19987Y8714D01*
Y8711D01*
X19988Y8709D01*
X20003Y8716D01*
X20004Y8716D01*
X20003Y8718D01*
Y8721D01*
X19998Y8758D01*
X19996Y8790D01*
X19994Y8804D01*
Y8815D01*
Y8822D01*
X19998Y8825D01*
X20010Y8829D01*
X20026Y8839D01*
X20049Y8848D01*
X20079Y8855D01*
X20112Y8864D01*
X20146Y8869D01*
X20186Y8871D01*
X20204D01*
X20207Y8880D01*
X20211Y8894D01*
X20216Y8908D01*
X20225Y8927D01*
X20237Y8945D01*
X20253Y8964D01*
X20271Y8982D01*
X20274Y8984D01*
X20283Y8989D01*
X20295Y8996D01*
X20311Y9005D01*
X20329Y9012D01*
X20352Y9019D01*
X20378Y9024D01*
X20403Y9026D01*
X20410D01*
X20424Y9024D01*
X20445Y9021D01*
X20463Y9014D01*
X20466Y9017D01*
X20468Y9019D01*
X20475Y9024D01*
X20484Y9031D01*
X20496Y9038D01*
X20512Y9047D01*
X20528Y9056D01*
X20549Y9063D01*
X20551D01*
X20558Y9068D01*
X20570Y9070D01*
X20581Y9075D01*
X20612Y9082D01*
X20625Y9086D01*
X20637D01*
X20644Y9084D01*
X20646Y9086D01*
X20653Y9093D01*
X20660Y9098D01*
X20667Y9100D01*
X20679Y9091D01*
X20688D01*
Y9093D01*
X20693Y9098D01*
X20699Y9102D01*
X20711Y9105D01*
X20713D01*
X20716Y9102D01*
X20720Y9100D01*
X20725Y9093D01*
X20734D01*
Y9098D01*
X20739Y9105D01*
X20748Y9112D01*
X20760Y9116D01*
X20764D01*
X20771Y9114D01*
X20780Y9105D01*
X20785Y9100D01*
X20790Y9091D01*
X20797Y9086D01*
X20799Y9089D01*
X20801Y9093D01*
X20808Y9095D01*
X20813Y9098D01*
X20815D01*
X20820Y9095D01*
X20827Y9091D01*
X20834Y9079D01*
X20843Y9075D01*
X20852Y9079D01*
X20854D01*
X20859Y9077D01*
X20866Y9072D01*
X20875Y9063D01*
X20878D01*
X20882Y9061D01*
X20892Y9056D01*
X20903Y9051D01*
X20919Y9045D01*
X20935Y9038D01*
X20973Y9019D01*
X21016Y8996D01*
X21058Y8966D01*
X21097Y8933D01*
X21132Y8896D01*
Y8899D01*
X21137Y8903D01*
X21148Y8917D01*
X21167Y8936D01*
X21190Y8954D01*
X21192D01*
X21197Y8959D01*
X21211Y8966D01*
X21232Y8973D01*
X21252Y8977D01*
X21262Y8973D01*
X21246Y8964D01*
X21243D01*
X21236Y8959D01*
X21227Y8954D01*
X21215Y8947D01*
X21204Y8938D01*
X21195Y8927D01*
X21188Y8913D01*
X21185Y8894D01*
Y8890D01*
X21188Y8880D01*
X21192Y8864D01*
X21202Y8846D01*
X21206Y8841D01*
X21211Y8834D01*
X21220Y8827D01*
X21232Y8818D01*
X21248Y8804D01*
X21269Y8790D01*
X21294Y8774D01*
X21299Y8771D01*
X21308Y8767D01*
X21320Y8758D01*
X21336Y8746D01*
X21371Y8718D01*
X21384Y8704D01*
X21396Y8688D01*
X21398Y8686D01*
X21401Y8681D01*
X21405Y8672D01*
X21410Y8663D01*
X21417Y8633D01*
X21421Y8616D01*
Y8600D01*
Y8598D01*
Y8593D01*
Y8584D01*
X21419Y8573D01*
X21412Y8545D01*
X21402Y8519D01*
X21403D01*
X21410Y8517D01*
X21419Y8512D01*
X21433Y8508D01*
X21463Y8494D01*
X21498Y8478D01*
Y8480D01*
X21500Y8489D01*
X21502Y8501D01*
X21505Y8517D01*
X21507Y8535D01*
X21509Y8556D01*
X21512Y8600D01*
Y8603D01*
Y8607D01*
Y8619D01*
X21509Y8630D01*
Y8647D01*
X21505Y8665D01*
X21502Y8686D01*
X21498Y8709D01*
X21484Y8760D01*
X21463Y8818D01*
X21451Y8846D01*
X21435Y8876D01*
X21419Y8906D01*
X21398Y8936D01*
X21396Y8938D01*
X21394Y8943D01*
X21387Y8952D01*
X21377Y8961D01*
X21366Y8975D01*
X21352Y8991D01*
X21336Y9008D01*
X21317Y9028D01*
X21273Y9068D01*
X21220Y9109D01*
X21160Y9151D01*
X21091Y9188D01*
X21088D01*
X21081Y9193D01*
X21072Y9197D01*
X21056Y9202D01*
X21040Y9209D01*
X21016Y9218D01*
X20993Y9225D01*
X20966Y9234D01*
X20935Y9244D01*
X20903Y9250D01*
X20831Y9267D01*
X20753Y9276D01*
X20669Y9281D01*
D02*
G37*
G36*
X20783Y8196D02*
Y8187D01*
X20794Y8181D01*
X20797Y8180D01*
Y8191D01*
X20794D01*
X20783Y8196D01*
D02*
G37*
G36*
X19984Y8216D02*
X19968D01*
X19952Y8214D01*
X19929Y8209D01*
X19903Y8202D01*
X19876Y8191D01*
X19848Y8177D01*
X19822Y8156D01*
X19825D01*
X19832Y8154D01*
X19841Y8151D01*
X19853Y8149D01*
X19866Y8147D01*
X19883Y8144D01*
X19920Y8142D01*
X19938D01*
X19950Y8144D01*
X19978Y8147D01*
X20008Y8154D01*
X20010D01*
X20015Y8156D01*
X20028Y8163D01*
X20040Y8172D01*
X20045Y8177D01*
X20047Y8181D01*
Y8184D01*
X20045Y8191D01*
X20040Y8198D01*
X20028Y8205D01*
X20026Y8207D01*
X20017Y8212D01*
X20003Y8214D01*
X19984Y8216D01*
D02*
G37*
G36*
X20017Y8980D02*
X20015D01*
X20010Y8977D01*
X19998Y8975D01*
X19987Y8973D01*
X19971Y8966D01*
X19952Y8961D01*
X19910Y8943D01*
X19860Y8920D01*
X19809Y8890D01*
X19755Y8850D01*
X19730Y8827D01*
X19704Y8802D01*
X19702Y8799D01*
X19700Y8795D01*
X19693Y8788D01*
X19684Y8776D01*
X19674Y8765D01*
X19665Y8748D01*
X19642Y8711D01*
X19617Y8667D01*
X19598Y8616D01*
X19582Y8563D01*
X19580Y8535D01*
X19577Y8505D01*
Y8503D01*
Y8501D01*
Y8494D01*
Y8485D01*
X19580Y8464D01*
X19584Y8434D01*
X19591Y8401D01*
X19603Y8364D01*
X19617Y8327D01*
X19637Y8290D01*
X19640Y8286D01*
X19649Y8274D01*
X19663Y8258D01*
X19681Y8239D01*
X19707Y8216D01*
X19737Y8195D01*
X19769Y8177D01*
X19809Y8161D01*
X19813Y8163D01*
X19822Y8170D01*
X19839Y8181D01*
X19860Y8193D01*
X19883Y8205D01*
X19913Y8216D01*
X19943Y8223D01*
X19978Y8225D01*
X19991D01*
X20005Y8223D01*
X20021Y8221D01*
X20035Y8216D01*
X20049Y8209D01*
X20059Y8200D01*
X20063Y8186D01*
Y8181D01*
X20059Y8172D01*
X20052Y8165D01*
X20045Y8158D01*
X20033Y8151D01*
X20019Y8144D01*
X20017D01*
X20012Y8142D01*
X20003Y8140D01*
X19989Y8137D01*
X19973Y8135D01*
X19954Y8133D01*
X19931Y8131D01*
X19887D01*
X19876Y8133D01*
X19843Y8137D01*
X19809Y8144D01*
X19806Y8140D01*
X19797Y8128D01*
X19783Y8110D01*
X19769Y8084D01*
X19753Y8054D01*
X19741Y8017D01*
X19732Y7973D01*
X19728Y7927D01*
Y7925D01*
Y7918D01*
Y7908D01*
X19730Y7897D01*
X19732Y7881D01*
X19735Y7862D01*
X19741Y7820D01*
X19755Y7774D01*
X19779Y7726D01*
X19790Y7702D01*
X19806Y7679D01*
X19825Y7659D01*
X19846Y7640D01*
X19848D01*
X19850Y7635D01*
X19857Y7631D01*
X19866Y7624D01*
X19892Y7610D01*
X19924Y7591D01*
X19964Y7573D01*
X20010Y7559D01*
X20061Y7547D01*
X20116Y7543D01*
X20149D01*
X20179Y7545D01*
X20211Y7550D01*
X20209Y7587D01*
Y7603D01*
X20220Y7552D01*
X20223D01*
X20227Y7554D01*
X20234D01*
X20244Y7559D01*
X20269Y7566D01*
X20301Y7578D01*
X20336Y7591D01*
X20373Y7610D01*
X20408Y7633D01*
X20438Y7661D01*
X20440Y7665D01*
X20450Y7675D01*
X20461Y7689D01*
X20477Y7707D01*
X20491Y7728D01*
X20503Y7749D01*
X20512Y7770D01*
X20514Y7790D01*
Y7795D01*
Y7802D01*
X20517Y7809D01*
X20521Y7814D01*
X20528Y7800D01*
Y7797D01*
X20526Y7788D01*
X20524Y7774D01*
X20519Y7758D01*
X20507Y7735D01*
X20494Y7709D01*
X20475Y7682D01*
X20447Y7652D01*
X20443Y7647D01*
X20433Y7638D01*
X20415Y7624D01*
X20389Y7605D01*
X20357Y7587D01*
X20320Y7568D01*
X20274Y7550D01*
X20223Y7536D01*
Y7534D01*
X20225Y7531D01*
Y7524D01*
X20230Y7515D01*
X20237Y7492D01*
X20248Y7462D01*
X20267Y7429D01*
X20288Y7397D01*
X20315Y7365D01*
X20350Y7335D01*
X20352D01*
X20355Y7332D01*
X20369Y7323D01*
X20389Y7311D01*
X20419Y7298D01*
X20459Y7284D01*
X20503Y7272D01*
X20554Y7263D01*
X20612Y7260D01*
X20628D01*
X20646Y7263D01*
X20669Y7267D01*
X20699Y7274D01*
X20730Y7284D01*
X20762Y7295D01*
X20797Y7314D01*
X20801Y7316D01*
X20811Y7323D01*
X20827Y7335D01*
X20848Y7351D01*
X20871Y7369D01*
X20892Y7392D01*
X20915Y7418D01*
X20933Y7448D01*
X20929Y7450D01*
X20919Y7457D01*
X20903Y7471D01*
X20887Y7487D01*
X20868Y7508D01*
X20852Y7536D01*
X20843Y7568D01*
X20838Y7603D01*
Y7605D01*
Y7615D01*
X20841Y7624D01*
X20845Y7638D01*
X20850Y7649D01*
X20857Y7661D01*
X20868Y7668D01*
X20885Y7670D01*
X20892D01*
X20898Y7668D01*
X20905Y7665D01*
X20917Y7661D01*
X20926Y7656D01*
X20938Y7647D01*
X20947Y7635D01*
X20949Y7633D01*
X20952Y7628D01*
X20956Y7621D01*
X20961Y7612D01*
X20970Y7587D01*
X20975Y7571D01*
Y7554D01*
Y7552D01*
Y7547D01*
Y7538D01*
X20973Y7527D01*
X20966Y7497D01*
X20954Y7462D01*
X20956Y7459D01*
X20966Y7457D01*
X20977Y7453D01*
X20993Y7448D01*
X21014Y7441D01*
X21040Y7436D01*
X21067Y7434D01*
X21100Y7432D01*
X21116D01*
X21128Y7434D01*
X21139D01*
X21155Y7439D01*
X21192Y7446D01*
X21236Y7459D01*
X21280Y7478D01*
X21327Y7506D01*
X21347Y7522D01*
X21368Y7540D01*
X21371Y7543D01*
X21373Y7545D01*
X21377Y7552D01*
X21384Y7559D01*
X21403Y7582D01*
X21424Y7615D01*
X21442Y7652D01*
X21461Y7698D01*
X21472Y7749D01*
X21477Y7777D01*
Y7804D01*
Y7807D01*
Y7809D01*
Y7825D01*
X21475Y7844D01*
X21470Y7864D01*
X21465D01*
X21458Y7862D01*
X21449D01*
X21426Y7860D01*
X21401Y7858D01*
X21389D01*
X21380Y7860D01*
X21354Y7862D01*
X21324Y7869D01*
X21322D01*
X21317Y7871D01*
X21303Y7876D01*
X21287Y7883D01*
X21283Y7885D01*
X21280Y7888D01*
X21287Y7892D01*
X21299Y7888D01*
X21301D01*
X21306Y7885D01*
X21315Y7883D01*
X21329Y7881D01*
X21343Y7876D01*
X21361Y7874D01*
X21403Y7871D01*
X21424D01*
X21445Y7874D01*
X21468Y7878D01*
Y7881D01*
X21465Y7883D01*
X21461Y7895D01*
X21454Y7913D01*
X21442Y7936D01*
X21426Y7962D01*
X21405Y7987D01*
X21382Y8013D01*
X21352Y8036D01*
X21347Y8038D01*
X21338Y8045D01*
X21320Y8054D01*
X21296Y8066D01*
X21269Y8077D01*
X21239Y8087D01*
X21202Y8094D01*
X21165Y8096D01*
X21141D01*
X21125Y8094D01*
X21107Y8091D01*
X21086Y8089D01*
X21044Y8080D01*
X21044Y8077D01*
Y8075D01*
X21047Y8073D01*
X21049Y8066D01*
X21053Y8057D01*
X21065Y8036D01*
X21081Y8013D01*
X21102Y7987D01*
X21128Y7966D01*
X21144Y7957D01*
X21160Y7950D01*
X21178Y7948D01*
X21197Y7945D01*
X21206D01*
X21215Y7948D01*
X21229Y7952D01*
X21243Y7957D01*
X21259Y7966D01*
X21273Y7980D01*
X21290Y7996D01*
X21303Y8010D01*
X21306Y8006D01*
Y8003D01*
X21303Y7999D01*
X21299Y7989D01*
X21287Y7973D01*
X21271Y7955D01*
X21259Y7943D01*
X21243Y7929D01*
X21227Y7915D01*
X21209Y7899D01*
X21185Y7881D01*
X21160Y7862D01*
X21158Y7860D01*
X21151Y7858D01*
X21141Y7848D01*
X21130Y7839D01*
X21116Y7823D01*
X21097Y7807D01*
X21081Y7783D01*
X21063Y7758D01*
X21058Y7765D01*
Y7767D01*
X21060Y7772D01*
X21065Y7781D01*
X21070Y7790D01*
X21079Y7804D01*
X21093Y7823D01*
X21109Y7844D01*
X21095Y7848D01*
X21093D01*
X21091Y7851D01*
X21077Y7858D01*
X21058Y7869D01*
X21033Y7888D01*
X21007Y7911D01*
X20982Y7943D01*
X20959Y7980D01*
X20940Y8024D01*
X20939Y8026D01*
X20975Y8050D01*
X20991Y8059D01*
X21007Y8066D01*
X21021Y8073D01*
X21033Y8077D01*
X21040Y8080D01*
X21042D01*
X21044Y8080D01*
X21042Y8089D01*
X21041Y8091D01*
X21042D01*
X21051Y8094D01*
X21063Y8098D01*
X21079Y8100D01*
X21097Y8105D01*
X21121Y8107D01*
X21167Y8110D01*
X21185D01*
X21206Y8107D01*
X21232Y8103D01*
X21262Y8094D01*
X21294Y8084D01*
X21329Y8068D01*
X21361Y8047D01*
X21366Y8045D01*
X21375Y8036D01*
X21391Y8022D01*
X21410Y8003D01*
X21428Y7980D01*
X21449Y7952D01*
X21465Y7920D01*
X21479Y7883D01*
X21484Y7885D01*
X21493Y7890D01*
X21509Y7897D01*
X21528Y7908D01*
X21549Y7922D01*
X21572Y7941D01*
X21595Y7964D01*
X21613Y7992D01*
X21616Y7996D01*
X21620Y8006D01*
X21630Y8022D01*
X21639Y8045D01*
X21646Y8073D01*
X21655Y8105D01*
X21660Y8142D01*
X21662Y8184D01*
Y8186D01*
Y8191D01*
Y8200D01*
X21660Y8209D01*
X21657Y8223D01*
X21655Y8239D01*
X21644Y8276D01*
X21625Y8318D01*
X21613Y8341D01*
X21600Y8364D01*
X21581Y8387D01*
X21560Y8408D01*
X21537Y8431D01*
X21512Y8452D01*
Y8450D01*
X21507Y8438D01*
X21502Y8422D01*
X21493Y8404D01*
X21482Y8378D01*
X21465Y8353D01*
X21445Y8323D01*
X21421Y8295D01*
X21391Y8265D01*
X21359Y8235D01*
X21320Y8209D01*
X21276Y8184D01*
X21222Y8163D01*
X21167Y8147D01*
X21102Y8135D01*
X21030Y8131D01*
X21028Y8142D01*
X21028Y8144D01*
X20961D01*
X20942Y8147D01*
X20929Y8149D01*
X20917D01*
X20910Y8151D01*
Y8154D01*
Y8161D01*
Y8172D01*
Y8184D01*
X20908Y8214D01*
Y8246D01*
Y8286D01*
X20797D01*
Y8191D01*
X20806Y8186D01*
X20817Y8181D01*
X20831Y8175D01*
X20850Y8170D01*
X20868Y8163D01*
X20908Y8151D01*
X20910D01*
Y8144D01*
X20952Y8135D01*
X20973Y8133D01*
X20991Y8131D01*
X21030D01*
Y8128D01*
X21033Y8126D01*
X21035Y8114D01*
X21037Y8100D01*
X21041Y8091D01*
X21040D01*
X20998Y8075D01*
X20979Y8066D01*
X20963Y8057D01*
X20949Y8050D01*
X20940Y8043D01*
X20935Y8039D01*
X20935Y8038D01*
Y8036D01*
X20939Y8026D01*
X20935Y8024D01*
X20931Y8022D01*
X20922Y8013D01*
X20905Y7999D01*
X20887Y7978D01*
X20868Y7952D01*
X20848Y7920D01*
X20827Y7883D01*
X20811Y7839D01*
X20804Y7825D01*
X20797Y7830D01*
Y7832D01*
Y7834D01*
X20799Y7841D01*
X20801Y7851D01*
X20804Y7862D01*
X20811Y7876D01*
X20817Y7895D01*
X20827Y7918D01*
X20829Y7920D01*
X20834Y7929D01*
X20841Y7941D01*
X20852Y7957D01*
X20866Y7976D01*
X20885Y7994D01*
X20905Y8015D01*
X20931Y8036D01*
X20933Y8038D01*
X20935Y8039D01*
X20933Y8043D01*
X20931Y8052D01*
X20926Y8063D01*
X20922Y8080D01*
X20917Y8098D01*
X20915Y8119D01*
X20910Y8142D01*
Y8144D01*
X20908Y8144D01*
X20905D01*
X20898Y8147D01*
X20889Y8149D01*
X20875Y8154D01*
X20857Y8158D01*
X20838Y8163D01*
X20797Y8180D01*
Y7913D01*
Y7911D01*
Y7906D01*
X20794Y7899D01*
X20790Y7897D01*
X20787Y7899D01*
X20785Y7904D01*
X20783Y7913D01*
Y8187D01*
X20780Y8188D01*
X20778Y8191D01*
X20771Y8193D01*
X20762Y8200D01*
X20750Y8207D01*
X20725Y8225D01*
X20697Y8246D01*
X20695Y8249D01*
X20693Y8251D01*
X20683Y8260D01*
X20672Y8272D01*
X20669Y8279D01*
X20667Y8281D01*
X20669Y8283D01*
X20672Y8281D01*
X20676Y8276D01*
X20686Y8267D01*
X20699Y8255D01*
X20716Y8242D01*
X20734Y8228D01*
X20755Y8212D01*
X20780Y8198D01*
X20783Y8196D01*
Y8463D01*
X20780Y8464D01*
X20778D01*
X20774Y8466D01*
X20767Y8471D01*
X20757Y8478D01*
X20734Y8492D01*
X20709Y8512D01*
X20706Y8510D01*
X20702Y8505D01*
X20693Y8496D01*
X20681Y8487D01*
X20665Y8478D01*
X20649Y8466D01*
X20614Y8447D01*
Y8445D01*
Y8443D01*
Y8441D01*
X20616Y8427D01*
X20618Y8411D01*
Y8392D01*
Y8390D01*
Y8385D01*
Y8376D01*
Y8364D01*
X20616Y8350D01*
X20614Y8332D01*
X20609Y8293D01*
X20600Y8246D01*
X20586Y8198D01*
X20568Y8147D01*
X20542Y8098D01*
X20544D01*
X20549Y8096D01*
X20556Y8091D01*
X20565Y8087D01*
X20586Y8073D01*
X20614Y8054D01*
X20639Y8029D01*
X20662Y7996D01*
X20669Y7978D01*
X20676Y7959D01*
X20681Y7936D01*
X20683Y7913D01*
Y7911D01*
Y7904D01*
X20681Y7892D01*
X20679Y7876D01*
X20669Y7844D01*
X20662Y7825D01*
X20651Y7809D01*
X20649Y7807D01*
X20646Y7802D01*
X20632Y7788D01*
X20618Y7774D01*
X20612Y7770D01*
X20607Y7767D01*
X20605Y7772D01*
X20609Y7779D01*
X20612Y7783D01*
X20618Y7795D01*
X20623Y7816D01*
X20625Y7844D01*
Y7846D01*
Y7851D01*
X20623Y7858D01*
Y7867D01*
X20614Y7890D01*
X20607Y7904D01*
X20598Y7915D01*
X20595Y7918D01*
X20593Y7922D01*
X20584Y7929D01*
X20572Y7938D01*
X20554Y7950D01*
X20531Y7964D01*
X20503Y7978D01*
X20466Y7994D01*
X20461Y7989D01*
X20452Y7980D01*
X20436Y7966D01*
X20413Y7948D01*
X20387Y7927D01*
X20355Y7906D01*
X20320Y7888D01*
X20283Y7869D01*
X20278Y7867D01*
X20264Y7862D01*
X20244Y7855D01*
X20218Y7848D01*
X20186Y7839D01*
X20151Y7832D01*
X20114Y7827D01*
X20075Y7825D01*
X20061D01*
X20045Y7827D01*
X20024Y7830D01*
X20001Y7834D01*
X19978Y7844D01*
X19957Y7853D01*
X19936Y7867D01*
X19934Y7869D01*
X19929Y7874D01*
X19922Y7883D01*
X19913Y7895D01*
X19903Y7911D01*
X19897Y7927D01*
X19892Y7948D01*
X19890Y7969D01*
Y7971D01*
Y7976D01*
X19892Y7985D01*
Y7994D01*
X19899Y8019D01*
X19913Y8043D01*
X19915Y8045D01*
X19917Y8047D01*
X19931Y8059D01*
X19952Y8068D01*
X19966Y8070D01*
X19982Y8073D01*
X19987D01*
X19996Y8070D01*
X20010Y8068D01*
X20028Y8061D01*
X20045Y8052D01*
X20059Y8036D01*
X20068Y8015D01*
X20072Y7985D01*
Y7982D01*
Y7980D01*
X20070Y7969D01*
X20063Y7952D01*
X20052Y7938D01*
X20047Y7936D01*
X20038Y7932D01*
X20021Y7927D01*
X19998Y7925D01*
X19994D01*
X19984Y7927D01*
X19973Y7929D01*
X19957Y7936D01*
X19954Y7938D01*
X19945Y7945D01*
X19938Y7955D01*
X19931Y7966D01*
Y7964D01*
Y7959D01*
Y7950D01*
X19934Y7938D01*
X19936Y7915D01*
X19938Y7904D01*
X19940Y7895D01*
X19943Y7890D01*
X19950Y7881D01*
X19966Y7869D01*
X19987Y7855D01*
X19989D01*
X19994Y7853D01*
X20001Y7851D01*
X20010Y7848D01*
X20024Y7844D01*
X20038Y7841D01*
X20075Y7839D01*
X20091D01*
X20109Y7841D01*
X20135Y7844D01*
X20163Y7851D01*
X20195Y7858D01*
X20232Y7869D01*
X20269Y7883D01*
X20271D01*
X20274Y7885D01*
X20285Y7892D01*
X20306Y7901D01*
X20329Y7915D01*
X20355Y7934D01*
X20385Y7955D01*
X20413Y7980D01*
X20440Y8008D01*
X20438D01*
X20436Y8010D01*
X20422Y8019D01*
X20403Y8033D01*
X20380Y8054D01*
X20357Y8080D01*
X20338Y8110D01*
X20325Y8147D01*
X20322Y8168D01*
X20320Y8188D01*
Y8191D01*
Y8200D01*
X20322Y8212D01*
X20325Y8225D01*
X20332Y8244D01*
X20338Y8262D01*
X20350Y8283D01*
X20364Y8302D01*
X20366Y8304D01*
X20371Y8311D01*
X20378Y8318D01*
X20387Y8330D01*
X20396Y8339D01*
X20408Y8346D01*
X20415Y8353D01*
X20422Y8355D01*
X20433Y8350D01*
X20424Y8343D01*
X20422Y8341D01*
X20417Y8336D01*
X20410Y8330D01*
X20401Y8320D01*
X20392Y8306D01*
X20385Y8290D01*
X20380Y8272D01*
X20378Y8251D01*
Y8249D01*
Y8244D01*
X20380Y8235D01*
Y8223D01*
X20389Y8198D01*
X20394Y8186D01*
X20403Y8172D01*
X20406Y8170D01*
X20408Y8168D01*
X20415Y8161D01*
X20426Y8154D01*
X20438Y8144D01*
X20456Y8135D01*
X20477Y8124D01*
X20503Y8112D01*
X20505Y8117D01*
X20507Y8126D01*
X20512Y8142D01*
X20519Y8163D01*
X20524Y8188D01*
X20528Y8218D01*
X20531Y8251D01*
X20533Y8286D01*
Y8288D01*
Y8297D01*
Y8313D01*
X20531Y8330D01*
X20528Y8350D01*
X20526Y8374D01*
X20514Y8422D01*
X20517D01*
X20540Y8427D01*
X20558Y8429D01*
X20575Y8434D01*
X20588Y8438D01*
X20598Y8441D01*
X20607Y8443D01*
X20609Y8445D01*
X20612D01*
X20614Y8447D01*
Y8459D01*
X20613Y8461D01*
X20612D01*
X20575Y8448D01*
X20556Y8443D01*
X20542Y8441D01*
X20531Y8436D01*
X20521D01*
X20514Y8434D01*
X20512D01*
Y8431D01*
X20514Y8422D01*
X20507D01*
X20498Y8420D01*
X20470D01*
X20452Y8417D01*
X20396D01*
X20385Y8420D01*
X20373D01*
X20357Y8422D01*
X20322Y8427D01*
X20281Y8436D01*
X20237Y8450D01*
X20190Y8471D01*
X20144Y8496D01*
X20142D01*
X20139Y8501D01*
X20126Y8510D01*
X20105Y8529D01*
X20079Y8552D01*
X20054Y8584D01*
X20026Y8621D01*
X20005Y8663D01*
X19988Y8709D01*
X19982Y8707D01*
X19980Y8704D01*
X19973Y8700D01*
X19961Y8693D01*
X19950Y8681D01*
X19936Y8667D01*
X19920Y8651D01*
X19906Y8633D01*
X19894Y8612D01*
X19892Y8610D01*
X19890Y8603D01*
X19885Y8591D01*
X19880Y8575D01*
X19873Y8556D01*
X19869Y8535D01*
X19866Y8512D01*
X19864Y8489D01*
Y8485D01*
Y8475D01*
X19866Y8459D01*
X19871Y8441D01*
X19878Y8417D01*
X19887Y8394D01*
X19899Y8371D01*
X19917Y8350D01*
X19920Y8348D01*
X19927Y8341D01*
X19940Y8334D01*
X19957Y8325D01*
X19978Y8313D01*
X20001Y8306D01*
X20028Y8299D01*
X20061Y8297D01*
X20077D01*
X20093Y8299D01*
X20116Y8302D01*
X20139Y8309D01*
X20167Y8316D01*
X20193Y8327D01*
X20216Y8341D01*
X20223Y8346D01*
X20230Y8341D01*
Y8339D01*
X20227Y8336D01*
X20223Y8334D01*
X20218Y8330D01*
X20209Y8323D01*
X20195Y8316D01*
X20179Y8306D01*
X20177D01*
X20170Y8302D01*
X20160Y8299D01*
X20144Y8295D01*
X20128Y8290D01*
X20107Y8288D01*
X20086Y8283D01*
X20056D01*
X20042Y8286D01*
X20024Y8288D01*
X19998Y8293D01*
X19971Y8302D01*
X19940Y8316D01*
X19910Y8336D01*
X19880Y8362D01*
X19878Y8367D01*
X19869Y8376D01*
X19857Y8392D01*
X19843Y8415D01*
X19829Y8443D01*
X19818Y8475D01*
X19809Y8512D01*
X19806Y8554D01*
Y8556D01*
Y8566D01*
X19809Y8579D01*
X19811Y8598D01*
X19818Y8621D01*
X19825Y8644D01*
X19836Y8670D01*
X19850Y8695D01*
X19853Y8697D01*
X19860Y8707D01*
X19869Y8721D01*
X19883Y8737D01*
X19899Y8755D01*
X19920Y8774D01*
X19945Y8792D01*
X19973Y8811D01*
X19978Y8813D01*
Y8815D01*
Y8827D01*
X19980Y8846D01*
X19982Y8869D01*
X19987Y8894D01*
X19994Y8922D01*
X20003Y8952D01*
X20017Y8980D01*
D02*
G37*
G36*
X20887Y7656D02*
X20885D01*
X20878Y7654D01*
X20868Y7649D01*
X20861Y7640D01*
X20859Y7638D01*
X20857Y7631D01*
X20854Y7619D01*
X20852Y7605D01*
Y7601D01*
X20854Y7591D01*
X20857Y7575D01*
X20864Y7554D01*
X20875Y7531D01*
X20892Y7508D01*
X20915Y7487D01*
X20945Y7466D01*
Y7469D01*
X20947Y7473D01*
X20949Y7480D01*
X20954Y7492D01*
X20959Y7515D01*
X20961Y7540D01*
Y7543D01*
Y7547D01*
Y7557D01*
X20959Y7566D01*
X20952Y7591D01*
X20938Y7619D01*
Y7621D01*
X20933Y7626D01*
X20924Y7638D01*
X20908Y7652D01*
X20896Y7654D01*
X20887Y7656D01*
D02*
G37*
%LPD*%
G36*
X20227Y8734D02*
X20233Y8733D01*
X20237Y8725D01*
X20244Y8711D01*
X20257Y8693D01*
X20271Y8677D01*
X20292Y8658D01*
X20318Y8642D01*
X20345Y8628D01*
X20352Y8626D01*
X20345Y8621D01*
X20341D01*
X20329Y8626D01*
X20308Y8633D01*
X20297Y8640D01*
X20283Y8649D01*
X20281Y8651D01*
X20276Y8653D01*
X20269Y8663D01*
X20260Y8672D01*
X20251Y8684D01*
X20239Y8700D01*
X20227Y8718D01*
X20220Y8736D01*
X20227Y8734D01*
D02*
G37*
G36*
X21137Y8707D02*
X21123Y8691D01*
X21118Y8686D01*
X21109Y8677D01*
X21093Y8656D01*
X21074Y8630D01*
X21053Y8593D01*
X21044Y8573D01*
X21035Y8547D01*
X21028Y8522D01*
X21021Y8494D01*
X21016Y8461D01*
X21012Y8429D01*
Y8427D01*
X20989D01*
X20961Y8429D01*
X20947D01*
X20935Y8431D01*
X20924D01*
X20923Y8431D01*
X20924Y8434D01*
Y8436D01*
X20926Y8441D01*
X20929Y8448D01*
X20931Y8457D01*
X20942Y8482D01*
X20954Y8512D01*
X20970Y8545D01*
X20991Y8579D01*
X21012Y8612D01*
X21037Y8640D01*
X21040Y8642D01*
X21049Y8651D01*
X21060Y8663D01*
X21077Y8674D01*
X21093Y8688D01*
X21107Y8697D01*
X21121Y8707D01*
X21132Y8709D01*
X21137Y8707D01*
D02*
G37*
G36*
X21382Y8512D02*
X21391Y8510D01*
X21396Y8508D01*
Y8505D01*
X21391Y8501D01*
X21387Y8494D01*
X21382Y8485D01*
X21366Y8464D01*
X21343Y8445D01*
X21340D01*
X21338Y8443D01*
X21324Y8436D01*
X21306Y8427D01*
X21293Y8425D01*
X21301Y8427D01*
X21306Y8429D01*
X21308Y8431D01*
X21306Y8436D01*
X21299Y8438D01*
X21310Y8445D01*
X21324Y8457D01*
X21327Y8461D01*
X21336Y8473D01*
X21343Y8492D01*
X21350Y8515D01*
X21368D01*
X21382Y8512D01*
D02*
G37*
G36*
X21290Y8424D02*
X21287D01*
X21293Y8425D01*
X21290Y8424D01*
D02*
G37*
G36*
X21273Y8427D02*
X21283Y8424D01*
X21278D01*
X21271Y8427D01*
X21270Y8427D01*
X21273Y8427D01*
D02*
G37*
%LPC*%
G36*
X27607Y7684D02*
X27602D01*
X27588Y7679D01*
X27579Y7672D01*
X27570Y7665D01*
X27563Y7654D01*
X27553Y7638D01*
X27558D01*
X27572Y7642D01*
X27588Y7645D01*
X27604Y7652D01*
X27607Y7654D01*
X27616Y7659D01*
X27623Y7663D01*
X27625Y7670D01*
Y7672D01*
X27623Y7677D01*
X27618Y7682D01*
X27607Y7684D01*
D02*
G37*
%LPD*%
D10*
X27079Y50066D02*
G03*
X27079Y50066I-125J0D01*
G01*
X26825Y55645D02*
G03*
X26825Y55645I-125J0D01*
G01*
X12072Y42686D02*
G03*
X12072Y42686I-125J0D01*
G01*
X16441Y34275D02*
G03*
X16441Y34275I-125J0D01*
G01*
X18345Y28479D02*
G03*
X18345Y28479I-125J0D01*
G01*
X34649Y48700D02*
G03*
X32651Y48700I-999J-50D01*
G01*
Y53700D02*
G03*
X34649Y53700I999J50D01*
G01*
X5251Y53725D02*
G03*
X7249Y53725I999J50D01*
G01*
Y48725D02*
G03*
X5251Y48725I-999J-50D01*
G01*
X17225Y4826D02*
G03*
X17225Y6824I-50J999D01*
G01*
X22225D02*
G03*
X22225Y4826I50J-999D01*
G01*
D11*
X26779Y46511D02*
G03*
X26779Y46511I-250J0D01*
G01*
D12*
X16191Y32350D02*
G03*
X16191Y32100I0J-125D01*
G01*
X19479Y47261D02*
X27279D01*
X19479Y44266D02*
Y47261D01*
Y44266D02*
X27279D01*
Y47261D01*
X10950Y63320D02*
X28950D01*
Y57320D02*
Y60045D01*
Y62695D02*
Y63320D01*
X10950Y57320D02*
X12475D01*
X27425D02*
X28950D01*
X10950D02*
Y60045D01*
Y62695D02*
Y63320D01*
X12347Y43786D02*
X17647D01*
X12347Y47486D02*
X17647D01*
X12347Y43786D02*
Y47486D01*
X17647Y43786D02*
Y47486D01*
X13041Y33650D02*
X16191D01*
X13041Y30800D02*
Y33650D01*
Y30800D02*
X16191D01*
X16191Y32100D01*
X16191Y32350D02*
Y33650D01*
X17967Y30129D02*
X18562D01*
X23882D02*
X24477D01*
Y34829D01*
X17967D02*
X18562D01*
X23882D02*
X24477D01*
X17967Y30129D02*
Y34829D01*
X6996Y9110D02*
X10044D01*
X10044Y9111D02*
X10044Y29940D01*
X6996D02*
X6996Y9111D01*
X6996Y29940D02*
X10044D01*
X29856Y9110D02*
X32904D01*
X32904Y9111D02*
X32904Y29940D01*
X29856D02*
X29856Y9111D01*
X29856Y29940D02*
X32904D01*
D13*
X14945Y35476D02*
X15329D01*
X14945D02*
Y36776D01*
X15329D01*
X17795Y35476D02*
Y36776D01*
X17411D02*
X17795D01*
X17411Y35476D02*
X17795D01*
X14933Y38352D02*
X15316D01*
X14933D02*
Y39652D01*
X15316D01*
X17783Y38352D02*
Y39652D01*
X17399D02*
X17783D01*
X17399Y38352D02*
X17783D01*
X29774Y43246D02*
X29924D01*
Y41976D02*
Y43246D01*
X29774Y41976D02*
X29924D01*
X27174Y43246D02*
X27324D01*
X27174Y41976D02*
Y43246D01*
Y41976D02*
X27324D01*
X28644Y51926D02*
X28794D01*
Y50656D02*
Y51926D01*
X28644Y50656D02*
X28794D01*
X26044Y51926D02*
X26194D01*
X26044Y50656D02*
Y51926D01*
Y50656D02*
X26194D01*
X11857Y46494D02*
Y46644D01*
X10587Y46494D02*
X11857D01*
X10587D02*
Y46644D01*
X11857Y49094D02*
Y49244D01*
X10587D02*
X11857D01*
X10587Y49094D02*
Y49244D01*
X11297Y27653D02*
X11447D01*
X11297D02*
Y28923D01*
X11447D01*
X13897Y27653D02*
X14047D01*
Y28923D01*
X13897D02*
X14047D01*
X17600Y38210D02*
X17750D01*
Y36940D02*
Y38210D01*
X17600Y36940D02*
X17750D01*
X15000Y38210D02*
X15150D01*
X15000Y36940D02*
Y38210D01*
Y36940D02*
X15150D01*
X12635Y11050D02*
Y11200D01*
X11365Y11050D02*
X12635D01*
X11365D02*
Y11200D01*
X12635Y13650D02*
Y13800D01*
X11365D02*
X12635D01*
X11365Y13650D02*
Y13800D01*
X28982Y48964D02*
Y49347D01*
X27682Y48964D02*
Y49347D01*
X28982D01*
X27682Y46497D02*
Y46881D01*
Y46497D02*
X28982D01*
Y46881D01*
X21459Y24704D02*
Y25088D01*
X22759Y24704D02*
Y25088D01*
X21459Y24704D02*
X22759D01*
Y27170D02*
Y27554D01*
X21459D02*
X22759D01*
X21459Y27170D02*
Y27554D01*
X19935Y24704D02*
Y25088D01*
X21235Y24704D02*
Y25088D01*
X19935Y24704D02*
X21235D01*
Y27170D02*
Y27554D01*
X19935D02*
X21235D01*
X19935Y27170D02*
Y27554D01*
X18411Y24704D02*
Y25088D01*
X19711Y24704D02*
Y25088D01*
X18411Y24704D02*
X19711D01*
Y27170D02*
Y27554D01*
X18411D02*
X19711D01*
X18411Y27170D02*
Y27554D01*
X26188Y41344D02*
Y41727D01*
X24888Y41344D02*
Y41727D01*
X26188D01*
X24888Y38877D02*
Y39261D01*
Y38877D02*
X26188D01*
Y39261D01*
X27712Y41332D02*
Y41715D01*
X26412Y41332D02*
Y41715D01*
X27712D01*
X26412Y38865D02*
Y39249D01*
Y38865D02*
X27712D01*
Y39249D01*
X18314Y54856D02*
Y55240D01*
X17014Y54856D02*
Y55240D01*
X18314D01*
X17014Y52390D02*
Y52774D01*
Y52390D02*
X18314D01*
Y52774D01*
X16790Y54856D02*
Y55240D01*
X15490Y54856D02*
Y55240D01*
X16790D01*
X15490Y52390D02*
Y52774D01*
Y52390D02*
X16790D01*
Y52774D01*
X27458Y54856D02*
Y55240D01*
X26158Y54856D02*
Y55240D01*
X27458D01*
X26158Y52390D02*
Y52774D01*
Y52390D02*
X27458D01*
Y52774D01*
X25934Y54856D02*
Y55240D01*
X24634Y54856D02*
Y55240D01*
X25934D01*
X24634Y52390D02*
Y52774D01*
Y52390D02*
X25934D01*
Y52774D01*
X24410Y54856D02*
Y55240D01*
X23110Y54856D02*
Y55240D01*
X24410D01*
X23110Y52390D02*
Y52774D01*
Y52390D02*
X24410D01*
Y52774D01*
X22886Y54856D02*
Y55240D01*
X21586Y54856D02*
Y55240D01*
X22886D01*
X21586Y52390D02*
Y52774D01*
Y52390D02*
X22886D01*
Y52774D01*
X21362Y54856D02*
Y55240D01*
X20062Y54856D02*
Y55240D01*
X21362D01*
X20062Y52390D02*
Y52774D01*
Y52390D02*
X21362D01*
Y52774D01*
X19838Y54856D02*
Y55240D01*
X18538Y54856D02*
Y55240D01*
X19838D01*
X18538Y52390D02*
Y52774D01*
Y52390D02*
X19838D01*
Y52774D01*
X11867Y14842D02*
X11733Y14975D01*
X11467D01*
X11334Y14842D01*
Y14308D01*
X11467Y14175D01*
X11733D01*
X11867Y14308D01*
X12666Y14975D02*
X12400Y14842D01*
X12133Y14575D01*
Y14308D01*
X12267Y14175D01*
X12533D01*
X12666Y14308D01*
Y14442D01*
X12533Y14575D01*
X12133D01*
X8100Y61775D02*
X8367D01*
X8233D01*
Y60975D01*
X8100D01*
X8367D01*
X8766D02*
X9300Y61508D01*
X9966Y61775D02*
X9699D01*
X9566Y61641D01*
Y61108D01*
X9699Y60975D01*
X9966D01*
X10099Y61108D01*
Y61641D01*
X9966Y61775D01*
X22258Y40725D02*
Y40458D01*
Y40592D01*
X21458D01*
Y40725D01*
Y40458D01*
X22258Y39659D02*
Y39925D01*
X22125Y40059D01*
X21592D01*
X21458Y39925D01*
Y39659D01*
X21592Y39525D01*
X22125D01*
X22258Y39659D01*
X21325Y39259D02*
Y38726D01*
X21458Y38459D02*
X21991D01*
X22258Y38192D01*
X21991Y37926D01*
X21458D01*
X21858D01*
Y38459D01*
X22125Y37659D02*
X22258Y37526D01*
Y37259D01*
X22125Y37126D01*
X21592D01*
X21458Y37259D01*
Y37526D01*
X21592Y37659D01*
X22125D01*
X18958Y41650D02*
X19758D01*
X19491Y41383D01*
X19758Y41117D01*
X18958D01*
X19625Y40317D02*
X19758Y40450D01*
Y40717D01*
X19625Y40850D01*
X19092D01*
X18958Y40717D01*
Y40450D01*
X19092Y40317D01*
X18958Y40051D02*
X19758D01*
Y39651D01*
X19625Y39517D01*
X19358D01*
X19225Y39651D01*
Y40051D01*
X18825Y39251D02*
Y38718D01*
X18958Y38451D02*
X19491D01*
X19758Y38184D01*
X19491Y37918D01*
X18958D01*
X19358D01*
Y38451D01*
X18958Y37651D02*
Y37385D01*
Y37518D01*
X19758D01*
X19625Y37651D01*
X20158Y41650D02*
X20958D01*
X20691Y41383D01*
X20958Y41117D01*
X20158D01*
X20825Y40317D02*
X20958Y40450D01*
Y40717D01*
X20825Y40850D01*
X20292D01*
X20158Y40717D01*
Y40450D01*
X20292Y40317D01*
X20158Y40051D02*
X20958D01*
Y39651D01*
X20825Y39517D01*
X20558D01*
X20425Y39651D01*
Y40051D01*
X20025Y39251D02*
Y38718D01*
X20158Y38451D02*
X20691D01*
X20958Y38184D01*
X20691Y37918D01*
X20158D01*
X20558D01*
Y38451D01*
X20825Y37651D02*
X20958Y37518D01*
Y37251D01*
X20825Y37118D01*
X20292D01*
X20158Y37251D01*
Y37518D01*
X20292Y37651D01*
X20825D01*
X30717Y42842D02*
X30583Y42975D01*
X30317D01*
X30184Y42842D01*
Y42308D01*
X30317Y42175D01*
X30583D01*
X30717Y42308D01*
X31516Y42975D02*
X30983D01*
Y42575D01*
X31250Y42708D01*
X31383D01*
X31516Y42575D01*
Y42308D01*
X31383Y42175D01*
X31117D01*
X30983Y42308D01*
X28475Y45016D02*
X27808D01*
X27675Y44883D01*
Y44617D01*
X27808Y44483D01*
X28475D01*
X28342Y44217D02*
X28475Y44083D01*
Y43817D01*
X28342Y43684D01*
X28208D01*
X28075Y43817D01*
Y43950D01*
Y43817D01*
X27942Y43684D01*
X27808D01*
X27675Y43817D01*
Y44083D01*
X27808Y44217D01*
X11688Y44550D02*
X11022D01*
X10889Y44417D01*
Y44150D01*
X11022Y44017D01*
X11688D01*
X10889Y43217D02*
Y43750D01*
X11422Y43217D01*
X11555D01*
X11688Y43350D01*
Y43617D01*
X11555Y43750D01*
X11314Y33615D02*
Y32949D01*
X11448Y32816D01*
X11714D01*
X11847Y32949D01*
Y33615D01*
X12114Y32816D02*
X12381D01*
X12247D01*
Y33615D01*
X12114Y33482D01*
X25513Y34498D02*
X25379Y34631D01*
X25113D01*
X24979Y34498D01*
Y34365D01*
X25113Y34232D01*
X25379D01*
X25513Y34098D01*
Y33965D01*
X25379Y33832D01*
X25113D01*
X24979Y33965D01*
X25779Y33832D02*
X26046D01*
X25912D01*
Y34631D01*
X25779Y34498D01*
X21725Y24216D02*
X22525D01*
Y23816D01*
X22392Y23683D01*
X22125D01*
X21992Y23816D01*
Y24216D01*
Y23950D02*
X21725Y23683D01*
Y22883D02*
Y23417D01*
X22258Y22883D01*
X22392D01*
X22525Y23017D01*
Y23283D01*
X22392Y23417D01*
X21725Y22217D02*
X22525D01*
X22125Y22617D01*
Y22084D01*
X29456Y48938D02*
X30256D01*
Y48538D01*
X30123Y48405D01*
X29856D01*
X29723Y48538D01*
Y48938D01*
Y48671D02*
X29456Y48405D01*
Y47605D02*
Y48138D01*
X29989Y47605D01*
X30123D01*
X30256Y47738D01*
Y48005D01*
X30123Y48138D01*
Y47338D02*
X30256Y47205D01*
Y46938D01*
X30123Y46805D01*
X29989D01*
X29856Y46938D01*
Y47072D01*
Y46938D01*
X29723Y46805D01*
X29589D01*
X29456Y46938D01*
Y47205D01*
X29589Y47338D01*
X26738Y38219D02*
X27538D01*
Y37819D01*
X27405Y37686D01*
X27138D01*
X27005Y37819D01*
Y38219D01*
Y37952D02*
X26738Y37686D01*
Y36886D02*
Y37419D01*
X27271Y36886D01*
X27405D01*
X27538Y37019D01*
Y37286D01*
X27405Y37419D01*
X26738Y36086D02*
Y36619D01*
X27271Y36086D01*
X27405D01*
X27538Y36220D01*
Y36486D01*
X27405Y36619D01*
X25164Y38086D02*
X25963D01*
Y37686D01*
X25830Y37552D01*
X25563D01*
X25430Y37686D01*
Y38086D01*
Y37819D02*
X25164Y37552D01*
Y36753D02*
Y37286D01*
X25697Y36753D01*
X25830D01*
X25963Y36886D01*
Y37153D01*
X25830Y37286D01*
X25164Y36486D02*
Y36220D01*
Y36353D01*
X25963D01*
X25830Y36486D01*
X15775Y52091D02*
X16575D01*
Y51691D01*
X16442Y51558D01*
X16175D01*
X16042Y51691D01*
Y52091D01*
Y51825D02*
X15775Y51558D01*
Y50758D02*
Y51292D01*
X16308Y50758D01*
X16442D01*
X16575Y50892D01*
Y51158D01*
X16442Y51292D01*
Y50492D02*
X16575Y50359D01*
Y50092D01*
X16442Y49959D01*
X15908D01*
X15775Y50092D01*
Y50359D01*
X15908Y50492D01*
X16442D01*
X17264Y52021D02*
X18064D01*
Y51621D01*
X17931Y51488D01*
X17664D01*
X17531Y51621D01*
Y52021D01*
Y51754D02*
X17264Y51488D01*
Y51221D02*
Y50954D01*
Y51088D01*
X18064D01*
X17931Y51221D01*
X17397Y50554D02*
X17264Y50421D01*
Y50155D01*
X17397Y50021D01*
X17931D01*
X18064Y50155D01*
Y50421D01*
X17931Y50554D01*
X17797D01*
X17664Y50421D01*
Y50021D01*
X18814Y52122D02*
X19613D01*
Y51722D01*
X19480Y51589D01*
X19213D01*
X19080Y51722D01*
Y52122D01*
Y51856D02*
X18814Y51589D01*
Y51323D02*
Y51056D01*
Y51189D01*
X19613D01*
X19480Y51323D01*
Y50656D02*
X19613Y50523D01*
Y50256D01*
X19480Y50123D01*
X19347D01*
X19213Y50256D01*
X19080Y50123D01*
X18947D01*
X18814Y50256D01*
Y50523D01*
X18947Y50656D01*
X19080D01*
X19213Y50523D01*
X19347Y50656D01*
X19480D01*
X19213Y50523D02*
Y50256D01*
X20363Y52097D02*
X21163D01*
Y51697D01*
X21029Y51564D01*
X20763D01*
X20630Y51697D01*
Y52097D01*
Y51830D02*
X20363Y51564D01*
Y51297D02*
Y51031D01*
Y51164D01*
X21163D01*
X21029Y51297D01*
X21163Y50631D02*
Y50098D01*
X21029D01*
X20496Y50631D01*
X20363D01*
X21811Y52097D02*
X22610D01*
Y51697D01*
X22477Y51564D01*
X22211D01*
X22077Y51697D01*
Y52097D01*
Y51830D02*
X21811Y51564D01*
Y51297D02*
Y51031D01*
Y51164D01*
X22610D01*
X22477Y51297D01*
X22610Y50098D02*
X22477Y50364D01*
X22211Y50631D01*
X21944D01*
X21811Y50497D01*
Y50231D01*
X21944Y50098D01*
X22077D01*
X22211Y50231D01*
Y50631D01*
X23386Y52097D02*
X24185D01*
Y51697D01*
X24052Y51564D01*
X23785D01*
X23652Y51697D01*
Y52097D01*
Y51830D02*
X23386Y51564D01*
Y51297D02*
Y51031D01*
Y51164D01*
X24185D01*
X24052Y51297D01*
X24185Y50098D02*
Y50631D01*
X23785D01*
X23919Y50364D01*
Y50231D01*
X23785Y50098D01*
X23519D01*
X23386Y50231D01*
Y50497D01*
X23519Y50631D01*
X24884Y52021D02*
X25684D01*
Y51621D01*
X25551Y51488D01*
X25284D01*
X25151Y51621D01*
Y52021D01*
Y51754D02*
X24884Y51488D01*
Y51221D02*
Y50954D01*
Y51088D01*
X25684D01*
X25551Y51221D01*
X24884Y50155D02*
X25684D01*
X25284Y50554D01*
Y50021D01*
X27907Y54764D02*
X28706D01*
Y54364D01*
X28573Y54231D01*
X28307D01*
X28173Y54364D01*
Y54764D01*
Y54497D02*
X27907Y54231D01*
Y53964D02*
Y53698D01*
Y53831D01*
X28706D01*
X28573Y53964D01*
Y53298D02*
X28706Y53164D01*
Y52898D01*
X28573Y52765D01*
X28440D01*
X28307Y52898D01*
Y53031D01*
Y52898D01*
X28173Y52765D01*
X28040D01*
X27907Y52898D01*
Y53164D01*
X28040Y53298D01*
X20211Y24230D02*
X21010D01*
Y23830D01*
X20877Y23697D01*
X20610D01*
X20477Y23830D01*
Y24230D01*
Y23963D02*
X20211Y23697D01*
Y23030D02*
X21010D01*
X20610Y23430D01*
Y22897D01*
X18636Y24230D02*
X19435D01*
Y23830D01*
X19302Y23697D01*
X19036D01*
X18902Y23830D01*
Y24230D01*
Y23963D02*
X18636Y23697D01*
X19302Y23430D02*
X19435Y23297D01*
Y23030D01*
X19302Y22897D01*
X19169D01*
X19036Y23030D01*
Y23164D01*
Y23030D01*
X18902Y22897D01*
X18769D01*
X18636Y23030D01*
Y23297D01*
X18769Y23430D01*
X13798Y35752D02*
Y36551D01*
X14198D01*
X14332Y36418D01*
Y36151D01*
X14198Y36018D01*
X13798D01*
X14065D02*
X14332Y35752D01*
X15131D02*
X14598D01*
X15131Y36285D01*
Y36418D01*
X14998Y36551D01*
X14731D01*
X14598Y36418D01*
X13894Y38704D02*
Y39504D01*
X14294D01*
X14427Y39371D01*
Y39104D01*
X14294Y38971D01*
X13894D01*
X14161D02*
X14427Y38704D01*
X14694D02*
X14961D01*
X14827D01*
Y39504D01*
X14694Y39371D01*
X9276Y63105D02*
X9009D01*
X9142D01*
Y62438D01*
X9009Y62305D01*
X8876D01*
X8743Y62438D01*
X10075Y62305D02*
X9542D01*
X10075Y62838D01*
Y62972D01*
X9942Y63105D01*
X9676D01*
X9542Y62972D01*
X29642Y51592D02*
X29508Y51725D01*
X29242D01*
X29109Y51592D01*
Y51058D01*
X29242Y50925D01*
X29508D01*
X29642Y51058D01*
X30308Y50925D02*
Y51725D01*
X29908Y51325D01*
X30441D01*
X10142Y47970D02*
X10275Y48103D01*
Y48370D01*
X10142Y48503D01*
X9609D01*
X9476Y48370D01*
Y48103D01*
X9609Y47970D01*
X10142Y47703D02*
X10275Y47570D01*
Y47303D01*
X10142Y47170D01*
X10009D01*
X9875Y47303D01*
Y47437D01*
Y47303D01*
X9742Y47170D01*
X9609D01*
X9476Y47303D01*
Y47570D01*
X9609Y47703D01*
X12564Y27183D02*
X12431Y27316D01*
X12164D01*
X12031Y27183D01*
Y26650D01*
X12164Y26517D01*
X12431D01*
X12564Y26650D01*
X13364Y26517D02*
X12831D01*
X13364Y27050D01*
Y27183D01*
X13231Y27316D01*
X12964D01*
X12831Y27183D01*
X14622Y37867D02*
X14489Y38000D01*
X14223D01*
X14089Y37867D01*
Y37334D01*
X14223Y37201D01*
X14489D01*
X14622Y37334D01*
X14889Y37201D02*
X15156D01*
X15022D01*
Y38000D01*
X14889Y37867D01*
D14*
X9536Y63975D02*
G03*
X7250Y61689I0J-2286D01*
G01*
X32650D02*
G03*
X30364Y63975I-2286J0D01*
G01*
X0Y0D02*
X40000D01*
X0Y72000D02*
X40000D01*
Y0D02*
Y72000D01*
X0Y0D02*
Y72000D01*
X5250Y4825D02*
Y48700D01*
Y4825D02*
X5900D01*
X17200D01*
X34650D02*
Y5200D01*
X22250Y4825D02*
X34650D01*
Y5200D02*
Y48675D01*
Y53725D02*
Y66150D01*
X5250D02*
X34650D01*
X5250Y53750D02*
Y66150D01*
X7250Y6825D02*
Y61689D01*
Y6825D02*
X30110D01*
X32650Y9365D01*
Y61689D01*
X9536Y63975D02*
X30364D01*
M02*
