G04*
G04 #@! TF.GenerationSoftware,Altium Limited,Altium Designer,26.6.0 (10)*
G04*
G04 Layer_Physical_Order=1*
G04 Layer_Color=255*
G04 Board_Origin=26095670|18412992*
%FSLAX43Y43*%
%MOMM*%
G71*
G04*
G04 #@! TF.SameCoordinates,AA4958E8-8825-4BA5-98E3-CBBBAC72795B*
G04*
G04*
G04 #@! TF.FilePolarity,Positive*
G04*
G01*
G75*
%ADD10C,0.250*%
%ADD13C,0.150*%
%ADD14R,1.100X1.900*%
%ADD15R,0.700X2.900*%
G04:AMPARAMS|DCode=16|XSize=0.45mm|YSize=1.4mm|CornerRadius=0.05mm|HoleSize=0mm|Usage=FLASHONLY|Rotation=180.000|XOffset=0mm|YOffset=0mm|HoleType=Round|Shape=RoundedRectangle|*
%AMROUNDEDRECTD16*
21,1,0.450,1.301,0,0,180.0*
21,1,0.351,1.400,0,0,180.0*
1,1,0.099,-0.176,0.651*
1,1,0.099,0.176,0.651*
1,1,0.099,0.176,-0.651*
1,1,0.099,-0.176,-0.651*
%
%ADD16ROUNDEDRECTD16*%
%ADD17O,0.300X1.700*%
%ADD18R,0.800X0.800*%
%ADD19R,0.650X0.650*%
%ADD20R,0.650X0.650*%
G04:AMPARAMS|DCode=21|XSize=1.655mm|YSize=0.381mm|CornerRadius=0.19mm|HoleSize=0mm|Usage=FLASHONLY|Rotation=270.000|XOffset=0mm|YOffset=0mm|HoleType=Round|Shape=RoundedRectangle|*
%AMROUNDEDRECTD21*
21,1,1.655,0.000,0,0,270.0*
21,1,1.275,0.381,0,0,270.0*
1,1,0.381,0.000,-0.637*
1,1,0.381,0.000,0.637*
1,1,0.381,0.000,0.637*
1,1,0.381,0.000,-0.637*
%
%ADD21ROUNDEDRECTD21*%
%ADD22R,0.381X1.655*%
%ADD23R,0.760X1.750*%
%ADD28C,1.550*%
%ADD29C,1.500*%
%ADD30R,1.550X1.550*%
%ADD31C,0.600*%
%ADD32C,1.000*%
%ADD33C,0.300*%
G36*
X30983Y63731D02*
X31370Y63571D01*
X31718Y63339D01*
X32014Y63043D01*
X32246Y62695D01*
X32406Y62308D01*
X32488Y61898D01*
Y61689D01*
Y54127D01*
X32474Y54124D01*
X32326Y54024D01*
X32226Y53876D01*
X32191Y53700D01*
X32226Y53524D01*
X32326Y53376D01*
X32474Y53276D01*
X32488Y53273D01*
Y53127D01*
X32474Y53124D01*
X32326Y53024D01*
X32226Y52876D01*
X32191Y52700D01*
X32226Y52524D01*
X32326Y52376D01*
X32474Y52276D01*
X32488Y52273D01*
Y52127D01*
X32474Y52124D01*
X32326Y52024D01*
X32226Y51876D01*
X32191Y51700D01*
X32226Y51524D01*
X32326Y51376D01*
X32474Y51276D01*
X32488Y51273D01*
Y51127D01*
X32474Y51124D01*
X32326Y51024D01*
X32226Y50876D01*
X32191Y50700D01*
X32226Y50524D01*
X32326Y50376D01*
X32474Y50276D01*
X32488Y50273D01*
Y50127D01*
X32474Y50124D01*
X32326Y50024D01*
X32226Y49876D01*
X32191Y49700D01*
X32226Y49524D01*
X32326Y49376D01*
X32474Y49276D01*
X32488Y49273D01*
Y49127D01*
X32474Y49124D01*
X32326Y49024D01*
X32226Y48876D01*
X32191Y48700D01*
X32226Y48524D01*
X32326Y48376D01*
X32474Y48276D01*
X32488Y48273D01*
Y11042D01*
X32338Y11012D01*
X32279Y11154D01*
X32114Y11369D01*
X31899Y11534D01*
X31649Y11638D01*
X31507Y11656D01*
Y10635D01*
Y9614D01*
X31649Y9632D01*
X31899Y9736D01*
X32114Y9901D01*
X32279Y10116D01*
X32338Y10258D01*
X32488Y10228D01*
Y9432D01*
X30043Y6987D01*
X22652D01*
X22649Y7001D01*
X22549Y7149D01*
X22401Y7249D01*
X22225Y7284D01*
X22049Y7249D01*
X21901Y7149D01*
X21801Y7001D01*
X21798Y6987D01*
X21652D01*
X21649Y7001D01*
X21549Y7149D01*
X21401Y7249D01*
X21225Y7284D01*
X21049Y7249D01*
X20901Y7149D01*
X20801Y7001D01*
X20798Y6987D01*
X20652D01*
X20649Y7001D01*
X20549Y7149D01*
X20401Y7249D01*
X20225Y7284D01*
X20049Y7249D01*
X19901Y7149D01*
X19801Y7001D01*
X19798Y6987D01*
X19652D01*
X19649Y7001D01*
X19549Y7149D01*
X19401Y7249D01*
X19225Y7284D01*
X19049Y7249D01*
X18901Y7149D01*
X18801Y7001D01*
X18798Y6987D01*
X18652D01*
X18649Y7001D01*
X18549Y7149D01*
X18401Y7249D01*
X18225Y7284D01*
X18049Y7249D01*
X17901Y7149D01*
X17801Y7001D01*
X17798Y6987D01*
X17652D01*
X17649Y7001D01*
X17549Y7149D01*
X17401Y7249D01*
X17225Y7284D01*
X17049Y7249D01*
X16901Y7149D01*
X16801Y7001D01*
X16798Y6987D01*
X7412D01*
Y10228D01*
X7562Y10258D01*
X7621Y10116D01*
X7786Y9901D01*
X8001Y9736D01*
X8251Y9632D01*
X8393Y9614D01*
Y10635D01*
Y11656D01*
X8251Y11638D01*
X8001Y11534D01*
X7786Y11369D01*
X7621Y11154D01*
X7562Y11012D01*
X7412Y11042D01*
Y48298D01*
X7426Y48301D01*
X7574Y48401D01*
X7674Y48549D01*
X7709Y48725D01*
X7674Y48901D01*
X7574Y49049D01*
X7426Y49149D01*
X7412Y49152D01*
Y49298D01*
X7426Y49301D01*
X7574Y49401D01*
X7674Y49549D01*
X7709Y49725D01*
X7674Y49901D01*
X7574Y50049D01*
X7426Y50149D01*
X7412Y50152D01*
Y50298D01*
X7426Y50301D01*
X7574Y50401D01*
X7674Y50549D01*
X7709Y50725D01*
X7674Y50901D01*
X7574Y51049D01*
X7426Y51149D01*
X7412Y51152D01*
Y51298D01*
X7426Y51301D01*
X7574Y51401D01*
X7674Y51549D01*
X7709Y51725D01*
X7674Y51901D01*
X7574Y52049D01*
X7426Y52149D01*
X7412Y52152D01*
Y52298D01*
X7426Y52301D01*
X7574Y52401D01*
X7674Y52549D01*
X7709Y52725D01*
X7674Y52901D01*
X7574Y53049D01*
X7426Y53149D01*
X7412Y53152D01*
Y53298D01*
X7426Y53301D01*
X7574Y53401D01*
X7674Y53549D01*
X7709Y53725D01*
X7674Y53901D01*
X7574Y54049D01*
X7426Y54149D01*
X7412Y54152D01*
Y61689D01*
Y61898D01*
X7494Y62308D01*
X7654Y62695D01*
X7886Y63043D01*
X8182Y63339D01*
X8530Y63571D01*
X8917Y63731D01*
X9327Y63813D01*
X30573D01*
X30983Y63731D01*
D02*
G37*
%LPC*%
G36*
X29454Y62574D02*
X28777D01*
Y61497D01*
X29454D01*
Y62574D01*
D02*
G37*
G36*
X28523D02*
X27846D01*
Y61497D01*
X28523D01*
Y62574D01*
D02*
G37*
G36*
X12054D02*
X11377D01*
Y61497D01*
X12054D01*
Y62574D01*
D02*
G37*
G36*
X11123D02*
X10446D01*
Y61497D01*
X11123D01*
Y62574D01*
D02*
G37*
G36*
X29454Y61243D02*
X28777D01*
Y60166D01*
X29454D01*
Y61243D01*
D02*
G37*
G36*
X28523D02*
X27846D01*
Y60166D01*
X28523D01*
Y61243D01*
D02*
G37*
G36*
X12054D02*
X11377D01*
Y60166D01*
X12054D01*
Y61243D01*
D02*
G37*
G36*
X11123D02*
X10446D01*
Y60166D01*
X11123D01*
Y61243D01*
D02*
G37*
G36*
X14692Y59913D02*
X14517Y59878D01*
X14368Y59778D01*
X14268Y59629D01*
X14233Y59454D01*
X14260Y59320D01*
X14200Y59170D01*
X14200D01*
Y55970D01*
X15200D01*
Y59170D01*
X15200D01*
X15124Y59320D01*
X15151Y59454D01*
X15116Y59629D01*
X15017Y59778D01*
X14868Y59878D01*
X14692Y59913D01*
D02*
G37*
G36*
X13804Y59274D02*
X13327D01*
Y57697D01*
X13804D01*
Y59274D01*
D02*
G37*
G36*
X13073D02*
X12596D01*
Y57697D01*
X13073D01*
Y59274D01*
D02*
G37*
G36*
X13804Y57443D02*
X13327D01*
Y55866D01*
X13804D01*
Y57443D01*
D02*
G37*
G36*
X13073D02*
X12596D01*
Y55866D01*
X13073D01*
Y57443D01*
D02*
G37*
G36*
X27200Y59170D02*
X26200D01*
Y55970D01*
X26471D01*
Y55115D01*
X26258D01*
Y54015D01*
X27358D01*
Y55115D01*
X26929D01*
Y55970D01*
X27200D01*
Y59170D01*
D02*
G37*
G36*
X25700D02*
X24700D01*
Y55970D01*
X24971D01*
Y55115D01*
X24734D01*
Y54015D01*
X25834D01*
Y55115D01*
X25429D01*
Y55970D01*
X25700D01*
Y59170D01*
D02*
G37*
G36*
X24200D02*
X23200D01*
Y55970D01*
X23471D01*
Y55115D01*
X23210D01*
Y54015D01*
X24310D01*
Y55115D01*
X23929D01*
Y55970D01*
X24200D01*
Y59170D01*
D02*
G37*
G36*
X22700D02*
X21700D01*
Y55970D01*
X21971D01*
Y55115D01*
X21686D01*
Y54015D01*
X22786D01*
Y55115D01*
X22429D01*
Y55970D01*
X22700D01*
Y59170D01*
D02*
G37*
G36*
X21200D02*
X20200D01*
Y55970D01*
X20471D01*
Y55115D01*
X20162D01*
Y54015D01*
X21262D01*
Y55115D01*
X20929D01*
Y55970D01*
X21200D01*
Y59170D01*
D02*
G37*
G36*
X19700D02*
X18700D01*
Y55970D01*
X18971D01*
Y55115D01*
X18638D01*
Y54015D01*
X19738D01*
Y55115D01*
X19429D01*
Y55970D01*
X19700D01*
Y59170D01*
D02*
G37*
G36*
X18200D02*
X17200D01*
Y55970D01*
X17471D01*
Y55115D01*
X17114D01*
Y54015D01*
X18214D01*
Y55115D01*
X17929D01*
Y55970D01*
X18200D01*
Y59170D01*
D02*
G37*
G36*
X16700D02*
X15700D01*
Y55970D01*
X15971D01*
Y55115D01*
X15590D01*
Y54015D01*
X16690D01*
Y55115D01*
X16429D01*
Y55970D01*
X16700D01*
Y59170D01*
D02*
G37*
G36*
X28091Y51854D02*
X27639D01*
Y51402D01*
X28091D01*
Y51854D01*
D02*
G37*
G36*
Y51148D02*
X27639D01*
Y50696D01*
X28091D01*
Y51148D01*
D02*
G37*
G36*
X29170Y59913D02*
X28995Y59878D01*
X28846Y59778D01*
X28746Y59629D01*
X28711Y59454D01*
X28746Y59278D01*
X28839Y59140D01*
Y49222D01*
X27782D01*
Y48818D01*
X27294D01*
Y49566D01*
X26614D01*
X26610Y49715D01*
Y49901D01*
X26828Y50119D01*
X26828Y50119D01*
X26895Y50218D01*
X26918Y50335D01*
X26918Y50335D01*
Y50552D01*
X26933Y50696D01*
X27385D01*
Y51275D01*
X27512D01*
D01*
X27385D01*
Y51854D01*
X26933D01*
Y51750D01*
X26137D01*
Y50800D01*
X26306D01*
Y50462D01*
X26088Y50243D01*
X26021Y50144D01*
X25998Y50027D01*
X25998Y50027D01*
Y49573D01*
X25848Y49506D01*
X25787Y49547D01*
X25654Y49573D01*
X25521Y49547D01*
X25409Y49471D01*
X25379D01*
X25233Y49608D01*
Y51166D01*
X26582Y52515D01*
X27358D01*
Y53615D01*
X26258D01*
Y52839D01*
X25984Y52565D01*
X25834Y52628D01*
Y53615D01*
X24734D01*
Y52839D01*
X24460Y52565D01*
X24310Y52628D01*
Y53615D01*
X23210D01*
Y52628D01*
X23060Y52565D01*
X22786Y52839D01*
Y53615D01*
X21686D01*
Y52628D01*
X21536Y52565D01*
X21262Y52839D01*
Y53615D01*
X20162D01*
Y52628D01*
X20012Y52565D01*
X19738Y52839D01*
Y53615D01*
X18638D01*
Y52907D01*
X18499Y52850D01*
X18447Y52902D01*
X18373Y52952D01*
X18285Y52969D01*
X18214D01*
Y53615D01*
X17114D01*
Y52619D01*
X16910D01*
X16690Y52839D01*
Y53615D01*
X15590D01*
Y52515D01*
X16366D01*
X16653Y52228D01*
X16653Y52228D01*
X16727Y52178D01*
X16815Y52161D01*
X18015D01*
X20225Y49951D01*
Y49646D01*
X20224Y49646D01*
X20075Y49580D01*
X19977Y49645D01*
X19931Y49654D01*
Y48589D01*
Y47523D01*
X19977Y47533D01*
X20124Y47631D01*
X20131Y47641D01*
X20209Y47706D01*
X20321Y47631D01*
X20454Y47604D01*
X20587Y47631D01*
X20699Y47706D01*
X20859D01*
X20971Y47631D01*
X21104Y47604D01*
X21237Y47631D01*
X21349Y47706D01*
X21509D01*
X21621Y47631D01*
X21754Y47604D01*
X21887Y47631D01*
X21999Y47706D01*
X22159D01*
X22271Y47631D01*
X22404Y47604D01*
X22537Y47631D01*
X22649Y47706D01*
X22809D01*
X22921Y47631D01*
X23054Y47604D01*
X23187Y47631D01*
X23299Y47706D01*
X23459D01*
X23571Y47631D01*
X23704Y47604D01*
X23837Y47631D01*
X23949Y47706D01*
X24109D01*
X24221Y47631D01*
X24354Y47604D01*
X24487Y47631D01*
X24599Y47706D01*
X24759D01*
X24871Y47631D01*
X25004Y47604D01*
X25137Y47631D01*
X25249Y47706D01*
X25409D01*
X25521Y47631D01*
X25654Y47604D01*
X25787Y47631D01*
X25875Y47690D01*
X25985Y47668D01*
X26037Y47645D01*
X26103Y47546D01*
X26648Y47001D01*
Y43922D01*
X26498Y43855D01*
X26437Y43896D01*
X26304Y43922D01*
X26171Y43896D01*
X26059Y43821D01*
X25899D01*
X25787Y43896D01*
X25654Y43922D01*
X25521Y43896D01*
X25409Y43821D01*
X25249D01*
X25137Y43896D01*
X25004Y43922D01*
X24871Y43896D01*
X24759Y43821D01*
X24599D01*
X24487Y43896D01*
X24354Y43922D01*
X24221Y43896D01*
X24109Y43821D01*
X23949D01*
X23837Y43896D01*
X23704Y43922D01*
X23571Y43896D01*
X23459Y43821D01*
X23299D01*
X23187Y43896D01*
X23054Y43922D01*
X22921Y43896D01*
X22809Y43821D01*
X22649D01*
X22537Y43896D01*
X22404Y43922D01*
X22271Y43896D01*
X22159Y43821D01*
X21999D01*
X21887Y43896D01*
X21754Y43922D01*
X21621Y43896D01*
X21509Y43821D01*
X21479D01*
X21333Y43957D01*
Y44279D01*
X21316Y44367D01*
X21266Y44441D01*
X17651Y48057D01*
Y49237D01*
X17635Y49315D01*
X17591Y49381D01*
X17525Y49425D01*
X17448Y49440D01*
X17097D01*
X17019Y49425D01*
X16953Y49381D01*
X16941D01*
X16875Y49425D01*
X16797Y49440D01*
X16447D01*
X16369Y49425D01*
X16297Y49384D01*
X16225Y49425D01*
X16147Y49440D01*
X15797D01*
X15719Y49425D01*
X15677Y49397D01*
X15569Y49450D01*
X15541Y49473D01*
Y50902D01*
X15636Y50966D01*
X15736Y51115D01*
X15771Y51290D01*
X15736Y51466D01*
X15636Y51615D01*
X15487Y51714D01*
X15312Y51749D01*
X15136Y51714D01*
X15017Y51635D01*
X15014Y51634D01*
X14987Y51636D01*
X14908Y51737D01*
X14896Y51788D01*
X14896Y51796D01*
X14980Y51921D01*
X15015Y52097D01*
X14980Y52272D01*
X14881Y52421D01*
X14812Y52467D01*
X14844Y52626D01*
X14919Y52641D01*
X15067Y52741D01*
X15167Y52889D01*
X15202Y53065D01*
X15167Y53241D01*
X15067Y53389D01*
X14919Y53489D01*
X14743Y53524D01*
X14567Y53489D01*
X14419Y53389D01*
X14319Y53241D01*
X14284Y53065D01*
X14306Y52953D01*
X13860Y52506D01*
X13810Y52432D01*
X13793Y52344D01*
Y51958D01*
X13643Y51889D01*
X13547Y51953D01*
X13371Y51988D01*
X13196Y51953D01*
X13047Y51853D01*
X12948Y51705D01*
X12913Y51529D01*
X12948Y51353D01*
X13047Y51205D01*
X13142Y51141D01*
Y49480D01*
X13140Y49478D01*
X13001Y49407D01*
X12975Y49425D01*
X12898Y49440D01*
X12547D01*
X12469Y49425D01*
X12403Y49381D01*
X12359Y49315D01*
X12343Y49237D01*
Y48863D01*
X11662D01*
Y49032D01*
X11493D01*
Y59092D01*
X11511Y59104D01*
X11611Y59253D01*
X11646Y59428D01*
X11611Y59604D01*
X11511Y59753D01*
X11363Y59852D01*
X11187Y59887D01*
X11011Y59852D01*
X10863Y59753D01*
X10763Y59604D01*
X10728Y59428D01*
X10763Y59253D01*
X10863Y59104D01*
X10881Y59092D01*
Y49032D01*
X10712D01*
Y48236D01*
X10608D01*
Y47784D01*
X11187D01*
X11766D01*
Y48236D01*
X11910Y48251D01*
X12343D01*
Y47936D01*
X12359Y47858D01*
X12403Y47792D01*
X12469Y47748D01*
X12547Y47732D01*
X12898D01*
X12975Y47748D01*
X13041Y47792D01*
X13053D01*
X13119Y47748D01*
X13196Y47732D01*
X13547D01*
X13625Y47748D01*
X13697Y47789D01*
X13769Y47748D01*
X13847Y47732D01*
X14198D01*
X14275Y47748D01*
X14341Y47792D01*
X14353D01*
X14419Y47748D01*
X14497Y47732D01*
X14847D01*
X14925Y47748D01*
X14997Y47789D01*
X15069Y47748D01*
X15146Y47732D01*
X15498D01*
X15575Y47748D01*
X15602Y47766D01*
X15740Y47695D01*
X15743Y47693D01*
Y47407D01*
X15760Y47319D01*
X15810Y47245D01*
X19461Y43594D01*
X19457Y43575D01*
Y42300D01*
X19483Y42168D01*
X19559Y42055D01*
X19671Y41980D01*
X19804Y41953D01*
X19937Y41980D01*
X20049Y42055D01*
X20209D01*
X20321Y41980D01*
X20454Y41953D01*
X20587Y41980D01*
X20699Y42055D01*
X20859D01*
X20971Y41980D01*
X21104Y41953D01*
X21237Y41980D01*
X21349Y42055D01*
X21509D01*
X21621Y41980D01*
X21754Y41953D01*
X21887Y41980D01*
X21999Y42055D01*
X22159D01*
X22271Y41980D01*
X22404Y41953D01*
X22537Y41980D01*
X22649Y42055D01*
X22809D01*
X22921Y41980D01*
X23054Y41953D01*
X23187Y41980D01*
X23299Y42055D01*
X23459D01*
X23571Y41980D01*
X23704Y41953D01*
X23837Y41980D01*
X23949Y42055D01*
X24109D01*
X24221Y41980D01*
X24335Y41957D01*
X24305Y41808D01*
X24340Y41633D01*
X24439Y41484D01*
X24588Y41385D01*
X24764Y41350D01*
X24838Y41364D01*
X24988Y41250D01*
Y40502D01*
X26088D01*
Y41478D01*
X26238Y41540D01*
X26512Y41266D01*
Y40490D01*
X27367D01*
X27429Y40340D01*
X27179Y40090D01*
X26512D01*
Y39852D01*
X26088D01*
Y40102D01*
X24988D01*
Y39858D01*
X24598D01*
X24598Y39858D01*
X24481Y39835D01*
X24382Y39768D01*
X24382Y39768D01*
X21871Y37257D01*
X21804Y37158D01*
X21781Y37041D01*
X21639Y37004D01*
X21327D01*
Y36285D01*
X21117D01*
Y37004D01*
X20057D01*
Y36285D01*
X19847D01*
Y37004D01*
X18787D01*
Y34954D01*
X19847D01*
Y35673D01*
X20057D01*
Y34954D01*
X21117D01*
Y35673D01*
X21327D01*
Y34954D01*
X22387D01*
Y36179D01*
X22393Y36209D01*
X22393Y36209D01*
Y36828D01*
X22447Y36868D01*
X22597Y36791D01*
Y34954D01*
X23657D01*
Y37004D01*
X22706Y37004D01*
X22695D01*
X22695D01*
X22695Y37004D01*
X22689Y37018D01*
X22633Y37154D01*
X24725Y39246D01*
X24988D01*
Y39002D01*
X26088D01*
Y39240D01*
X26512D01*
Y38990D01*
X27612D01*
Y39658D01*
X28015Y40061D01*
X28081Y40160D01*
X28104Y40277D01*
X28104Y40277D01*
Y42611D01*
X28104Y42611D01*
X28081Y42728D01*
X28015Y42828D01*
X28015Y42828D01*
X27635Y43208D01*
X27536Y43274D01*
X27419Y43297D01*
X27301Y43385D01*
Y43575D01*
X27275Y43708D01*
X27260Y43730D01*
Y46866D01*
X27782D01*
Y46622D01*
X28882D01*
Y47290D01*
X29361Y47769D01*
X29361Y47769D01*
X29427Y47868D01*
X29451Y47985D01*
Y59100D01*
X29495Y59129D01*
X29594Y59278D01*
X29629Y59454D01*
X29594Y59629D01*
X29495Y59778D01*
X29346Y59878D01*
X29170Y59913D01*
D02*
G37*
G36*
X19677Y49654D02*
X19631Y49645D01*
X19484Y49546D01*
X19385Y49399D01*
X19351Y49226D01*
Y48716D01*
X19677D01*
Y49654D01*
D02*
G37*
G36*
Y48462D02*
X19351D01*
Y47951D01*
X19385Y47778D01*
X19484Y47631D01*
X19631Y47533D01*
X19677Y47523D01*
Y48462D01*
D02*
G37*
G36*
X11766Y47530D02*
X11314D01*
Y47078D01*
X11766D01*
Y47530D01*
D02*
G37*
G36*
X11060D02*
X10608D01*
Y47078D01*
X11060D01*
Y47530D01*
D02*
G37*
G36*
X15353Y47136D02*
X15177Y47101D01*
X15028Y47002D01*
X14929Y46853D01*
X14894Y46678D01*
X14929Y46502D01*
X15028Y46353D01*
X15108Y46300D01*
Y45948D01*
X15074Y45922D01*
X14958Y45881D01*
X14842Y45958D01*
X14667Y45993D01*
X14491Y45958D01*
X14342Y45859D01*
X14243Y45710D01*
X14208Y45535D01*
X14243Y45359D01*
X14342Y45210D01*
X14440Y45145D01*
Y43582D01*
X14298Y43509D01*
X14275Y43525D01*
X14198Y43540D01*
X13847D01*
X13769Y43525D01*
X13718Y43496D01*
X13627Y43540D01*
X13588Y43571D01*
Y44800D01*
X13670Y44855D01*
X13770Y45003D01*
X13805Y45179D01*
X13770Y45355D01*
X13670Y45503D01*
X13522Y45603D01*
X13346Y45638D01*
X13170Y45603D01*
X13022Y45503D01*
X12922Y45355D01*
X12887Y45179D01*
X12922Y45003D01*
X13022Y44855D01*
X13130Y44782D01*
Y44342D01*
X12980Y44271D01*
X12887Y44333D01*
X12711Y44368D01*
X12535Y44333D01*
X12387Y44233D01*
X12287Y44085D01*
X12252Y43909D01*
X12287Y43733D01*
X12356Y43630D01*
X12403Y43481D01*
X12359Y43415D01*
X12343Y43337D01*
Y42036D01*
X12359Y41958D01*
X12403Y41892D01*
X12469Y41848D01*
X12547Y41832D01*
X12898D01*
X12975Y41848D01*
X13041Y41892D01*
X13053D01*
X13119Y41848D01*
X13196Y41832D01*
X13547D01*
X13625Y41848D01*
X13687Y41883D01*
X13745Y41859D01*
X13819Y41813D01*
X13829Y41761D01*
X13879Y41687D01*
X14486Y41080D01*
X14560Y41030D01*
X14648Y41013D01*
X14648Y41013D01*
X19410D01*
X19473Y40918D01*
X19622Y40818D01*
X19798Y40783D01*
X19973Y40818D01*
X20122Y40918D01*
X20221Y41066D01*
X20256Y41242D01*
X20221Y41418D01*
X20122Y41566D01*
X19973Y41666D01*
X19798Y41701D01*
X19622Y41666D01*
X19473Y41566D01*
X19410Y41471D01*
X14743D01*
X14532Y41682D01*
X14595Y41832D01*
X14847D01*
X14925Y41848D01*
X14997Y41889D01*
X15069Y41848D01*
X15146Y41832D01*
X15498D01*
X15575Y41848D01*
X15641Y41892D01*
X15653D01*
X15719Y41848D01*
X15797Y41832D01*
X16147D01*
X16225Y41848D01*
X16297Y41889D01*
X16369Y41848D01*
X16447Y41832D01*
X16797D01*
X16859Y41845D01*
X16878Y41817D01*
X16978Y41750D01*
X17097Y41726D01*
X17145D01*
Y42686D01*
Y43646D01*
X17097D01*
X16978Y43623D01*
X16878Y43556D01*
X16859Y43528D01*
X16797Y43540D01*
X16447D01*
X16369Y43525D01*
X16297Y43484D01*
X16225Y43525D01*
X16147Y43540D01*
X15797D01*
X15719Y43525D01*
X15715Y43522D01*
X15567Y43601D01*
Y46279D01*
X15677Y46353D01*
X15776Y46502D01*
X15811Y46678D01*
X15776Y46853D01*
X15677Y47002D01*
X15528Y47101D01*
X15353Y47136D01*
D02*
G37*
G36*
X17448Y43646D02*
X17399D01*
Y42813D01*
X17757D01*
Y43337D01*
X17733Y43455D01*
X17666Y43556D01*
X17566Y43623D01*
X17448Y43646D01*
D02*
G37*
G36*
X17757Y42559D02*
X17399D01*
Y41726D01*
X17448D01*
X17566Y41750D01*
X17666Y41817D01*
X17733Y41917D01*
X17757Y42036D01*
Y42559D01*
D02*
G37*
G36*
X17169Y38138D02*
X16717D01*
Y37686D01*
X17169D01*
Y38138D01*
D02*
G37*
G36*
Y37432D02*
X16717D01*
Y36980D01*
X17169D01*
Y37432D01*
D02*
G37*
G36*
X17065Y39431D02*
X15215D01*
Y38481D01*
X15387D01*
Y38034D01*
X15215D01*
Y37084D01*
X15387D01*
Y36637D01*
X15215D01*
Y35687D01*
X15387D01*
Y35336D01*
X15237Y35255D01*
X15233Y35258D01*
X15116Y35281D01*
X14999Y35258D01*
X14940Y35218D01*
X14908Y35267D01*
X14774Y35356D01*
X14743Y35362D01*
Y34275D01*
Y33189D01*
X14774Y33195D01*
X14908Y33284D01*
X14940Y33332D01*
X14999Y33293D01*
X15116Y33269D01*
X15233Y33293D01*
X15255Y33307D01*
X15366Y33347D01*
X15478Y33307D01*
X15499Y33293D01*
X15616Y33269D01*
X15733Y33293D01*
X15833Y33359D01*
X15899Y33458D01*
X15922Y33575D01*
Y34975D01*
X15899Y35092D01*
X15846Y35172D01*
Y35687D01*
X16011D01*
Y35583D01*
X16463D01*
Y36162D01*
Y36741D01*
X16011D01*
Y36637D01*
X15846D01*
Y37084D01*
X16011D01*
Y36980D01*
X16463D01*
Y37559D01*
Y38138D01*
X16011D01*
Y38034D01*
X15846D01*
Y38481D01*
X17065D01*
Y39431D01*
D02*
G37*
G36*
X17169Y36741D02*
X16717D01*
Y36289D01*
X17169D01*
Y36741D01*
D02*
G37*
G36*
Y36035D02*
X16717D01*
Y35583D01*
X17169D01*
Y36035D01*
D02*
G37*
G36*
X14489Y35362D02*
X14459Y35356D01*
X14325Y35267D01*
X14293Y35218D01*
X14233Y35258D01*
X14116Y35281D01*
X13999Y35258D01*
X13900Y35192D01*
X13755Y35244D01*
X13733Y35258D01*
X13616Y35281D01*
X13499Y35258D01*
X13400Y35192D01*
X13334Y35092D01*
X13311Y34975D01*
Y33575D01*
X13334Y33458D01*
X13400Y33359D01*
X13499Y33293D01*
X13616Y33269D01*
X13733Y33293D01*
X13833Y33359D01*
X13978Y33307D01*
X13999Y33293D01*
X14116Y33269D01*
X14233Y33293D01*
X14293Y33332D01*
X14325Y33284D01*
X14459Y33195D01*
X14489Y33189D01*
Y34275D01*
Y35362D01*
D02*
G37*
G36*
X19825Y33059D02*
X19649Y33024D01*
X19501Y32924D01*
X19420Y32804D01*
X14786D01*
X14698Y32787D01*
X14624Y32737D01*
X10531Y28644D01*
X9445D01*
Y29340D01*
X7595D01*
Y27490D01*
X9445D01*
Y28186D01*
X10626D01*
X10714Y28203D01*
X10788Y28253D01*
X13172Y30637D01*
X13311Y30579D01*
Y29602D01*
X13199Y29490D01*
X13132Y29391D01*
X13109Y29274D01*
X13109Y29274D01*
Y29011D01*
X13094Y28867D01*
X12642D01*
Y28288D01*
Y27709D01*
X13094D01*
Y27813D01*
X13890D01*
Y27982D01*
X18115D01*
X18127Y27964D01*
X18276Y27864D01*
X18451Y27829D01*
X18627Y27864D01*
X18664Y27889D01*
X18684Y27899D01*
X18832Y27820D01*
Y27429D01*
X18511D01*
Y26329D01*
X19611D01*
Y27429D01*
X19290D01*
Y27954D01*
X19847D01*
Y29598D01*
X19997Y29672D01*
X20057Y29626D01*
Y27954D01*
X20356D01*
Y27429D01*
X20035D01*
Y26329D01*
X21135D01*
Y27429D01*
X20814D01*
Y27954D01*
X21117D01*
Y30004D01*
X20381D01*
X19053Y31332D01*
X19111Y31471D01*
X25034D01*
X25118Y31361D01*
X24995Y31274D01*
X24928Y31287D01*
X24753Y31252D01*
X24604Y31152D01*
X24505Y31004D01*
X24470Y30828D01*
X24450Y30804D01*
X22958D01*
X22870Y30787D01*
X22796Y30737D01*
X22796Y30737D01*
X22063Y30004D01*
X21327D01*
Y27954D01*
X21880D01*
Y27429D01*
X21559D01*
Y26329D01*
X22659D01*
Y27429D01*
X22338D01*
Y27954D01*
X22387D01*
Y29626D01*
X22447Y29672D01*
X22597Y29598D01*
Y27954D01*
X23657D01*
Y30004D01*
X22907D01*
X22850Y30143D01*
X23053Y30346D01*
X24616D01*
X24703Y30363D01*
X24762Y30402D01*
X24928Y30369D01*
X25104Y30404D01*
X25253Y30504D01*
X25352Y30652D01*
X25387Y30828D01*
X25374Y30893D01*
X25403Y30932D01*
X25505Y31006D01*
X25640Y30979D01*
X25815Y31014D01*
X25964Y31113D01*
X26063Y31262D01*
X26098Y31438D01*
X26063Y31613D01*
X26008Y31696D01*
X26088Y31846D01*
X26689D01*
X26714Y31719D01*
X26814Y31570D01*
X26963Y31471D01*
X27138Y31436D01*
X27314Y31471D01*
X27463Y31570D01*
X27562Y31719D01*
X27597Y31895D01*
X27562Y32070D01*
X27463Y32219D01*
X27314Y32319D01*
X27138Y32354D01*
X26963Y32319D01*
X26917Y32288D01*
X26836Y32304D01*
X20335D01*
X20255Y32454D01*
X20284Y32600D01*
X20249Y32776D01*
X20149Y32924D01*
X20001Y33024D01*
X19825Y33059D01*
D02*
G37*
G36*
X32305Y29340D02*
X30455D01*
Y28670D01*
X25393D01*
X25329Y28765D01*
X25180Y28864D01*
X25005Y28899D01*
X24829Y28864D01*
X24680Y28765D01*
X24581Y28616D01*
X24546Y28440D01*
X24581Y28265D01*
X24680Y28116D01*
X24829Y28017D01*
X25005Y27982D01*
X25180Y28017D01*
X25329Y28116D01*
X25393Y28211D01*
X30455D01*
Y27490D01*
X32305D01*
Y29340D01*
D02*
G37*
G36*
X12388Y28867D02*
X11936D01*
Y28415D01*
X12388D01*
Y28867D01*
D02*
G37*
G36*
Y28161D02*
X11936D01*
Y27709D01*
X12388D01*
Y28161D01*
D02*
G37*
G36*
X22763Y26033D02*
X22236D01*
Y25506D01*
X22763D01*
Y26033D01*
D02*
G37*
G36*
X21239D02*
X20712D01*
Y25506D01*
X21239D01*
Y26033D01*
D02*
G37*
G36*
X19715D02*
X19188D01*
Y25506D01*
X19715D01*
Y26033D01*
D02*
G37*
G36*
X21982D02*
X21455D01*
Y25506D01*
X21982D01*
Y26033D01*
D02*
G37*
G36*
X20458D02*
X19931D01*
Y25506D01*
X20458D01*
Y26033D01*
D02*
G37*
G36*
X18934D02*
X18407D01*
Y25506D01*
X18934D01*
Y26033D01*
D02*
G37*
G36*
X31380Y26808D02*
X31139Y26776D01*
X30914Y26683D01*
X30720Y26535D01*
X30572Y26341D01*
X30479Y26116D01*
X30447Y25875D01*
X30479Y25634D01*
X30572Y25409D01*
X30720Y25215D01*
X30914Y25067D01*
X31139Y24974D01*
X31380Y24942D01*
X31621Y24974D01*
X31846Y25067D01*
X32040Y25215D01*
X32188Y25409D01*
X32281Y25634D01*
X32313Y25875D01*
X32281Y26116D01*
X32188Y26341D01*
X32040Y26535D01*
X31846Y26683D01*
X31621Y26776D01*
X31380Y26808D01*
D02*
G37*
G36*
X8520D02*
X8279Y26776D01*
X8054Y26683D01*
X7860Y26535D01*
X7712Y26341D01*
X7619Y26116D01*
X7587Y25875D01*
X7619Y25634D01*
X7712Y25409D01*
X7860Y25215D01*
X8054Y25067D01*
X8279Y24974D01*
X8520Y24942D01*
X8761Y24974D01*
X8986Y25067D01*
X9180Y25215D01*
X9328Y25409D01*
X9421Y25634D01*
X9453Y25875D01*
X9421Y26116D01*
X9328Y26341D01*
X9180Y26535D01*
X8986Y26683D01*
X8761Y26776D01*
X8520Y26808D01*
D02*
G37*
G36*
X22763Y25252D02*
X22236D01*
Y24725D01*
X22763D01*
Y25252D01*
D02*
G37*
G36*
X21982D02*
X21455D01*
Y24725D01*
X21982D01*
Y25252D01*
D02*
G37*
G36*
X21239D02*
X20712D01*
Y24725D01*
X21239D01*
Y25252D01*
D02*
G37*
G36*
X20458D02*
X19931D01*
Y24725D01*
X20458D01*
Y25252D01*
D02*
G37*
G36*
X19715D02*
X19188D01*
Y24725D01*
X19715D01*
Y25252D01*
D02*
G37*
G36*
X18934D02*
X18407D01*
Y24725D01*
X18934D01*
Y25252D01*
D02*
G37*
G36*
X31380Y24268D02*
X31139Y24236D01*
X30914Y24143D01*
X30720Y23995D01*
X30572Y23801D01*
X30479Y23576D01*
X30447Y23335D01*
X30479Y23094D01*
X30572Y22869D01*
X30720Y22675D01*
X30914Y22527D01*
X31139Y22434D01*
X31380Y22402D01*
X31621Y22434D01*
X31846Y22527D01*
X32040Y22675D01*
X32188Y22869D01*
X32281Y23094D01*
X32313Y23335D01*
X32281Y23576D01*
X32188Y23801D01*
X32040Y23995D01*
X31846Y24143D01*
X31621Y24236D01*
X31380Y24268D01*
D02*
G37*
G36*
X8520D02*
X8279Y24236D01*
X8054Y24143D01*
X7860Y23995D01*
X7712Y23801D01*
X7619Y23576D01*
X7587Y23335D01*
X7619Y23094D01*
X7712Y22869D01*
X7860Y22675D01*
X8054Y22527D01*
X8279Y22434D01*
X8520Y22402D01*
X8761Y22434D01*
X8986Y22527D01*
X9180Y22675D01*
X9328Y22869D01*
X9421Y23094D01*
X9453Y23335D01*
X9421Y23576D01*
X9328Y23801D01*
X9180Y23995D01*
X8986Y24143D01*
X8761Y24236D01*
X8520Y24268D01*
D02*
G37*
G36*
X31380Y21728D02*
X31139Y21696D01*
X30914Y21603D01*
X30720Y21455D01*
X30572Y21261D01*
X30479Y21036D01*
X30447Y20795D01*
X30479Y20554D01*
X30572Y20329D01*
X30720Y20135D01*
X30914Y19987D01*
X31139Y19894D01*
X31380Y19862D01*
X31621Y19894D01*
X31846Y19987D01*
X32040Y20135D01*
X32188Y20329D01*
X32281Y20554D01*
X32313Y20795D01*
X32281Y21036D01*
X32188Y21261D01*
X32040Y21455D01*
X31846Y21603D01*
X31621Y21696D01*
X31380Y21728D01*
D02*
G37*
G36*
X8520D02*
X8279Y21696D01*
X8054Y21603D01*
X7860Y21455D01*
X7712Y21261D01*
X7619Y21036D01*
X7587Y20795D01*
X7619Y20554D01*
X7712Y20329D01*
X7860Y20135D01*
X8054Y19987D01*
X8279Y19894D01*
X8520Y19862D01*
X8761Y19894D01*
X8986Y19987D01*
X9180Y20135D01*
X9328Y20329D01*
X9421Y20554D01*
X9453Y20795D01*
X9421Y21036D01*
X9328Y21261D01*
X9180Y21455D01*
X8986Y21603D01*
X8761Y21696D01*
X8520Y21728D01*
D02*
G37*
G36*
X31380Y19188D02*
X31139Y19156D01*
X30914Y19063D01*
X30720Y18915D01*
X30572Y18721D01*
X30479Y18497D01*
X25985D01*
X25913Y18605D01*
X25764Y18704D01*
X25589Y18739D01*
X25413Y18704D01*
X25264Y18605D01*
X25165Y18456D01*
X25130Y18280D01*
X25165Y18105D01*
X25264Y17956D01*
X25413Y17857D01*
X25589Y17822D01*
X25764Y17857D01*
X25913Y17956D01*
X25968Y18038D01*
X30476D01*
X30479Y18014D01*
X30572Y17789D01*
X30720Y17595D01*
X30914Y17447D01*
X31139Y17354D01*
X31380Y17322D01*
X31621Y17354D01*
X31846Y17447D01*
X32040Y17595D01*
X32188Y17789D01*
X32281Y18014D01*
X32313Y18255D01*
X32281Y18496D01*
X32188Y18721D01*
X32040Y18915D01*
X31846Y19063D01*
X31621Y19156D01*
X31380Y19188D01*
D02*
G37*
G36*
X8520D02*
X8279Y19156D01*
X8054Y19063D01*
X7860Y18915D01*
X7712Y18721D01*
X7619Y18496D01*
X7587Y18255D01*
X7619Y18014D01*
X7712Y17789D01*
X7860Y17595D01*
X8054Y17447D01*
X8279Y17354D01*
X8520Y17322D01*
X8761Y17354D01*
X8986Y17447D01*
X9180Y17595D01*
X9328Y17789D01*
X9421Y18014D01*
X9453Y18255D01*
X9421Y18496D01*
X9328Y18721D01*
X9180Y18915D01*
X8986Y19063D01*
X8761Y19156D01*
X8520Y19188D01*
D02*
G37*
G36*
X31380Y16648D02*
X31139Y16616D01*
X30914Y16523D01*
X30720Y16375D01*
X30572Y16181D01*
X30479Y15957D01*
X27560D01*
X27488Y16065D01*
X27339Y16164D01*
X27164Y16199D01*
X26988Y16164D01*
X26839Y16065D01*
X26740Y15916D01*
X26705Y15740D01*
X26740Y15565D01*
X26839Y15416D01*
X26988Y15317D01*
X27164Y15282D01*
X27339Y15317D01*
X27488Y15416D01*
X27543Y15498D01*
X30476D01*
X30479Y15474D01*
X30572Y15249D01*
X30720Y15055D01*
X30914Y14907D01*
X31139Y14814D01*
X31380Y14782D01*
X31621Y14814D01*
X31846Y14907D01*
X32040Y15055D01*
X32188Y15249D01*
X32281Y15474D01*
X32313Y15715D01*
X32281Y15956D01*
X32188Y16181D01*
X32040Y16375D01*
X31846Y16523D01*
X31621Y16616D01*
X31380Y16648D01*
D02*
G37*
G36*
X8520D02*
X8279Y16616D01*
X8054Y16523D01*
X7860Y16375D01*
X7712Y16181D01*
X7619Y15956D01*
X7587Y15715D01*
X7619Y15474D01*
X7712Y15249D01*
X7860Y15055D01*
X8054Y14907D01*
X8279Y14814D01*
X8520Y14782D01*
X8761Y14814D01*
X8986Y14907D01*
X9180Y15055D01*
X9328Y15249D01*
X9421Y15474D01*
X9453Y15715D01*
X9421Y15956D01*
X9328Y16181D01*
X9180Y16375D01*
X8986Y16523D01*
X8761Y16616D01*
X8520Y16648D01*
D02*
G37*
G36*
Y14108D02*
X8279Y14076D01*
X8054Y13983D01*
X7860Y13835D01*
X7712Y13641D01*
X7619Y13416D01*
X7587Y13175D01*
X7619Y12934D01*
X7712Y12709D01*
X7860Y12515D01*
X8054Y12367D01*
X8279Y12274D01*
X8520Y12242D01*
X8761Y12274D01*
X8986Y12367D01*
X9180Y12515D01*
X9328Y12709D01*
X9395Y12869D01*
X13018D01*
X13047Y12825D01*
X13196Y12726D01*
X13371Y12691D01*
X13547Y12726D01*
X13696Y12825D01*
X13795Y12974D01*
X13830Y13150D01*
X13795Y13325D01*
X13696Y13474D01*
X13547Y13573D01*
X13371Y13608D01*
X13196Y13573D01*
X13057Y13481D01*
X9395D01*
X9328Y13641D01*
X9180Y13835D01*
X8986Y13983D01*
X8761Y14076D01*
X8520Y14108D01*
D02*
G37*
G36*
X31380D02*
X31139Y14076D01*
X30914Y13983D01*
X30720Y13835D01*
X30572Y13641D01*
X30479Y13416D01*
X30447Y13175D01*
X30479Y12934D01*
X30572Y12709D01*
X30720Y12515D01*
X30914Y12367D01*
X31139Y12274D01*
X31380Y12242D01*
X31621Y12274D01*
X31846Y12367D01*
X32040Y12515D01*
X32188Y12709D01*
X32281Y12934D01*
X32313Y13175D01*
X32281Y13416D01*
X32188Y13641D01*
X32040Y13835D01*
X31846Y13983D01*
X31621Y14076D01*
X31380Y14108D01*
D02*
G37*
G36*
X8647Y11656D02*
Y10762D01*
X9541D01*
X9523Y10904D01*
X9419Y11154D01*
X9254Y11369D01*
X9039Y11534D01*
X8789Y11638D01*
X8647Y11656D01*
D02*
G37*
G36*
X31253D02*
X31111Y11638D01*
X30861Y11534D01*
X30646Y11369D01*
X30481Y11154D01*
X30377Y10904D01*
X30359Y10762D01*
X31253D01*
Y11656D01*
D02*
G37*
G36*
X9541Y10508D02*
X8647D01*
Y9614D01*
X8789Y9632D01*
X9039Y9736D01*
X9254Y9901D01*
X9419Y10116D01*
X9523Y10366D01*
X9541Y10508D01*
D02*
G37*
G36*
X31253D02*
X30359D01*
X30377Y10366D01*
X30481Y10116D01*
X30646Y9901D01*
X30861Y9736D01*
X31111Y9632D01*
X31253Y9614D01*
Y10508D01*
D02*
G37*
%LPD*%
G36*
X19594Y30143D02*
X19537Y30004D01*
X18787D01*
Y29208D01*
X16208D01*
X15922Y29494D01*
Y30875D01*
X15908Y30946D01*
X15980Y31068D01*
X16010Y31096D01*
X18641D01*
X19594Y30143D01*
D02*
G37*
D10*
X34649Y48700D02*
G03*
X32651Y48700I-999J-50D01*
G01*
Y53700D02*
G03*
X34649Y53700I999J50D01*
G01*
X5251Y53725D02*
G03*
X7249Y53725I999J50D01*
G01*
Y48725D02*
G03*
X5251Y48725I-999J-50D01*
G01*
X17225Y4826D02*
G03*
X17225Y6824I-50J999D01*
G01*
X22225D02*
G03*
X22225Y4826I50J-999D01*
G01*
D13*
X14597Y51572D02*
X14672Y51497D01*
X14597Y51572D02*
Y52056D01*
X14022Y48586D02*
Y52344D01*
X14556Y52097D02*
X14597Y52056D01*
X14672Y48586D02*
Y51497D01*
X14022Y52344D02*
X14743Y53065D01*
X10626Y28415D02*
X14786Y32575D01*
X8520Y28415D02*
X10626D01*
X15116Y30906D02*
X15536Y31325D01*
X15116Y30175D02*
Y30906D01*
X18736Y31325D02*
X20587Y29474D01*
X15536Y31325D02*
X18736D01*
X15411Y31700D02*
X25327D01*
X14616Y30906D02*
X15411Y31700D01*
X15286Y32075D02*
X26836D01*
X14116Y30906D02*
X15286Y32075D01*
X24616Y30575D02*
X24869Y30828D01*
X24928D01*
X22958Y30575D02*
X24616D01*
X21857Y29474D02*
X22958Y30575D01*
X25327Y31700D02*
X25589Y31438D01*
X25640D01*
X14616Y30175D02*
Y30906D01*
X19800Y32575D02*
X19825Y32600D01*
X14786Y32575D02*
X19800D01*
X26836Y32075D02*
X27016Y31895D01*
X27138D01*
X14116Y30175D02*
Y30906D01*
X25004Y51261D02*
X26808Y53065D01*
X25004Y48589D02*
Y51261D01*
X24354Y52135D02*
X25284Y53065D01*
X24354Y48589D02*
Y52135D01*
X23704Y48589D02*
Y53009D01*
X16815Y52390D02*
X18110D01*
X20454Y48589D02*
Y50046D01*
X18110Y52390D02*
X20454Y50046D01*
X17989Y52740D02*
X18285D01*
X18607Y52418D01*
X19061D01*
X16140Y53065D02*
X16815Y52390D01*
X23054Y48589D02*
Y52247D01*
X22236Y53065D02*
X23054Y52247D01*
X25654Y41168D02*
Y42938D01*
X25601Y18268D02*
X31367D01*
X31380Y18255D01*
X25589Y18280D02*
X25601Y18268D01*
X25538Y41052D02*
X25654Y41168D01*
X21754Y48589D02*
Y50499D01*
X19188Y53065D02*
X21754Y50499D01*
X21065Y48628D02*
Y50414D01*
X19061Y52418D02*
X21065Y50414D01*
Y48628D02*
X21104Y48589D01*
X17664Y53065D02*
X17989Y52740D01*
X15972Y47407D02*
Y48586D01*
Y47407D02*
X19804Y43575D01*
Y42938D02*
Y43575D01*
X21104Y42938D02*
Y44279D01*
X17272Y48111D02*
X21104Y44279D01*
X17272Y48111D02*
Y48586D01*
X22404Y48589D02*
Y51373D01*
X20712Y53065D02*
X22404Y51373D01*
X24764Y41808D02*
X24850Y41895D01*
X25004Y42238D02*
Y42938D01*
X24850Y41895D02*
Y42084D01*
X25004Y42238D01*
X14648Y41242D02*
X19798D01*
X14041Y41849D02*
Y42667D01*
X14022Y42686D02*
X14041Y42667D01*
Y41849D02*
X14648Y41242D01*
X16140Y54565D02*
X16200Y54625D01*
Y57570D01*
X26700Y54673D02*
X26808Y54565D01*
X26700Y54673D02*
Y57570D01*
X19188Y54565D02*
X19200Y54577D01*
Y57570D01*
X22200Y54601D02*
X22236Y54565D01*
X22200Y54601D02*
Y57570D01*
X20700Y54577D02*
X20712Y54565D01*
X20700Y54577D02*
Y57570D01*
X17664Y54565D02*
X17700Y54601D01*
Y57570D01*
X25200Y54649D02*
X25284Y54565D01*
X25200Y54649D02*
Y57570D01*
X23700Y54625D02*
X23760Y54565D01*
X23700Y54625D02*
Y57570D01*
X13371Y51529D02*
X13372Y51529D01*
Y48586D02*
Y51529D01*
X15312Y48596D02*
Y51290D01*
X21857Y28979D02*
Y29474D01*
X31367Y15728D02*
X31380Y15715D01*
X27176Y15728D02*
X31367D01*
X27164Y15740D02*
X27176Y15728D01*
X31355Y28440D02*
X31380Y28415D01*
X25005Y28440D02*
X31355D01*
X14669Y42689D02*
X14672Y42686D01*
X14669Y42689D02*
Y45532D01*
X14667Y45535D02*
X14669Y45532D01*
X13359Y42699D02*
X13372Y42686D01*
X13359Y42699D02*
Y45166D01*
X13346Y45179D02*
X13359Y45166D01*
X15322Y42686D02*
X15337Y42701D01*
Y46662D01*
X15353Y46678D01*
X12717Y42692D02*
X12722Y42686D01*
X12717Y42692D02*
Y43903D01*
X12711Y43909D02*
X12717Y43903D01*
X20587Y28979D02*
Y29474D01*
X15616Y29475D02*
Y30175D01*
Y29475D02*
X16113Y28979D01*
X19317D01*
X20454Y42938D02*
Y43991D01*
X16772Y47673D02*
X20454Y43991D01*
X16772Y47673D02*
Y48436D01*
X16622Y48586D02*
X16772Y48436D01*
X21857Y28979D02*
X22109Y28727D01*
Y26879D02*
Y28727D01*
X20585Y28977D02*
X20587Y28979D01*
X20585Y26879D02*
Y28977D01*
X19061Y28723D02*
X19317Y28979D01*
X19061Y26879D02*
Y28723D01*
X26304Y41798D02*
X27062Y41040D01*
X26304Y41798D02*
Y42938D01*
X15312Y48596D02*
X15322Y48586D01*
X13372Y48586D02*
X13372Y48586D01*
X15616Y38882D02*
X15690Y38956D01*
X15616Y34275D02*
Y38882D01*
X26954Y48589D02*
X28248D01*
X28332Y48672D01*
D14*
X28650Y61370D02*
D03*
X11250D02*
D03*
D15*
X13200Y57570D02*
D03*
X14700D02*
D03*
X26700D02*
D03*
X25200D02*
D03*
X23700D02*
D03*
X22200D02*
D03*
X20700D02*
D03*
X19200D02*
D03*
X17700D02*
D03*
X16200D02*
D03*
D16*
X17272Y42686D02*
D03*
X15972Y48586D02*
D03*
X17272D02*
D03*
X12722D02*
D03*
X15972Y42686D02*
D03*
X12722D02*
D03*
X15322D02*
D03*
X14672D02*
D03*
X16622Y48586D02*
D03*
X13372Y42686D02*
D03*
X14022D02*
D03*
X16622D02*
D03*
X13372Y48586D02*
D03*
X14022D02*
D03*
X14672D02*
D03*
X15322D02*
D03*
D17*
X14616Y34275D02*
D03*
Y30175D02*
D03*
X13616D02*
D03*
X15616Y34275D02*
D03*
X15116D02*
D03*
X14116D02*
D03*
X13616Y34275D02*
D03*
X15616Y30175D02*
D03*
X15116D02*
D03*
X14116D02*
D03*
D18*
X22109Y25379D02*
D03*
X20585D02*
D03*
X19061D02*
D03*
X22236Y53065D02*
D03*
X26808D02*
D03*
X25538Y41052D02*
D03*
X19188Y53065D02*
D03*
X23760D02*
D03*
X17664D02*
D03*
X16140D02*
D03*
X25284D02*
D03*
X28332Y47172D02*
D03*
X27062Y39540D02*
D03*
X25538Y39552D02*
D03*
X20712Y53065D02*
D03*
X16140Y54565D02*
D03*
X26808D02*
D03*
X19188D02*
D03*
X22236D02*
D03*
X20712D02*
D03*
X17664D02*
D03*
X25284D02*
D03*
X23760D02*
D03*
X28332Y48672D02*
D03*
X22109Y26879D02*
D03*
X20585D02*
D03*
X19061D02*
D03*
X27062Y41040D02*
D03*
D19*
X16590Y36162D02*
D03*
X27512Y51275D02*
D03*
X12515Y28288D02*
D03*
X16590Y37559D02*
D03*
X26612Y51275D02*
D03*
X13415Y28288D02*
D03*
X15690Y38956D02*
D03*
X16590D02*
D03*
X15690Y37559D02*
D03*
Y36162D02*
D03*
D20*
X11187Y47657D02*
D03*
Y48557D02*
D03*
D21*
X19804Y48589D02*
D03*
X24354Y42938D02*
D03*
X23704D02*
D03*
X23054D02*
D03*
X22404D02*
D03*
X21754D02*
D03*
X21104D02*
D03*
X20454D02*
D03*
X19804D02*
D03*
X26304D02*
D03*
X25654D02*
D03*
X25004D02*
D03*
X26304Y48589D02*
D03*
X25654D02*
D03*
X26954Y42938D02*
D03*
X23704Y48589D02*
D03*
X23054D02*
D03*
X24354D02*
D03*
X21754D02*
D03*
X20454D02*
D03*
X25004D02*
D03*
X22404D02*
D03*
X21104D02*
D03*
D22*
X26954D02*
D03*
D23*
X19317Y35979D02*
D03*
X21857D02*
D03*
X20587D02*
D03*
X23127D02*
D03*
Y28979D02*
D03*
X21857D02*
D03*
X20587D02*
D03*
X19317D02*
D03*
D28*
X31380Y10635D02*
D03*
X8520D02*
D03*
X31380Y18255D02*
D03*
X8520Y13175D02*
D03*
Y25875D02*
D03*
Y20795D02*
D03*
Y18255D02*
D03*
Y23335D02*
D03*
Y15715D02*
D03*
X31380Y13175D02*
D03*
Y25875D02*
D03*
Y20795D02*
D03*
Y23335D02*
D03*
Y15715D02*
D03*
D29*
X37500Y62000D02*
D03*
Y2500D02*
D03*
X2500Y69500D02*
D03*
Y2500D02*
D03*
D30*
X8520Y28415D02*
D03*
X31380D02*
D03*
D31*
X14556Y52097D02*
D03*
X15312Y51290D02*
D03*
X16425Y30625D02*
D03*
X23600Y31125D02*
D03*
X18675Y43075D02*
D03*
X16375Y44750D02*
D03*
X15325Y40350D02*
D03*
X21150Y37400D02*
D03*
X21200Y33800D02*
D03*
X24050Y40650D02*
D03*
X22850Y44250D02*
D03*
X22350Y47125D02*
D03*
X25225Y44350D02*
D03*
X25675Y46975D02*
D03*
X19675Y46775D02*
D03*
X24550Y55550D02*
D03*
X14000Y55525D02*
D03*
X15475Y55550D02*
D03*
X18450D02*
D03*
X19950Y55575D02*
D03*
X21425Y55600D02*
D03*
X26400Y19750D02*
D03*
X26425Y22225D02*
D03*
X26375Y25800D02*
D03*
X26300Y29925D02*
D03*
X20050Y31050D02*
D03*
X13080Y31612D02*
D03*
X30088Y61604D02*
D03*
X31088Y59604D02*
D03*
X30088Y57604D02*
D03*
X31088Y55604D02*
D03*
X30088Y53604D02*
D03*
X31088Y51604D02*
D03*
X30088Y49604D02*
D03*
X31088Y47604D02*
D03*
X30088Y45604D02*
D03*
X31088Y43604D02*
D03*
X30088Y41604D02*
D03*
X31088Y39604D02*
D03*
X30088Y37604D02*
D03*
X31088Y35604D02*
D03*
X30088Y33604D02*
D03*
X31088Y31604D02*
D03*
X30088Y29604D02*
D03*
Y25604D02*
D03*
Y21604D02*
D03*
Y17604D02*
D03*
Y13604D02*
D03*
Y9604D02*
D03*
X28088Y57604D02*
D03*
Y53604D02*
D03*
Y49604D02*
D03*
Y45604D02*
D03*
X29088Y43604D02*
D03*
Y39604D02*
D03*
X28088Y37604D02*
D03*
X29088Y35604D02*
D03*
X28088Y33604D02*
D03*
X29088Y31604D02*
D03*
X28088Y29604D02*
D03*
X29088Y27604D02*
D03*
X28088Y25604D02*
D03*
X29088Y23604D02*
D03*
X28088Y21604D02*
D03*
X29088Y19604D02*
D03*
X28088Y17604D02*
D03*
Y13604D02*
D03*
X29088Y11604D02*
D03*
X28088Y9604D02*
D03*
X26088Y61604D02*
D03*
Y45604D02*
D03*
Y17604D02*
D03*
Y13604D02*
D03*
X27088Y11604D02*
D03*
X26088Y9604D02*
D03*
X24088Y61604D02*
D03*
Y45604D02*
D03*
Y37604D02*
D03*
Y33604D02*
D03*
X25088Y27604D02*
D03*
X24088Y25604D02*
D03*
X25088Y23604D02*
D03*
X24088Y21604D02*
D03*
X25088Y19604D02*
D03*
X24088Y17604D02*
D03*
X25088Y15604D02*
D03*
X24088Y13604D02*
D03*
X25088Y11604D02*
D03*
X24088Y9604D02*
D03*
X22088Y61604D02*
D03*
X23088Y55604D02*
D03*
X22088Y45604D02*
D03*
X23088Y27604D02*
D03*
Y23604D02*
D03*
X22088Y21604D02*
D03*
X23088Y19604D02*
D03*
X22088Y17604D02*
D03*
X23088Y15604D02*
D03*
X22088Y13604D02*
D03*
X23088Y11604D02*
D03*
X22088Y9604D02*
D03*
X20088Y61604D02*
D03*
X21088Y39604D02*
D03*
Y23604D02*
D03*
X20088Y21604D02*
D03*
X21088Y19604D02*
D03*
X20088Y17604D02*
D03*
X21088Y15604D02*
D03*
X20088Y13604D02*
D03*
X21088Y11604D02*
D03*
X20088Y9604D02*
D03*
X18088Y61604D02*
D03*
Y37604D02*
D03*
Y25604D02*
D03*
X19088Y23604D02*
D03*
X18088Y21604D02*
D03*
X19088Y19604D02*
D03*
X18088Y17604D02*
D03*
X19088Y15604D02*
D03*
X18088Y13604D02*
D03*
X19088Y11604D02*
D03*
X18088Y9604D02*
D03*
X16088Y61604D02*
D03*
X17088Y55604D02*
D03*
Y51604D02*
D03*
Y27604D02*
D03*
X16088Y25604D02*
D03*
X17088Y23604D02*
D03*
X16088Y21604D02*
D03*
X17088Y19604D02*
D03*
X16088Y17604D02*
D03*
X17088Y15604D02*
D03*
X16088Y13604D02*
D03*
X17088Y11604D02*
D03*
X16088Y9604D02*
D03*
X14088Y61604D02*
D03*
Y37604D02*
D03*
X15088Y27604D02*
D03*
X14088Y25604D02*
D03*
X15088Y23604D02*
D03*
X14088Y21604D02*
D03*
X15088Y19604D02*
D03*
X14088Y17604D02*
D03*
X15088Y15604D02*
D03*
X14088Y13604D02*
D03*
X15088Y11604D02*
D03*
X14088Y9604D02*
D03*
X12088Y57604D02*
D03*
Y53604D02*
D03*
Y49604D02*
D03*
Y45604D02*
D03*
Y41604D02*
D03*
X13088Y39604D02*
D03*
X12088Y37604D02*
D03*
X13088Y35604D02*
D03*
X12088Y33604D02*
D03*
Y25604D02*
D03*
Y21604D02*
D03*
Y17604D02*
D03*
X13088Y11604D02*
D03*
X12088Y9604D02*
D03*
X10088Y61604D02*
D03*
Y57604D02*
D03*
Y53604D02*
D03*
Y49604D02*
D03*
Y45604D02*
D03*
X11088Y43604D02*
D03*
X10088Y41604D02*
D03*
X11088Y39604D02*
D03*
X10088Y37604D02*
D03*
X11088Y35604D02*
D03*
X10088Y33604D02*
D03*
X11088Y31604D02*
D03*
X10088Y29604D02*
D03*
X11088Y27604D02*
D03*
X10088Y25604D02*
D03*
X11088Y23604D02*
D03*
X10088Y21604D02*
D03*
X11088Y19604D02*
D03*
X10088Y17604D02*
D03*
X11088Y15604D02*
D03*
Y11604D02*
D03*
X10088Y9604D02*
D03*
X8088Y61604D02*
D03*
X9088Y59604D02*
D03*
X8088Y57604D02*
D03*
X9088Y55604D02*
D03*
X8088Y53604D02*
D03*
X9088Y51604D02*
D03*
X8088Y49604D02*
D03*
X9088Y47604D02*
D03*
X8088Y45604D02*
D03*
X9088Y43604D02*
D03*
X8088Y41604D02*
D03*
X9088Y39604D02*
D03*
X8088Y37604D02*
D03*
X9088Y35604D02*
D03*
X8088Y33604D02*
D03*
X9088Y31604D02*
D03*
Y19604D02*
D03*
X19825Y32600D02*
D03*
X25640Y31438D02*
D03*
X25538Y41052D02*
D03*
X25589Y18280D02*
D03*
X13422Y28288D02*
D03*
X19317Y35979D02*
D03*
X29170Y59454D02*
D03*
X14692D02*
D03*
X11187Y59428D02*
D03*
X18451Y28288D02*
D03*
X13371Y13150D02*
D03*
X24764Y41808D02*
D03*
X24928Y30828D02*
D03*
X27164Y15740D02*
D03*
X25005Y28440D02*
D03*
X27062Y41040D02*
D03*
X27138Y31895D02*
D03*
X16590Y38956D02*
D03*
X19798Y41242D02*
D03*
X14667Y45535D02*
D03*
X13346Y45179D02*
D03*
X15353Y46678D02*
D03*
X12711Y43909D02*
D03*
X13371Y51529D02*
D03*
X14743Y53065D02*
D03*
D32*
X4350Y51175D02*
D03*
X35675Y51225D02*
D03*
X36825Y19200D02*
D03*
D33*
X26319Y47762D02*
Y48573D01*
Y47762D02*
X26954Y47127D01*
X27062Y39540D02*
X27799Y40277D01*
X27419Y42991D02*
X27799Y42611D01*
Y40277D02*
Y42611D01*
X26991Y42991D02*
X27419D01*
X26954Y42954D02*
X26991Y42991D01*
X26954Y42938D02*
Y42954D01*
X29145Y59428D02*
X29170Y59454D01*
X29145Y47985D02*
Y59428D01*
X26999Y47172D02*
X28332D01*
X29145Y47985D01*
X26304Y50027D02*
X26612Y50335D01*
Y51275D01*
X26304Y48589D02*
Y50027D01*
Y48589D02*
X26319Y48573D01*
X25654Y48589D02*
X26304D01*
X26954Y47127D02*
X26999Y47172D01*
X27056Y39546D02*
X27062Y39540D01*
X25544Y39546D02*
X27056D01*
X26954Y43484D02*
Y47127D01*
X22087Y37041D02*
X24598Y39552D01*
X25538D01*
X25544Y39546D01*
X22087Y36209D02*
Y37041D01*
X21857Y35979D02*
X22087Y36209D01*
X14700Y57570D02*
Y59479D01*
X20587Y35979D02*
X21857D01*
X19317D02*
X20587D01*
X11187Y48557D02*
Y59428D01*
X12693Y48557D02*
X12722Y48586D01*
X11187Y48557D02*
X12693D01*
X13616Y29475D02*
Y30175D01*
X13422Y28288D02*
X18451D01*
X13415Y29274D02*
X13616Y29475D01*
X13415Y28288D02*
Y29274D01*
X13346Y13175D02*
X13371Y13150D01*
X8520Y13175D02*
X13346D01*
M02*
