G04*
G04 #@! TF.GenerationSoftware,Altium Limited,Altium Designer,26.6.0 (10)*
G04*
G04 Layer_Color=128*
G04 Board_Origin=26095670|18412992*
%FSLAX43Y43*%
%MOMM*%
G71*
G04*
G04 #@! TF.SameCoordinates,AA4958E8-8825-4BA5-98E3-CBBBAC72795B*
G04*
G04*
G04 #@! TF.FilePolarity,Positive*
G04*
G01*
G75*
%ADD10C,0.250*%
%ADD14R,1.100X1.900*%
%ADD15R,0.700X2.900*%
%ADD18R,0.800X0.800*%
D10*
X34649Y48700D02*
G03*
X32651Y48700I-999J-50D01*
G01*
Y53700D02*
G03*
X34649Y53700I999J50D01*
G01*
X5251Y53725D02*
G03*
X7249Y53725I999J50D01*
G01*
Y48725D02*
G03*
X5251Y48725I-999J-50D01*
G01*
X17225Y4826D02*
G03*
X17225Y6824I-50J999D01*
G01*
X22225D02*
G03*
X22225Y4826I50J-999D01*
G01*
D14*
X11250Y61342D02*
D03*
X28650D02*
D03*
D15*
X26700Y57542D02*
D03*
X25200D02*
D03*
X13200D02*
D03*
X14700D02*
D03*
X16200D02*
D03*
X17700D02*
D03*
X19200D02*
D03*
X20700D02*
D03*
X22200D02*
D03*
X23700D02*
D03*
D18*
X23887Y53077D02*
D03*
Y54577D02*
D03*
X22363Y53065D02*
D03*
Y54565D02*
D03*
X20839Y53065D02*
D03*
Y54565D02*
D03*
X19315Y53065D02*
D03*
Y54565D02*
D03*
X17791Y53077D02*
D03*
Y54577D02*
D03*
X13219Y53065D02*
D03*
Y54565D02*
D03*
X14743Y53065D02*
D03*
Y54565D02*
D03*
X16267Y53065D02*
D03*
Y54565D02*
D03*
M02*
