G04*
G04 #@! TF.GenerationSoftware,Altium Limited,Altium Designer,26.6.0 (10)*
G04*
G04 Layer_Color=2752767*
G04 Board_Origin=26095670|18412992*
%FSLAX43Y43*%
%MOMM*%
G71*
G04*
G04 #@! TF.SameCoordinates,AA4958E8-8825-4BA5-98E3-CBBBAC72795B*
G04*
G04*
G04 #@! TF.FilePolarity,Positive*
G04*
G01*
G75*
%ADD38C,0.051*%
%ADD39C,0.068*%
D38*
X31177Y10432D02*
Y10838D01*
X31583D01*
Y10432D01*
X31177D01*
X8317D02*
Y10838D01*
X8723D01*
Y10432D01*
X8317D01*
X32650Y51497D02*
X32752Y51598D01*
X32853D01*
X32752Y51700D01*
X32853Y51802D01*
X32752D01*
X32650Y51903D01*
X32548Y51802D01*
X32447D01*
X32548Y51700D01*
X32447Y51598D01*
X32548D01*
X32650Y51497D01*
Y52497D02*
X32752Y52598D01*
X32853D01*
X32752Y52700D01*
X32853Y52802D01*
X32752D01*
X32650Y52903D01*
X32548Y52802D01*
X32447D01*
X32548Y52700D01*
X32447Y52598D01*
X32548D01*
X32650Y52497D01*
Y53497D02*
X32752Y53598D01*
X32853D01*
X32752Y53700D01*
X32853Y53802D01*
X32752D01*
X32650Y53903D01*
X32548Y53802D01*
X32447D01*
X32548Y53700D01*
X32447Y53598D01*
X32548D01*
X32650Y53497D01*
Y49497D02*
X32752Y49598D01*
X32853D01*
X32752Y49700D01*
X32853Y49802D01*
X32752D01*
X32650Y49903D01*
X32548Y49802D01*
X32447D01*
X32548Y49700D01*
X32447Y49598D01*
X32548D01*
X32650Y49497D01*
Y50497D02*
X32752Y50598D01*
X32853D01*
X32752Y50700D01*
X32853Y50802D01*
X32752D01*
X32650Y50903D01*
X32548Y50802D01*
X32447D01*
X32548Y50700D01*
X32447Y50598D01*
X32548D01*
X32650Y50497D01*
Y48497D02*
X32752Y48598D01*
X32853D01*
X32752Y48700D01*
X32853Y48802D01*
X32752D01*
X32650Y48903D01*
X32548Y48802D01*
X32447D01*
X32548Y48700D01*
X32447Y48598D01*
X32548D01*
X32650Y48497D01*
X7250Y50522D02*
X7352Y50623D01*
X7453D01*
X7352Y50725D01*
X7453Y50827D01*
X7352D01*
X7250Y50928D01*
X7148Y50827D01*
X7047D01*
X7148Y50725D01*
X7047Y50623D01*
X7148D01*
X7250Y50522D01*
Y49522D02*
X7352Y49623D01*
X7453D01*
X7352Y49725D01*
X7453Y49827D01*
X7352D01*
X7250Y49928D01*
X7148Y49827D01*
X7047D01*
X7148Y49725D01*
X7047Y49623D01*
X7148D01*
X7250Y49522D01*
Y48522D02*
X7352Y48623D01*
X7453D01*
X7352Y48725D01*
X7453Y48827D01*
X7352D01*
X7250Y48928D01*
X7148Y48827D01*
X7047D01*
X7148Y48725D01*
X7047Y48623D01*
X7148D01*
X7250Y48522D01*
Y52522D02*
X7352Y52623D01*
X7453D01*
X7352Y52725D01*
X7453Y52827D01*
X7352D01*
X7250Y52928D01*
X7148Y52827D01*
X7047D01*
X7148Y52725D01*
X7047Y52623D01*
X7148D01*
X7250Y52522D01*
Y51522D02*
X7352Y51623D01*
X7453D01*
X7352Y51725D01*
X7453Y51827D01*
X7352D01*
X7250Y51928D01*
X7148Y51827D01*
X7047D01*
X7148Y51725D01*
X7047Y51623D01*
X7148D01*
X7250Y51522D01*
Y53522D02*
X7352Y53623D01*
X7453D01*
X7352Y53725D01*
X7453Y53827D01*
X7352D01*
X7250Y53928D01*
X7148Y53827D01*
X7047D01*
X7148Y53725D01*
X7047Y53623D01*
X7148D01*
X7250Y53522D01*
X20225Y6622D02*
X20327Y6723D01*
X20428D01*
X20327Y6825D01*
X20428Y6927D01*
X20327D01*
X20225Y7028D01*
X20123Y6927D01*
X20022D01*
X20123Y6825D01*
X20022Y6723D01*
X20123D01*
X20225Y6622D01*
X21225D02*
X21327Y6723D01*
X21428D01*
X21327Y6825D01*
X21428Y6927D01*
X21327D01*
X21225Y7028D01*
X21123Y6927D01*
X21022D01*
X21123Y6825D01*
X21022Y6723D01*
X21123D01*
X21225Y6622D01*
X22225D02*
X22327Y6723D01*
X22428D01*
X22327Y6825D01*
X22428Y6927D01*
X22327D01*
X22225Y7028D01*
X22123Y6927D01*
X22022D01*
X22123Y6825D01*
X22022Y6723D01*
X22123D01*
X22225Y6622D01*
X18225D02*
X18327Y6723D01*
X18428D01*
X18327Y6825D01*
X18428Y6927D01*
X18327D01*
X18225Y7028D01*
X18123Y6927D01*
X18022D01*
X18123Y6825D01*
X18022Y6723D01*
X18123D01*
X18225Y6622D01*
X19225D02*
X19327Y6723D01*
X19428D01*
X19327Y6825D01*
X19428Y6927D01*
X19327D01*
X19225Y7028D01*
X19123Y6927D01*
X19022D01*
X19123Y6825D01*
X19022Y6723D01*
X19123D01*
X19225Y6622D01*
X17225D02*
X17327Y6723D01*
X17428D01*
X17327Y6825D01*
X17428Y6927D01*
X17327D01*
X17225Y7028D01*
X17123Y6927D01*
X17022D01*
X17123Y6825D01*
X17022Y6723D01*
X17123D01*
X17225Y6622D01*
X37297Y61797D02*
X37398Y62000D01*
X37297Y62203D01*
X37500Y62102D01*
X37703Y62203D01*
X37602Y62000D01*
X37703Y61797D01*
X37500Y61898D01*
X37297Y61797D01*
Y2297D02*
X37398Y2500D01*
X37297Y2703D01*
X37500Y2602D01*
X37703Y2703D01*
X37602Y2500D01*
X37703Y2297D01*
X37500Y2398D01*
X37297Y2297D01*
X2297Y69297D02*
X2398Y69500D01*
X2297Y69703D01*
X2500Y69602D01*
X2703Y69703D01*
X2602Y69500D01*
X2703Y69297D01*
X2500Y69398D01*
X2297Y69297D01*
Y2297D02*
X2398Y2500D01*
X2297Y2703D01*
X2500Y2602D01*
X2703Y2703D01*
X2602Y2500D01*
X2703Y2297D01*
X2500Y2398D01*
X2297Y2297D01*
X31177Y18052D02*
Y18458D01*
X31583D01*
Y18052D01*
X31177D01*
X8317Y12972D02*
Y13378D01*
X8723D01*
Y12972D01*
X8317D01*
Y25672D02*
Y26078D01*
X8723D01*
Y25672D01*
X8317D01*
Y20592D02*
Y20998D01*
X8723D01*
Y20592D01*
X8317D01*
Y28212D02*
Y28618D01*
X8723D01*
Y28212D01*
X8317D01*
Y18052D02*
Y18458D01*
X8723D01*
Y18052D01*
X8317D01*
Y23132D02*
Y23538D01*
X8723D01*
Y23132D01*
X8317D01*
Y15512D02*
Y15918D01*
X8723D01*
Y15512D01*
X8317D01*
X31177Y12972D02*
Y13378D01*
X31583D01*
Y12972D01*
X31177D01*
Y25672D02*
Y26078D01*
X31583D01*
Y25672D01*
X31177D01*
Y20592D02*
Y20998D01*
X31583D01*
Y20592D01*
X31177D01*
Y28212D02*
Y28618D01*
X31583D01*
Y28212D01*
X31177D01*
Y23132D02*
Y23538D01*
X31583D01*
Y23132D01*
X31177D01*
Y15512D02*
Y15918D01*
X31583D01*
Y15512D01*
X31177D01*
X25538Y40849D02*
X25335Y41255D01*
X25741D01*
X25538Y40849D01*
X13422Y28085D02*
X13219Y28491D01*
X13625D01*
X13422Y28085D01*
X19317Y35776D02*
X19114Y36182D01*
X19520D01*
X19317Y35776D01*
X27062Y40837D02*
X26859Y41243D01*
X27265D01*
X27062Y40837D01*
X16590Y38753D02*
X16387Y39159D01*
X16793D01*
X16590Y38753D01*
D39*
X14759Y52097D02*
G03*
X14759Y52097I-203J0D01*
G01*
X15515Y51290D02*
G03*
X15515Y51290I-203J0D01*
G01*
X16628Y30625D02*
G03*
X16628Y30625I-203J0D01*
G01*
X23803Y31125D02*
G03*
X23803Y31125I-203J0D01*
G01*
X18878Y43075D02*
G03*
X18878Y43075I-203J0D01*
G01*
X16578Y44750D02*
G03*
X16578Y44750I-203J0D01*
G01*
X15528Y40350D02*
G03*
X15528Y40350I-203J0D01*
G01*
X21353Y37400D02*
G03*
X21353Y37400I-203J0D01*
G01*
X21403Y33800D02*
G03*
X21403Y33800I-203J0D01*
G01*
X24253Y40650D02*
G03*
X24253Y40650I-203J0D01*
G01*
X23053Y44250D02*
G03*
X23053Y44250I-203J0D01*
G01*
X22553Y47125D02*
G03*
X22553Y47125I-203J0D01*
G01*
X25428Y44350D02*
G03*
X25428Y44350I-203J0D01*
G01*
X25878Y46975D02*
G03*
X25878Y46975I-203J0D01*
G01*
X19878Y46775D02*
G03*
X19878Y46775I-203J0D01*
G01*
X24753Y55550D02*
G03*
X24753Y55550I-203J0D01*
G01*
X14203Y55525D02*
G03*
X14203Y55525I-203J0D01*
G01*
X15678Y55550D02*
G03*
X15678Y55550I-203J0D01*
G01*
X18653D02*
G03*
X18653Y55550I-203J0D01*
G01*
X20153Y55575D02*
G03*
X20153Y55575I-203J0D01*
G01*
X21628Y55600D02*
G03*
X21628Y55600I-203J0D01*
G01*
X26603Y19750D02*
G03*
X26603Y19750I-203J0D01*
G01*
X26628Y22225D02*
G03*
X26628Y22225I-203J0D01*
G01*
X26578Y25800D02*
G03*
X26578Y25800I-203J0D01*
G01*
X26503Y29925D02*
G03*
X26503Y29925I-203J0D01*
G01*
X20253Y31050D02*
G03*
X20253Y31050I-203J0D01*
G01*
X13283Y31612D02*
G03*
X13283Y31612I-203J0D01*
G01*
X30291Y61604D02*
G03*
X30291Y61604I-203J0D01*
G01*
X31291Y59604D02*
G03*
X31291Y59604I-203J0D01*
G01*
X30291Y57604D02*
G03*
X30291Y57604I-203J0D01*
G01*
X31291Y55604D02*
G03*
X31291Y55604I-203J0D01*
G01*
X30291Y53604D02*
G03*
X30291Y53604I-203J0D01*
G01*
X31291Y51604D02*
G03*
X31291Y51604I-203J0D01*
G01*
X30291Y49604D02*
G03*
X30291Y49604I-203J0D01*
G01*
X31291Y47604D02*
G03*
X31291Y47604I-203J0D01*
G01*
X30291Y45604D02*
G03*
X30291Y45604I-203J0D01*
G01*
X31291Y43604D02*
G03*
X31291Y43604I-203J0D01*
G01*
X30291Y41604D02*
G03*
X30291Y41604I-203J0D01*
G01*
X31291Y39604D02*
G03*
X31291Y39604I-203J0D01*
G01*
X30291Y37604D02*
G03*
X30291Y37604I-203J0D01*
G01*
X31291Y35604D02*
G03*
X31291Y35604I-203J0D01*
G01*
X30291Y33604D02*
G03*
X30291Y33604I-203J0D01*
G01*
X31291Y31604D02*
G03*
X31291Y31604I-203J0D01*
G01*
X30291Y29604D02*
G03*
X30291Y29604I-203J0D01*
G01*
Y25604D02*
G03*
X30291Y25604I-203J0D01*
G01*
Y21604D02*
G03*
X30291Y21604I-203J0D01*
G01*
Y17604D02*
G03*
X30291Y17604I-203J0D01*
G01*
Y13604D02*
G03*
X30291Y13604I-203J0D01*
G01*
Y9604D02*
G03*
X30291Y9604I-203J0D01*
G01*
X28291Y57604D02*
G03*
X28291Y57604I-203J0D01*
G01*
Y53604D02*
G03*
X28291Y53604I-203J0D01*
G01*
Y49604D02*
G03*
X28291Y49604I-203J0D01*
G01*
Y45604D02*
G03*
X28291Y45604I-203J0D01*
G01*
X29291Y43604D02*
G03*
X29291Y43604I-203J0D01*
G01*
Y39604D02*
G03*
X29291Y39604I-203J0D01*
G01*
X28291Y37604D02*
G03*
X28291Y37604I-203J0D01*
G01*
X29291Y35604D02*
G03*
X29291Y35604I-203J0D01*
G01*
X28291Y33604D02*
G03*
X28291Y33604I-203J0D01*
G01*
X29291Y31604D02*
G03*
X29291Y31604I-203J0D01*
G01*
X28291Y29604D02*
G03*
X28291Y29604I-203J0D01*
G01*
X29291Y27604D02*
G03*
X29291Y27604I-203J0D01*
G01*
X28291Y25604D02*
G03*
X28291Y25604I-203J0D01*
G01*
X29291Y23604D02*
G03*
X29291Y23604I-203J0D01*
G01*
X28291Y21604D02*
G03*
X28291Y21604I-203J0D01*
G01*
X29291Y19604D02*
G03*
X29291Y19604I-203J0D01*
G01*
X28291Y17604D02*
G03*
X28291Y17604I-203J0D01*
G01*
Y13604D02*
G03*
X28291Y13604I-203J0D01*
G01*
X29291Y11604D02*
G03*
X29291Y11604I-203J0D01*
G01*
X28291Y9604D02*
G03*
X28291Y9604I-203J0D01*
G01*
X26291Y61604D02*
G03*
X26291Y61604I-203J0D01*
G01*
Y45604D02*
G03*
X26291Y45604I-203J0D01*
G01*
Y17604D02*
G03*
X26291Y17604I-203J0D01*
G01*
Y13604D02*
G03*
X26291Y13604I-203J0D01*
G01*
X27291Y11604D02*
G03*
X27291Y11604I-203J0D01*
G01*
X26291Y9604D02*
G03*
X26291Y9604I-203J0D01*
G01*
X24291Y61604D02*
G03*
X24291Y61604I-203J0D01*
G01*
Y45604D02*
G03*
X24291Y45604I-203J0D01*
G01*
Y37604D02*
G03*
X24291Y37604I-203J0D01*
G01*
Y33604D02*
G03*
X24291Y33604I-203J0D01*
G01*
X25291Y27604D02*
G03*
X25291Y27604I-203J0D01*
G01*
X24291Y25604D02*
G03*
X24291Y25604I-203J0D01*
G01*
X25291Y23604D02*
G03*
X25291Y23604I-203J0D01*
G01*
X24291Y21604D02*
G03*
X24291Y21604I-203J0D01*
G01*
X25291Y19604D02*
G03*
X25291Y19604I-203J0D01*
G01*
X24291Y17604D02*
G03*
X24291Y17604I-203J0D01*
G01*
X25291Y15604D02*
G03*
X25291Y15604I-203J0D01*
G01*
X24291Y13604D02*
G03*
X24291Y13604I-203J0D01*
G01*
X25291Y11604D02*
G03*
X25291Y11604I-203J0D01*
G01*
X24291Y9604D02*
G03*
X24291Y9604I-203J0D01*
G01*
X22291Y61604D02*
G03*
X22291Y61604I-203J0D01*
G01*
X23291Y55604D02*
G03*
X23291Y55604I-203J0D01*
G01*
X22291Y45604D02*
G03*
X22291Y45604I-203J0D01*
G01*
X23291Y27604D02*
G03*
X23291Y27604I-203J0D01*
G01*
Y23604D02*
G03*
X23291Y23604I-203J0D01*
G01*
X22291Y21604D02*
G03*
X22291Y21604I-203J0D01*
G01*
X23291Y19604D02*
G03*
X23291Y19604I-203J0D01*
G01*
X22291Y17604D02*
G03*
X22291Y17604I-203J0D01*
G01*
X23291Y15604D02*
G03*
X23291Y15604I-203J0D01*
G01*
X22291Y13604D02*
G03*
X22291Y13604I-203J0D01*
G01*
X23291Y11604D02*
G03*
X23291Y11604I-203J0D01*
G01*
X22291Y9604D02*
G03*
X22291Y9604I-203J0D01*
G01*
X20291Y61604D02*
G03*
X20291Y61604I-203J0D01*
G01*
X21291Y39604D02*
G03*
X21291Y39604I-203J0D01*
G01*
Y23604D02*
G03*
X21291Y23604I-203J0D01*
G01*
X20291Y21604D02*
G03*
X20291Y21604I-203J0D01*
G01*
X21291Y19604D02*
G03*
X21291Y19604I-203J0D01*
G01*
X20291Y17604D02*
G03*
X20291Y17604I-203J0D01*
G01*
X21291Y15604D02*
G03*
X21291Y15604I-203J0D01*
G01*
X20291Y13604D02*
G03*
X20291Y13604I-203J0D01*
G01*
X21291Y11604D02*
G03*
X21291Y11604I-203J0D01*
G01*
X20291Y9604D02*
G03*
X20291Y9604I-203J0D01*
G01*
X18291Y61604D02*
G03*
X18291Y61604I-203J0D01*
G01*
Y37604D02*
G03*
X18291Y37604I-203J0D01*
G01*
Y25604D02*
G03*
X18291Y25604I-203J0D01*
G01*
X19291Y23604D02*
G03*
X19291Y23604I-203J0D01*
G01*
X18291Y21604D02*
G03*
X18291Y21604I-203J0D01*
G01*
X19291Y19604D02*
G03*
X19291Y19604I-203J0D01*
G01*
X18291Y17604D02*
G03*
X18291Y17604I-203J0D01*
G01*
X19291Y15604D02*
G03*
X19291Y15604I-203J0D01*
G01*
X18291Y13604D02*
G03*
X18291Y13604I-203J0D01*
G01*
X19291Y11604D02*
G03*
X19291Y11604I-203J0D01*
G01*
X18291Y9604D02*
G03*
X18291Y9604I-203J0D01*
G01*
X16291Y61604D02*
G03*
X16291Y61604I-203J0D01*
G01*
X17291Y55604D02*
G03*
X17291Y55604I-203J0D01*
G01*
Y51604D02*
G03*
X17291Y51604I-203J0D01*
G01*
Y27604D02*
G03*
X17291Y27604I-203J0D01*
G01*
X16291Y25604D02*
G03*
X16291Y25604I-203J0D01*
G01*
X17291Y23604D02*
G03*
X17291Y23604I-203J0D01*
G01*
X16291Y21604D02*
G03*
X16291Y21604I-203J0D01*
G01*
X17291Y19604D02*
G03*
X17291Y19604I-203J0D01*
G01*
X16291Y17604D02*
G03*
X16291Y17604I-203J0D01*
G01*
X17291Y15604D02*
G03*
X17291Y15604I-203J0D01*
G01*
X16291Y13604D02*
G03*
X16291Y13604I-203J0D01*
G01*
X17291Y11604D02*
G03*
X17291Y11604I-203J0D01*
G01*
X16291Y9604D02*
G03*
X16291Y9604I-203J0D01*
G01*
X14291Y61604D02*
G03*
X14291Y61604I-203J0D01*
G01*
Y37604D02*
G03*
X14291Y37604I-203J0D01*
G01*
X15291Y27604D02*
G03*
X15291Y27604I-203J0D01*
G01*
X14291Y25604D02*
G03*
X14291Y25604I-203J0D01*
G01*
X15291Y23604D02*
G03*
X15291Y23604I-203J0D01*
G01*
X14291Y21604D02*
G03*
X14291Y21604I-203J0D01*
G01*
X15291Y19604D02*
G03*
X15291Y19604I-203J0D01*
G01*
X14291Y17604D02*
G03*
X14291Y17604I-203J0D01*
G01*
X15291Y15604D02*
G03*
X15291Y15604I-203J0D01*
G01*
X14291Y13604D02*
G03*
X14291Y13604I-203J0D01*
G01*
X15291Y11604D02*
G03*
X15291Y11604I-203J0D01*
G01*
X14291Y9604D02*
G03*
X14291Y9604I-203J0D01*
G01*
X12291Y57604D02*
G03*
X12291Y57604I-203J0D01*
G01*
Y53604D02*
G03*
X12291Y53604I-203J0D01*
G01*
Y49604D02*
G03*
X12291Y49604I-203J0D01*
G01*
Y45604D02*
G03*
X12291Y45604I-203J0D01*
G01*
Y41604D02*
G03*
X12291Y41604I-203J0D01*
G01*
X13291Y39604D02*
G03*
X13291Y39604I-203J0D01*
G01*
X12291Y37604D02*
G03*
X12291Y37604I-203J0D01*
G01*
X13291Y35604D02*
G03*
X13291Y35604I-203J0D01*
G01*
X12291Y33604D02*
G03*
X12291Y33604I-203J0D01*
G01*
Y25604D02*
G03*
X12291Y25604I-203J0D01*
G01*
Y21604D02*
G03*
X12291Y21604I-203J0D01*
G01*
Y17604D02*
G03*
X12291Y17604I-203J0D01*
G01*
X13291Y11604D02*
G03*
X13291Y11604I-203J0D01*
G01*
X12291Y9604D02*
G03*
X12291Y9604I-203J0D01*
G01*
X10291Y61604D02*
G03*
X10291Y61604I-203J0D01*
G01*
Y57604D02*
G03*
X10291Y57604I-203J0D01*
G01*
Y53604D02*
G03*
X10291Y53604I-203J0D01*
G01*
Y49604D02*
G03*
X10291Y49604I-203J0D01*
G01*
Y45604D02*
G03*
X10291Y45604I-203J0D01*
G01*
X11291Y43604D02*
G03*
X11291Y43604I-203J0D01*
G01*
X10291Y41604D02*
G03*
X10291Y41604I-203J0D01*
G01*
X11291Y39604D02*
G03*
X11291Y39604I-203J0D01*
G01*
X10291Y37604D02*
G03*
X10291Y37604I-203J0D01*
G01*
X11291Y35604D02*
G03*
X11291Y35604I-203J0D01*
G01*
X10291Y33604D02*
G03*
X10291Y33604I-203J0D01*
G01*
X11291Y31604D02*
G03*
X11291Y31604I-203J0D01*
G01*
X10291Y29604D02*
G03*
X10291Y29604I-203J0D01*
G01*
X11291Y27604D02*
G03*
X11291Y27604I-203J0D01*
G01*
X10291Y25604D02*
G03*
X10291Y25604I-203J0D01*
G01*
X11291Y23604D02*
G03*
X11291Y23604I-203J0D01*
G01*
X10291Y21604D02*
G03*
X10291Y21604I-203J0D01*
G01*
X11291Y19604D02*
G03*
X11291Y19604I-203J0D01*
G01*
X10291Y17604D02*
G03*
X10291Y17604I-203J0D01*
G01*
X11291Y15604D02*
G03*
X11291Y15604I-203J0D01*
G01*
Y11604D02*
G03*
X11291Y11604I-203J0D01*
G01*
X10291Y9604D02*
G03*
X10291Y9604I-203J0D01*
G01*
X8291Y61604D02*
G03*
X8291Y61604I-203J0D01*
G01*
X9291Y59604D02*
G03*
X9291Y59604I-203J0D01*
G01*
X8291Y57604D02*
G03*
X8291Y57604I-203J0D01*
G01*
X9291Y55604D02*
G03*
X9291Y55604I-203J0D01*
G01*
X8291Y53604D02*
G03*
X8291Y53604I-203J0D01*
G01*
X9291Y51604D02*
G03*
X9291Y51604I-203J0D01*
G01*
X8291Y49604D02*
G03*
X8291Y49604I-203J0D01*
G01*
X9291Y47604D02*
G03*
X9291Y47604I-203J0D01*
G01*
X8291Y45604D02*
G03*
X8291Y45604I-203J0D01*
G01*
X9291Y43604D02*
G03*
X9291Y43604I-203J0D01*
G01*
X8291Y41604D02*
G03*
X8291Y41604I-203J0D01*
G01*
X9291Y39604D02*
G03*
X9291Y39604I-203J0D01*
G01*
X8291Y37604D02*
G03*
X8291Y37604I-203J0D01*
G01*
X9291Y35604D02*
G03*
X9291Y35604I-203J0D01*
G01*
X8291Y33604D02*
G03*
X8291Y33604I-203J0D01*
G01*
X9291Y31604D02*
G03*
X9291Y31604I-203J0D01*
G01*
Y19604D02*
G03*
X9291Y19604I-203J0D01*
G01*
X20028Y32600D02*
G03*
X20028Y32600I-203J0D01*
G01*
X25843Y31438D02*
G03*
X25843Y31438I-203J0D01*
G01*
X25792Y18280D02*
G03*
X25792Y18280I-203J0D01*
G01*
X29373Y59454D02*
G03*
X29373Y59454I-203J0D01*
G01*
X14895D02*
G03*
X14895Y59454I-203J0D01*
G01*
X11390Y59428D02*
G03*
X11390Y59428I-203J0D01*
G01*
X18655Y28288D02*
G03*
X18655Y28288I-203J0D01*
G01*
X13575Y13150D02*
G03*
X13575Y13150I-203J0D01*
G01*
X24967Y41808D02*
G03*
X24967Y41808I-203J0D01*
G01*
X25132Y30828D02*
G03*
X25132Y30828I-203J0D01*
G01*
X27367Y15740D02*
G03*
X27367Y15740I-203J0D01*
G01*
X25208Y28440D02*
G03*
X25208Y28440I-203J0D01*
G01*
X27341Y31895D02*
G03*
X27341Y31895I-203J0D01*
G01*
X20001Y41242D02*
G03*
X20001Y41242I-203J0D01*
G01*
X14870Y45535D02*
G03*
X14870Y45535I-203J0D01*
G01*
X13549Y45179D02*
G03*
X13549Y45179I-203J0D01*
G01*
X15556Y46678D02*
G03*
X15556Y46678I-203J0D01*
G01*
X12914Y43909D02*
G03*
X12914Y43909I-203J0D01*
G01*
X13575Y51529D02*
G03*
X13575Y51529I-203J0D01*
G01*
X14946Y53065D02*
G03*
X14946Y53065I-203J0D01*
G01*
M02*
